<svg width="255" height="206" viewBox="0 0 255 206" fill="none" xmlns="http://www.w3.org/2000/svg">
<path d="M251.733 205.091H3.03903C1.36756 205.091 0 203.746 0 202.101V190.389C0 188.744 1.36756 187.398 3.03903 187.398H251.733C253.404 187.398 254.772 188.744 254.772 190.389V202.101C254.772 203.746 253.404 205.091 251.733 205.091Z" fill="#F7F7F7"/>
<path d="M129.414 191.636C176.13 191.636 214.001 154.372 214.001 108.404C214.001 62.4361 176.13 25.1719 129.414 25.1719C82.6987 25.1719 44.8281 62.4361 44.8281 108.404C44.8281 154.372 82.6987 191.636 129.414 191.636Z" fill="#F3FAFF"/>
<path d="M234.266 167.19C236.064 162.68 237.888 157.671 236.191 153.135C235.786 152.039 235.153 150.868 235.532 149.746C236.039 148.226 238.065 147.703 238.723 146.257C239.483 144.663 238.293 142.819 238.597 141.099C238.901 139.355 240.648 138.208 242.345 137.585C244.042 136.962 245.891 136.564 247.258 135.417C249.867 133.175 249.563 129.162 248.98 125.773C248.398 122.409 247.967 118.422 250.474 116.055C245.865 116.927 241.155 117.824 237.153 120.216C233.152 122.609 229.961 126.845 230.189 131.455C230.315 133.773 231.227 136.24 230.164 138.283C228.999 140.501 225.884 141.373 225.098 143.741C224.187 146.457 226.897 148.949 227.96 151.615C228.973 154.132 228.492 156.948 228.72 159.614C228.948 162.306 230.366 165.346 233.076 165.745L234.266 167.19Z" fill="#6236FF"/>
<g opacity="0.31">
<path d="M234.266 167.19C236.064 162.68 237.888 157.671 236.191 153.135C235.786 152.039 235.153 150.868 235.532 149.746C236.039 148.226 238.065 147.703 238.723 146.257C239.483 144.663 238.293 142.819 238.597 141.099C238.901 139.355 240.648 138.208 242.345 137.585C244.042 136.962 245.891 136.564 247.258 135.417C249.867 133.175 249.563 129.162 248.98 125.773C248.398 122.409 247.967 118.422 250.474 116.055C245.865 116.927 241.155 117.824 237.153 120.216C233.152 122.609 229.961 126.845 230.189 131.455C230.315 133.773 231.227 136.24 230.164 138.283C228.999 140.501 225.884 141.373 225.098 143.741C224.187 146.457 226.897 148.949 227.96 151.615C228.973 154.132 228.492 156.948 228.72 159.614C228.948 162.306 230.366 165.346 233.076 165.745L234.266 167.19Z" fill="white"/>
</g>
<path d="M232.407 161.286C232.356 148.178 234.939 120.741 250.312 116.156" stroke="white" stroke-width="0.75" stroke-miterlimit="10" stroke-linecap="round"/>
<path d="M223.55 166.088C220.815 161.054 217.978 155.447 219.32 149.89C219.65 148.544 220.207 147.099 219.624 145.828C218.839 144.133 216.383 143.76 215.395 142.165C214.306 140.42 215.42 138.078 214.813 136.109C214.205 134.091 212.001 133.019 209.95 132.496C207.899 131.997 205.67 131.798 203.897 130.602C200.529 128.334 200.326 123.575 200.529 119.562C200.732 115.55 200.681 110.816 197.414 108.398C202.935 108.797 208.582 109.221 213.597 111.488C218.611 113.756 222.967 118.292 223.322 123.724C223.499 126.44 222.765 129.456 224.309 131.723C225.981 134.165 229.754 134.764 231.021 137.43C232.464 140.495 229.653 143.76 228.767 147.024C227.956 150.089 228.893 153.329 228.995 156.494C229.096 159.658 227.855 163.421 224.74 164.269L223.55 166.088Z" fill="#6236FF"/>
<path d="M224.892 158.909C223.12 143.533 216.282 111.761 197.617 108.496" stroke="white" stroke-width="0.75" stroke-miterlimit="10" stroke-linecap="round"/>
<path d="M240.851 195.621H216.792C215.12 195.621 213.753 194.275 213.753 192.63L211.727 158.49C211.727 156.846 213.094 155.5 214.766 155.5H242.877C244.548 155.5 245.916 156.846 245.916 158.49L243.89 192.63C243.89 194.275 242.522 195.621 240.851 195.621Z" fill="#CCE9FF"/>
<path d="M38.2039 84.8793L22.6797 87.1953L33.2333 155.689L48.7575 153.373L38.2039 84.8793Z" fill="#6236FF"/>
<path d="M38.1996 84.885L30.4375 86.043L40.9911 154.537L48.7532 153.379L38.1996 84.885Z" fill="#6236FF"/>
<path d="M38.2197 84.9518L22.6953 87.2693L26.3421 78.0739L28.4188 72.8906L31.9643 77.2516L38.2197 84.9518Z" fill="#FFEBC2"/>
<path d="M31.9581 77.2516L26.3359 78.0739L28.4126 72.8906L31.9581 77.2516Z" fill="#0E538C"/>
<path d="M66.3107 70.5772L50.6719 69.1992L44.3928 138.199L60.0316 139.577L66.3107 70.5772Z" fill="#6236FF"/>
<path d="M66.3194 70.5835L58.5 69.8945L52.2209 138.894L60.0403 139.583L66.3194 70.5835Z" fill="#6236FF"/>
<path d="M66.3151 70.6494L50.6641 69.2789L56.4382 61.2049L59.7052 56.6445L62.0857 61.7033L66.3151 70.6494Z" fill="#FFEBC2"/>
<path d="M62.0928 61.7033L56.4453 61.2049L59.7123 56.6445L62.0928 61.7033Z" fill="#0E538C"/>
<path d="M76.6069 195.869H14.9147L6.83594 101.922H81.5454L76.6069 195.869Z" fill="#CCE9FF"/>
<path opacity="0.5" d="M44.1875 195.869H76.6038L81.5422 101.922H44.1875V195.869Z" fill="#CCE9FF"/>
<path d="M214.505 169.355H57.7422V190.562H214.505V169.355Z" fill="#FFEBC2"/>
<path d="M58.3999 169.357V190.564H222.862V192.159C222.862 194.127 221.114 195.722 218.962 195.722H59.109C54.0186 195.722 49.8906 191.984 49.8906 187.349V173.17C49.8906 168.535 54.0186 164.797 59.109 164.797H218.962C221.114 164.797 222.862 166.392 222.862 168.36V169.382H58.3999V169.357Z" fill="#6236FF"/>
<path d="M214.505 178.797H57.7422V190.534H214.505V178.797Z" fill="#FFEBC2"/>
<path d="M205.394 143.539H78.0078V161.98H205.394V143.539Z" fill="#CCE9FF"/>
<path d="M78.0097 143.54V161.981H210.207V163.377C210.207 165.096 208.789 166.467 207.067 166.467H78.5668C74.4895 166.467 71.1719 163.202 71.1719 159.19V146.855C71.1719 142.843 74.4895 139.578 78.5668 139.578H207.067C208.789 139.578 210.207 140.974 210.207 142.668V143.565H78.0097V143.54Z" fill="#2A94F4"/>
<path d="M133.06 80.7685C131.312 78.5008 131.16 75.3859 132.806 73.0185C134.123 71.1246 135.01 68.7821 134.908 67.0627C134.706 63.9726 132.756 61.1317 130.097 59.4372C126.602 57.1944 121.942 56.8705 118.168 58.6149C114.395 60.3592 111.66 64.0972 111.179 68.1591C110.824 71.0747 111.508 74.2645 109.988 76.8063C108.874 78.6254 106.823 79.697 104.797 80.4197C102.745 81.1174 100.593 81.5909 98.7186 82.6624C96.8445 83.734 95.249 85.5781 95.2744 87.7212C95.2997 89.3409 96.2367 90.8361 96.338 92.431C96.49 94.7735 94.8185 96.8418 93.0458 98.3868C91.2477 99.9318 89.1963 101.278 87.9807 103.296C85.98 106.635 86.917 111.146 89.4496 114.136C91.9821 117.126 95.7809 118.796 99.5797 119.768C109.963 122.459 120.904 120.715 131.616 120.541C134.934 120.491 138.327 120.59 141.544 119.768C144.76 118.946 147.9 117.052 149.242 114.061C150.61 111.071 149.926 107.433 148.103 104.716C146.279 102 143.418 100.032 140.404 98.636C138.226 97.6143 135.896 96.8169 134.123 95.222C132.351 93.6271 131.312 90.9109 132.502 88.8425C132.958 88.0451 133.718 87.4221 134.149 86.6247C135.01 85.0796 134.655 83.111 133.693 81.6158C133.515 81.3666 133.313 81.0925 133.06 80.7685Z" fill="#0E538C"/>
<path d="M205.378 151.762H77.9922V161.979H205.378V151.762Z" fill="#CCE9FF"/>
<path d="M135.485 125.594L151.187 136.558L170.434 175.683H166.888L145.362 141.044C145.362 141.044 138.018 141.293 135.485 139.05C132.953 136.808 118.391 127.089 118.391 127.089L135.485 125.594Z" fill="#0B4870"/>
<path d="M107.711 122.453C104.85 130.079 106.876 140.794 116.499 141.292C126.123 141.791 129.162 141.292 129.162 141.292L147.903 178.672H152.208L137.519 136.807L119.665 127.088L107.711 122.453Z" fill="#0E538C"/>
<path d="M122.316 78.9922C124.849 82.2318 130.927 91.2029 133.206 101.171C135.486 111.139 141.817 125.592 141.817 125.592H134.473L127.381 101.918L120.797 79.7398L122.316 78.9922Z" fill="#4EA3FB"/>
<path d="M130.123 65.7637C130.503 71.8691 127.793 76.0556 123.918 76.255C120.043 76.4543 117.511 70.9221 118.676 65.7637C121.386 61.1785 125.083 60.8047 125.083 60.8047H127.413L130.123 65.7637Z" fill="#FFE3CA"/>
<path d="M127.544 62.123C126.835 64.2661 125.265 66.1102 123.239 67.1568C121.213 68.2035 118.781 68.4526 116.578 67.8047L122.099 60.0547H126.835L131.368 63.5933L130.684 67.6552C128.912 66.3345 127.544 62.123 127.544 62.123Z" fill="#0E538C"/>
<path d="M122.752 75.5311C121.941 78.6212 122.195 81.8607 122.195 82.3591C121.435 83.3559 117.889 83.1067 117.383 79.618C118.143 75.1324 119.662 70.1484 119.662 70.1484L120.928 72.8896L122.752 75.5311Z" fill="#FFE3CA"/>
<path d="M117.895 76.9766C114.729 77.9983 104.092 82.733 103.586 83.7298C104.346 86.471 108.144 127.09 108.144 127.09H125.366C125.366 127.09 123.086 104.662 124.353 103.167C125.619 101.672 129.671 96.4389 129.164 95.6913C128.658 94.9437 122.225 78.8705 122.225 78.8705L117.895 76.9766Z" fill="#2A94F4"/>
<path d="M103.58 83.7305C101.098 85.5995 90.6643 102.42 93.9566 111.391C97.2488 120.363 108.012 125.646 108.012 125.646V120.711C108.012 120.711 99.2749 113.883 99.7814 108.899C100.288 103.915 106.366 93.6984 106.366 93.6984L103.58 83.7305Z" fill="#4EA3FB"/>
<path d="M144.388 129.958H107.109C105.944 129.958 104.982 129.011 104.982 127.865L103.969 104.39C103.969 103.244 104.931 102.297 106.096 102.297H144.894C146.059 102.297 147.022 103.244 147.022 104.39L146.515 127.865C146.515 129.011 145.553 129.958 144.388 129.958Z" fill="#6236FF"/>
<path d="M151.596 178.672C154.103 179.22 157.497 181.936 159.117 183.332C159.447 183.606 159.244 184.154 158.788 184.154C156.18 184.104 150.279 183.83 148.911 182.684C147.139 181.189 147.645 178.697 147.645 178.697H151.596V178.672Z" fill="#1A87D8"/>
<path d="M170.383 175.581C172.612 176.179 175.55 178.721 177.019 180.091C177.348 180.39 177.095 180.914 176.664 180.889C174.208 180.714 168.94 180.241 167.75 179.119C166.179 177.674 166.762 175.406 166.762 175.406L170.383 175.581Z" fill="#1A87D8"/>
<path d="M125.611 119.867C127.709 119.867 129.41 118.193 129.41 116.129C129.41 114.064 127.709 112.391 125.611 112.391C123.513 112.391 121.812 114.064 121.812 116.129C121.812 118.193 123.513 119.867 125.611 119.867Z" fill="white"/>
<path d="M92.1861 169.206L87.3743 166.464L82.5625 169.206V151.762H92.1861V169.206Z" fill="#6236FF"/>
<path d="M166.792 65.914C166.792 66.3875 166.615 66.8111 166.311 67.16C166.615 67.484 166.792 67.9325 166.792 68.406V69.951C166.792 70.275 166.691 70.5989 166.539 70.8731C166.691 71.1472 166.792 71.4711 166.792 71.7951V73.3401C166.792 74.3618 165.956 75.1842 164.918 75.1842H148.608C147.57 75.1842 146.734 74.3618 146.734 73.3401V71.7702C146.734 71.4462 146.836 71.1222 146.988 70.8481C146.836 70.574 146.734 70.25 146.734 69.9261V68.3811C146.734 67.9076 146.912 67.484 147.216 67.1351C146.912 66.8111 146.734 66.3626 146.734 65.8891V64.3441C146.734 63.3224 147.57 62.5 148.608 62.5H164.918C165.956 62.5 166.792 63.3224 166.792 64.3441V65.914Z" fill="#6236FF"/>
<path d="M179.811 30.9739C179.811 39.9699 174.492 47.72 166.793 51.4081V59.7811C166.793 60.4041 166.262 60.9275 165.629 60.9275H147.901C147.268 60.9275 146.736 60.4041 146.736 59.7811V51.4081C139.037 47.7449 133.719 39.9699 133.719 30.9739C133.719 18.4392 144.026 8.29688 156.765 8.29688C169.503 8.29688 179.811 18.4641 179.811 30.9739Z" fill="#6236FF"/>
<path opacity="0.23" d="M164.612 67.2812H149.164" stroke="#7F7F7F" stroke-width="2" stroke-miterlimit="10" stroke-linecap="round"/>
<path opacity="0.23" d="M164.612 70.7734H149.164" stroke="#7F7F7F" stroke-width="2" stroke-miterlimit="10" stroke-linecap="round"/>
<path d="M160.718 33.7645C160.439 33.5153 160.034 33.3907 159.603 33.4405C159.071 33.4904 158.565 33.7894 158.236 34.213C157.957 34.5868 157.805 35.0354 157.729 35.459C157.501 35.3344 157.248 35.2098 157.02 35.0603L156.944 35.0105H156.615L156.539 35.0603C156.286 35.2098 156.058 35.3344 155.83 35.459C155.754 35.0354 155.602 34.5868 155.323 34.213C155.019 33.7894 154.488 33.4904 153.956 33.4405C153.525 33.3907 153.145 33.5153 152.841 33.7645C152.462 34.1133 152.335 34.6117 152.462 35.1351C152.664 35.8328 153.247 36.406 153.93 36.5306C154.361 36.6053 154.766 36.5804 155.197 36.4807C155.83 44.5797 156.083 52.7783 155.906 60.8772H156.666C156.843 52.7533 156.59 44.5298 155.956 36.4309C155.956 36.3561 155.956 36.2814 155.931 36.2066C156.235 36.082 156.514 35.9325 156.792 35.7581C157.071 35.9076 157.349 36.082 157.653 36.2066C157.653 36.2814 157.653 36.3561 157.628 36.4309C156.995 44.5298 156.742 52.7533 156.919 60.8772H157.679C157.501 52.7783 157.755 44.5547 158.388 36.4807C158.793 36.5804 159.223 36.6302 159.654 36.5306C160.312 36.406 160.92 35.8328 161.123 35.1351C161.224 34.6117 161.097 34.1133 160.718 33.7645ZM154.057 35.8328C153.677 35.7581 153.297 35.3843 153.171 34.9606C153.12 34.7862 153.095 34.5121 153.323 34.3376C153.449 34.213 153.627 34.1881 153.753 34.1881C153.778 34.1881 153.804 34.1881 153.854 34.1881C154.158 34.213 154.488 34.3875 154.69 34.6616C154.918 34.9606 155.045 35.3344 155.095 35.7581C154.741 35.8577 154.412 35.8826 154.057 35.8328ZM160.363 34.9606C160.236 35.3843 159.882 35.7581 159.477 35.8328C159.147 35.9076 158.793 35.8577 158.464 35.7581C158.54 35.3344 158.641 34.9606 158.869 34.6616C159.046 34.4124 159.375 34.238 159.705 34.1881C159.857 34.1632 160.059 34.1881 160.236 34.3376C160.414 34.5121 160.388 34.7862 160.363 34.9606Z" fill="white"/>
<path d="M150.692 12.4609C145.121 14.4545 136.004 21.6813 136.763 33.3936" stroke="white" stroke-width="4" stroke-miterlimit="10" stroke-linecap="round"/>
<path d="M120.161 53.0763C123.728 53.0763 126.619 50.2312 126.619 46.7217C126.619 43.2122 123.728 40.3672 120.161 40.3672C116.594 40.3672 113.703 43.2122 113.703 46.7217C113.703 50.2312 116.594 53.0763 120.161 53.0763Z" fill="#6236FF"/>
<path d="M189.303 28.6612C190.912 28.6612 192.215 27.3782 192.215 25.7955C192.215 24.2127 190.912 22.9297 189.303 22.9297C187.695 22.9297 186.391 24.2127 186.391 25.7955C186.391 27.3782 187.695 28.6612 189.303 28.6612Z" fill="#6236FF"/>
<path d="M179.812 75.5086C182.469 75.5086 184.624 73.3888 184.624 70.7738C184.624 68.1589 182.469 66.0391 179.812 66.0391C177.154 66.0391 175 68.1589 175 70.7738C175 73.3888 177.154 75.5086 179.812 75.5086Z" fill="#6236FF"/>
<path d="M133.718 9.46952C136.376 9.46952 138.53 7.34969 138.53 4.73476C138.53 2.11982 136.376 0 133.718 0C131.061 0 128.906 2.11982 128.906 4.73476C128.906 7.34969 131.061 9.46952 133.718 9.46952Z" fill="#6236FF"/>
<path opacity="0.14" d="M92.1861 169.206L87.3743 166.464L82.5625 169.206V151.762H92.1861V169.206Z" fill="#0C0C0C"/>
</svg>
