<svg fill="none" height="503" viewBox="0 0 962 503" width="962" xmlns="http://www.w3.org/2000/svg" xmlns:xlink="http://www.w3.org/1999/xlink"><linearGradient id="a" gradientUnits="userSpaceOnUse" x1="633.957" x2="633.957" y1="371.005" y2="50.1056"><stop offset="0" stop-color="#a8c4e5"/><stop offset=".0410769" stop-color="#b2cbe8"/><stop offset=".181" stop-color="#cedef0"/><stop offset=".3319" stop-color="#e4ecf7"/><stop offset=".4972" stop-color="#f3f7fb"/><stop offset=".6877" stop-color="#fcfdfe"/><stop offset=".9606" stop-color="#fff"/></linearGradient><linearGradient id="b" gradientUnits="userSpaceOnUse" x1="359.921" x2="681.424" y1="354.022" y2="354.022"><stop offset=".0394089" stop-color="#fff"/><stop offset=".2731" stop-color="#fbfcfe"/><stop offset=".5059" stop-color="#eff4fa"/><stop offset=".7384" stop-color="#dbe7f4"/><stop offset=".9695" stop-color="#bfd4ec"/><stop offset="1" stop-color="#bbd1eb"/></linearGradient><path d="m848.245 483.055-67.36-38.883c-3.534-2.067-3.068-5.668 1.001-8.003l64.825-37.414c4.069-2.335 10.338-2.602 13.872-.601l67.36 38.882c3.535 2.068 3.068 5.669-1 8.004l-64.826 37.414c-4.135 2.335-10.337 2.601-13.872.601z" stroke="#dbefff" stroke-miterlimit="10" stroke-width="3.4504"/><path d="m74.4015 338.599-67.36001-38.882c-3.53473-2.067-3.06788-5.669 1.0004-8.003l64.82571-37.415c4.0682-2.334 10.3374-2.601 13.8721-.6l67.3603 38.882c3.534 2.068 3.068 5.669-1.001 8.003l-64.8253 37.415c-4.135 2.401-10.3375 2.601-13.8722.6z" stroke="#dbefff" stroke-miterlimit="10" stroke-width="3.4504"/><path d="m71.7374 299.717-67.35997-38.882c-3.534731-2.068-3.06788-5.669 1.0004-8.004l64.82567-37.414c4.0683-2.335 10.3374-2.601 13.8722-.601l67.3603 38.882c3.534 2.068 3.068 5.669-1.001 8.004l-64.8254 37.414c-4.0683 2.335-10.3374 2.601-13.8722.601z" stroke="#dbefff" stroke-miterlimit="10" stroke-width="3.4504"/><path d="m729.856 382.019-227.223-131.185 85.1-47.152 183.873 114.712c15.339 9.604 14.806 32.146-1 40.949z" fill="#a8c4e5" opacity=".4"/><path d="m666.647 293.854s-1.2.666-1.267.8c-.067.067-.467.533-.667.667-.133.133-.6.533-.734.6-.266.2-53.354 32.88-53.354 32.88v8.736l52.554-32.279c.267-.2.534-.333.8-.534.067-.066.134-.133.267-.2.134-.133.334-.266.467-.4.2-.2.334-.333.534-.533.066-.067.066-.067.133-.134.067-.066.133-.133.133-.2.067-.066.067-.133.134-.133.133-.134.2-.267.333-.467 0-.067.067-.133.134-.133 0-.067.066-.067.066-.134.067-.133.134-.267.2-.4 0-.067.067-.133.067-.2 0 0 0-.067 0-.133.067-.134.067-.267.134-.401 0-.066.066-.133.066-.2v-.066c0-.134.067-.267.067-.4 0-.067 0-.134 0-.201 0-.066 0-.066 0-.133z" fill="#a8c4e5"/><path d="m610.425 328.866c-.333.2-.733.4-1.133.601-.134.066-.267.133-.334.133-.4.2-.867.333-1.334.467h-.067c-.4.133-.733.2-1.133.333-.067 0-.134 0-.2.067-.334.067-.667.133-1.001.2-.066 0-.066 0-.133 0-.467.067-.867.133-1.334.2-.2 0-.333 0-.534.067-.266 0-.533.067-.8.067-.2 0-.4 0-.533 0-.2 0-.467 0-.667 0s-.401 0-.601 0-.4 0-.667-.067c-.2 0-.4 0-.6-.067-.2 0-.4-.067-.6-.067s-.4-.066-.6-.066c-.2-.067-.467-.067-.667-.134-.2-.066-.4-.066-.534-.133-.266-.067-.533-.133-.8-.2-.133-.067-.267-.067-.467-.134-.467-.133-.934-.266-1.4-.466-.201-.067-.467-.2-.667-.267-.134-.067-.2-.067-.334-.134-.333-.133-.667-.333-.934-.466l-40.749-23.476c-2.534-1.468-3.735-.667-3.735-2.601v6.069c0 1.867 1.267 3.801 3.735 5.268l40.749 23.476c.334.201.601.334.934.467.134.067.2.067.334.134.2.066.4.2.533.266h.067c.467.201.934.334 1.4.467h.067c.134 0 .267.067.334.067.266.067.533.133.8.2.067 0 .133 0 .2.067.133 0 .267.066.4.066.2.067.467.067.667.134.067 0 .133 0 .2.067.134 0 .267 0 .4.066.2 0 .4.067.601.067h.266.334c.2 0 .4 0 .667.067h.267.333.667.267.266c.267 0 .534 0 .801-.067h.333.2c.467-.067.934-.133 1.334-.2h.134c.333-.067.666-.134 1-.2.067 0 .133 0 .2-.067.4-.067.8-.2 1.134-.333h.066c.467-.134.868-.334 1.334-.534.134-.067.267-.133.334-.133.4-.2.733-.4 1.134-.601.066 0 .066-.066.133-.066l.067-.067v-8.737c0 .134-.067.134-.134.2z" fill="#a8c4e5"/><path d="m662.856 288.987c4.868 2.801 5.002 7.403.333 10.271l-52.554 32.279c-4.935 3.001-13.205 3.068-18.274.134l-40.75-23.476c-5.068-2.935-5.001-7.737.201-10.605l55.555-30.545c5.002-2.734 12.872-2.668 17.74.133z" fill="#f5f9ff"/><path d="m573.492 285.648 57.356 33.48 13.539-8.137-56.623-32.88z" fill="#659adb"/><path d="m630.836 319.131v5.936l17.073-10.538v-5.468z" fill="#45446c" opacity=".29"/><path d="m784.692 199.412c0-.067 0-.067 0 0 0-.134 0-.2 0-.334 0-.066 0-.2 0-.266 0 0 0 0 0-.067 0 0 0 0 0-.067 0-.066 0-.133 0-.2s0-.2 0-.267c0-.066 0-.066 0-.133v-.067-.066c0-.067 0-.2-.067-.267 0-.067-.066-.2-.066-.267s-.067-.2-.067-.267c0-.066-.067-.2-.067-.267v-.066-.067c0-.067 0-.067-.066-.133 0-.067-.067-.2-.067-.267s-.067-.133-.067-.2-.066-.134-.066-.267c0-.067-.067-.133-.067-.267 0 0 0-.066-.067-.066 0 0 0 0 0-.067 0 0 0-.067-.066-.067-.067-.066-.067-.133-.134-.267-.066-.066-.067-.133-.133-.266 0 0 0 0 0-.067-.067-.067-.067-.2-.134-.267-.066-.066-.066-.133-.133-.2 0-.067-.067-.133-.067-.133s0-.067-.066-.067c-.067-.133-.134-.267-.2-.333 0-.067-.067-.067-.067-.134-.134-.133-.2-.333-.334-.467 0 0 0-.066-.066-.066 0 0 0-.067-.067-.067-.067-.067-.067-.133-.133-.133-.067-.067-.134-.134-.2-.267l-.067-.067s0 0-.067-.067l-.067-.066c-.066-.067-.133-.134-.2-.2-.066-.067-.133-.134-.133-.134-.067-.066-.133-.133-.2-.2-.067-.066-.133-.133-.2-.2s-.134-.133-.2-.2c-.067-.067-.134-.133-.267-.2 0 0 0 0-.067 0-.066-.067-.133-.067-.2-.133-.066-.067-.133-.134-.267-.201 0 0-.066 0-.066-.066-.067 0-.067-.067-.134-.067-.066-.067-.2-.133-.266-.133 0 0-1.334-.801-1.401-.801l-7.47 4.069s1.801 1.067 1.868 1.067c.067.066.2.133.267.133.066.067.2.134.266.2.067.067.134.134.267.2.067 0 .067.067.133.067.134.133.267.2.401.333.133.134.266.201.4.334 0 0 0 0 .067.067.133.133.2.266.333.333l.067.067c.133.133.2.267.333.4l.067.067c.133.133.2.266.267.4.066.067.066.133.133.2s.133.133.2.267c.067.066.133.2.2.266.067.067.067.134.134.201.066.066.066.133.066.2.067.133.134.2.2.333 0 0 0 .067.067.067.067.133.133.267.2.467v.066c.067.134.133.334.2.467v.067c.067.133.134.333.2.467v.066c.067.134.134.334.134.467v.067c.066.133.066.333.133.467v.066c.067.134.067.334.067.467v.067c0 .133.066.333.066.467v.067c0 .133 0 .333.067.466v.2.267.267.267.333c0 .067 0 .134-.067.267 0 0 0 .133-.066.4l-25.944 160.13c-.133.734-3.068 5.602-2.401 5.269l7.07-6.002c1.467-1.268 2.467-3.068 2.801-5.002l25.143-157.463c.133-.733.333-1.934.333-1.934 0-.066 0-.133.067-.267 0-.066 0-.133 0-.2v-.066c0-.067 0-.2 0-.267s0-.133 0-.2z" fill="#659adb"/><path d="m772.545 194.676c3.401 1.934 5.668 6.403 5.068 10.004l-26.277 162.465c-.6 3.601-3.801 4.935-7.136 2.934l-248.832-143.657c-3.401-1.934-5.669-6.402-5.069-10.004l26.277-162.4641c.601-3.6015 3.802-4.9353 7.137-2.9345z" fill="url(#a)"/><path d="m781.223 170.735-246.631-142.3894-.4-.2001c-.267-.1334-.6-.3335-.667-.4002s-.2-.0667-.267-.1333c-.066-.0667-.2-.0667-.266-.1334-.067-.0667-.2-.0667-.267-.1334s-.2-.0667-.267-.1334c-.067 0-.2-.0667-.267-.0667-.066 0-.2-.0667-.267-.0667-.066 0-.133-.0667-.266-.0667-.067 0-.067 0-.134 0-.066 0-.066 0-.133 0h-.067c-.133 0-.2 0-.333 0-.134 0-.267 0-.334 0 0 0 0 0-.066 0-.067 0-.134 0-.134 0-.066 0-.133 0-.2 0h-.067c-.066 0-.2 0-.266.0667-.067 0-.067 0-.134 0-.133.0667-.333.0667-.467.1334 0 0 0 0-.066 0 0 0 0 0-.067 0-.2.0667-.4.1334-.6.2668l-7.27 4.2016c.2-.1334.4-.2001.601-.2667.066 0 .133-.0667.266-.0667.067 0 .2-.0667.267-.0667.133 0 .2-.0667.334-.0667h.133.533.067c.2 0 .334 0 .534.0667h.066c.201 0 .401.0667.601.1334h.066c.2.0666.4.1333.601.2h.066c.2.0667.4.2001.601.2668.066.0667.2.0667.266.1334.067.0667.134.0667.2.1334l1.334.8003 247.031 142.5896c.267.134.601.134.934 0l5.402-3.134c.6-.401.6-1.334 0-1.668z" fill="#b5cfea"/><path d="m787.692 180.472c0-.133 0-.2 0-.333 0-.067 0-.2 0-.267 0 0 0 0 0-.067 0 0 0 0 0-.066 0-.067 0-.134 0-.201 0-.066 0-.2 0-.266 0-.067 0-.067 0-.134v-.066-.067c0-.067 0-.2-.067-.267 0-.067-.066-.2-.066-.267 0-.066-.067-.2-.067-.266 0-.067-.067-.201-.067-.267v-.067-.067c0-.066 0-.066-.066-.133 0-.067-.067-.2-.067-.267 0-.066-.067-.133-.067-.2s-.066-.133-.066-.267c0-.066-.067-.133-.067-.266 0 0 0-.067-.067-.067 0 0 0 0 0-.067 0 0 0-.066-.066-.066-.067-.067-.067-.134-.134-.267-.066-.067-.067-.134-.133-.267 0 0 0 0 0-.067-.067-.066-.067-.2-.134-.266-.066-.067-.066-.134-.133-.201 0-.066-.067-.133-.067-.133s0-.067-.066-.067c-.067-.133-.134-.266-.2-.333 0-.067-.067-.067-.067-.133-.134-.134-.2-.334-.334-.467 0 0 0-.067-.066-.067 0 0 0-.067-.067-.067-.067-.066-.067-.133-.133-.133-.067-.067-.134-.133-.2-.267l-.067-.067s0 0-.067-.066l-.067-.067c-.066-.067-.133-.133-.2-.2-.066-.067-.133-.133-.133-.133-.067-.067-.133-.134-.2-.2-.067-.067-.133-.134-.2-.201-.067-.066-.134-.133-.2-.2-.067-.066-.134-.133-.267-.2 0 0 0 0-.067 0-.066-.066-.133-.066-.2-.133-.066-.067-.133-.134-.267-.2 0 0-.066 0-.066-.067-.067 0-.067-.067-.134-.067-.066-.066-.2-.133-.266-.133l-6.003-3.468-7.403 4.468s6.336 3.335 6.403 3.402c.067.066.2.133.267.133.066.067.2.134.266.2.067.067.134.134.267.2.067 0 .067.067.133.067.134.133.267.2.401.333.133.134.266.201.4.334 0 0 0 0 .067.067.133.133.2.266.333.333l.067.067c.133.133.2.267.333.4l.067.067c.133.133.2.266.267.4.066.066.066.133.133.2s.133.133.2.267c.067.066.133.2.2.266.067.067.067.134.134.201.066.066.066.133.066.2.067.133.134.2.2.333 0 0 0 .067.067.067.067.133.133.267.2.467v.066c.067.134.133.334.2.467v.067c.067.133.134.333.2.467v.066c.067.134.134.334.134.467v.067c.066.133.066.333.133.467v.066c.067.134.067.334.067.467v.067c0 .133.066.333.066.467v.067c0 .133 0 .333.067.466v.2.267.267.267.333c0 .067 0 .134-.067.267 0 0 0 .133-.066.4l-25.944 160.13c-.133.734-3.068 5.602-2.401 5.269l7.07-6.002c1.467-1.268 2.467-3.068 2.801-5.002l25.41-157.129c.133-.734.333-1.934.333-1.934 0-.067 0-.134.067-.267 0-.067 0-.133 0-.2v-.067c0-.067 0-.2 0-.267-.267-.466-.267-.533-.267-.6z" fill="#659adb"/><path d="m775.287 175.735c3.401 1.934 5.669 6.402 5.068 10.004l-26.277 162.464c-.6 3.602-3.801 4.935-7.136 2.935l-248.832-143.657c-3.401-1.934-5.669-6.403-5.068-10.004l26.277-162.4645c.6-3.6015 3.801-4.9353 7.136-2.9345z" fill="#2f29c2"/><path d="m785.622 143.724-246.631-142.39014-.4-.20008c-.267-.13339-.601-.333469-.667-.400162-.067-.066693-.2-.066691-.267-.133384s-.2-.066691-.267-.133384c-.067-.066694-.2-.066691-.267-.133385-.066-.066693-.2-.066701-.266-.133394-.067 0-.201-.066687-.267-.066687-.067 0-.2-.066697-.267-.066697s-.133-.066687-.267-.066687c-.067 0-.067 0-.133 0-.067 0-.067 0-.134 0h-.066c-.134 0-.2 0-.334 0-.133 0-.267 0-.333 0 0 0 0 0-.067 0s-.133 0-.133 0c-.067 0-.134 0-.2 0h-.067c-.067 0-.2-.00000611-.267.066687-.067 0-.067 0-.133 0-.134.066693-.334.066691-.467.133384 0 0 0 0-.067 0 0 0 0 0-.066 0-.201.066693-.401.133392-.601.266779l-7.269 4.20167c.2-.13339.4-.20009.6-.26678.067 0 .133-.06669.267-.06669.066 0 .2-.0667.267-.0667.133 0 .2-.06669.333-.06669h.133.534.067c.2 0 .333 0 .533.06669h.067c.2 0 .4.06669.6.13339h.067c.2.06669.4.13339.6.20008h.067c.2.06669.4.13338.6.26677.067.06669.2.0667.267.13339.066.06669.133.06669.2.13339l1.334.80031 247.031 142.58932c.267.134.6.134.934 0l5.402-3.134c.6-.467.6-1.334 0-1.667z" fill="#b5cfea"/><path d="m792.153 153.392c0-.133 0-.2 0-.333 0-.067 0-.2 0-.267 0 0 0 0 0-.067 0 0 0 0 0-.067 0-.066 0-.133 0-.2 0-.066 0-.2 0-.266 0-.067 0-.067 0-.134v-.067-.066c0-.067 0-.2-.067-.267 0-.067-.066-.2-.066-.267 0-.066-.067-.2-.067-.267 0-.066-.067-.2-.067-.266v-.067-.067c0-.066 0-.066-.066-.133 0-.067-.067-.2-.067-.267s-.067-.133-.067-.2-.066-.133-.066-.267c0-.066-.067-.133-.067-.266 0 0 0-.067-.067-.067 0 0 0 0 0-.067 0 0 0-.067-.067-.067-.066-.066-.066-.133-.133-.266-.067-.067-.067-.134-.133-.267 0 0 0 0 0-.067-.067-.066-.067-.2-.134-.267-.066-.066-.066-.133-.133-.2 0-.066-.067-.133-.067-.133s0-.067-.066-.067c-.067-.133-.134-.266-.2-.333 0-.067-.067-.067-.067-.134-.134-.133-.2-.333-.334-.466 0 0 0-.067-.066-.067 0 0 0-.067-.067-.067-.067-.066-.067-.133-.133-.133-.067-.067-.134-.134-.201-.267l-.066-.067s0 0-.067-.066l-.067-.067c-.066-.067-.133-.133-.2-.2-.066-.067-.133-.133-.133-.133-.067-.067-.133-.134-.2-.201-.067-.066-.134-.133-.2-.2-.067-.066-.134-.133-.2-.2-.067-.066-.134-.133-.267-.2 0 0 0 0-.067 0-.066-.067-.133-.067-.2-.133-.067-.067-.133-.134-.267-.2 0 0-.066 0-.066-.067-.067 0-.067-.067-.134-.067-.066-.066-.2-.133-.266-.133l-6.003-3.468-7.403 4.468s6.336 3.335 6.403 3.402c.066.066.2.133.267.133.066.067.2.133.266.2.067.067.134.134.267.2.067 0 .067.067.134.067.133.133.266.2.4.333.133.134.266.2.4.334 0 0 0 0 .066.067.134.133.201.266.334.333l.067.067c.133.133.2.266.333.4l.067.067c.133.133.2.266.267.4.066.066.066.133.133.2.067.066.133.133.2.267.067.066.133.2.2.266.067.067.067.134.134.2.066.067.066.134.066.2.067.134.134.201.2.334 0 0 0 .067.067.067.067.133.133.266.2.467v.066c.067.134.133.334.2.467v.067c.067.133.133.333.2.467v.066c.067.134.134.334.134.467v.067c.066.133.066.333.133.467v.066c.067.134.067.334.067.467v.067c0 .133.066.333.066.467v.066c0 .134 0 .334.067.467v.2.267.267.267.333c0 .067 0 .134-.067.267 0 0 0 .133-.066.4l-25.944 160.13c-.133.734-3.068 5.602-2.401 5.269l7.07-6.002c1.467-1.268 2.467-3.068 2.801-5.002l25.41-157.129c.133-.734.333-1.934.333-1.934 0-.067 0-.134.067-.267 0-.067 0-.134 0-.2v-.067c0-.067 0-.2 0-.267-.267-.4-.267-.467-.267-.6z" fill="#659adb"/><path d="m779.767 148.727c3.402 1.934 5.669 6.403 5.069 10.004l-26.277 162.464c-.6 3.602-3.801 4.936-7.136 2.935l-248.899-143.657c-3.401-1.934-5.669-6.403-5.068-10.004l26.277-162.46436c.6-3.60143 3.801-4.9353 7.136-2.9345z" fill="#2f29c2"/><path d="m766.406 186.207c3.201 1.801 5.402 5.736 4.868 8.737l-23.809 136.32c-.534 3.002-3.535 4.002-6.736 2.135l-235.96-133.72c-3.202-1.801-5.402-5.736-4.869-8.737l23.743-136.3205c.533-3.0012 3.535-4.0016 6.736-2.1342z" fill="#d9eaff"/><path d="m653.365 114.644c0 1.534-1.134 2.201-2.468 1.401-1.334-.801-2.467-2.668-2.467-4.269 0-1.533 1.133-2.2 2.467-1.4s2.468 2.734 2.468 4.268z" fill="#fff"/><path d="m771.136 158.797c3.202 1.801 5.403 5.735 4.869 8.737l-23.809 136.32c-.534 3.001-3.535 4.002-6.736 2.134l-236.027-133.719c-3.201-1.801-5.402-5.736-4.869-8.737l23.743-136.3206c.533-3.0012 3.535-4.0016 6.736-2.1342z" fill="#d9eaff"/><path d="m658.099 87.2341c0 1.5339-1.133 2.2009-2.467 1.4005-1.334-.8003-2.468-2.6677-2.468-4.2683 0-1.534 1.134-2.2009 2.468-1.4006s2.467 2.7344 2.467 4.2684z" fill="#fff"/><path d="m668.775 268.306-23.877-13.739 6.87-40.549 23.809 13.805z" fill="#fff"/><path d="m697.989 285.179-23.809-13.739 4.468-26.477 23.81 13.739z" fill="#4c73db"/><path d="m728.142 302.587-23.876-13.806 8.937-53.088 23.876 13.806z" fill="#e655be"/><path d="m688.18 174.269-16.54-9.471c-1.468-.867-2.535-3.268-2.335-5.402s1.601-3.201 3.068-2.334l16.54 9.47c1.467.867 2.535 3.268 2.334 5.402-.2 2.135-1.6 3.202-3.067 2.335z" fill="#bfdfff"/><path d="m684.184 193.81-16.607-9.471c-1.467-.867-2.534-3.268-2.334-5.402s1.601-3.201 3.068-2.334l16.54 9.47c1.467.867 2.534 3.268 2.334 5.402-.2 2.135-1.534 3.202-3.001 2.335z" fill="#bfdfff"/><path d="m702.859 182.737-16.54-9.47c-1.467-.867-2.534-3.268-2.334-5.402s1.601-3.201 3.068-2.334l16.54 9.47c1.467.867 2.534 3.268 2.334 5.402s-1.534 3.135-3.068 2.334z" fill="#bfdfff"/><path d="m711.797 210.282-16.54-9.47c-1.467-.867-2.535-3.268-2.334-5.402.2-2.134 1.6-3.201 3.067-2.334l16.54 9.47c1.468.867 2.535 3.268 2.335 5.402s-1.534 3.201-3.068 2.334z" fill="#bfdfff"/><path d="m707.453 227.823-16.54-9.47c-1.467-.867-2.534-3.268-2.334-5.402s1.6-3.201 3.068-2.334l16.54 9.47c1.467.867 2.534 3.268 2.334 5.402s-1.601 3.135-3.068 2.334z" fill="#bfdfff"/><path d="m743.531 207.214-16.54-9.47c-1.467-.867-2.534-3.268-2.334-5.403.2-2.134 1.601-3.201 3.068-2.334l16.54 9.471c1.467.867 2.534 3.268 2.334 5.402s-1.601 3.201-3.068 2.334z" fill="#bfdfff"/><path d="m726.859 197.542-16.54-9.47c-1.467-.867-2.534-3.268-2.334-5.402.2-2.135 1.601-3.202 3.068-2.335l16.54 9.471c1.467.867 2.534 3.268 2.334 5.402s-1.534 3.134-3.068 2.334z" fill="#bfdfff"/><path d="m714.726 190.073-16.539-9.47c-1.468-.867-2.535-3.268-2.335-5.402s1.601-3.201 3.068-2.334l16.54 9.47c1.467.867 2.534 3.268 2.334 5.402-.266 2.134-1.6 3.201-3.068 2.334z" fill="#bfdfff"/><path d="m739.469 226.755-16.54-9.47c-1.468-.867-2.535-3.268-2.335-5.403.201-2.134 1.601-3.201 3.068-2.334l16.54 9.471c1.467.867 2.535 3.268 2.334 5.402-.2 2.134-1.6 3.134-3.067 2.334z" fill="#bfdfff"/><path d="m738.806 168.267-59.224-34.213c-1.934-1.134-4.068-.334-4.735 1.734-.667 2.067.333 4.735 2.268 5.802l59.223 34.214c1.934 1.133 4.068.333 4.735-1.734.734-2.068-.333-4.669-2.267-5.803z" fill="#29479c"/><path d="m751.071 175.336-59.223-34.214c-1.934-1.134-4.068-.333-4.735 1.734-.667 2.068.333 4.735 2.267 5.802l59.224 34.214c1.934 1.134 4.068.333 4.735-1.734s-.334-4.669-2.268-5.802z" fill="#29479c"/><path d="m538.863 42.5508-24.543 138.6552 118.781 69.027 24.543-138.655z" fill="#fff"/><path d="m604.48 150.925-13.205-7.603c-.134-.067-.2-.2-.334-.267l-18.407-10.537c-.133-.067-.267-.134-.4-.2l-11.538-6.67c-1.667-.933-3.201.2-3.401 2.601s.933 5.069 2.601 6.003l18.407 10.537c.133.067.267.134.4.2l6.403 3.669c.133.066.2.2.333.266l18.407 10.538c1.668.934 3.202-.2 3.402-2.601.133-2.268-1.001-5.002-2.668-5.936z" fill="#e655be"/><path d="m611.355 192.876-13.205-7.603c-.133-.066-.2-.2-.334-.267l-18.407-10.537c-.133-.067-.267-.133-.4-.2l-11.538-6.669c-1.667-.934-3.201.2-3.401 2.601s.933 5.068 2.601 6.002l18.407 10.537c.133.067.267.134.4.201l6.403 3.668c.133.066.2.2.333.266l18.407 10.538c1.668.934 3.202-.2 3.402-2.601.133-2.268-1.001-5.002-2.668-5.936z" fill="#bfdfff"/><path d="m586.812 168.133-18.407-10.537c-1.667-.934-2.801-3.669-2.601-6.003.2-2.401 1.734-3.535 3.401-2.601l18.408 10.538c1.667.933 2.801 3.668 2.601 6.002-.2 2.401-1.734 3.535-3.402 2.601z" fill="#ffce43"/><path d="m615.82 184.274-18.407-10.604c-1.667-.934-2.801-3.668-2.601-6.003.2-2.401 1.734-3.534 3.401-2.601l18.408 10.538c1.667.934 2.801 3.668 2.601 6.002-.267 2.401-1.801 3.602-3.402 2.668z" fill="#bfdfff"/><path d="m538.862 42.5508 118.78 69.0272-4.468 23.409-118.58-67.9599z" fill="#2f29c2"/><path d="m554.737 125.649c.267-1.667-.467-3.268-1.934-4.135l-7.269-4.202c-1.668-.933-3.202.201-3.402 2.601-.2 2.401.934 5.069 2.601 6.003l4.135 2.401c2.334 1.4 5.336 0 5.869-2.668z" fill="#e655be"/><path d="m553.865 64.492c0 3.268-2.335 4.6018-5.136 2.9345-2.868-1.6673-5.135-5.6022-5.135-8.8702s2.334-4.6018 5.135-2.9345c2.801 1.6007 5.136 5.6022 5.136 8.8702z" fill="#fff"/><path d="m568.341 73.492c0 3.268-2.334 4.6018-5.135 2.9345-2.868-1.6673-5.136-5.6022-5.136-8.8702s2.335-4.6018 5.136-2.9345 5.135 5.6022 5.135 8.8702z" fill="#ffce43"/><path d="m583.208 83.2303c0 3.2679-2.334 4.6018-5.135 2.9345-2.868-1.6674-5.135-5.6022-5.135-8.8702s2.334-4.6018 5.135-2.9345 5.135 5.6022 5.135 8.8702z" fill="#e655be"/><path d="m541.523 99.7724c.4-1.8674.867-2.7344 1.2-4.4017.2-.9337-.2-2.2009-1.934-3.1346l.467-2.2675c1.734.8003 2.534.1333 2.734-.8004.334-1.6673.267-2.8011.667-4.6685.6-2.8678 1.868-3.2679 4.202-2.0675l1.667.867-.4 2.0675-.533-.2667c-1.134-.5336-1.534-.3335-1.801 1.1337-.267 1.4673-.467 2.8011-.8 4.4018-.401 2.0008-1.201 2.4676-2.602 2.1342v.1333c1.268 1.0004 1.801 2.0675 1.334 4.135-.333 1.6007-.667 2.8678-1 4.268-.267 1.468-.067 2.001 1.067 2.601l.534.267-.401 2.068-1.667-.867c-2.401-1.268-3.335-2.735-2.734-5.6026z" fill="#2f29c2"/><path d="m531.921 163.532c-.334 1.867-.801 2.668-1.067 4.335-.134.934.266 2.268 2.134 3.401l-.4 2.268c-1.868-1.067-2.668-.467-2.802.467-.266 1.667-.2 2.801-.533 4.668-.534 2.802-1.801 3.002-4.335 1.534l-1.801-1.067.334-2.067.533.333c1.201.734 1.601.534 1.868-.933.266-1.401.333-2.735.667-4.336.333-2 1.2-2.334 2.667-1.8v-.134c-1.4-1.2-1.934-2.334-1.6-4.335.266-1.6.6-2.801.867-4.201.266-1.468 0-2.068-1.201-2.735l-.533-.333.333-2.068 1.801 1.067c2.601 1.468 3.534 3.068 3.068 5.936z" fill="#2f29c2"/><path d="m662.843 189.342-40.15-22.609c-3.468-1.934-5.668-7.136-4.935-11.605l6.736-42.683c.734-4.469 4.068-6.536 7.537-4.602l40.149 22.609c3.468 1.934 5.669 7.136 4.935 11.604l-6.736 42.684c-.734 4.468-4.135 6.536-7.536 4.602z" fill="#4c73db"/><path d="m634.085 156.529-8.804-17.941 13.672-6.402 1.868 3.801-9.004 4.268 6.87 14.073z" fill="#fff"/><path d="m655.285 167.467-1.801-3.802 8.871-4.202-7.003-14.272 4.602-2.201 8.87 18.074z" fill="#fff"/><path d="m643.23 165.263-4.535-1.134 13.206-28.678 4.535 1.134z" fill="#fff"/><path d="m818.703 250.365c0 7.202 4.869 17.607 20.475 17.607 15.673 0 36.148-10.405 36.148-17.607 0-7.203-12.672-13.006-28.345-13.006-15.606 0-28.278 5.803-28.278 13.006z" fill="#a8c4e5" opacity=".4"/><path d="m862.002 255.173c.039-7.256-10.141-13.194-22.738-13.262s-22.841 5.759-22.88 13.015c-.04 7.256 10.14 13.194 22.738 13.262 12.597.068 22.84-5.759 22.88-13.015z" fill="#dbefff"/><path d="m805.758 223.086 10.737 32.88 45.285.733 10.404-31.679z" fill="#dbefff"/><path d="m858.054 224.422-10.338 31.546c-1.4 4.802-2.734 5.935-6.469 8.07-2.668 1.534-5.869 2.867-9.27 3.468 7.669 1.267 16.206-.134 22.142-3.602 3.734-2.134 5.869-3.268 6.469-7.936l10.337-31.546z" fill="#bad4f5"/><path d="m872.887 221.204c.058-10.719-14.974-19.49-33.575-19.591s-33.727 8.507-33.785 19.225c-.058 10.719 14.974 19.49 33.575 19.591s33.727-8.507 33.785-19.225z" fill="#fff"/><path d="m867.815 220.515c.05-9.208-12.838-16.743-28.787-16.83-15.949-.086-28.919 7.308-28.969 16.517-.05 9.208 12.839 16.743 28.788 16.83 15.949.086 28.918-7.309 28.968-16.517z" fill="#2c1f9c"/><path d="m838.376 213.615c2.534-23.009 22.142-60.89 22.142-60.89-25.21 7.469-26.877 32.412-26.877 32.412z" fill="#3b2ad1"/><path d="m832.642 193.208c2.668-23.009-8.47-64.226-8.47-64.226 22.942 12.939 19.007 37.615 19.007 37.615z" fill="#3b2ad1"/><path d="m871.323 165.463c-21.075 4.736-33.813 41.617-33.813 41.617v.066c-.8-47.018-30.479-59.49-30.479-59.49 8.87 12.872 17.207 56.889 19.741 71.028.934 5.336 5.669 9.271 11.072 9.004.266 0 .6-.067.933-.067 4.602-.533 8.27-4.135 9.204-8.67 3.868-19.674 23.342-53.488 23.342-53.488z" fill="#4852db"/><path d="m652.406 366.586c12.19-.217 21.984-5.318 21.876-11.394-.107-6.076-10.076-10.827-22.266-10.611-12.189.216-21.983 5.317-21.876 11.394.108 6.076 10.077 10.827 22.266 10.611z" fill="#a8c4e5" opacity=".4"/><path d="m647.24 234.426s8.537 3.601 23.876-17.007c3.068-4.202 7.069-19.008 7.069-19.008l-3.668-1.667s-5.535 12.672-10.137 16.74c-6.136 5.469-22.876 12.872-23.609 15.606-.667 2.735 6.469 5.336 6.469 5.336z" fill="#db39af"/><path d="m636.038 348.268 4.802-.6c3.202-1.467 4.735-2.534 6.136-1.734l.4.267c1.401.8 1.267 2.267-.4 3.268l-7.069 5.602c-1.668.934-3.869.667-5.202-.534 0 0-.801-.733-.201-3.734.267-1.734.201-1.801 1.534-2.535z" fill="#2c1f9c"/><path d="m641.704 348.468c-.401 3.335-6.47 3.335-6.47.801l3.402-76.697 20.274-5.736z" fill="#ffc2b0"/><path d="m656.311 355.605 4.736.867c3.534-.4 5.268-1 6.402.267l.334.334c1.134 1.2.467 2.534-1.401 2.934l-8.47 3.201c-1.867.401-3.868-.533-4.802-2.067 0 0-.533-.934.934-3.601.867-1.534.8-1.601 2.267-1.935z" fill="#2c1f9c"/><path d="m660.177 357.605c-1.067 2.667-5.735 2.067-5.602-.134 2.201-26.544-2.801-51.687-9.27-76.097l19.474-2.134c.8 28.678.534 53.155-4.602 78.365z" fill="#ffc2b0"/><path d="m663.579 272.441 6.803 37.215s-16.873 16.673-36.148 0l2.135-34.947z" fill="#2c1f9c"/><path d="m657.105 222.887c-1.468 5.069-5.203 6.469-8.404 3.201s-4.602-10.071-3.134-15.139c1.467-5.069 5.202-6.469 8.403-3.201 3.201 3.334 4.602 10.07 3.135 15.139z" fill="#ffc2b0"/><path d="m662.444 221.286c-1.467 5.068-6.87 6.869-10.071 3.601s-4.602-10.071-3.134-15.139c1.467-5.069 5.202-6.47 8.403-3.202 3.201 3.335 6.269 9.671 4.802 14.74z" fill="#ffc2b0"/><path d="m650.165 235.825-.534-.134c-1.8-.4-3.001-2.267-2.601-4.068l2.268-10.337c.4-1.801 2.267-3.002 4.068-2.601l.534.133c1.8.4 3.001 2.267 2.601 4.068l-.734 10.204c-.4 1.934-3.735 3.135-5.602 2.735z" fill="#ffc2b0"/><path d="m645.902 222.019s-.6 3.534 5.469 3.868c4.868.266 3.468-8.604 8.27-9.337 5.335-.867 6.269-7.47 4.202-10.004-2.135-2.535-8.004-3.868-12.205-2.001-4.269 1.801-13.206 3.201-5.736 17.474z" fill="#4432db"/><path d="m659.643 219.217c-.334 1.2-1.601 1.934-2.868 1.6-1.2-.333-1.934-1.6-1.601-2.867.334-1.268 1.601-1.934 2.868-1.601s2.001 1.601 1.601 2.868z" fill="#ffc2b0"/><path d="m636.372 274.305c1.734-9.47-.133-16.94 0-27.01 0-18.074-.867-22.476 8.67-19.741l2.668.733c1.267.334 2.534.801 3.735 1.467 12.605 6.47 16.006 8.471 15.406 16.007.067 12.405-5.736 14.939-2.668 25.81-2.534 8.537-24.943 8.87-27.811 2.734z" fill="#e655be"/><path d="m656.315 226.488-.534-1.267s1.001 1 2.868.733c-.067 0-1.134.667-2.334.534z" fill="#f09a82"/><path d="m646.378 217.218c2.431 0 4.402-2.299 4.402-5.135 0-2.837-1.971-5.136-4.402-5.136s-4.401 2.299-4.401 5.136c0 2.836 1.97 5.135 4.401 5.135z" fill="#2c1f9c"/><path d="m646.239 210.481c.2-2.601-3.334-3.801-4.802-1.534-.466.734-.867 1.734-1.2 3.135-1.801 7.87-15.006 6.736-8.537 20.608 0 0-5.935 9.07 5.069 12.939 5.602 1.934 5.535-12.539 5.535-12.539s2.268-6.669 4.402-11.871c1.001-2.468 1.134-5.269 0-7.67-.4-1.067-.533-2.067-.467-3.068z" fill="#4432db"/><path d="m647.64 227.021c-1.067-.267-2 .667-1.8 1.734.2 1.2.933 2.601 3.068 3.334 3.001 1.001 6.269.467 7.803.067.4-.067.467-.6.133-.8-1.734-1.067-6.002-3.602-9.204-4.335z" fill="#2c1f9c"/><path d="m684.722 246.361-14.339-8.337 8.47-24.743 14.339 8.337z" fill="#fff"/><path d="m655.508 243.096s12.338 30.078 25.877 15.606c13.538-14.473 8.737-24.677 8.737-24.677l-1.801-.466s-5.469 18.207-11.338 16.406-13.806-13.005-16.607-13.539c-2.801-.667-4.868 6.67-4.868 6.67z" fill="#e655be"/><path d="m675.053 197.676.733.401c1.401.667 3.068.133 3.735-1.268l1.401-2.801c.667-1.4.133-3.068-1.268-3.734l-.733-.401c-1.401-.667-3.068-.133-3.735 1.268l-1.401 2.801c-.666 1.4-.133 3.068 1.268 3.734z" fill="#ffc2b0"/><path d="m689.795 236.091c-1.267 0-2.334-1.067-2.334-2.334v-2.401c0-1.267 1.067-2.335 2.334-2.335s2.334 1.068 2.334 2.335v2.401c.067 1.267-1 2.334-2.334 2.334z" fill="#ffc2b0"/><path d="m681.657 222.285-2.468-1.4c-.467-.267-.733-1.001-.6-1.534.2-.601.734-.801 1.201-.534l2.467 1.401c.467.266.734 1 .6 1.534-.133.6-.733.867-1.2.533z" fill="#e655be"/><path d="m683.923 227.888-3.735-2.134c-.4-.2-.601-.801-.467-1.268.133-.466.6-.666.934-.4l3.734 2.134c.401.201.601.801.467 1.268-.066.4-.533.6-.933.4z" fill="#bfdfff"/><path d="m685.92 233.423-6.803-3.935c-.4-.2-.6-.8-.466-1.267.133-.467.6-.667.933-.4l6.803 3.935c.4.2.6.8.467 1.267-.134.467-.6.6-.934.4z" fill="#bfdfff"/><path d="m681.657 235.425-3.735-2.134c-.4-.2-.6-.801-.467-1.267.134-.467.6-.667.934-.401l3.735 2.135c.4.2.6.8.467 1.267-.134.4-.534.6-.934.4z" fill="#bfdfff"/><path d="m677.386 237.09-2.534-1.467c-.4-.2-.6-.801-.467-1.267.133-.467.6-.667.934-.401l2.534 1.468c.4.2.6.8.467 1.267-.134.467-.534.667-.934.4z" fill="#e655be"/><path d="m374.988 246.096-10.004-5.735 9.938-5.736 9.937 5.736z" fill="#fff"/><path d="m318.976 483.79 25.877-15.539c2.201-1.334 2.201-4.602-.066-5.936l-23.943-14.206-31.813 16.073z" fill="#88bdeb" opacity=".36"/><path d="m305.639 462.514 25.01-14.405-24.81-14.339-25.277 14.339z" fill="#ffdd7d"/><path d="m305.641 462.513v28.678l25.01-14.406v-28.678z" fill="#f2bc49"/><path d="m305.639 462.513-25.077-14.406v27.878l25.544 15.273v-29.012z" fill="#ffce43"/><path d="m306.16 455.112-13.605-7.803 13.472-7.803 13.605 7.87z" fill="#fff"/><path d="m934.484 311.187 25.877-15.54c2.201-1.334 2.201-4.602-.067-5.936l-23.942-14.205-31.813 16.073z" fill="#88bdeb" opacity=".36"/><path d="m921.147 289.979 25.01-14.472-24.81-14.339-25.277 14.406z" fill="#ffdd7d"/><path d="m921.148 289.978v-.067 28.745l24.944-14.406v-28.678z" fill="#f2bc49"/><path d="m921.147 289.978-25.077-14.406v27.811l25.544 15.34v-29.012z" fill="#ffce43"/><path d="m921.601 282.575-13.539-7.803 13.473-7.803 13.538 7.803z" fill="#fff"/><path d="m94.2889 311.187 25.8771-15.54c2.201-1.334 2.201-4.602-.067-5.936l-23.9427-14.205-31.8125 16.073z" fill="#88bdeb" opacity=".36"/><path d="m80.936 289.979 25.01-14.472-24.8099-14.339-25.2767 14.406z" fill="#ffdd7d"/><path d="m80.9453 289.978v-.067 28.745l25.0097-14.406v-28.678z" fill="#f2bc49"/><path d="m80.936 289.978-25.0766-14.406v27.811l25.5434 15.34v-29.012z" fill="#ffce43"/><path d="m81.4726 282.575-13.6054-7.803 13.472-7.803 13.6054 7.803z" fill="#fff"/><path d="m359.644 260.365 31.346-18.807c2.668-1.668 2.668-5.536-.067-7.136l-28.945-17.207-38.548 19.408z" fill="#88bdeb" opacity=".36"/><path d="m343.497 234.62 30.279-17.407-30.079-17.34-30.478 17.407z" fill="#ffdd7d"/><path d="m343.5 234.622v34.747l30.212-17.474v-34.68z" fill="#f2bc49"/><path d="m343.497 234.619-30.278-17.34v33.614l30.812 18.54v-35.08z" fill="#ffce43"/><path d="m344.11 225.685-16.407-9.471 16.34-9.403 16.406 9.47z" fill="#fff"/><path d="m281.143 305.985 26.077-15.673c2.201-1.4 2.201-4.601-.067-5.935l-41.149-24.477-46.285 10.671z" fill="#88bdeb" opacity=".36"/><path d="m249.466 284.378 34.547-20.008-34.347-19.808-34.947 19.942z" fill="#dbefff"/><path d="m249.465 284.379-.067-.067v39.749l34.614-20.008v-39.615z" fill="#84ade3"/><path d="m249.466 284.38-34.747-19.874v38.482l35.347 21.141v-40.149z" fill="#bad4f5"/><path d="m249.466 236.359 34.547-19.942-34.347-19.874-34.947 19.941z" fill="#dbefff"/><path d="m249.465 236.359h-.067v39.683l34.614-19.942v-39.682z" fill="#84ade3"/><path d="m249.466 236.359-34.747-19.875v38.482l35.347 21.209v-40.15z" fill="#bad4f5"/><path d="m250.143 226.023-16.807-9.671 16.673-9.67 16.807 9.737z" fill="#fff"/><path d="m222.062 434.837 23.076-13.872c1.934-1.2 1.934-4.068-.067-5.269l-68.427-40.682-9.003 28.411z" fill="#88bdeb" opacity=".36"/><path d="m177.71 424.37 48.619-28.012-48.352-27.944-49.086 28.011z" fill="#6c8feb"/><path d="m177.707 424.37-.066 35.748 48.619-28.078v-35.681z" fill="#4060b8"/><path d="m177.71 424.37-48.819-27.944v34.08l49.686 29.745z" fill="#4c73db"/><path d="m177.445 333.397c-2.935 5.869-7.67 17.473-13.939 19.674-8.604 3.068-17.607-7.336-24.543-12.538-3.068-2.334-.067-7.603 3.068-5.269 5.602 4.202 12.671 7.936 19.741 5.269 4.735-1.801 8.136-5.869 10.337-10.271 1.801-3.468 7.07-.4 5.336 3.135z" fill="#bad4f5"/><path d="m138.432 338.999-2.601-1.6c-1.334-.801-1.801-2.601-1.001-4.002.801-1.334 2.601-1.801 4.002-1l2.601 1.6c1.334.801 1.801 2.601 1 4.002-.867 1.4-2.601 1.801-4.001 1z" fill="#ffc2b0"/><path d="m153.569 322.459c3.002-2.001 2.735-5.269 2.735-5.269l-.133-1.067c-3.335.8-5.403 3.802-5.403 3.802s-.2 4.535 2.801 2.534zm-2.2-2.334s1.667-2.335 4.201-2.935l.067.8s.2 2.401-2.068 3.935c-2.2 1.468-2.2-1.8-2.2-1.8z" fill="#1f3b82"/><path d="m136.095 383.282c.867-8.27 4.269-14.006 14.006-14.739.6-.067 1.2.066 1.801.266l34.013 10.138s7.403 18.474-10.804 24.009c-9.204 2.801-27.144-6.536-35.281-11.871-2.668-1.667-4.068-4.669-3.735-7.803z" fill="#e655be"/><path d="m155.511 324.193c2.468 4.669 8.137 5.336 10.605 1.401 2.467-3.868 2.401-10.804-.067-15.473-2.468-4.668-6.469-5.269-8.87-1.4-2.468 3.935-4.135 10.804-1.668 15.472z" fill="#ffc2b0"/><path d="m170.581 336 .533-.2c1.734-.801 2.468-2.801 1.667-4.535l-4.401-9.671c-.801-1.734-2.801-2.467-4.535-1.667l-.534.2c-1.734.8-2.468 2.801-1.667 4.535l2.867 9.871c.801 1.734 4.336 2.201 6.07 1.467z" fill="#ffc2b0"/><path d="m171.916 321.459s1.334 3.334-4.602 4.935c-4.735 1.267-5.135-7.736-10.071-7.47-5.402.267-7.736-6.002-6.202-8.936 1.534-2.935 7.003-5.469 11.604-4.469 4.602.934 13.672.4 9.271 15.94z" fill="#4852db"/><path d="m185.855 378.948c-.8-8.003-3.935-8.203-3.134-18.607.2-2.801.266-5.602.266-8.337-.133-15.206-1.4-25.543-10.004-23.075l-2.734.733c-1.267.334-2.534.867-3.735 1.467-12.672 6.536-19.007 6.803-16.606 20.742.533 13.872 6.802 10.871 4.134 24.61.067 16.473 31.88 12.805 31.813 2.467z" fill="#bad4f5"/><path d="m151.906 362.075 6.87-15.073c.533 8.603-.2 16.34-4.135 21.675z" fill="#8fb6eb"/><path d="m162.647 328.06.267-1.333s-.734 1.133-2.602 1.333c0 0 1.201.334 2.335 0z" fill="#f09a82"/><path d="m161.711 321.992s3.201 3.402 3.668 7.603c.6 5.202 3.935 8.404 8.337 5.536 2.201-1.401 4.068-3.001 3.935-4.535-1.201-13.339-5.603-20.875-5.603-20.875z" fill="#4852db"/><path d="m158.768 344.401s-1.534 32.079-18.474 21.675c-10.605-6.469-9.537-25.143-9.537-25.143l4.668-.734s5.069 20.141 10.471 17.14c5.335-3.001 4.001-17.473 6.669-18.607 2.601-1.067 6.203 5.669 6.203 5.669z" fill="#bad4f5"/><path d="m134.103 344.803c1.4-.466 2.201-2.067 1.734-3.468l-2.134-6.135c-.467-1.401-2.068-2.201-3.468-1.734-1.401.466-2.201 2.067-1.734 3.468l2.134 6.135c.467 1.468 2.067 2.201 3.468 1.734z" fill="#ffc2b0"/><path d="m134.171 344.465 6.603-4.935c.4-.267.534-.934.267-1.401l-6.469-13.138c-.267-.534-.801-.667-1.134-.401l-6.603 4.802c-.4.267-.533.934-.267 1.401l6.47 13.072c.133.333.333.4.667.467z" fill="#97cbff"/><path d="m133.44 331.193s7.87 7.403 7.603 6.936l-6.469-13.605-.6-.067c-.2 0-.4 0-.534.133l-6.602 4.802c-.2.134-.334.334-.4.601z" fill="#97cbff"/><path d="m134.837 344.398 6.536-4.802c.4-.267.467-.934.267-1.4l-6.469-13.139c-.267-.534-.734-.667-1.134-.4l-6.536 4.802c-.4.266-.467.933-.267 1.4l6.469 13.139c.267.533.734.667 1.134.4z" fill="#1f3b82"/><path d="m127.497 331.926.4.734c0 .067 0 .067-.067.067-.066 0-.133-.067-.133-.134l-.4-.733c0-.067 0-.067.067-.067.066 0 .133.067.133.133z" fill="#45446c"/><path d="m128.161 333.26.4.734c0 .067 0 .067-.067.067-.066 0-.133-.067-.133-.134l-.4-.733c0-.067 0-.067.067-.067 0 0 .066.067.133.133z" fill="#45446c"/><path d="m133.837 342.264 6.469-4.736-5.669-11.604-6.403 4.668 5.736 11.271c0 .134-.2.467-.133.401z" fill="#dbedff"/><path d="m129.966 328.658 2-1.467c.067-.067.067-.2.067-.267-.067-.066-.133-.133-.2-.066l-2.001 1.467c-.066.067-.066.2-.066.267.066.066.133.133.2.066z" fill="#fff"/><path d="m150.914 320.657 7.536-1.201c.267-.066.467-.266.4-.533s-.267-.467-.533-.4l-7.537 1.2c-.266.067-.467.267-.4.534.067.266.267.4.534.4z" fill="#1f3b82"/><path d="m157.84 321.592c.601 1.134 2.001 1.534 3.135.934s1.534-2.001.934-3.135c-.601-1.134-2.001-1.534-3.135-.934-1.134.601-1.534 2.001-.934 3.135z" fill="#ffc2b0"/><path d="m130.677 334.264c.867 1.534 2.801 1.867 4.268.867 1.468-1.067 1.935-3.135 1.068-4.669-.868-1.534-2.802-1.867-4.269-.867-1.467 1.067-1.934 3.135-1.067 4.669zm.867-.6c-.6-1.001-.267-2.401.734-3.135 1-.734 2.267-.467 2.867.534.601 1 .267 2.401-.733 3.134-1.001.734-2.268.467-2.868-.533z" fill="#2c4482"/><path d="m130.684 334.263c-.534-.934-.6-2.067-.2-3.068l.934.4c-.267.667-.201 1.401.133 2.001.467.867 1.467 1.134 2.334.867l.334 1.001c-1.334.533-2.801.066-3.535-1.201z" fill="#ff5c97"/><path d="m133.886 329.061-.134 1.068c-.467-.067-1 .066-1.467.4-.4.267-.734.733-.867 1.2l-.934-.267c.2-.733.667-1.333 1.334-1.8.6-.534 1.334-.734 2.068-.601z" fill="#fff"/><path d="m134.756 338.064 2.801-2.067c.2-.134.2-.4.066-.667-.133-.2-.4-.267-.6-.134l-2.801 2.068c-.2.133-.2.4-.067.667.134.2.401.267.601.133z" fill="#fff"/><path d="m135.615 339.465 2.801-2.068c.2-.133.2-.4.067-.667-.134-.2-.4-.267-.6-.133l-2.801 2.067c-.201.134-.201.4-.067.667.133.2.4.267.6.134z" fill="#fff"/><path d="m131.559 342.6-.801-1.667c.667 0 1.401 2.601 1.334 2.067v-7.336c0-.533-.533-.934-1.2-.934s-1.134.467-1.134 1.001l.133 3.601c0 .534 1.001 3.268 1.668 3.268z" fill="#ffc2b0"/><path d="m185.844 448.511 9.737-5.669v-7.27l-9.737 5.669z" fill="#fff"/><path d="m198.789 441.242 9.671-5.669v-13.339l-9.671 5.603z" fill="#fff"/><path d="m221.401 428.301-9.737 5.669v-22.342l9.737-5.669z" fill="#fff"/><path d="m680.965 410.095.267-7.003-16.94-5.135-225.423-130.185c-1.401-.8-3.068-.8-4.402 0l-67.96 40.149-6.603-2-.4 8.47c-.067 1.534.667 3.067 2.201 3.935l239.095 138.054c1.334.8 3.068.8 4.402 0l73.629-42.483c1.4-.801 2.134-2.201 2.201-3.602v-.133c-.067-.067-.067-.067-.067-.067z" fill="#659adb"/><path d="m601.202 448.312-239.094-137.988c-2.935-1.668-2.935-5.869-.067-7.603l72.896-43.017c1.333-.801 3.067-.801 4.401 0l239.895 138.521c2.935 1.668 2.935 5.936 0 7.603l-73.629 42.484c-1.4.8-3.068.8-4.402 0z" fill="url(#b)"/><g fill="#9dbce0"><path d="m446.725 281.181c-.4.2-1.2.133-1.734-.2l-16.14-9.337c-.6-.334-.733-.801-.333-1.001l10.671-6.202c.4-.2 1.2-.134 1.734.2l16.139 9.337c.601.333.734.8.334 1z"/><path d="m465.467 308.991c-.4.2-1.2.134-1.734-.2l-16.14-9.337c-.6-.333-.733-.8-.333-1l10.671-6.203c.4-.2 1.134-.133 1.734.2l16.14 9.337c.6.334.733.801.333 1.001z"/><path d="m456.006 320.53c-.4.2-1.2.133-1.734-.2l-16.139-9.27c-.601-.334-.734-.801-.334-1.001l10.671-6.202c.4-.2 1.2-.134 1.734.2l16.14 9.337c.6.333.733.8.333 1z"/><path d="m430.397 322.798c-.4.2-1.201.133-1.734-.2l-16.14-9.337c-.6-.334-.733-.801-.333-1.001l10.671-6.202c.4-.2 1.2-.134 1.734.2l16.139 9.337c.601.333.734.8.334 1z"/><path d="m413.844 332.333c-.4.2-1.334.067-2.067-.4l-21.142-12.205c-.734-.467-1.067-1-.667-1.2l12.538-7.27c.401-.2 1.334-.067 2.068.4l21.142 12.205c.733.467 1.067 1 .667 1.2z"/><path d="m552.63 412.567c-.334.2-1.067.066-1.667-.267l-16.14-9.271c-.6-.333-.801-.733-.467-.933l4.668-2.668c.334-.2 1.068-.067 1.668.267l16.14 9.27c.6.334.8.734.466.934z"/><path d="m574.18 425.305c-.333.2-1.067.067-1.667-.267l-16.073-9.27c-.6-.334-.8-.734-.467-.934l4.669-2.668c.333-.2 1.067-.066 1.667.267l16.14 9.27c.6.334.8.734.467.934z"/><path d="m597.054 438.244c-.334.2-1.067.067-1.601-.267l-16.139-9.337c-.601-.333-.801-.733-.534-.933l4.468-2.601c.334-.2 1.068-.067 1.601.267l16.14 9.337c.6.333.8.733.467.933z"/><path d="m582.984 420.436c-.334.2-1.067.066-1.601-.267l-16.14-9.337c-.6-.334-.8-.734-.533-.934l4.468-2.601c.334-.2 1.067-.067 1.601.267l16.139 9.337c.601.333.801.734.467.934z"/><path d="m524.763 396.361c-.4.2-1.2.133-1.734-.201l-104.975-60.557c-.6-.333-.733-.8-.333-1l12.538-7.27c.4-.2 1.201-.133 1.734.2l104.975 60.558c.6.333.734.8.334 1z"/><path d="m514.019 387.155s-.401-.2-.867-.467l-83.5-48.219c-.467-.267-.8-.467-.8-.533l.8-.467s.4.2.867.467l83.5 48.219c.466.266.8.467.8.533z"/><path d="m452.522 335.536c-.4.2-1.201.134-1.734-.2l-16.14-9.337c-.6-.333-.733-.8-.333-1l10.671-6.203c.4-.2 1.2-.133 1.734.2l16.139 9.337c.601.334.734.801.334 1.001z"/><path d="m474.741 348.341c-.4.2-1.201.133-1.734-.2l-16.14-9.337c-.6-.334-.734-.801-.334-1.001l10.671-6.202c.4-.2 1.201-.134 1.734.2l16.14 9.337c.6.333.734.8.334 1z"/><path d="m496.952 361.145c-.401.201-1.201.134-1.734-.2l-16.14-9.337c-.6-.333-.734-.8-.334-1l10.671-6.202c.4-.201 1.201-.134 1.734.2l16.14 9.337c.6.333.734.8.333 1z"/><path d="m519.155 373.95c-.4.2-1.201.134-1.734-.2l-16.14-9.337c-.6-.333-.734-.8-.334-1l10.671-6.203c.401-.2 1.201-.133 1.734.2l16.14 9.337c.6.334.734.801.334 1.001z"/><path d="m541.366 386.757c-.401.2-1.201.133-1.734-.2l-16.14-9.337c-.6-.334-.734-.801-.334-1.001l10.671-6.202c.4-.2 1.201-.134 1.734.2l16.14 9.337c.6.333.734.8.334 1z"/><path d="m563.569 399.56c-.4.2-1.201.133-1.734-.201l-16.14-9.337c-.6-.333-.734-.8-.333-1l10.67-6.202c.401-.201 1.201-.134 1.734.2l16.14 9.337c.6.333.734.8.334 1z"/><path d="m613.599 428.439c-.401.2-1.201.133-1.734-.2l-43.951-25.344c-.6-.333-.734-.8-.334-1l10.671-6.202c.4-.2 1.201-.134 1.734.2l43.951 25.343c.6.334.734.8.333 1z"/><path d="m478.077 333.269c-.401.2-1.134.133-1.734-.201l-16.14-9.337c-.6-.333-.734-.8-.334-1l10.671-6.202c.4-.201 1.134-.134 1.734.2l16.14 9.337c.6.333.734.8.333 1z"/><path d="m500.28 346.073c-.4.2-1.201.134-1.734-.2l-16.14-9.337c-.6-.333-.734-.8-.334-1l10.671-6.203c.401-.2 1.134-.133 1.734.2l16.14 9.337c.6.334.734.801.334 1.001z"/><path d="m522.491 358.946c-.401.2-1.201.134-1.734-.2l-16.14-9.337c-.6-.333-.734-.8-.334-1l10.671-6.203c.4-.2 1.201-.133 1.734.2l16.14 9.337c.6.334.734.801.334 1.001z"/><path d="m544.702 371.749c-.401.2-1.201.133-1.734-.2l-16.14-9.337c-.6-.334-.734-.8-.334-1.001l10.671-6.202c.4-.2 1.134-.133 1.734.2l16.14 9.337c.6.334.734.8.333 1.001z"/><path d="m566.905 384.554c-.4.2-1.201.133-1.734-.2l-16.14-9.337c-.6-.334-.734-.801-.334-1.001l10.671-6.202c.401-.2 1.134-.134 1.734.2l16.14 9.337c.6.333.734.8.334 1z"/><path d="m589.116 397.36c-.4.2-1.134.134-1.734-.2l-16.14-9.337c-.6-.333-.734-.8-.334-1l10.671-6.203c.4-.2 1.134-.133 1.734.2l16.14 9.337c.6.334.734.801.334 1.001z"/><path d="m611.327 410.165c-.401.2-1.201.133-1.734-.2l-16.14-9.337c-.6-.334-.734-.8-.334-1.001l10.671-6.202c.4-.2 1.134-.133 1.734.2l16.14 9.337c.6.334.734.8.333 1.001z"/><path d="m487.538 321.729c-.401.201-1.201.134-1.735-.2l-16.139-9.337c-.6-.333-.734-.8-.334-1l10.671-6.202c.4-.201 1.134-.134 1.734.2l16.14 9.337c.6.333.734.8.333 1z"/><path d="m509.748 334.534c-.4.2-1.2.134-1.734-.2l-16.139-9.337c-.601-.333-.734-.8-.334-1l10.671-6.203c.4-.2 1.201-.133 1.734.2l16.14 9.337c.6.334.734.801.333 1.001z"/><path d="m531.967 347.407c-.4.2-1.2.134-1.734-.2l-16.14-9.337c-.6-.333-.733-.8-.333-1l10.671-6.203c.4-.2 1.134-.133 1.734.2l16.14 9.337c.6.334.733.801.333 1.001z"/><path d="m554.17 360.214c-.4.2-1.2.133-1.734-.2l-16.139-9.337c-.601-.334-.734-.801-.334-1.001l10.671-6.202c.4-.2 1.2-.133 1.734.2l16.14 9.337c.6.333.733.8.333 1z"/><path d="m576.373 373.017c-.4.2-1.2.133-1.734-.201l-16.139-9.337c-.601-.333-.734-.8-.334-1l10.671-6.202c.4-.2 1.134-.134 1.734.2l16.14 9.337c.6.333.733.8.333 1z"/><path d="m598.584 385.821c-.4.2-1.2.134-1.734-.2l-16.139-9.337c-.601-.333-.734-.8-.334-1l10.671-6.203c.4-.2 1.201-.133 1.734.2l16.14 9.337c.6.334.733.801.333 1.001z"/><path d="m620.795 398.626c-.4.2-1.2.133-1.734-.2l-16.139-9.337c-.601-.334-.734-.8-.334-1.001l10.671-6.202c.4-.2 1.134-.133 1.734.2l16.14 9.337c.6.334.733.8.333 1z"/><path d="m443.265 296.185c-.4.2-1.2.133-1.734-.2l-27.344-15.806c-.6-.334-.733-.801-.333-1.001l10.671-6.202c.4-.2 1.2-.134 1.734.2l27.344 15.806c.6.334.733.8.333 1.001z"/><path d="m657.734 402.964c-.4.2-1.2.134-1.734-.2l-27.344-15.806c-.6-.333-.734-.8-.334-1l10.671-6.203c.401-.2 1.201-.133 1.734.2l27.345 15.806c.6.334.733.801.333 1.001z"/><path d="m433.784 307.723c-.4.2-1.134.134-1.734-.2l-32.613-18.807c-.6-.334-.733-.801-.333-1.001l10.671-6.202c.4-.2 1.133-.133 1.734.2l32.613 18.807c.6.334.733.801.333 1.001z"/><path d="m408.179 309.927c-.4.2-1.201.133-1.734-.2l-21.742-12.539c-.6-.333-.734-.8-.334-1l10.671-6.202c.4-.2 1.201-.134 1.734.2l21.742 12.538c.6.333.734.8.334 1z"/><path d="m468.936 294.051c-.4.201-1.201.134-1.734-.2l-16.14-9.27c-.6-.333-.733-.8-.333-1l10.671-6.203c.4-.2 1.2-.133 1.734.2l16.139 9.271c.601.333.734.8.334 1z"/><path d="m491.084 306.79c-.4.2-1.2.133-1.734-.2l-16.139-9.337c-.601-.334-.734-.8-.334-1.001l10.671-6.202c.4-.2 1.201-.133 1.734.2l16.14 9.337c.6.334.733.8.333 1.001z"/><path d="m513.288 319.595c-.401.2-1.134.133-1.735-.2l-16.139-9.337c-.6-.334-.734-.801-.334-1.001l10.671-6.202c.4-.2 1.201-.134 1.734.2l16.14 9.337c.6.333.734.8.333 1z"/><path d="m535.491 332.401c-.401.2-1.201.133-1.734-.2l-16.14-9.27c-.6-.334-.734-.801-.334-1.001l10.671-6.202c.4-.2 1.201-.134 1.734.2l16.14 9.27c.6.334.734.801.334 1.001z"/><path d="m557.702 345.208c-.401.2-1.134.133-1.734-.2l-16.14-9.337c-.6-.334-.734-.8-.334-1.001l10.671-6.202c.4-.2 1.201-.133 1.734.2l16.14 9.337c.6.334.734.8.333 1.001z"/><path d="m579.913 358.011c-.401.2-1.201.133-1.735-.2l-16.139-9.337c-.6-.334-.734-.801-.334-1.001l10.671-6.202c.4-.2 1.201-.134 1.734.2l16.14 9.337c.6.333.734.8.333 1z"/><path d="m602.123 370.817c-.4.2-1.2.134-1.734-.2l-16.139-9.337c-.601-.333-.734-.8-.334-1l10.671-6.203c.4-.2 1.201-.133 1.734.2l16.14 9.337c.6.334.734.801.333 1.001z"/><path d="m624.334 383.688c-.4.201-1.2.134-1.734-.2l-16.139-9.337c-.601-.333-.734-.8-.334-1l10.671-6.203c.4-.2 1.201-.133 1.734.201l16.14 9.337c.6.333.733.8.333 1z"/><path d="m637.21 394.959c-.267-.133-.6-.267-.934-.333-.333-.067-.6 0-.8.133l-10.671 6.203c-.2.133-.267.266-.2.466.066.201.267.401.533.534l4.202 2.401-14.006 8.07c-.2.133-.266.267-.2.467.067.2.267.4.534.533l10.871 6.269c.267.134.6.267.934.334.333.067.6 0 .8-.134l25.41-14.672c.2-.133.267-.267.2-.467s-.267-.4-.534-.533z"/></g><path d="m730.457 475.854-31.412 21.208c-11.605 7.803-29.011 6.669-38.749-2.534-9.737-9.204-8.27-23.143 3.335-30.946l31.412-21.208c11.605-7.803 29.012-6.669 38.749 2.534 9.737 9.204 8.27 23.143-3.335 30.946z" fill="#a8c4e5" opacity=".4"/><path d="m722.723 468.651-31.412 21.208c-11.605 7.803-29.012 6.669-38.749-2.534-9.737-9.204-8.27-23.143 3.335-30.946l31.412-21.208c11.605-7.803 29.012-6.67 38.749 2.534 9.737 9.137 8.203 23.076-3.335 30.946z" fill="#2f29c2"/><path d="m715.58 435.438c-3.801.934-7.136 2.735-10.07 5.269-1.267 1.067-1.067 3.201 0 4.335 1.267 1.267 3.068 1.067 4.335 0 2.134-1.801 4.668-3.001 7.336-3.668 3.868-1.001 2.201-6.87-1.601-5.936z" fill="#a8c4e5"/><path d="m453.114 255.014c11.048-.196 19.925-4.803 19.828-10.29s-9.132-9.777-20.18-9.581-19.925 4.803-19.828 10.29 9.132 9.777 20.18 9.581z" fill="#a8c4e5" opacity=".4"/><path d="m437.964 236.826 4.668-.601c3.135-1.4 4.602-2.467 6.003-1.667l.4.2c1.401.8 1.2 2.201-.4 3.135l-6.87 5.468c-1.6.934-3.801.667-5.068-.466 0 0-.801-.667-.2-3.602.266-1.6.2-1.667 1.467-2.467z" fill="#2c1f9c"/><path d="m458.562 247.896 4.668.867c3.402-.4 5.136-.933 6.203.267l.333.334c1.067 1.2.467 2.467-1.334 2.868l-8.203 3.134c-1.801.4-3.801-.533-4.668-2.001 0 0-.534-.867.867-3.534.733-1.534.667-1.601 2.134-1.935z" fill="#2c1f9c"/><path d="m461.767 249.031c0 2.334-5.736 2.334-5.736 0v-7.603h5.736z" fill="#c6d2f2"/><path d="m462.499 244.229c-1.867 2.667-5.936 2.667-7.136.733l-9.871-79.298h20.608z" fill="#3b2ad1"/><path d="m442.363 237.76c-.134 2.134-5.869 2.134-5.736 0l.4-6.936h5.736z" fill="#c6d2f2"/><path d="m443.486 234.692c-2.268 2.334-6.736 1.334-7.603-.334l3.001-68.76 14.339 2.134z" fill="#3b2ad1"/><path d="m458.568 114.511c-1.4 4.935-5.069 6.336-8.203 3.068-3.135-3.202-4.469-9.804-3.068-14.74 1.401-4.9348 5.069-6.3354 8.203-3.0674 3.135 3.2014 4.469 9.8034 3.068 14.7394z" fill="#fbddd3"/><path d="m463.77 112.978c-1.4 4.935-6.669 6.736-9.804 3.468-3.134-3.201-4.468-9.804-3.067-14.739 1.4-4.9356 5.068-6.3362 8.203-3.0682 3.068 3.2012 6.069 9.4032 4.668 14.3392z" fill="#fbddd3"/><path d="m451.828 127.181-.534-.133c-1.8-.4-2.934-2.201-2.534-3.935l2.268-10.071c.4-1.8 2.2-2.934 3.934-2.534l.534.133c1.801.401 2.934 2.201 2.534 3.935l-.733 10.004c-.4 1.801-3.735 3.001-5.469 2.601z" fill="#ffc2b0"/><path d="m445.819 113.71s.534 4.669 7.136 3.735c4.736-.667 3.335-8.337 8.07-9.137 5.202-.867 6.136-7.27 4.069-9.7372-2.068-2.4676-7.804-3.7348-11.939-1.9341s-10.537 1.6674-7.336 17.0733z" fill="#4432db"/><path d="m461.03 110.977c-.333 1.2-1.601 1.867-2.801 1.534-1.201-.334-1.867-1.601-1.534-2.802.334-1.2 1.601-1.867 2.801-1.533 1.201.333 1.868 1.6 1.534 2.801z" fill="#fbddd3"/><path d="m438.287 164.732c1.667-9.204-.133-16.54 0-26.344 0-17.674-.867-21.942 8.47-19.274l2.601.666c1.267.334 2.468.801 3.668 1.401 12.272 6.336 15.606 8.27 15.073 15.673.066 12.138-1.734 25.677-2.001 31.679-2.534 8.337-25.01 2.134-27.811-3.801z" fill="#ff80db"/><path d="m457.76 118.045-.533-1.268s.933.934 2.734.734c0 .067-1.067.667-2.201.534z" fill="#f09a82"/><path d="m497.108 147.924-1.601-1.867c-1.2-1.401-1-3.601.4-4.802 1.401-1.2 3.602-1 4.802.4l1.601 1.868c1.2 1.4 1 3.601-.4 4.802-1.468 1.2-3.602 1-4.802-.401z" fill="#ffc2b0"/><path d="m511.375 197.142 15.006 11.871-1.067-18.007z" fill="#fff"/><path d="m521.914 205.477 4.402 3.468-.334-6.203c-.333 3.001-1.734 3.802-4.068 2.735z" fill="#3b2ad1"/><path d="m519.157 199.596c4.336-1.032 7.014-5.383 5.982-9.718-1.032-4.336-5.383-7.014-9.718-5.983-4.336 1.032-7.014 5.383-5.983 9.719 1.032 4.336 5.383 7.014 9.719 5.982z" fill="#3f5fc2"/><path d="m522.85 185.869-41.817-68.094-12.205 10.404 35.481 57.357z" fill="#3f5fc2"/><path d="m517.716 193.274c-.467-.533-.867-1.067-1.134-1.601l-36.881-60.757-8.537 1.134 39.149 63.292c.333.6.667 1.133 1.134 1.6 2.534 2.801 6.669 3.402 9.87 1.601z" fill="#3b2ad1"/><path d="m483.102 120.978-2.534-4.001-2.134 1.867c-1.868.067-3.869.8-5.669 2.268-1.934 1.6-3.068 3.601-3.402 5.602l-.933.8 1.2 2.268h.067c.2.4.4.733.667 1.067 2.134 2.534 6.602 2.334 10.004-.534 3.334-2.734 4.468-6.803 2.734-9.337z" fill="#e1eaf4"/><path d="m481.031 117.512c-.067-.067-.133-.133-.133-.2l-2.801-3.935-3.268 2.668c-1.334.333-2.668 1-3.802 2-1.134.934-2.067 2.135-2.668 3.268l-2.734 2.201 2.601 3.668c.133.2.267.334.4.534 2.134 2.534 6.603 2.334 10.004-.534 3.401-2.734 4.469-7.136 2.401-9.67z" fill="#db39af"/><path d="m475.829 123.313c-3.401 2.801-7.87 3.067-10.004.533s-1-6.869 2.401-9.737c3.402-2.801 7.87-3.068 10.004-.534 2.134 2.535 1.067 6.87-2.401 9.738z" fill="#ff80db"/><path d="m458.219 131.386s2.467 13.272 17.807 29.479c4.201 4.468 25.41 1.734 25.41 1.734v-4.135s-15.873 1.734-19.875-3.602c-4.468-6.002-10.871-28.945-23.342-23.476z" fill="#ffc2b0"/><path d="m461.03 140.388 7.603 16.206c1.067 1.134 11.938-6.802 10.605-8.603-.267-.333-9.871-19.141-17.141-21.208-6.002-1.734-5.335 6.602-1.067 13.605z" fill="#ff80db"/><path d="m504.322 164.596h-2.468c-1.867 0-3.401-1.534-3.401-3.402 0-1.867 1.534-3.401 3.401-3.401h2.468c1.868 0 3.401 1.534 3.401 3.401 0 1.868-1.533 3.402-3.401 3.402z" fill="#ffc2b0"/><path d="m912.853 429.635 15.006-8.803c2.601-1.601 2.601-5.469-.067-7.003l-91.303-54.288-12.005 37.948z" fill="#88bdeb" opacity=".36"/><path d="m857.498 397.289 55.689-32.146-55.355-31.946-56.223 32.08z" fill="#dbefff"/><path d="m857.504 397.291-.066-.067v63.959l55.688-32.146v-63.892z" fill="#84ade3"/><path d="m857.498 397.29-55.889-32.013v61.958l56.89 34.08v-64.625z" fill="#bad4f5"/><path d="m901.592 416.564-28.678 16.073v-28.678l28.678-16.006z" fill="#fff"/><path d="m824.63 381.35c-.801 5.135 1.267 34.88 1.8 42.016.067.867.467 1.601 1.201 2.134v3.869c-.067 0-.133.066-.2.066l-9.737 9.938c-1.734 1.067-1.934 2.601-.4 3.468l.4.266c1.534.867 4.201.734 5.935-.333l10.338-6.136c1.734-1.067 2.001-1.467 1.667-4.268l-.2-2.001c-.067-.533-.333-1.067-.734-1.334v-3.935c.267-.4.534-.933.734-1.6 1.667-5.603 1.334-23.41 4.469-31.413-.401 6.003 2.467 32.346 3.267 39.082.067.867.534 1.534 1.201 2.068l.667 5.469c-.067.066-.133.066-.2.133l-8.47 11.071c-1.601 1.267-1.601 2.801.066 3.468l.467.2c1.601.667 4.269.2 5.869-1.067l9.471-7.403c1.6-1.267 1.8-1.667 1.067-4.468l-.4-1.934c-.134-.534-.467-1.001-.867-1.267l-.601-4.669c.334-.467.601-1 .734-1.667 1.667-6.003.267-26.211 4.535-32.213.4-.6 1.001-1.201 1.667-1.867l-32.079-18.408c-.934.934-1.534 1.934-1.667 2.735z" fill="#2c1f9c" opacity=".22"/><path d="m858.367 397.022s16.873-9.27 12.672-20.008c-4.202-10.737-21.742 14.806-21.742 14.806z" fill="#2c1f9c" opacity=".22"/><path d="m841.822 381.548c1.467 0 31.212 10.738 31.212-13.938 0-24.61-37.948 3.468-37.948 3.468z" fill="#3b2ad1"/><path d="m807.616 434.904 9.737-9.937c1.334-.8 4.268-1.134 6.336-.934.933.134 1.6.867 1.667 1.801l.2 2.001c.333 2.868.067 3.268-1.667 4.268l-10.338 6.136c-1.734 1.067-4.402 1.2-5.935.333l-.401-.266c-1.534-.801-1.333-2.335.401-3.402z" fill="#2c1f9c"/><path d="m824.621 425.433c0 2.935-7.137 2.935-7.137 0v-9.47h7.137z" fill="#c6d2f2"/><path d="m826.349 445.443 8.47-11.071c1.2-.933 4.135-1.667 6.136-1.667.933 0 1.734.667 1.867 1.534l.4 1.934c.667 2.801.467 3.201-1.067 4.469l-9.47 7.402c-1.601 1.268-4.202 1.734-5.869 1.068l-.467-.201c-1.601-.666-1.601-2.267 0-3.468z" fill="#2c1f9c"/><path d="m842.098 433.837c.333 2.868-6.669 3.802-7.069.867l-1.201-9.403 7.07-.867z" fill="#c6d2f2"/><path d="m840.423 359.076s-22.009 11.271-22.943 17.14c-.8 5.136-1.667 35.614-1.2 42.751.066 1 .667 1.934 1.6 2.401 2.201 1.067 6.136 2.2 7.403-2.268 1.868-6.269 1.201-27.678 5.669-33.747 4.402-6.135 26.411-14.739 26.411-14.739z" fill="#3b2ad1"/><path d="m855.242 369.279s-24.609 12.272-25.343 17.874c-.6 4.869 2.401 32.613 3.201 39.549.134 1.067.801 2.001 1.801 2.401 2.268.867 6.069 1.734 7.27-2.468 1.667-6.002.266-26.21 4.535-32.212 2.267-3.202 8.203-6.87 18.274-11.672 4.601-2.201 7.936-11.271 2.334-11.938z" fill="#3b2ad1"/><path d="m833.898 324.928-4.669 18.007c-.4 2.134-1.133 5.269-1.667 8.937-.8 5.669.8 11.871 4.268 16.139 0 0 1.668-8.803 3.335-12.938 2.935-7.27 5.269-15.873 5.269-16.14 0-.533-6.536-14.005-6.536-14.005z" fill="#ffc2b0"/><path d="m840.832 312.723-11.004 18.941c1.534 6.002 4.802 9.07 8.87 10.737l3.535-23.409z" fill="#bad4f5"/><path d="m832.297 329.396s1.801 5.269 11.671 8.604" stroke="#fff" stroke-linecap="round" stroke-linejoin="round" stroke-miterlimit="10" stroke-width="3.7752"/><path d="m837.497 358.206c1.734-9.337 1.334-15.006-.2-27.877 0-17.807 5.402-24.477 16.673-20.342l4.669 1.201c13.538 7.336 20.474 6.936 18.007 21.275l-2.401 31.479c0 16.206-37.615 13.339-36.748-5.736z" fill="#bad4f5"/><path d="m852.231 310.056s1.801 1.667 2.668 1.8c.867.2 10.538-7.603 7.07-16.34-2.201-5.535-12.672-1.2-12.672-1.2z" fill="#2c1f9c"/><path d="m855.431 317.726-.533.066c-1.801.334-3.535-.933-3.868-2.734l-1.734-10.271c-.334-1.801.933-3.535 2.734-3.868l.534-.067c1.8-.333 3.534.934 3.868 2.735l3.134 9.603c.267 1.801-2.334 4.202-4.135 4.536z" fill="#ffc2b0"/><path d="m850.43 311.721s4.401.067 7.269-4.135c0 0-2.801 6.469-6.802 7.003z" fill="#f09a82"/><path d="m853.698 306.585c-1 4.935-4.468 6.536-7.736 3.602-3.268-2.935-5.069-9.271-4.069-14.139 1.001-4.936 4.469-6.536 7.737-3.602 3.334 2.935 5.135 9.27 4.068 14.139z" fill="#ffc2b0"/><path d="m858.708 304.718c-1 4.935-6.069 7.002-9.27 4.135-3.268-2.935-5.069-9.271-4.068-14.139 1-4.936 4.468-6.536 7.736-3.602 3.268 2.868 6.603 8.67 5.602 13.606z" fill="#ffc2b0"/><path d="m851.428 294.382s.534 9.27 8.07 10.071c0 0 7.337-6.069-.133-13.806-6.536-6.802-14.006.467-14.006.467z" fill="#2c1f9c"/><path d="m841.625 298.385s1.867-3.602 6.936-4.135l-3.202-3.068s-3.935-.067-3.734 7.203z" fill="#21ded5"/><path d="m856.159 299.117c-2.067-2.001-5.735-1.2-10.671 1.734-4.802 1.134-6.402-4.335-6.402-4.335-1.267-2.801.467-4.535 3.268-5.802l7.403-3.335c4.201-1.867 9.003 1.001 10.27 3.802l.267.467c1.267 2.867-1.334 6.202-4.135 7.469z" fill="#2c1f9c"/><path d="m860.032 305.788c-.267 1.201-1.401 1.934-2.601 1.734-1.201-.267-1.934-1.4-1.734-2.601.267-1.2 1.4-1.934 2.601-1.734 1.267.267 2.001 1.401 1.734 2.601z" fill="#ffc2b0"/><path d="m850.44 311.722s-3.734 5.202 1.534 7.469c8.337 3.535 10.938-5.869 9.604-6.402l-2.601-1.334s1.801 2.601-.8 4.802c-1.934 1.667-5.469 2.001-7.003-.6z" fill="#fff"/><path d="m864.57 330.328v30.546l5.669-3.335z" fill="#98c1f5"/><path d="m858.511 372.743-2.601-.933-.334-.334-.2-.333-19.608-10.204c-.266-.134-.6-.134-.867.066l-7.469 4.402v-.133l-1.401.533.067.6c0 .067.067.134.133.134l20.408 10.604.067.067c.4 1.534 1.134 2.934 2.468 2.134l8.27-4.869c.733-.333 1.067-1 1.067-1.734z" fill="#a8c4e5"/><path d="m847.508 378.813-23.542-12.205c-.267-.133-.267-.4 0-.533l10.004-5.869c.266-.134.733-.2 1-.067l23.543 12.205c.267.133.267.4 0 .534l-10.004 5.868c-.267.201-.734.201-1.001.067z" fill="#e1eaf4"/><path d="m848.172 370.942-5.669-2.934c-.067-.067-.067-.067 0-.134l2.401-1.4c.067-.067.2-.067.267 0l5.669 2.934c.066.067.066.067 0 .134l-2.401 1.4c-.134 0-.2 0-.267 0z" fill="#a8c4e5"/><path d="m845.435 365.008c-.133-.534-.667-1.2-1.2-1.467l-23.343-11.938c-.2-.134-.4-.134-.467-.067-.066 0-.066.067-.133.067l-.667.733.667-.066 3.468 12.938c.133.534.667 1.201 1.2 1.467l22.076 11.271.733.734.134.2c.4.067 1.334-.6 1.334-.6z" fill="#fff"/><path d="m847.635 379.414s-24.343-12.872-24.543-13.405l-3.535-13.072c-.133-.534.134-.8.667-.534l23.343 11.939c.533.266 1 .933 1.2 1.467l3.535 13.072c.134.533-.133.8-.667.533z" fill="#5f6ccf"/><path d="m834.567 366.742c.2.667-.467.867-1.468.334-1-.534-1.934-1.468-2.134-2.134-.2-.667.467-.867 1.467-.334 1.001.534 1.935 1.467 2.135 2.134z" fill="#fff"/><path d="m865.505 330.328 3.068 27.344c.133 1.468-22.409 8.67-22.409 8.67l1.867 7.937 23.01-5.869c6.069-2.534 5.935-7.203 5.869-11.004l-.401-23.743z" fill="#ffc2b0"/><path d="m864.834 333.329 1.934 20.275c.6 1.667 15.74-1.801 15.14-4.268-.134-.467-1.668-24.744-8.47-30.279-5.536-4.535-9.938 4.935-8.604 14.272z" fill="#bad4f5"/><path d="m866.703 348.203s6.269 1.601 14.072-4.068" stroke="#fff" stroke-linecap="round" stroke-linejoin="round" stroke-miterlimit="10" stroke-width="3.7752"/><path d="m358.588 402.489c-3.935-2.268-1.201-6.136 4.335-6.136 6.269 0 11.338-2.935 11.271-6.536v-1.867c0-3.602-5.135-6.536-11.338-6.536-5.535 0-8.336-3.868-4.401-6.136 4.401-2.534 4.401-6.669-.067-9.27l-2.268-1.334c-4.468-2.535-11.604-2.601-16.006 0-3.868 2.267-10.604.667-10.604-2.535 0-3.601-5.136-6.535-11.338-6.535h-3.201c-6.27 0-11.338 2.934-11.272 6.535 0 3.202-6.669 4.802-10.604 2.535-4.468-2.535-11.604-2.601-16.006 0l-2.268 1.334c-4.401 2.534-4.401 6.669.067 9.27 3.935 2.268 1.201 6.136-4.335 6.136-6.269 0-11.338 2.934-11.271 6.536v1.867c0 3.601 5.135 6.536 11.338 6.536 5.535 0 8.336 3.868 4.401 6.136-4.401 2.534-4.401 6.669.067 9.27l2.268 1.334c4.468 2.534 11.604 2.601 16.006 0 3.868-2.268 10.604-.667 10.604 2.534 0 3.602 5.136 6.536 11.338 6.536h3.201c6.269 0 11.338-2.934 11.271-6.536 0-3.201 6.67-4.802 10.605-2.534 4.468 2.534 11.604 2.601 16.006 0l2.268-1.334c4.335-2.534 4.335-6.669-.067-9.27zm-61.691-2.201c-11.005-6.336-11.071-16.607-.134-22.943 10.938-6.335 28.745-6.269 39.749.067 11.005 6.336 11.072 16.607.134 22.943-11.004 6.335-28.745 6.335-39.749-.067z" fill="#a8c4e5" opacity=".77"/><path d="m362.983 386.618v-15.406l-8.937-1.401-3.868-1.867c-.467-1.201-1.467-2.335-3.068-3.268l-2.267-1.334c-.467-.267-1.001-.534-1.534-.734l6.802-.333.334-10.338-29.679-3.534-2.867-6.87-25.477.801 3.535 6.669c-6.603.467-15.14 1.134-15.14 1.134l-1.4 1.8c-2.735-.2-19.141-1.4-19.141-1.4v13.405l6.002-1.067c-.2.067-.4.2-.533.267l-2.268 1.334c-1.667.933-2.734 2.134-3.068 3.401l-12.471.8v16.74h.133c-.067.267-.133.6-.133.867v1.868c0 3.601 5.135 6.536 11.337 6.536.4 0 .734 0 1.067.066l.067 10.538c-.067 1.734 1.067 3.468 3.335 4.802l2.267 1.334c4.469 2.534 11.605 2.601 16.007 0 3.868-2.268 10.604-.667 10.604 2.534 0 3.601 5.135 6.536 11.338 6.536h3.201c6.269 0 11.338-2.935 11.271-6.536 0-3.201 6.669-4.802 10.604-2.534 4.469 2.534 11.605 2.601 16.007 0l2.267-1.334c2.735-1.601 3.802-3.802 3.068-5.869v-9.137c.4-.067.8-.067 1.201-.067 6.069 0 10.937-2.734 11.271-6.202v-.201c0-.066 0-.133 0-.133zm-56.689 3.801c-11.004 0-19.941-5.135-19.941-11.538 0-6.336 8.937-11.538 19.941-11.538s19.941 5.136 19.941 11.538c0 6.403-8.937 11.538-19.941 11.538z" fill="#2c1f9c"/><path d="m347.377 383.483c-3.935-2.268-1.201-6.136 4.335-6.136 6.269 0 11.338-2.934 11.271-6.536v-1.867c0-3.602-5.135-6.536-11.338-6.536-5.535 0-8.336-3.868-4.401-6.136 4.401-2.534 4.401-6.669-.067-9.27l-2.268-1.334c-4.468-2.534-11.604-2.601-16.006 0-3.868 2.268-10.604.667-10.604-2.534 0-3.602-5.136-6.536-11.338-6.536h-3.201c-6.269 0-11.338 2.934-11.271 6.536 0 3.201-6.67 4.802-10.605 2.534-4.468-2.534-11.604-2.601-16.006 0l-2.268 1.334c-4.401 2.534-4.401 6.669.067 9.27 3.935 2.268 1.201 6.136-4.335 6.136-6.269 0-11.338 2.934-11.271 6.536v1.867c0 3.602 5.135 6.536 11.338 6.536 5.535 0 8.336 3.868 4.402 6.136-4.402 2.534-4.402 6.669.066 9.27l2.268 1.334c4.468 2.534 11.604 2.601 16.006 0 3.868-2.267 10.604-.667 10.604 2.534 0 3.602 5.136 6.536 11.338 6.536h3.201c6.27 0 11.338-2.934 11.272-6.536 0-3.201 6.669-4.801 10.604-2.534 4.468 2.534 11.604 2.601 16.006 0l2.268-1.334c4.401-2.601 4.335-6.736-.067-9.27zm-61.691-2.268c-11.005-6.335-11.071-16.606-.134-22.942 10.938-6.336 28.745-6.269 39.75.067 11.004 6.335 11.071 16.606.133 22.942s-28.745 6.336-39.749-.067z" fill="#4852db"/><path d="m429.754 435.836c-2.868-1.667-.868-4.468 3.201-4.468 4.535 0 8.27-2.134 8.203-4.735v-1.334c0-2.601-3.735-4.802-8.27-4.802-4.002 0-6.069-2.801-3.201-4.469 3.201-1.867 3.201-4.868-.067-6.736l-1.667-.933c-3.201-1.868-8.47-1.868-11.672 0-2.867 1.667-7.736.467-7.736-1.868 0-2.601-3.735-4.802-8.27-4.802h-2.334c-4.535 0-8.27 2.135-8.203 4.736 0 2.334-4.869 3.468-7.67 1.8-3.201-1.867-8.47-1.867-11.671 0l-1.668.934c-3.201 1.867-3.201 4.869.067 6.736 2.868 1.667.867 4.469-3.201 4.469-4.535 0-8.27 2.134-8.203 4.735v1.334c0 2.601 3.734 4.801 8.269 4.801 4.002 0 6.069 2.802 3.202 4.469-3.202 1.867-3.202 4.869.066 6.736l1.668.934c3.201 1.867 8.47 1.867 11.671 0 2.868-1.668 7.736-.467 7.736 1.867 0 2.601 3.735 4.802 8.27 4.802h2.335c4.535 0 8.27-2.134 8.203-4.735 0-2.335 4.868-3.468 7.67-1.801 3.201 1.867 8.47 1.867 11.671 0l1.667-.934c3.201-1.8 3.201-4.868-.066-6.736zm-44.952-1.6c-8.003-4.602-8.069-12.138-.066-16.74s20.941-4.602 28.944.066c8.004 4.602 8.07 12.139.067 16.74-7.936 4.602-20.875 4.602-28.945-.066z" fill="#a8c4e5" opacity=".77"/><path d="m430.147 423.432v-9.937l-5.735-.934-2.468-1.2c-.267-.801-.934-1.534-2.001-2.135l-1.467-.867c-.334-.2-.667-.333-1.001-.466l4.402-.201.2-6.669-19.141-2.267-1.867-4.469-16.407.534 2.268 4.268c-4.268.333-9.737.734-9.737.734l-.867 1.133c-1.734-.133-12.338-.867-12.338-.867v8.671l3.868-.667c-.134.066-.267.133-.334.2l-1.467.867c-1.067.6-1.734 1.4-2.001 2.201l-8.07.533v10.804h.067c-.067.2-.067.401-.067.601v1.2c0 2.334 3.268 4.202 7.337 4.202.266 0 .466 0 .667.066l.066 6.803c-.066 1.134.667 2.201 2.134 3.068l1.468.867c2.867 1.667 7.469 1.667 10.337 0 2.534-1.467 6.803-.4 6.803 1.667 0 2.335 3.268 4.202 7.336 4.202h2.068c4.001 0 7.269-1.867 7.269-4.202 0-2.067 4.268-3.068 6.803-1.6 2.868 1.667 7.469 1.667 10.337 0l1.467-.867c1.801-1.001 2.401-2.468 2.001-3.802v-6.069c.267 0 .534-.067.801-.067 3.934 0 7.069-1.734 7.269-4.001v-.134c0-.066 0-.066 0-.133zm-36.548 2.468c-7.069 0-12.871-3.335-12.871-7.403 0-4.069 5.735-7.403 12.871-7.403 7.07 0 12.872 3.334 12.872 7.403 0 4.068-5.802 7.403-12.872 7.403z" fill="#2c1f9c"/><path d="m420.076 421.43c-2.534-1.467-.733-3.934 2.802-3.934 4.001 0 7.269-1.868 7.269-4.202v-1.201c0-2.334-3.268-4.201-7.336-4.201-3.535 0-5.336-2.468-2.868-3.935 2.868-1.667 2.801-4.335 0-5.936l-1.467-.867c-2.868-1.667-7.47-1.667-10.338 0-2.534 1.467-6.802.4-6.802-1.667 0-2.334-3.268-4.202-7.337-4.202h-2.067c-4.002 0-7.27 1.868-7.27 4.202 0 2.067-4.268 3.068-6.802 1.6-2.868-1.667-7.47-1.667-10.338 0l-1.467.867c-2.868 1.668-2.801 4.336 0 5.936 2.534 1.467.734 3.935-2.801 3.935-4.002 0-7.27 1.867-7.27 4.202v1.2c0 2.334 3.268 4.202 7.337 4.202 3.534 0 5.335 2.468 2.867 3.935-2.867 1.667-2.801 4.335 0 5.935l1.468.867c2.867 1.668 7.469 1.668 10.337 0 2.534-1.467 6.803-.4 6.803 1.668 0 2.334 3.268 4.201 7.336 4.201h2.068c4.001 0 7.269-1.867 7.269-4.201 0-2.068 4.268-3.068 6.803-1.601 2.868 1.667 7.469 1.667 10.337 0l1.467-.867c2.868-1.6 2.868-4.268 0-5.936zm-39.749-1.467c-7.069-4.068-7.136-10.737-.066-14.806 7.069-4.068 18.54-4.068 25.61.067 7.069 4.135 7.136 10.738.067 14.806-7.07 4.068-18.541 4.068-25.611-.067z" fill="#4852db"/><path d="m507.698 476.631c.099-5.598-8.925-10.297-20.157-10.496s-20.418 4.177-20.517 9.775c-.1 5.597 8.925 10.296 20.157 10.496 11.232.199 20.418-4.177 20.517-9.775z" fill="#a8c4e5" opacity=".4"/><path d="m484.166 481.79-8.47-8.403c-1.134-.667-3.735-.934-5.469-.734-.8.133-1.4.733-1.4 1.534l-.134 1.667c-.267 2.468-.066 2.801 1.467 3.668l8.937 5.136c1.534.867 3.802.933 5.136.2l.4-.2c1.2-.667 1.067-2.001-.467-2.868z" fill="#2c1f9c"/><path d="m469.492 473.121c0 2.534 6.136 2.534 6.136 0v-8.137h-6.136z" fill="#c6d2f2"/><path d="m504.244 471.052-8.47-8.404c-1.134-.667-3.735-.933-5.469-.733-.8.133-1.4.733-1.4 1.534l-.134 1.667c-.266 2.467-.066 2.801 1.468 3.668l8.936 5.135c1.534.867 3.802.934 5.136.2l.4-.2c1.2-.667 1-2-.467-2.867z" fill="#2c1f9c"/><path d="m489.562 462.314c0 2.535 6.136 2.535 6.136 0v-8.136h-6.136z" fill="#c6d2f2"/><path d="m488.698 459.98c2.401 1.735 6.336 1.668 7.67-.333l6.135-75.363-18.941-5.602z" fill="#3b2ad1"/><path d="m468.757 467.916c1.934 2.867 6.269 2.867 7.603.8l12.805-85.634h-22.009z" fill="#3b2ad1"/><path d="m485.703 406.159.467 6.003 5.402-18.541-3.001.6z" fill="#2c1f9c"/><path d="m499.833 337.066 8.603 16.073c-1.4 5.603-4.401 8.47-8.27 9.938l-3.268-21.742z" fill="#2c1f9c"/><path d="m507.239 348.67s-2.801 7.203-12.005 10.337" stroke="#fff" stroke-linecap="round" stroke-linejoin="round" stroke-miterlimit="10" stroke-width=".9152"/><path d="m502.636 381.283v-29.411c0-16.54-6.269-22.676-16.673-18.874l-4.335 1.133c-12.605 6.803-19.008 6.47-16.74 19.742l2.201 29.211c0 15.006 36.348 15.873 35.547-1.801z" fill="#4852db"/><path d="m473.229 358.941-5.469 22.476-.6 2.201-.801-10.804z" fill="#2c1f9c"/><path d="m485.83 332.462s-2.001 1.201-2.868 1.201-7.87-7.47-2.934-15.006c3.134-4.735 11.604-.4 11.604-.4z" fill="#2c1f9c"/><path d="m496.833 327.357c2.207-5.106 1.666-10.251-1.208-11.494-2.874-1.242-6.992 1.889-9.199 6.995-2.207 5.105-1.667 10.251 1.207 11.493s6.993-1.889 9.2-6.994z" fill="#ffc2b0"/><path d="m480.758 326.126c0 4.802 4.335 7.803 7.936 5.669 3.602-2.067 6.603-7.67 6.603-12.538 0-4.869-2.935-7.003-6.603-4.935-3.601 2.2-7.936 7.002-7.936 11.804z" fill="#ffc2b0"/><path d="m484.63 340.2.534.067c1.667.267 3.335-.867 3.601-2.535l1.601-9.537c.267-1.667-.867-3.334-2.534-3.601l-.534-.067c-1.667-.267-3.335.867-3.601 2.535l-2.935 8.936c-.267 1.668 2.201 3.869 3.868 4.202z" fill="#ffc2b0"/><path d="m480.031 327.929c0 1.201.934 2.134 2.134 2.134 1.201 0 2.135-.933 2.135-2.134 0-1.2-.934-2.134-2.135-2.134-1.2 0-2.134.934-2.134 2.134z" fill="#ffc2b0"/><path d="m492.372 318.258s-.867 11.137-12.338 7.536c0 0-5.736-7.136 2.801-13.005 7.536-5.136 13.072 3.201 13.072 3.201z" fill="#2c1f9c"/><path d="m498.028 323.528s-1-3.801-5.669-5.268l3.602-2.268c-.067 0 3.668.8 2.067 7.536z" fill="#2c1f9c"/><path d="m477.094 365.943c0 .934.733 1.667 1.667 1.6 2.334-.066 4.535-1.267 4.535-3.734v-8.404c0-.533-.667-.8-1-.4-1.334 1.467-2.935 2.134-4.669 2.268-.333 0-.533.267-.533.6z" stroke="#fff" stroke-miterlimit="10" stroke-width=".9152"/><path d="m483.359 356.34c-1.067 2.201-3.402 3.201-6.203 3.668" stroke="#fff" stroke-miterlimit="10" stroke-width=".9152"/><path d="m489.236 334.264s-4.068.067-6.736-3.801c0 0 2.601 6.002 6.336 6.469z" fill="#2c1f9c"/><path d="m500.903 374.811 22.675-13.071-22.542-13.006-22.942 13.072z" fill="#ffa6e6"/><path d="m500.903 374.812h-.067v26.077l22.742-13.138v-26.011z" fill="#e655be"/><path d="m500.903 374.81-22.809-13.005v25.21l23.209 13.872v-26.277z" fill="#ff80db"/><path d="m501.309 368.01-11.004-6.336 10.937-6.336 11.005 6.402z" fill="#fff"/><path d="m467.09 359.008s-7.87 12.138 5.402 31.145c3.668 5.202 23.676 6.936 23.676 6.936v-4.135s-13.739-1.133-17.14-7.203c-3.868-6.869-1.134-30.011-11.938-26.743z" fill="#ffc2b0"/><path d="m498.701 399.557-2.134-.467c-1.6-.333-2.934-2.134-2.934-4.001 0-1.868 1.334-3.135 2.934-2.801l2.134.467c1.601.333 2.935 2.134 2.935 4.001 0 1.868-1.334 3.135-2.935 2.801z" fill="#ffc2b0"/><path d="m475.36 355.14 1.134 19.808c-.267 1.734-14.006 1.801-13.806-.734 0-.466-2-24.009 3.135-30.812 4.202-5.535 9.404 2.535 9.537 11.738z" fill="#4852db"/><path d="m476.161 369.345s-6.269 3.335-13.872-.4" stroke="#fff" stroke-linecap="round" stroke-linejoin="round" stroke-miterlimit="10" stroke-width=".8438"/><path d="m82.8036 380.948c-15.3394-9.203-40.4827-9.603-56.1556-.933s-15.8729 23.209-.5335 32.412c15.3394 9.204 40.2159 9.604 56.1555 1.134 17.5403-9.337 15.873-23.409.5336-32.613z" fill="#4a70d6" opacity=".27"/><path d="m70.1289 378.945c-14.6058-8.737-38.4819-9.137-53.3545-.867-14.87254 8.27-15.07262 22.009-.5335 30.812 14.6058 8.737 38.2151 9.137 53.3544 1.067 16.6733-8.937 15.1394-22.275.5336-31.012z" fill="#db39af"/><path d="m69.5976 369.877c-14.6058-8.737-38.4819-9.137-53.3544-.867-14.87259 8.269-15.07267 22.008-.5336 30.812 14.6058 8.736 38.2152 9.137 53.3545 1.067 16.74-8.937 15.1393-22.276.5335-31.012z" fill="#ff80db"/><path d="m33.5772 375.881-4.335 14.872 35.0138-7.936" stroke="#fff" stroke-linecap="round" stroke-linejoin="round" stroke-miterlimit="10" stroke-width="11.6751"/><path d="m72.3935 468.368c.0281-5.194-7.2049-9.443-16.1555-9.492-8.9505-.048-16.2292 4.122-16.2573 9.316-.0282 5.194 7.2048 9.443 16.1554 9.492 8.9506.048 16.2292-4.123 16.2574-9.316z" fill="#dbefff"/><path d="m802.659 481.907c.028-5.194-7.205-9.443-16.155-9.492-8.951-.048-16.23 4.123-16.258 9.316-.028 5.194 7.205 9.443 16.156 9.492 8.95.048 16.229-4.123 16.257-9.316z" fill="#dbefff"/><path d="m238.124 472.505c.02-3.793-5.278-6.898-11.834-6.933-6.557-.036-11.888 3.011-11.909 6.805s5.278 6.898 11.834 6.933c6.556.036 11.888-3.011 11.909-6.805z" fill="#dbefff"/><path d="m189.147 269.724c.021-3.794-5.278-6.898-11.834-6.934-6.556-.035-11.888 3.012-11.909 6.805-.02 3.794 5.278 6.899 11.835 6.934 6.556.036 11.888-3.011 11.908-6.805z" fill="#dbefff"/><path d="m427.069 193.298c.021-3.793-5.278-6.898-11.834-6.933-6.556-.036-11.888 3.011-11.909 6.805-.02 3.794 5.278 6.898 11.834 6.933 6.557.036 11.888-3.011 11.909-6.805z" fill="#dbefff"/><path d="m332.167 315.592c-3.268 1.868-8.537 1.868-11.872 0-3.268-1.867-3.268-4.935-.066-6.869 3.268-1.868 8.536-1.868 11.871 0 3.268 1.934 3.335 5.002.067 6.869z" fill="#dbefff"/><path d="m567.401 478.121c-3.268 1.868-8.537 1.868-11.871 0-3.268-1.867-3.268-4.935-.067-6.869 3.268-1.867 8.537-1.867 11.871 0 3.335 1.934 3.335 5.002.067 6.869z" fill="#dbefff"/><path d="m743.01 417.297c-3.268 1.868-8.536 1.868-11.871 0-3.268-1.867-3.268-4.935-.067-6.869 3.268-1.868 8.537-1.868 11.872 0 3.334 1.934 3.334 5.002.066 6.869z" fill="#dbefff"/></svg>