<svg width="375" height="228" viewBox="0 0 375 228" fill="none" xmlns="http://www.w3.org/2000/svg">
<rect width="375" height="228" fill="white"/>
<path d="M257.566 42.9071C252.716 23.6125 233.168 6.26293 224 0H375V142C364.234 132.606 323.34 133.961 299.817 127.999C276.294 122.037 264.713 108.397 261.999 99.2735C257.528 84.2449 263.627 67.0254 257.566 42.9071Z" fill="#EC6D4E"/>
<path d="M257.566 42.9071C252.716 23.6125 233.168 6.26293 224 0H375V142C364.234 132.606 323.34 133.961 299.817 127.999C276.294 122.037 264.713 108.397 261.999 99.2735C257.528 84.2449 263.627 67.0254 257.566 42.9071Z" fill="url(#paint0_linear_1616_36)"/>
<defs>
<linearGradient id="paint0_linear_1616_36" x1="-112.954" y1="38.9626" x2="7.88648" y2="328.614" gradientUnits="userSpaceOnUse">
<stop offset="0.104409" stop-color="#5233F0"/>
<stop offset="1" stop-color="#34B1F8"/>
</linearGradient>
</defs>
</svg>
