<svg width="264" height="248" viewBox="0 0 264 248" fill="none" xmlns="http://www.w3.org/2000/svg">
<path d="M234.62 69.0061C231.686 64.0225 226.961 60.096 221.503 58.1759C219.151 57.3561 216.325 56.9678 214.405 58.5427C212.485 60.1176 213.154 64.1519 215.635 64.0872C207.976 58.78 198.742 55.7812 189.422 55.5439C187.092 55.4792 184.439 55.7381 182.972 57.5503C181.483 59.3625 182.734 62.9438 185.021 62.5339C177.988 58.0249 168.711 59.4056 160.837 62.2103C158.55 63.0301 156.285 63.9362 154.019 64.8423C151.538 65.8347 152.272 69.5239 154.947 69.5023L234.62 69.0061Z" fill="#CCE9FF"/>
<path d="M34.4869 43.2901C31.5528 44.002 28.5756 41.5642 29.2012 39.5146C29.8269 37.4651 32.6747 36.0628 35.544 35.2214C42.0378 33.3229 49.7397 33.3444 56.212 35.2861C54.7018 34.5094 54.8312 32.8698 56.0178 31.899C57.226 30.9282 59.146 30.4967 61.0014 30.2594C69.8468 29.1375 79.5335 31.7264 84.7329 36.6453C83.0285 35.4371 83.9562 33.2797 86.0058 32.3736C88.0553 31.4675 90.7736 31.4675 93.2115 31.7695C103.697 33.0208 112.585 36.8394 114.591 43.8294L34.4869 43.2901Z" fill="#CCE9FF"/>
<path d="M29.7031 206.822C38.1386 190.599 47.4154 174.806 57.4905 159.553C61.5465 153.405 66.1202 147.019 72.9376 144.193C78.9136 141.712 85.9036 142.445 91.7933 145.164C97.6615 147.882 102.537 152.434 106.572 157.504C110.045 161.84 113.756 167.061 119.3 167.514C125.212 168.01 129.893 162.833 133.539 158.13C145.513 142.704 157.486 127.257 169.46 111.832C173.43 106.719 178.327 101.131 184.778 101.152C190.559 101.174 195.241 105.748 198.844 110.278C219.986 136.793 228.228 171.031 235.887 204.039L29.7031 206.822Z" fill="#F7F7F7"/>
<path d="M225.252 176.078C233.783 176.078 240.699 169.162 240.699 160.631C240.699 152.099 233.783 145.184 225.252 145.184C216.721 145.184 209.805 152.099 209.805 160.631C209.805 169.162 216.721 176.078 225.252 176.078Z" fill="#CCEEFF"/>
<path d="M225.162 203.261C224.924 203.218 224.773 203.002 224.773 202.764V165.377C224.773 165.118 224.968 164.88 225.226 164.88C225.507 164.859 225.723 165.075 225.723 165.355V202.808C225.723 203.088 225.464 203.325 225.162 203.261Z" fill="#B6EAFF"/>
<path d="M225.249 168.483C225.119 168.483 225.011 168.44 224.903 168.353C224.709 168.159 224.709 167.857 224.903 167.685L229.132 163.456C229.326 163.262 229.628 163.262 229.801 163.456C229.995 163.65 229.995 163.952 229.801 164.125L225.594 168.353C225.486 168.44 225.378 168.483 225.249 168.483Z" fill="#B6EAFF"/>
<path d="M225.249 172.409C225.119 172.409 225.011 172.366 224.903 172.279C224.709 172.085 224.709 171.783 224.903 171.61L229.132 167.382C229.326 167.188 229.628 167.188 229.801 167.382C229.995 167.576 229.995 167.878 229.801 168.051L225.594 172.279C225.486 172.366 225.378 172.409 225.249 172.409Z" fill="#B6EAFF"/>
<path d="M47.9491 177.935C61.1629 177.935 71.8747 167.223 71.8747 154.01C71.8747 140.796 61.1629 130.084 47.9491 130.084C34.7353 130.084 24.0234 140.796 24.0234 154.01C24.0234 167.223 34.7353 177.935 47.9491 177.935Z" fill="#B0E1FF"/>
<path d="M47.9378 201.279C47.6358 201.279 47.3984 201.042 47.3984 200.74V154.01C47.3984 153.708 47.6358 153.471 47.9378 153.471C48.2398 153.471 48.4771 153.708 48.4771 154.01V200.718C48.4987 201.02 48.2398 201.279 47.9378 201.279Z" fill="#CCEEFF"/>
<path d="M47.9412 166.934C47.8118 166.934 47.6608 166.891 47.5529 166.783L40.8649 160.095C40.6492 159.879 40.6492 159.534 40.8649 159.318C41.0807 159.102 41.4259 159.102 41.6416 159.318L48.3296 166.028C48.5453 166.243 48.5453 166.589 48.3296 166.804C48.2217 166.891 48.0922 166.934 47.9412 166.934Z" fill="#CCEEFF"/>
<path d="M47.9412 173.168C47.8118 173.168 47.6608 173.125 47.5529 173.017L40.8649 166.329C40.6492 166.113 40.6492 165.768 40.8649 165.552C41.0807 165.337 41.4259 165.337 41.6416 165.552L48.3296 172.24C48.5453 172.456 48.5453 172.801 48.3296 173.017C48.2217 173.103 48.0922 173.168 47.9412 173.168Z" fill="#CCEEFF"/>
<path d="M33.6915 198.73H231.892C235.021 198.73 237.545 201.255 237.545 204.383V211.459C237.545 214.587 235.021 217.112 231.892 217.112H33.6915C30.5632 217.112 28.0391 214.587 28.0391 211.459V204.383C28.0391 201.276 30.5632 198.73 33.6915 198.73Z" fill="#F2F2F2"/>
<path d="M168.031 103.547C186.214 103.547 200.953 88.8075 200.953 70.6252C200.953 52.4428 186.214 37.7031 168.031 37.7031C149.849 37.7031 135.109 52.4428 135.109 70.6252C135.109 88.8075 149.849 103.547 168.031 103.547Z" stroke="#6236FF" stroke-miterlimit="10"/>
<path d="M162.897 108.681C169.693 112.003 167.708 118.368 167.708 118.368C167.708 118.368 163.911 123.847 157.093 120.525C150.298 117.203 143.07 106.329 143.07 106.329C143.07 106.329 156.101 105.359 162.897 108.681Z" fill="#2A94F4"/>
<path d="M162.897 108.681C169.693 112.003 167.708 118.368 167.708 118.368L143.07 106.329C143.07 106.329 156.101 105.359 162.897 108.681Z" fill="#CCE9FF"/>
<path d="M173.729 144.3C166.933 147.622 168.918 153.987 168.918 153.987C168.918 153.987 172.715 159.467 179.533 156.144C186.329 152.822 193.556 141.948 193.556 141.948C193.556 141.948 180.547 140.978 173.729 144.3Z" fill="#2A94F4"/>
<path d="M173.729 144.3C166.933 147.622 168.918 153.987 168.918 153.987L193.556 141.948C193.556 141.948 180.547 140.978 173.729 144.3Z" fill="#CCE9FF"/>
<path d="M189.46 200.932C180.809 211.741 167.713 206.822 167.713 206.822C167.713 206.822 160.033 195.129 168.684 184.299C177.335 173.468 201.434 164.645 201.434 164.645C201.434 164.645 198.111 190.102 189.46 200.932Z" fill="#CCE9FF"/>
<path d="M189.458 200.932C180.806 211.741 167.711 206.822 167.711 206.822L201.431 164.645C201.431 164.645 198.109 190.102 189.458 200.932Z" fill="#2A94F4"/>
<path d="M146.763 200.932C155.414 211.741 168.509 206.822 168.509 206.822C168.509 206.822 176.19 195.129 167.539 184.299C158.887 173.49 134.789 164.645 134.789 164.645C134.789 164.645 138.111 190.102 146.763 200.932Z" fill="#CCE9FF"/>
<path d="M146.763 200.932C155.414 211.741 168.509 206.822 168.509 206.822L134.789 164.645C134.789 164.645 138.111 190.102 146.763 200.932Z" fill="#2A94F4"/>
<path d="M125.017 115.866L118.825 117.851L117.919 117.42L116.172 115.694L116.344 112.868L119.775 112.781L125.017 115.866Z" fill="#FCD2B1"/>
<path d="M104.391 79.6211C104.391 79.6211 102.277 104.043 119.752 112.78C119.04 113.622 116.106 114.959 116.106 114.959C116.106 114.959 98.9975 104.582 99.6016 93.0617C100.206 81.5412 104.391 79.6211 104.391 79.6211Z" fill="#1D87D6"/>
<path d="M71.2761 190.964C71.2761 190.964 73.563 201.536 75.2458 206.303C75.4399 206.864 74.728 207.317 74.3181 206.908C71.4919 204.124 67.5654 198.494 66.2709 197.199C64.6529 195.581 62.1719 192.561 62.1719 192.561L68.1047 187.34L72.0097 189.303L71.2761 190.964Z" fill="#0B4870"/>
<path d="M92.5045 198.731C92.5045 198.731 101.932 203.996 106.635 205.916C107.196 206.153 107.067 206.973 106.463 207.016C102.515 207.296 95.6759 206.52 93.8636 206.628C91.5984 206.779 87.6719 206.628 87.6719 206.628V198.731L91.7278 197.092L92.5045 198.731Z" fill="#083751"/>
<path d="M102.062 107.3C102.062 107.3 101.156 154.482 100.638 155.539C100.12 156.575 92.5045 198.752 92.5045 198.752H87.6719C87.6719 198.752 88.5348 154.676 90.4334 153.037C90.4334 149.153 89.1173 107.688 92.8065 104.732C98.2 104.409 102.062 107.3 102.062 107.3Z" fill="#083751"/>
<path d="M85.7053 102.748C78.7369 107.883 77.3346 131.873 84.4324 150.405C79.794 158.733 65.9219 191.763 65.9219 191.763L70.0209 194.222C70.0209 194.222 98.3046 155.324 97.2259 151.311C96.1472 147.299 98.1967 104.388 98.1967 104.388L85.7053 102.748Z" fill="#0B4870"/>
<path d="M105.714 74.206C105.865 74.7885 106.059 75.371 106.296 75.9319C107.807 79.5132 109.878 86.9131 109.727 88.1429C109.554 89.4805 104.829 94.0326 103.578 97.506C102.327 100.979 102.111 107.301 102.111 107.301L85.7578 102.749C85.7578 102.749 90.3099 91.53 90.4825 86.4601C90.6551 81.3902 92.4026 70.9052 98.8533 69.848C103.772 69.0282 105.282 72.5664 105.714 74.206Z" fill="#2A94F4"/>
<path d="M110.699 52.8052C111.001 52.0501 110.893 51.1872 110.419 50.5184C107.959 47.1744 103.537 45.2974 99.4375 46.031C94.8854 46.8508 91.0668 50.7773 90.3764 55.351C90.1175 57.12 90.2686 58.9323 89.9018 60.6798C89.4703 62.7293 88.2837 64.6278 86.6225 65.9007C84.5514 67.4972 81.8762 68.1012 79.5678 69.3525C77.2378 70.6254 75.3177 72.5239 73.6781 74.6166C72.0385 76.7093 70.6146 79.0609 70.1615 81.6929C69.7085 84.3249 70.3557 87.2374 72.3189 89.0281C73.5702 90.1715 75.1883 90.754 76.7848 91.2934C79.9777 92.3721 83.3217 93.3429 86.6657 92.9761C90.0097 92.6094 93.3968 90.6246 94.4324 87.41C95.8778 82.8795 92.3181 78.1116 92.9653 73.4085C93.4184 70.2155 95.7484 67.5835 98.3373 65.6634C100.926 63.7433 103.86 62.2762 106.32 60.2051C108.153 58.6734 109.901 54.7469 110.699 52.8052Z" fill="#0B4870"/>
<path d="M106.27 66.3539C105.45 68.0366 104.695 72.4593 105.407 74.3363C106.054 76.1916 105.817 76.4937 105.817 76.4937L98.6328 70.6039L100.294 62.5137L106.27 66.3539Z" fill="#FCD2B1"/>
<path d="M112.122 59.5568C112.122 63.7206 111.044 67.9707 107.592 67.9707C104.14 67.9707 99.6094 63.7206 99.6094 59.5568C99.6094 55.393 102.414 52.0059 105.866 52.0059C109.318 52.0059 112.122 55.393 112.122 59.5568Z" fill="#FFE3CA"/>
<path d="M111.746 51.2504C112.976 51.1425 113.817 52.4585 113.213 53.5156C112.026 55.6515 109.912 57.7873 104.993 57.1832C102.75 56.9028 99.1682 57.1832 98.9525 58.6934L97.2266 54.5943C97.2266 54.5943 97.658 52.0055 98.0895 52.0055C98.521 52.0055 102.793 52.0055 102.793 52.0055L111.746 51.2504Z" fill="#0B4870"/>
<path d="M102.408 56.7519C101.761 58.0463 101.416 60.3548 100.553 60.7862C99.474 60.1606 98.1364 56.9029 98.2227 56.9245C98.309 56.946 99.3877 56.2988 99.6035 56.2988C99.8192 56.2988 102.408 56.7519 102.408 56.7519Z" fill="#0B4870"/>
<path d="M100.795 62.8554C101.404 62.5819 101.541 61.5672 101.101 60.5891C100.662 59.6111 99.8121 59.0399 99.2035 59.3134C98.5949 59.5869 98.4579 60.6015 98.8975 61.5796C99.337 62.5577 100.187 63.1289 100.795 62.8554Z" fill="#FFE3CA"/>
<path d="M100.231 64.2164C100.851 64.2164 101.353 63.7141 101.353 63.0945C101.353 62.4749 100.851 61.9727 100.231 61.9727C99.6116 61.9727 99.1094 62.4749 99.1094 63.0945C99.1094 63.7141 99.6116 64.2164 100.231 64.2164Z" fill="#6236FF"/>
<path d="M117.895 140.633L104.497 128.789C104.023 128.379 103.98 127.646 104.39 127.171L112.696 116.923C113.105 116.449 113.839 116.405 114.314 116.815L128.553 129.393C129.027 129.803 129.07 130.536 128.66 131.011L119.513 140.525C119.081 141 118.37 141.043 117.895 140.633Z" fill="#2A94F4"/>
<path d="M131.074 144.451L118.82 138.777L121.992 135.109L132.088 141.819L132.239 141.927L131.074 144.451Z" fill="#2A94F4"/>
<path d="M126.159 117.506C127.669 118.8 128.166 121.195 127.54 124.258L126.418 129.803L113.927 118.994L119.45 117.074C122.297 116.06 124.671 116.211 126.159 117.506ZM126.871 116.686C125.145 115.197 122.427 114.874 119.083 116.039L111.812 118.584L127.13 131.809L128.619 124.452C129.331 120.893 128.619 118.196 126.871 116.686Z" fill="#2A94F4"/>
<path d="M131.078 144.452C130.301 143.007 131.099 142.23 132.092 141.82L132.243 141.928L131.078 144.452Z" fill="#2286D1"/>
<path d="M95.1567 75.7374C94.8546 85.532 98.8243 110.644 106.267 120.547C107.54 119.878 108.921 119.123 108.921 119.123C108.921 119.123 99.4283 97.2899 102.47 78.9519C102.794 76.6866 102.47 75.0686 101.78 73.9467C99.9677 70.9048 95.2645 72.2208 95.1567 75.7374Z" fill="#49B0FC"/>
<path d="M106.266 120.568C106.266 120.568 108.401 124.991 108.919 125.465C109.415 125.94 113.083 127.903 114.119 128.291C115.154 128.658 112.716 126.436 112.716 126.436C112.716 126.436 114.615 127.644 115.499 128.119C115.629 128.184 115.737 128.033 115.65 127.925C114.982 127.126 113.342 125.832 113.342 125.832C113.342 125.832 115.909 127.364 117.053 127.968C117.182 128.033 117.29 127.882 117.204 127.774C116.384 126.997 114.528 125.552 114.205 125.379C115.564 125.961 116.535 126.522 117.139 126.803C117.225 126.846 117.29 126.738 117.225 126.673C116.039 125.595 110.99 122.013 110.731 121.949C109.696 121.711 108.725 119.252 108.725 119.252L106.266 120.568Z" fill="#FCD2B1"/>
<path d="M118.819 117.85L117.913 117.419L117.805 117.268C117.805 117.268 120.243 114.787 120.868 114.506C121.278 114.334 123.004 115.003 124.104 115.456C124.428 115.585 124.406 116.06 124.061 116.168C122.314 116.728 118.819 117.85 118.819 117.85Z" fill="#FFE4D2"/>
<path d="M168.658 88.5098H167.406V207.081H168.658V88.5098Z" fill="#2A94F4"/>
<path d="M144.688 40.6586C142.035 40.6586 139.899 42.816 139.899 45.448C139.899 42.7944 137.741 40.6586 135.109 40.6586C137.763 40.6586 139.899 38.5012 139.899 35.8691C139.877 38.5012 142.035 40.6586 144.688 40.6586Z" fill="#6236FF"/>
<path d="M146.977 40.6584C143.051 40.6584 139.879 43.8298 139.879 47.7563C139.879 43.8298 136.708 40.6584 132.781 40.6584C136.708 40.6584 139.879 37.487 139.879 33.5605C139.879 37.487 143.072 40.6584 146.977 40.6584Z" stroke="#6236FF" stroke-miterlimit="10"/>
<path d="M207.505 79.6209C205.974 79.6209 204.722 80.8721 204.722 82.3823C204.722 80.8506 203.471 79.6209 201.961 79.6209C203.493 79.6209 204.722 78.3696 204.722 76.8594C204.722 78.3696 205.974 79.6209 207.505 79.6209Z" fill="#6236FF"/>
<path d="M208.823 79.6206C206.558 79.6206 204.724 81.4544 204.724 83.7196C204.724 81.4544 202.89 79.6206 200.625 79.6206C202.89 79.6206 204.724 77.7868 204.724 75.5215C204.724 77.7868 206.558 79.6206 208.823 79.6206Z" stroke="#6236FF" stroke-width="0.75" stroke-miterlimit="10"/>
<path d="M133.914 143.135L163.88 157.223" stroke="#CCE9FF" stroke-miterlimit="10" stroke-dasharray="12 12"/>
<path d="M132.242 145.896L151.659 182.961" stroke="#CCE9FF" stroke-miterlimit="10" stroke-dasharray="12 12"/>
<path d="M138.328 149.521L163.872 182.961" stroke="#CCE9FF" stroke-miterlimit="10" stroke-dasharray="12 12"/>
<path d="M144.242 151.959L164.565 167.32" stroke="#CCE9FF" stroke-miterlimit="10" stroke-dasharray="12 12"/>
<path d="M163.211 92.5215H172.768V97.2894C172.768 99.9214 170.632 102.057 168 102.057C165.368 102.057 163.233 99.9214 163.233 97.2894V92.5215H163.211Z" fill="#0E538C"/>
<path d="M168.037 97.4201C182.836 97.4201 194.832 85.4235 194.832 70.6251C194.832 55.8266 182.836 43.8301 168.037 43.8301C153.239 43.8301 141.242 55.8266 141.242 70.6251C141.242 85.4235 153.239 97.4201 168.037 97.4201Z" fill="#6236FF"/>
<path d="M168.037 90.7316C179.142 90.7316 188.144 81.7294 188.144 70.6246C188.144 59.5198 179.142 50.5176 168.037 50.5176C156.932 50.5176 147.93 59.5198 147.93 70.6246C147.93 81.7294 156.932 90.7316 168.037 90.7316Z" stroke="#F7F7F7" stroke-miterlimit="10"/>
<path d="M169.029 62.1039C170.841 62.4491 171.92 63.8083 171.92 65.9657V66.3109L169.417 66.5482V66.1599C169.417 64.9517 168.985 64.3908 168.036 64.3908C167.26 64.3908 166.72 64.8654 166.72 65.8363V66.1599C166.72 67.1091 167.238 67.9074 168.921 69.4391C171.229 71.575 172.027 72.9557 172.027 74.8111V75.221C172.027 77.3784 170.862 78.6944 169.029 79.018V80.8087H166.979V79.018C165.167 78.6297 164.023 77.2705 164.023 75.1562V74.1854L166.526 73.9481V74.9837C166.526 76.1918 167.022 76.7527 168.036 76.7527C168.791 76.7527 169.46 76.2781 169.46 75.3073V74.9405C169.46 73.9913 168.942 73.193 167.26 71.6613C164.951 69.5254 164.153 68.1447 164.153 66.2893V65.9225C164.153 63.7867 165.21 62.4707 167.001 62.1255V60.5938H169.05V62.1039H169.029Z" fill="#F7F7F7"/>
</svg>
