<svg width="264" height="248" viewBox="0 0 264 248" fill="none" xmlns="http://www.w3.org/2000/svg">
<path opacity="0.37" d="M39.4137 195.317C39.901 196.521 40.4396 197.725 41.0294 198.878C49.8002 216.067 67.5982 226.903 86.576 228.85C101.758 230.387 116.53 225.443 129.225 217.374C141.894 209.33 152.049 198.007 166.129 192.115C185.978 183.841 208.11 177.308 223.677 159.786C241.373 139.881 248.195 109.704 239.86 84.2408C231.756 59.392 204.853 51.3482 183.952 40.4096C146.381 20.7099 94.3466 7.61946 55.2371 30.7519C8.38257 58.4442 16.8969 121.309 31.7457 164.935C35.1309 174.875 35.5412 185.583 39.4137 195.317Z" fill="#CCE9FF"/>
<path d="M63.3175 77.5297L63.2406 77.043H62.7533C53.2645 77.043 50.187 73.9945 50.1614 73.9689L49.751 73.5078L49.3407 73.9689C49.3151 73.9945 46.2632 77.043 36.7487 77.043H36.2614L36.1845 77.5297C36.1589 77.6834 34.1585 92.9513 49.4946 100.79L49.751 100.918L50.0075 100.79C65.3948 92.9513 63.3175 77.6834 63.3175 77.5297ZM61.0094 86.9825C59.1117 92.4646 55.3161 96.7171 49.7254 99.6374C44.1346 96.7171 40.3391 92.4646 38.4413 86.9825C37.0565 82.9606 37.1334 79.451 37.236 78.1958C45.1348 78.0933 48.6483 75.9927 49.7254 75.1217C50.8025 75.9671 54.3159 78.0933 62.2148 78.1958C62.3174 79.4766 62.3943 82.9606 61.0094 86.9825Z" fill="#6236FF"/>
<path d="M78.3681 57.9061L77.8296 56.4972C77.3423 56.4459 76.8807 56.3178 76.419 56.1641L75.3163 57.1888L72.1362 54.9089L72.7517 53.5256C72.444 53.1413 72.1875 52.7314 71.9824 52.2959L70.4693 52.2447L69.8281 48.3765L71.2386 47.8385C71.2899 47.3518 71.4181 46.8907 71.572 46.4296L70.5462 45.328L72.8287 42.1259L74.2135 42.7407C74.5982 42.4333 75.0085 42.1771 75.4445 41.9722L75.4958 40.4607L79.3683 39.8203L79.9068 41.2293C80.3941 41.2805 80.8557 41.4086 81.3173 41.5623L82.4201 40.5376L85.6002 42.8175L84.9847 44.2009C85.2924 44.5851 85.5489 44.995 85.754 45.4305L87.2671 45.4817L87.9083 49.3499L86.4978 49.8879C86.4208 50.3746 86.3182 50.8357 86.1644 51.2969L87.1902 52.3984L84.9077 55.6006L83.5229 54.9857C83.1382 55.2932 82.7279 55.5493 82.2919 55.7543L82.2406 57.2657L78.3681 57.9061ZM76.1626 54.9345L76.4703 55.0626C77.0345 55.2932 77.65 55.4212 78.2655 55.4725L78.5989 55.4981L79.0605 56.7021L81.1891 56.3435L81.2404 55.0626L81.5482 54.9345C82.1124 54.6783 82.6253 54.3453 83.1125 53.9611L83.369 53.7561L84.5487 54.2941L85.8053 52.5521L84.9077 51.6043L85.036 51.2969C85.2668 50.7333 85.395 50.1185 85.4463 49.5036L85.4719 49.1706L86.6773 48.7095L86.3182 46.5833L85.036 46.532L84.9077 46.2246C84.6513 45.6611 84.3179 45.1487 83.9332 44.662L83.728 44.4058L84.2666 43.2274L82.5227 41.9722L81.5738 42.8432L81.2661 42.7151C80.7019 42.4845 80.0864 42.3564 79.4709 42.3052L79.1375 42.2796L78.6759 41.0756L76.5473 41.4342L76.496 42.7151L76.1882 42.8432C75.624 43.0993 75.1111 43.4324 74.6239 43.8166L74.3674 44.0215L73.1877 43.4836L71.9311 45.2256L72.8287 46.1734L72.7004 46.4808C72.4696 47.0444 72.3414 47.6592 72.2901 48.274L72.2645 48.607L71.0591 49.0682L71.4182 51.1944L72.7004 51.2456L72.8287 51.553C73.0851 52.1166 73.4185 52.629 73.8032 53.1157L74.0084 53.3719L73.4698 54.5503L75.2137 55.8055L76.1626 54.9345ZM78.8297 53.1413C77.9578 53.1413 77.0858 52.8595 76.3678 52.3472C74.4443 50.9895 74.0084 48.3252 75.3676 46.404C76.7268 44.4827 79.3939 44.0472 81.3173 45.4049C82.2406 46.0709 82.8561 47.0444 83.0613 48.1715C83.2408 49.2987 82.9843 50.4259 82.3432 51.3481C81.6764 52.2703 80.7019 52.8851 79.5734 53.0901C79.2913 53.1157 79.0605 53.1413 78.8297 53.1413ZM78.8297 45.6867C77.8296 45.6867 76.855 46.1478 76.2395 47.0188C75.7523 47.7104 75.5471 48.5558 75.701 49.4012C75.8548 50.2465 76.2908 50.9638 76.9832 51.4506C77.6757 51.9373 78.522 52.1422 79.3683 51.9885C80.2146 51.8348 80.9327 51.3993 81.4199 50.7077C81.9072 50.016 82.1124 49.1706 81.9585 48.3252C81.8046 47.4799 81.3686 46.7626 80.6762 46.2759C80.112 45.8916 79.4709 45.6867 78.8297 45.6867Z" fill="#6236FF"/>
<path d="M201.311 99.6626L200.106 96.5117C198.823 96.358 197.541 96.0762 196.336 95.6407L193.874 97.9462L187.206 93.207L188.591 90.133C187.796 89.1339 187.103 88.0323 186.539 86.8539L183.18 86.7515L181.82 78.682L184.975 77.478C185.129 76.1972 185.411 74.9163 185.847 73.7123L183.539 71.253L188.283 64.5925L191.36 65.9759C192.361 65.1817 193.463 64.4901 194.643 63.9265L194.746 60.5706L202.824 59.2129L204.029 62.3638C205.312 62.5175 206.594 62.7993 207.799 63.2348L210.261 60.9293L216.929 65.6684L215.544 68.7425C216.339 69.7416 217.032 70.8431 217.596 72.0215L220.955 72.124L222.315 80.1934L219.16 81.3975C219.006 82.6783 218.724 83.9592 218.288 85.1632L220.596 87.6225L215.852 94.283L212.775 92.8996C211.774 93.6938 210.672 94.3854 209.492 94.949L209.389 98.3049L201.311 99.6626ZM195.977 94.0012L196.387 94.1549C197.746 94.6672 199.182 95.0002 200.644 95.1283L201.106 95.1796L202.209 98.0487L207.953 97.0752L208.056 94.0012L208.466 93.8218C209.8 93.2326 211.056 92.4385 212.185 91.4907L212.518 91.2089L215.339 92.4641L218.724 87.7249L216.621 85.4706L216.775 85.0607C217.288 83.703 217.622 82.2684 217.75 80.8083L217.775 80.3471L220.648 79.2456L219.673 73.5073L216.596 73.4049L216.416 72.995C215.826 71.6629 215.031 70.4076 214.082 69.2805L213.8 68.9475L215.057 66.1296L210.313 62.7481L208.056 64.8487L207.645 64.695C206.286 64.1826 204.85 63.8496 203.388 63.7215L202.927 63.6959L201.824 60.8268L196.079 61.8002L195.977 64.8743L195.566 65.0536C194.233 65.6428 192.976 66.437 191.848 67.3848L191.514 67.6666L188.693 66.4113L185.359 71.1505L187.462 73.4049L187.308 73.8147C186.796 75.1725 186.462 76.607 186.334 78.0672L186.308 78.5283L183.436 79.6299L184.411 85.3681L187.488 85.4706L187.668 85.8805C188.257 87.2126 189.052 88.4678 190.001 89.595L190.283 89.928L189.027 92.7459L193.771 96.1274L195.977 94.0012ZM202.029 88.724C200.157 88.724 198.285 88.1604 196.643 87.0076C192.463 84.036 191.489 78.2209 194.464 74.0453C197.438 69.8697 203.26 68.8962 207.44 71.8678C211.62 74.8394 212.595 80.6546 209.62 84.8302C207.799 87.3663 204.927 88.724 202.029 88.724ZM202.055 71.586C199.593 71.586 197.156 72.7388 195.643 74.8907C194.412 76.607 193.951 78.682 194.284 80.757C194.643 82.832 195.772 84.6252 197.49 85.8549C201.029 88.3654 205.953 87.5456 208.466 84.0104C209.671 82.2941 210.159 80.2191 209.825 78.1441C209.466 76.0691 208.338 74.2759 206.62 73.0462C205.209 72.0471 203.619 71.586 202.055 71.586Z" fill="#6236FF"/>
<path d="M76.449 157.303C75.218 153.844 73.8075 149.95 75.3718 145.954C77.4748 140.575 73.0124 137.808 69.0887 135.323C65.7035 133.222 62.5234 131.224 63.6005 127.92C64.7802 124.333 64.7033 121.567 63.3697 119.748C62.2413 118.211 60.2409 117.391 57.5738 117.417C55.4452 117.442 53.5474 114.829 51.5214 112.088C49.1364 108.86 46.7001 105.53 43.6226 106.273C43.084 106.401 42.6481 106.708 42.3916 107.195C41.3145 109.219 43.0071 114.035 44.8279 119.158C46.777 124.692 49.0082 130.942 47.5464 133.607C45.9563 136.527 48.8287 139.191 51.8805 142.035C55.1118 145.032 58.7791 148.439 57.8046 152.717C56.8814 156.713 56.6762 158.199 57.2404 159.07C57.6764 159.762 58.574 159.916 59.9332 160.172C60.8564 160.351 62.0361 160.556 63.4723 161.017C69.6529 162.938 71.4481 166.935 71.4737 166.986L71.5507 167.165L71.7302 167.14C74.7051 166.679 76.449 165.833 77.2696 164.475C77.3209 164.399 77.3466 164.322 77.3978 164.245C78.2698 162.426 77.4235 160.044 76.449 157.303Z" fill="#6236FF"/>
<path d="M60.6503 149.668C61.6762 151.256 62.4199 152.64 62.3429 154.587C62.2916 156.405 62.0095 158.199 61.8557 159.992C61.83 160.376 61.8044 160.735 61.7787 161.093C61.2658 160.658 60.7786 160.222 60.2657 159.787C60.0348 159.761 59.804 159.761 59.5476 159.761C60.2656 160.351 61.0094 160.991 61.7274 161.631C61.6505 162.887 61.6249 164.142 61.6249 165.397C61.6249 166.14 61.5992 166.934 61.6505 167.677C60.9837 167.267 60.2913 166.857 59.6502 166.447C57.6498 165.218 55.7777 164.065 54.3415 163.45C53.2388 162.989 52.0078 162.579 50.8281 162.195C47.7506 161.196 44.5962 160.171 43.5447 157.994C43.0062 156.867 43.0575 155.509 43.6986 153.869C45.3143 149.643 43.8012 148.925 41.2623 147.696C39.4158 146.799 36.9025 145.595 34.3892 142.547C33.2865 141.214 32.312 140.062 31.44 139.063C28.8498 136.014 27.4136 134.349 27.5932 133.376C27.6445 133.145 27.7727 132.94 28.0291 132.735C28.1574 132.633 28.3112 132.53 28.5164 132.428C29.4909 131.89 30.4655 132.3 31.5682 132.761C33.0557 133.376 34.8765 134.17 37.4154 132.863C39.4158 131.839 41.647 130.891 42.9805 131.659C43.9038 132.172 44.4423 133.504 44.6218 135.681C44.6731 136.373 44.9039 136.859 45.2886 137.141C45.8528 137.551 46.7248 137.5 47.725 137.295C48.4174 138.243 49.315 138.704 50.3921 139.088C51.9052 139.626 53.0336 140.113 54.1364 141.343C56.4957 144.007 58.7782 146.722 60.6503 149.668Z" fill="#2A94F4"/>
<path d="M52.4696 153.896C50.9308 152.871 49.5973 150.386 48.315 147.978C46.5711 144.699 44.7503 141.318 42.2626 141.395C38.2619 141.497 34.6972 136.783 34.6459 136.758L34.3125 137.014C34.4664 137.219 38.0568 141.933 42.2626 141.83C44.4938 141.779 46.2633 145.032 47.9303 148.209C49.2382 150.642 50.5974 153.178 52.2131 154.28C53.1877 154.92 54.9828 156.227 57.1114 157.892C57.1114 157.713 57.1114 157.533 57.1114 157.354C55.2393 155.791 53.5723 154.613 52.4696 153.896Z" fill="white"/>
<path d="M187.616 185.634C187.616 185.634 189.924 179.896 185.718 171.75C181.487 163.604 178.076 164.859 188.257 158.583C198.439 152.306 188.309 132.581 196.977 130.07C205.645 127.56 213.159 95.6152 219.75 99.6884C226.341 103.762 217.545 119.414 222.263 124.127C226.956 128.841 227.598 134.81 217.878 139.651C208.158 144.493 224.777 162.989 211.595 168.625C198.413 174.26 202.208 196.368 187.616 185.634Z" fill="#6236FF"/>
<path d="M191.644 191.707C191.618 191.63 190.208 184.304 194.696 174.825C199.261 165.168 201.441 154.613 200.543 146.569C200.056 142.214 202.851 140.524 205.544 138.884C208.211 137.27 210.955 135.58 210.801 131.301C210.673 127.433 212.314 118.365 212.366 117.98L212.955 118.083C212.93 118.185 211.263 127.484 211.391 131.276C211.545 135.913 208.647 137.68 205.852 139.371C203.184 140.985 200.697 142.522 201.133 146.492C202.056 154.613 199.851 165.296 195.234 175.056C190.849 184.355 192.208 191.502 192.234 191.579L191.644 191.707Z" fill="white"/>
<path d="M226.65 144.109C230.318 142.367 234.216 143.161 232.19 146.824C230.164 150.488 227.138 150.769 227.702 153.664C228.266 156.559 229.754 159.71 224.984 161.554C220.213 163.373 217.982 163.066 215.084 168.42C212.161 173.774 211.161 177.744 206.16 176.464C201.159 175.157 205.313 168.573 207.904 165.807C207.904 165.807 211.417 162.835 211.366 157.481C211.314 152.127 209.109 148.541 216.033 148.899C222.958 149.207 224.163 145.287 226.65 144.109Z" fill="#0E538C"/>
<path d="M205.367 180.205C205.572 179.513 210.394 162.939 214.343 161.146C218.37 159.301 220.549 154.485 221.498 151.795C222.729 148.286 227.987 147.594 228.192 147.568L228.269 148.158C228.217 148.158 223.165 148.824 222.062 151.975C220.883 155.382 218.626 159.839 214.6 161.683C210.907 163.374 206.008 180.205 205.957 180.384L205.367 180.205Z" fill="white"/>
<path d="M78.3466 166.858C70.4477 164.885 70.3451 160.633 70.2426 156.534C70.1656 153.178 70.0887 150.002 65.8059 148.055C60.1382 145.468 60.01 140.677 59.8817 136.45C59.7792 133.299 59.7022 130.328 57.3428 128.714C51.6751 124.846 46.8794 115.47 46.8281 115.367L47.2641 115.137C47.3154 115.239 52.0342 124.487 57.6249 128.304C60.1895 130.046 60.2921 133.146 60.369 136.425C60.4972 140.703 60.6255 145.16 66.011 147.594C70.5503 149.669 70.6529 153.153 70.7298 156.509C70.8324 160.607 70.935 164.501 78.4748 166.371L78.3466 166.858Z" fill="white"/>
<path d="M67.7031 163.066H197.444V69.5118C197.444 68.1797 196.367 67.0781 195.008 67.0781H70.1395C68.8059 67.0781 67.7031 68.1541 67.7031 69.5118V163.066Z" fill="#F7F7F7"/>
<path d="M72.2881 145.625L192.617 145.625V71.7704L72.2881 71.7704L72.2881 145.625Z" fill="#0B4870" stroke="white" stroke-width="0.5" stroke-miterlimit="10"/>
<path d="M197.444 149.207H132.587H67.7545L53.5469 202.209H133.023H211.626L197.444 149.207Z" fill="#F2F2F2"/>
<path d="M72.6508 158.506H80.6266C80.96 158.506 81.2164 158.762 81.1395 159.044L80.3701 162.502C80.3188 162.707 80.1137 162.861 79.8572 162.861H71.7532C71.4198 162.861 71.1634 162.605 71.2403 162.297L72.1379 158.839C72.1892 158.66 72.3944 158.506 72.6508 158.506Z" fill="#0B4870" stroke="white" stroke-width="0.5" stroke-miterlimit="10"/>
<path d="M84.267 158.506H90.2937L89.4987 162.886H83.3438L84.267 158.506Z" fill="#0B4870" stroke="white" stroke-width="0.5" stroke-miterlimit="10"/>
<path d="M93.2984 158.506H99.3251L98.7096 162.886H92.5547L93.2984 158.506Z" fill="#0B4870" stroke="white" stroke-width="0.5" stroke-miterlimit="10"/>
<path d="M102.348 158.506H108.374L107.913 162.886H101.758L102.348 158.506Z" fill="#0B4870" stroke="white" stroke-width="0.5" stroke-miterlimit="10"/>
<path d="M111.379 158.506H117.406L117.124 162.886H110.969L111.379 158.506Z" fill="#0B4870" stroke="white" stroke-width="0.5" stroke-miterlimit="10"/>
<path d="M120.403 158.506H126.429L126.327 162.886H120.172L120.403 158.506Z" fill="#0B4870" stroke="white" stroke-width="0.5" stroke-miterlimit="10"/>
<path d="M192.725 158.506H183.672L184.646 162.886H193.853L192.725 158.506Z" fill="#0B4870" stroke="white" stroke-width="0.5" stroke-miterlimit="10"/>
<path d="M180.675 158.506H174.648L175.443 162.886H181.598L180.675 158.506Z" fill="#0B4870" stroke="white" stroke-width="0.5" stroke-miterlimit="10"/>
<path d="M171.644 158.506H165.617L166.233 162.886H172.388L171.644 158.506Z" fill="#0B4870" stroke="white" stroke-width="0.5" stroke-miterlimit="10"/>
<path d="M162.589 158.506H156.562L157.024 162.886H163.179L162.589 158.506Z" fill="#0B4870" stroke="white" stroke-width="0.5" stroke-miterlimit="10"/>
<path d="M153.566 158.506H147.539L147.821 162.886H153.976L153.566 158.506Z" fill="#0B4870" stroke="white" stroke-width="0.5" stroke-miterlimit="10"/>
<path d="M144.535 158.506H138.508L138.61 162.886H144.765L144.535 158.506Z" fill="#0B4870" stroke="white" stroke-width="0.5" stroke-miterlimit="10"/>
<path d="M129.461 158.506H135.488L135.565 162.886H129.461V158.506Z" fill="#0B4870" stroke="white" stroke-width="0.5" stroke-miterlimit="10"/>
<path d="M70.0136 166.141H82.5799L81.8619 170.649H69.0391L70.0136 166.141Z" fill="#0B4870" stroke="white" stroke-width="0.5" stroke-miterlimit="10"/>
<path d="M194.674 166.141H179.133L180.005 170.649H195.879L194.674 166.141Z" fill="#0B4870" stroke="white" stroke-width="0.5" stroke-miterlimit="10"/>
<path d="M176.003 166.141H169.797L170.489 170.649H176.849L176.003 166.141Z" fill="#0B4870" stroke="white" stroke-width="0.5" stroke-miterlimit="10"/>
<path d="M166.667 166.141H160.461L160.974 170.649H167.334L166.667 166.141Z" fill="#0B4870" stroke="white" stroke-width="0.5" stroke-miterlimit="10"/>
<path d="M157.331 166.141H151.125L151.484 170.649H157.818L157.331 166.141Z" fill="#0B4870" stroke="white" stroke-width="0.5" stroke-miterlimit="10"/>
<path d="M148.003 166.141H141.797L141.976 170.649H148.311L148.003 166.141Z" fill="#0B4870" stroke="white" stroke-width="0.5" stroke-miterlimit="10"/>
<path d="M68.1172 174.158H80.9913L80.0424 178.641H66.9375L68.1172 174.158Z" fill="#0B4870" stroke="white" stroke-width="0.5" stroke-miterlimit="10"/>
<path d="M84.1923 174.158H90.6293L89.8856 178.641H83.3203L84.1923 174.158Z" fill="#0B4870" stroke="white" stroke-width="0.5" stroke-miterlimit="10"/>
<path d="M93.8587 174.158H100.296H142.098L142.278 178.641H93.1406L93.8587 174.158Z" fill="#0B4870" stroke="white" stroke-width="0.5" stroke-miterlimit="10"/>
<path d="M145.336 174.158H151.773L152.132 178.641H145.567L145.336 174.158Z" fill="#0B4870" stroke="white" stroke-width="0.5" stroke-miterlimit="10"/>
<path d="M154.977 174.158H161.414L161.952 178.641H155.387L154.977 174.158Z" fill="#0B4870" stroke="white" stroke-width="0.5" stroke-miterlimit="10"/>
<path d="M164.641 174.158H171.078L171.77 178.641H165.23L164.641 174.158Z" fill="#0B4870" stroke="white" stroke-width="0.5" stroke-miterlimit="10"/>
<path d="M174.289 174.158H180.726L181.598 178.641H175.058L174.289 174.158Z" fill="#0B4870" stroke="white" stroke-width="0.5" stroke-miterlimit="10"/>
<path d="M183.93 174.158H196.804L197.983 178.641H184.879L183.93 174.158Z" fill="#0B4870" stroke="white" stroke-width="0.5" stroke-miterlimit="10"/>
<path d="M138.688 166.141H132.508V170.649H138.791L138.688 166.141Z" fill="#0B4870" stroke="white" stroke-width="0.5" stroke-miterlimit="10"/>
<path d="M129.357 166.141H123.125L122.945 170.649H129.305L129.357 166.141Z" fill="#0B4870" stroke="white" stroke-width="0.5" stroke-miterlimit="10"/>
<path d="M120.021 166.141H113.789L113.43 170.649H119.79L120.021 166.141Z" fill="#0B4870" stroke="white" stroke-width="0.5" stroke-miterlimit="10"/>
<path d="M110.684 166.141H104.453L103.914 170.649H110.274L110.684 166.141Z" fill="#0B4870" stroke="white" stroke-width="0.5" stroke-miterlimit="10"/>
<path d="M101.348 166.141H95.1165L94.3984 170.649H100.759L101.348 166.141Z" fill="#0B4870" stroke="white" stroke-width="0.5" stroke-miterlimit="10"/>
<path d="M92.0179 166.141H85.786L84.9141 170.649H91.2485L92.0179 166.141Z" fill="#0B4870" stroke="white" stroke-width="0.5" stroke-miterlimit="10"/>
<path d="M72.9375 155.765L73.9633 151.871H76.8869L75.938 155.765H72.9375Z" fill="#0B4870" stroke="white" stroke-width="0.5" stroke-miterlimit="10"/>
<path d="M79.8061 151.871H85.6533L84.8582 155.765H78.8828L79.8061 151.871Z" fill="#0B4870" stroke="white" stroke-width="0.5" stroke-miterlimit="10"/>
<path d="M88.6053 151.871H94.4525L93.7857 155.765H87.8359L88.6053 151.871Z" fill="#0B4870" stroke="white" stroke-width="0.5" stroke-miterlimit="10"/>
<path d="M97.3733 151.871H103.221L102.708 155.765H96.7578L97.3733 151.871Z" fill="#0B4870" stroke="white" stroke-width="0.5" stroke-miterlimit="10"/>
<path d="M106.149 151.871H111.996L111.637 155.765H105.688L106.149 151.871Z" fill="#0B4870" stroke="white" stroke-width="0.5" stroke-miterlimit="10"/>
<path d="M114.917 151.871H120.764L120.559 155.765H114.609L114.917 151.871Z" fill="#0B4870" stroke="white" stroke-width="0.5" stroke-miterlimit="10"/>
<path d="M123.685 151.871H129.532L129.481 155.765H123.531L123.685 151.871Z" fill="#0B4870" stroke="white" stroke-width="0.5" stroke-miterlimit="10"/>
<path d="M132.461 151.871H138.308L138.411 155.765H132.461V151.871Z" fill="#0B4870" stroke="white" stroke-width="0.5" stroke-miterlimit="10"/>
<path d="M141.227 151.871H147.074L147.33 155.765H141.38L141.227 151.871Z" fill="#0B4870" stroke="white" stroke-width="0.5" stroke-miterlimit="10"/>
<path d="M150 151.871H155.873L156.258 155.765H150.308L150 151.871Z" fill="#0B4870" stroke="white" stroke-width="0.5" stroke-miterlimit="10"/>
<path d="M158.797 151.871H164.644L165.208 155.765H159.258L158.797 151.871Z" fill="#0B4870" stroke="white" stroke-width="0.5" stroke-miterlimit="10"/>
<path d="M167.57 151.871H173.418L174.136 155.765H168.186L167.57 151.871Z" fill="#0B4870" stroke="white" stroke-width="0.5" stroke-miterlimit="10"/>
<path d="M176.336 151.871H182.183L183.055 155.765H177.105L176.336 151.871Z" fill="#0B4870" stroke="white" stroke-width="0.5" stroke-miterlimit="10"/>
<path d="M185.109 151.871H190.957L191.982 155.765H186.033L185.109 151.871Z" fill="#0B4870" stroke="white" stroke-width="0.5" stroke-miterlimit="10"/>
<path d="M207.497 206.333H57.6758C55.3934 206.333 53.5469 204.489 53.5469 202.209H211.626C211.626 204.489 209.78 206.333 207.497 206.333Z" fill="#D3D3D3"/>
<path d="M150.971 185.071C150.817 184.149 149.997 183.457 149.073 183.457H132.609H116.119C115.17 183.457 114.375 184.149 114.221 185.071L112.169 197.495C111.964 198.674 112.887 199.75 114.067 199.75H132.583H151.099C152.305 199.75 153.202 198.674 152.997 197.495L150.971 185.071Z" fill="#D3D3D3"/>
<path d="M93.8111 78.043H80.3984V79.4263H93.8111V78.043Z" fill="#F7F7F7"/>
<path d="M107.247 88.3672H97.5781V89.7505H107.247V88.3672Z" fill="#F7F7F7"/>
<path d="M115.177 88.3672H108.766V89.7505H115.177V88.3672Z" fill="#F7F7F7"/>
<path d="M86.9661 114.342H80.5547V115.725H86.9661V114.342Z" fill="#F7F7F7"/>
<path d="M131.969 88.3672H116.453V89.7505H131.969V88.3672Z" fill="#F7F7F7"/>
<path d="M90.5308 109.143H80.5547V110.526H90.5308V109.143Z" fill="#F7F7F7"/>
<path d="M100.531 119.492H94.4531V120.876H100.531V119.492Z" fill="#F7F7F7"/>
<path d="M92.6081 119.492H80.5547V120.876H92.6081V119.492Z" fill="#F7F7F7"/>
<path d="M87.1969 124.666H80.5547V126.049H87.1969V124.666Z" fill="#F7F7F7"/>
<path d="M105.944 78.043H96.4297V79.4263H105.944V78.043Z" fill="#F7F7F7"/>
<path d="M105.944 93.541H96.4297V94.9243H105.944V93.541Z" fill="#F7F7F7"/>
<path d="M95.7339 98.6914H91.6562V100.075H95.7339V98.6914Z" fill="#F7F7F7"/>
<path d="M96.7314 103.941H87.6016V105.325H96.7314V103.941Z" fill="#F7F7F7"/>
<path d="M110.735 103.941H98.1172V105.325H110.735V103.941Z" fill="#F7F7F7"/>
<path d="M90.0692 98.7422H80.5547V100.126H90.0692V98.7422Z" fill="#F7F7F7"/>
<path d="M86.1967 103.941H80.5547V105.325H86.1967V103.941Z" fill="#F7F7F7"/>
<path d="M102.991 98.7422H97.6562V100.126H102.991V98.7422Z" fill="#F7F7F7"/>
<path d="M86.0687 129.816H80.7344V131.2H86.0687V129.816Z" fill="#F7F7F7"/>
<path d="M90.0379 88.3672H80.5234V89.7505H90.0379V88.3672Z" fill="#F7F7F7"/>
<path d="M98.452 114.342H88.9375V115.725H98.452V114.342Z" fill="#F7F7F7"/>
<path d="M98.5848 124.666H89.0703V126.049H98.5848V124.666Z" fill="#F7F7F7"/>
<path d="M115.483 124.666H105.969V126.049H115.483V124.666Z" fill="#F7F7F7"/>
<path d="M94.09 93.541H80.5234V94.9243H94.09V93.541Z" fill="#F7F7F7"/>
<path d="M153.616 78.043H144.102V79.4263H153.616V78.043Z" fill="#F7F7F7"/>
<path d="M119.71 129.816H110.195V131.2H119.71V129.816Z" fill="#F7F7F7"/>
<path d="M162.923 78.043H156.562V79.4263H162.923V78.043Z" fill="#F7F7F7"/>
<path d="M184.493 83.2168H178.133V84.6001H184.493V83.2168Z" fill="#F7F7F7"/>
<path d="M120.638 78.043H108.508V79.4263H120.638V78.043Z" fill="#F7F7F7"/>
<path d="M167.873 83.2168H155.742V84.6001H167.873V83.2168Z" fill="#F7F7F7"/>
<path d="M152.998 88.3672H140.867V89.7505H152.998V88.3672Z" fill="#F7F7F7"/>
<path d="M137.232 93.541H125.102V94.9243H137.232V93.541Z" fill="#F7F7F7"/>
<path d="M163.133 88.3672H154.516V89.7505H163.133V88.3672Z" fill="#F7F7F7"/>
<path d="M141.716 78.043H129.586V79.4263H141.716V78.043Z" fill="#F7F7F7"/>
<path d="M122.869 93.541H115.766V94.9243H122.869V93.541Z" fill="#F7F7F7"/>
<path d="M117.299 114.42H110.195V115.803H117.299V114.42Z" fill="#F7F7F7"/>
<path d="M127.304 78.043H122.867V79.4263H127.304V78.043Z" fill="#F7F7F7"/>
<path d="M112.945 93.541H108.508V94.9243H112.945V93.541Z" fill="#F7F7F7"/>
<path d="M175.234 83.2168H170.797V84.6001H175.234V83.2168Z" fill="#F7F7F7"/>
<path d="M87.3484 83.2168H80.3984V84.6001H87.3484V83.2168Z" fill="#F7F7F7"/>
<path d="M104.426 109.168H98.9375V110.551H104.426V109.168Z" fill="#F7F7F7"/>
<path d="M91.3015 83.2168H89.0703V84.6001H91.3015V83.2168Z" fill="#F7F7F7"/>
<path d="M153.62 83.2168H135.078V84.6001H153.62V83.2168Z" fill="#F7F7F7"/>
<path d="M135.846 124.666H117.305V126.049H135.846V124.666Z" fill="#F7F7F7"/>
<path d="M95.22 83.2168H92.9375V84.6001H95.22V83.2168Z" fill="#F7F7F7"/>
<path d="M133.357 83.2168H127.305V84.6001H133.357V83.2168Z" fill="#F7F7F7"/>
<path d="M139.435 88.3672H133.383V89.7505H139.435V88.3672Z" fill="#F7F7F7"/>
<path d="M108.248 129.816H102.195V131.2H108.248V129.816Z" fill="#F7F7F7"/>
<path d="M125.712 83.2168H112.812V84.6001H125.712V83.2168Z" fill="#F7F7F7"/>
<path d="M108.329 114.42H100.789V115.803H108.329V114.42Z" fill="#F7F7F7"/>
<path d="M104.098 124.666H100.328V126.049H104.098V124.666Z" fill="#F7F7F7"/>
<path d="M110.968 83.2168H106.531V84.6001H110.968V83.2168Z" fill="#F7F7F7"/>
<path d="M96.0383 88.3672H91.6016V89.7505H96.0383V88.3672Z" fill="#F7F7F7"/>
<path d="M96.9133 109.168H92.4766V110.551H96.9133V109.168Z" fill="#F7F7F7"/>
<path d="M104.862 83.2168H97.1172V84.6001H104.862V83.2168Z" fill="#F7F7F7"/>
<path d="M162.052 93.5926C162.052 93.5926 164.309 97.4095 165.258 98.0243C166.54 98.8697 165.745 99.7151 165.129 99.7407C164.514 99.7407 161.385 99.9713 160.693 99.1771C160 98.383 159.667 96.0518 159.026 95.437C158.385 94.8222 157.718 92.3885 159.334 91.7993C160.744 91.2614 162.052 93.5926 162.052 93.5926Z" fill="#FFB750"/>
<path d="M161.051 91.9267C161.051 91.9267 163.641 96.4097 164.077 97.0501C164.513 97.7162 163.231 97.7162 162.436 97.4088C161.641 97.1014 159.64 93.8992 159.358 93.31C159.025 92.6184 159.307 91.8242 159.307 91.8242L161.051 91.9267Z" fill="#FFE3CA"/>
<path d="M158.438 94.3086L159.053 98.8941L159.361 98.9197L159.258 95.6151L158.438 94.3086Z" fill="#FFB750"/>
<path d="M139.664 93.5917C139.664 93.5917 141.921 97.4087 142.87 98.0235C144.152 98.8689 143.357 99.7143 142.741 99.7399C142.126 99.7399 138.997 99.9704 138.305 99.1763C137.612 98.3822 137.279 96.051 136.638 95.4362C135.997 94.8214 135.304 92.3109 136.945 91.7985C138.382 91.3374 139.664 93.5917 139.664 93.5917Z" fill="#FFB750"/>
<path d="M138.82 91.9267C138.82 91.9267 141.256 96.3841 141.717 97.0501C142.153 97.7162 140.871 97.7162 140.076 97.4088C139.281 97.1014 137.281 93.8992 136.999 93.31C136.665 92.6184 136.947 91.8242 136.947 91.8242L138.82 91.9267Z" fill="#FFE3CA"/>
<path d="M136.07 94.3086L136.66 98.8941L136.994 98.9197L136.891 95.6151L136.07 94.3086Z" fill="#FFB750"/>
<path d="M129.664 58.8302L150.078 68.1292C150.078 68.1292 152.36 68.8721 152.617 71.4083C153.412 79.2984 159.31 91.7996 159.31 91.7996C161.208 92.7218 161.054 91.9277 161.054 91.9277C159.849 88.0851 158.413 72.3049 157.874 65.9774C157.772 64.6453 157.695 63.7231 157.669 63.4157C157.669 63.2107 157.438 62.9546 157.054 62.6471C154.258 60.3672 142.718 55.6792 142.718 55.6792C134.126 55.4487 129.664 58.8302 129.664 58.8302Z" fill="#FFE3CA"/>
<path d="M125.811 62.8262C126.452 68.3339 134.325 67.7191 134.325 67.7191H143.865C143.865 67.7191 141.352 73.3036 140.377 77.9916C139.352 82.987 136.915 91.7993 136.915 91.7993C136.915 91.7993 137.069 92.1067 138.813 91.9274C138.813 91.9274 146.302 77.0181 149.174 73.2524C149.789 72.4583 151.559 68.0521 151.867 65.4391C151.969 64.5681 151.918 63.8765 151.585 63.5947C151.251 63.3129 150.482 62.8005 149.482 62.1601C146.481 60.2644 141.301 57.3697 138.403 56.7292C134.53 55.8583 128.401 54.2188 128.401 54.2188C128.401 54.2188 125.17 57.3184 125.811 62.8262Z" fill="#FFE3CA"/>
<path d="M132.3 20.3521C132.3 20.3521 130.863 17.6367 131.556 14.7676C132.248 11.8728 134.941 9.00367 138.865 10.3358C142.789 11.6679 145.969 14.6907 143.609 18.2259C141.25 21.7355 145.738 23.3493 144.584 25.0145C143.43 26.6796 143.866 28.4472 144.353 28.8314C144.84 29.2157 146.405 30.599 146.225 32.2642C146.046 33.9037 138.608 27.4737 138.608 27.4737C138.608 27.4737 134.582 19.3018 132.3 20.3521Z" fill="#0E538C"/>
<path d="M144.279 54.9865C144.279 54.9865 143.689 57.8556 128.43 54.2436C128.43 54.2436 133.533 52.5528 144.279 54.9865Z" fill="#EB4747"/>
<path d="M128.252 55.038C128.021 55.4991 127.79 55.9346 127.533 56.3957C133.099 56.5494 138.689 56.7287 144.254 56.8824C143.382 53.9364 143.665 49.9401 143.818 46.9173C143.998 43.2028 146.05 40.641 145.844 36.9009C146.947 37.0802 147.127 37.1059 148.229 37.2852C146.537 32.4691 145.973 30.0867 140.715 28.2423C138.997 27.6275 137.894 27.525 136.048 27.6787C129.97 28.191 128.149 28.2423 125.148 33.75C129.816 34.4929 129.047 36.158 130.457 40.8204C131.15 43.0747 131.868 45.6108 131.509 47.9932C131.15 50.3244 128.252 52.9117 128.252 55.038Z" fill="white"/>
<path d="M137.944 29.396C135.456 28.9349 135.994 27.5515 135.994 27.5515C135.994 27.5515 136.097 26.783 136.148 25.7839C136.148 25.5278 136.174 25.2716 136.174 24.9898C136.174 24.5799 136.148 24.17 136.097 23.7602C135.892 22.095 140.611 23.0941 140.611 23.0941C140.611 23.0941 140.329 26.4756 140.995 27.4747C141.637 28.4994 140.431 29.8827 137.944 29.396Z" fill="#FFE3CA"/>
<path d="M133.203 27.5502C133.203 27.5502 138.23 33.3397 140.076 34.6718C140.076 34.6718 142.205 32.7505 140.897 27.6783C140.897 27.6783 138.486 26.4487 133.203 27.5502Z" fill="#FFE3CA"/>
<path d="M133.35 13.6141C133.35 13.6141 130.734 18.635 133.324 23.3742C135.914 28.1134 140.992 21.2992 141.3 20.5051C141.633 19.711 143.377 15.1767 139.915 13.819C136.453 12.4357 134.094 12.2563 133.35 13.6141Z" fill="#FFE3CA"/>
<path d="M138.38 23.8867C138.38 23.8867 137.918 24.8858 136.148 25.7824C136.148 25.5262 136.174 25.2701 136.174 24.9883C136.174 24.9883 137.379 24.8602 138.38 23.8867Z" fill="#FCD2B1"/>
<path d="M112.038 50.5288C112.038 50.5288 110.807 51.0668 110.217 50.8362C109.627 50.5801 108.73 50.5288 108.448 50.5288C108.063 50.5288 106.858 50.0933 106.883 50.5801C106.909 51.0412 108.832 51.3742 109.217 51.5279C109.602 51.6816 108.037 52.527 107.883 52.9112C107.73 53.2955 109.525 55.806 110.525 55.0887C111.525 54.3714 112.064 52.9369 112.269 52.8344C112.474 52.7319 113.013 52.3477 113.013 52.3477L112.038 50.5288Z" fill="#FFE3CA"/>
<path d="M108.092 52.6816C108.092 52.6816 105.194 55.0897 105.143 55.4227C105.091 55.7557 105.245 55.9094 105.527 55.6789C105.809 55.4739 108.4 53.4245 108.4 53.4245C108.4 53.4245 105.502 56.8573 105.399 57.1134C105.348 57.2671 105.63 57.5745 105.784 57.4721C105.938 57.3696 109.041 54.1418 109.041 54.1418C109.041 54.1418 106.322 57.344 106.322 57.6002C106.297 57.8051 106.63 58.0357 106.861 57.8051C107.092 57.5745 109.784 54.7566 109.784 54.7566C109.784 54.7566 107.964 57.2159 108.092 57.4465C108.169 57.5745 108.4 57.8563 108.836 57.2159C109.272 56.5755 110.503 55.1409 110.503 55.1409L108.092 52.6816Z" fill="#FFE3CA"/>
<path d="M142.865 67.6934H134.325C134.325 67.6934 126.452 68.3339 125.811 62.8005C125.17 57.2928 128.401 54.2188 128.401 54.2188C128.401 54.2188 132.556 55.3203 136.197 56.1913C138.018 55.807 140.198 55.5508 142.762 55.6277C142.762 55.6277 158.15 60.6999 157.688 63.3897C157.688 63.4154 151.251 59.9826 142.865 67.6934Z" fill="#0E538C"/>
<path d="M137.305 58.1624L153.615 57.9062L145.383 62.0819L137.305 58.1624Z" fill="#F2F2F2"/>
<path d="M142.384 56.0624C142.384 56.0624 138.717 57.4714 134.229 56.1905L134.023 54.5254L143.282 55.0377L142.384 56.0624Z" fill="white"/>
<path d="M145.383 62.0835L137.305 58.9582V58.1641L146.024 61.2894L145.383 62.0835Z" fill="#D3D3D3"/>
<path d="M142.301 56.8556C142.25 57.4448 142.865 57.8803 143.43 57.6497L144.378 57.2399C144.661 57.1118 144.84 56.83 144.789 56.5226C144.404 54.0633 143.558 44.4824 144.789 42.8173C145.25 42.2025 145.532 41.6645 145.686 41.2034C146.507 43.3041 147.507 46.0195 147.918 47.4797L155.611 57.7266L158.201 58.3926C154.97 50.6306 152.38 46.5318 152.38 46.5318C151.867 45.1741 150.431 41.0753 149.149 37.4377C148.328 35.1321 147.61 33.0059 147.199 31.8787C146.994 31.2895 146.61 30.8028 146.071 30.4954C144.866 29.7781 142.891 28.651 141.096 27.78H141.07C141.019 27.7544 140.968 27.7287 140.891 27.7031C144.327 32.8522 142.994 47.4797 142.301 56.8556C142.301 56.83 142.301 56.83 142.301 56.8556Z" fill="#6236FF"/>
<path d="M129.583 28.1136C128.481 28.2929 125.762 30.9315 124.326 33.5957C122.685 36.6442 120.992 40.1025 119.735 41.2297C117.427 43.3303 110.939 50.7337 110.631 50.5544C110.503 50.4775 112.401 52.7575 112.657 52.8599C112.785 52.9112 123.3 43.7914 124.326 42.4081C125.275 41.1016 127.839 35.5683 128.609 35.6963C128.66 35.8244 129.609 37.8482 130.481 40.7942C130.507 40.8454 130.507 40.8967 130.532 40.9479C131.148 42.9973 131.096 45.2516 130.763 47.7621C130.507 49.6578 129.096 52.7575 128.25 54.2689C128.147 54.4482 128.173 54.8068 128.275 55.063C128.352 55.2167 128.429 55.3448 128.557 55.396L131.661 56.5488L132.379 56.805C132.892 57.0099 133.456 56.9075 133.866 56.6C134.2 56.3695 134.456 55.9852 134.507 55.5241C135.2 50.247 136.072 44.8417 136.764 42.8179C139.816 33.9031 135.584 27.1914 135.584 27.1914C135.584 27.1914 130.558 27.755 129.583 28.1136Z" fill="#6236FF"/>
<path d="M145.383 62.0818L150.23 48.8633L165.848 49.1195L161.232 61.3133L145.383 62.0818Z" fill="#6236FF"/>
<path d="M155.231 54.7055C154.743 55.6533 154.897 56.7036 155.564 57.0111C156.231 57.3441 157.128 56.8317 157.616 55.8839C158.103 54.9361 157.949 53.8857 157.282 53.5783C156.615 53.2453 155.692 53.7577 155.231 54.7055Z" fill="#F2F0F0"/>
<path d="M145.737 29.7276C144.583 27.9856 143.762 26.6023 143.66 24.1174C143.583 22.4779 143.224 20.2492 142.095 19.1477C143.275 16.0736 141.89 15.1514 141.326 14.1523C140.633 12.897 135.504 9.87421 133.478 13.0508C131.452 16.2017 132.17 19.5063 132.17 19.5063C132.376 17.7643 134.171 15.4075 134.171 15.4075C134.453 17.2264 138.223 20.198 139.864 21.402C139.838 21.4276 139.813 21.4788 139.813 21.5045C138.89 22.8366 140.044 24.1687 140.249 25.5776C140.454 26.9866 136.376 30.7779 140.916 32.6736C145.455 34.5949 146.891 31.444 145.737 29.7276Z" fill="#0E538C"/>
<path d="M63.1912 178.948C63.1912 178.948 63.0886 180.023 58.0621 180.023C53.0356 180.023 45.7266 178.717 45.7266 178.717L57.3953 177.59C57.3953 177.59 61.8833 177.359 63.1912 178.948Z" fill="#0E538C"/>
<path d="M50.3907 179.332C47.544 179.332 46.3387 180.793 45.2103 181.254C44.0819 181.715 42.9535 182.406 42.9535 182.381C43.5946 181.126 44.4922 181.1 44.9538 180.69C45.4155 180.28 45.2872 180.485 44.2871 180.408C43.7228 180.357 42.697 181.407 41.9789 181.997C41.3378 182.483 40.9531 182.535 40.9531 182.535C40.9531 182.535 41.6968 181.484 42.6201 180.639C43.7485 179.614 45.159 178.769 45.4924 178.615C46.1079 178.359 48.0057 178.308 49.3392 178.487C50.878 178.692 52.4424 179.332 50.3907 179.332Z" fill="#0E538C"/>
<path d="M45.6682 178.666C45.6682 178.666 43.4883 179.23 43.1036 179.537C42.8472 179.742 41.7188 180.946 41.7188 180.946C41.7188 180.946 42.5394 180.818 43.001 180.357C43.4883 179.87 45.6682 178.666 45.6682 178.666Z" fill="#0E538C"/>
<path d="M59.0612 176.746C59.0612 176.746 64.5493 177.105 64.1647 180.486C63.9595 182.408 62.7029 183.074 61.0359 182.92C57.9584 182.664 54.4706 182.203 54.4706 182.203L52.9062 176.951L59.0612 176.746Z" fill="#0E538C"/>
<path d="M60.2135 177.206L65.5991 159.863C65.5991 159.863 66.3941 157.327 67.702 157.788C69.5742 158.48 68.6509 160.555 68.497 161.785C68.1637 164.295 68.3945 165.397 66.6506 171.442C65.5735 175.183 64.6502 179.486 63.727 181.946C63.0858 183.636 61.9831 181.203 60.3161 180.537C57.1873 179.281 60.2135 177.206 60.2135 177.206Z" fill="#0E538C"/>
<path d="M60.6215 150.437C61.6729 153.46 64.9299 155.022 67.9305 153.921C70.9054 152.819 72.4954 149.463 71.4439 146.441C70.3924 143.418 67.1354 141.855 64.1349 142.957C61.16 144.058 59.57 147.414 60.6215 150.437Z" fill="#0E538C"/>
<path d="M54.7252 150.719C56.3666 153.179 59.6492 153.793 62.0342 152.103L61.7008 149.208C64.0859 147.492 64.6757 144.11 63.0344 141.651L61.906 139.986C60.2647 137.527 56.982 136.912 54.597 138.602L53.5199 139.371C51.1349 141.087 50.545 144.469 52.1863 146.928L54.7252 150.719Z" fill="#0E538C"/>
<path d="M52.5724 142.648C52.8545 143.058 53.1623 143.443 53.5213 143.827C55.8807 146.389 59.0351 147.362 61.0355 146.312C61.9587 147.567 63.0102 148.566 63.9591 149.335C65.0618 150.231 67.8828 150.59 67.8828 150.59C69.5242 152.383 63.3692 162.86 62.9332 162.809C62.0356 162.732 60.8816 156.943 61.7279 154.842C62.1126 153.894 62.7281 152.767 62.5486 152.255C61.9074 150.487 61.0098 150.795 61.0098 150.795C61.0098 150.795 59.8301 152.178 58.9069 152.127C57.958 152.05 56.3167 150.564 56.2397 150.539C55.9576 150.308 55.7012 150.026 55.4704 149.693L53.0084 146.004C52.3673 144.98 52.2134 143.75 52.5724 142.648Z" fill="#FFE3CA"/>
<path d="M71.3975 186.788C71.3975 186.788 69.3972 189.196 68.7817 189.452C67.961 189.811 65.4477 189.043 65.4477 189.043C65.4477 189.043 64.781 178.002 64.0116 173.698C63.2422 169.394 62.1138 168.267 62.0625 166.909C61.9856 164.732 60.1648 163.861 60.4725 162.17C60.7802 160.479 61.3188 154.434 61.4983 155.228C63.0627 162.093 64.9861 156.381 65.4221 155.484C65.6529 154.997 71.3975 186.788 71.3975 186.788Z" fill="#F2F0F0"/>
<path d="M62.293 153.178C62.293 153.178 59.8566 155.842 60.0362 156.892C60.19 157.943 58.9847 161.222 60.19 165.782C61.5493 170.982 62.2673 174.517 62.5238 177.924C62.7802 181.331 61.6262 184.457 62.0878 188.632C62.4468 191.911 63.1906 192.09 63.1906 192.09C63.1906 192.09 64.6524 192.449 65.6782 191.168C66.704 189.913 65.1653 178.744 64.6524 175.977C64.1395 173.185 62.4981 166.678 62.0622 164.757C61.5236 162.4 61.6262 159.992 61.6518 159.3C61.7801 156.867 62.0878 155.355 62.3443 154.433C62.3699 154.305 62.4981 152.87 62.293 153.178Z" fill="#0E538C"/>
<path d="M66.5461 156.303C67.8797 160.145 72.0343 162.118 75.8298 160.709C79.6254 159.3 81.6257 155.048 80.2922 151.205C78.9586 147.362 74.804 145.39 71.0085 146.799C67.2129 148.182 65.2126 152.46 66.5461 156.303Z" fill="#0E538C"/>
<path d="M53.4916 222.344L54.8508 233.18L48.9523 235.972L45.6953 236.689L51.4912 232.206L49.5934 222.421L53.4916 222.344Z" fill="#FCBAA2"/>
<path d="M55.2353 234.821L53.953 235.154L53.081 234.36L48.3622 236.716L44.182 237.715C44.182 237.715 44.1307 237.382 44.2589 237.203C44.7719 236.511 47.7211 235 47.7211 235C47.7211 235 47.7724 235.999 48.1827 236.025C48.5931 236.05 52.2091 234.155 53.0554 233.642C54.4915 232.746 54.7736 232.156 54.8762 232.233C55.184 232.387 55.2353 234.821 55.2353 234.821Z" fill="#0E538C"/>
<path d="M39.2622 207.281L34.569 216.504L28.1063 216.196L24.875 215.248L32.0301 214.044L35.9283 206.154L39.2622 207.281Z" fill="#FCBAA2"/>
<path d="M34.1794 218.143L32.8972 217.836L32.4868 216.709L26.6653 216.632L23.2031 215.812C23.2031 215.812 23.6135 215.351 23.8699 215.223C24.6393 214.89 27.3834 214.736 27.3834 214.736C27.3834 214.736 27.1013 215.53 27.4603 215.735C27.8193 215.966 31.82 216.094 32.7946 216.017C34.4872 215.889 34.9745 215.53 35.0257 215.633C35.2053 215.992 34.1794 218.143 34.1794 218.143Z" fill="#0E538C"/>
<path d="M73.4951 179.691L70.0073 181.254L70.0329 186.044L46.003 182.125C46.003 182.125 43.7205 181.382 42.2587 185.148C40.1814 190.476 34.8984 207.051 34.8984 207.051L38.2324 210.663L48.7214 191.936C48.7214 191.936 70.2124 202.363 77.2906 200.108C80.009 199.237 82.0863 194.268 81.7016 189.247C81.3939 185.302 80.6245 181.69 80.6245 181.69L73.4951 179.691Z" fill="#FFB750"/>
<path d="M70.4413 200.006L53.2331 198.726L54.7205 226.187L49.6427 226.367L45.8984 194.191C45.8984 194.191 46.8986 189.401 50.1813 190.118C53.4895 190.861 61.4397 197.163 70.4413 200.006Z" fill="#FFB750"/>
<path d="M82.0386 206.897C82.0386 206.897 73.0114 196.778 70.6776 191.065C67.8822 184.225 68.113 175.643 67.6001 172.8C66.6512 167.574 65.4972 157.43 65.292 156.174C65.0612 154.919 65.8562 153.51 65.8562 153.51C65.8562 153.51 65.2664 149.719 66.959 150.129C69.3953 150.718 71.806 152.05 72.6523 152.46C74.2423 153.177 77.4993 172.288 77.6789 173.21C78.3456 176.54 80.782 179.563 82.5259 182.663C86.6292 190.015 87.6806 198.699 87.6806 198.699C87.6806 198.699 87.1677 205.052 82.0386 206.897Z" fill="#2A94F4"/>
<path d="M72.7279 180.435C72.7279 180.435 72.651 181.664 66.9064 181.383C61.1618 181.075 52.75 179.154 52.75 179.154L66.0601 178.539C66.0601 178.539 71.1635 178.565 72.7279 180.435Z" fill="#FFE3CA"/>
<path d="M57.2604 179.82C54.5164 179.769 53.3367 181.178 52.2595 181.613C51.1824 182.049 50.0797 182.689 50.0797 182.689C50.6952 181.485 51.5671 181.46 52.0287 181.075C52.4647 180.691 52.3621 180.896 51.3876 180.793C50.8234 180.742 49.8489 181.741 49.1564 182.305C48.5409 182.792 48.1562 182.817 48.1562 182.817C48.1562 182.817 48.8743 181.793 49.7719 180.973C50.8747 179.999 52.2083 179.18 52.5416 179.052C53.1315 178.821 54.9523 178.795 56.2603 179C57.7221 179.205 59.2351 179.871 57.2604 179.82Z" fill="#FFE3CA"/>
<path d="M52.6706 179.076C52.6706 179.076 50.5676 179.589 50.2086 179.87C49.9521 180.075 48.875 181.228 48.875 181.228C48.875 181.228 49.6444 181.1 50.106 180.664C50.5676 180.255 52.6706 179.076 52.6706 179.076Z" fill="#FFE3CA"/>
<path d="M68.1328 179.077L76.6472 174.594C76.6472 174.594 76.6728 180.025 76.7241 182.1C76.7754 184.175 77.6473 187.095 76.006 187.53C74.3647 187.966 73.5184 187.735 75.211 188.734C76.9036 189.708 76.5189 190.733 75.8778 191.578C75.2366 192.423 78.032 201.031 77.3652 201.518C74.7237 198.187 71.8771 194.063 70.6461 191.066C69.0817 187.172 68.4662 182.714 68.1328 179.077Z" fill="#0E538C"/>
<path d="M70.8815 176.899L70.5481 159.581C70.5481 159.581 70.5738 154.176 70.6763 152.588C70.7789 150.948 73.5743 152.87 73.5743 152.87C73.5743 152.87 77.4981 158.172 77.575 170.956C77.6263 179.512 77.1647 183.969 73.2153 183.61C69.5479 183.277 65.3677 182.714 65.3677 182.714L63.5469 177.975L70.8815 176.899Z" fill="#2A94F4"/>
<path d="M70.016 186.046L40.7031 182.382L40.7801 181.768L70.093 185.431L70.016 186.046Z" fill="#D3D3D3"/>
<path d="M57.1637 183.791C57.1125 184.278 56.7278 184.637 56.3174 184.585L41.2891 182.715C40.8788 182.664 40.3659 182.28 40.0068 180.999L34.2109 166.013C34.2879 165.398 34.7751 165.091 35.1855 165.244L50.5472 167.652C50.9575 167.806 51.2396 168.165 51.3935 168.831L57.1637 183.791Z" fill="#D3D3D3"/>
<path d="M55.2674 184.202L55.4213 184.227L70.0906 186.072C69.5264 186.302 68.6288 186.379 67.6286 186.251L55.3444 184.714L55.1905 184.688L42.9063 183.151C41.9061 183.023 41.0598 182.716 40.5469 182.383L55.2674 184.202Z" fill="#D3D3D3"/>
<path d="M70.8807 176.898L70.5473 159.581C70.5473 159.581 70.8037 158.121 71.3166 156.814C71.4449 158.71 72.3168 172.364 72.4194 174.157C72.5476 176.104 74.1377 176.309 74.471 176.95C74.8301 177.564 74.5223 177.693 73.3426 177.462C72.1886 177.206 72.5989 177.411 72.8554 178.026C73.1118 178.666 72.4707 178.487 70.2139 177.667C68.5726 177.078 65.4182 177.667 63.8281 178.026L70.8807 176.898Z" fill="#0E538C"/>
<path d="M172.235 134.4C169.414 135.143 164.208 137.756 163.105 142.239C161.464 148.976 164.747 158.839 159.566 168.522C157.899 171.596 188.212 175.746 188.212 175.746L194.06 141.727C194.06 141.727 186.751 134.349 185.263 133.836C182.16 132.812 177.877 132.914 172.235 134.4Z" fill="#CCE9FF"/>
<path d="M194.084 141.751C195.136 144.467 197.803 160.631 194.828 164.448C194.495 164.884 196.367 165.576 196.034 167.574C195.982 167.907 195.418 169.521 195.418 169.521L193.007 170.161L187.75 164.09C187.75 164.09 189.879 160.785 192.674 148.258C193.495 144.569 193.854 141.137 194.084 141.751Z" fill="#2A94F4"/>
<path d="M174.178 161.069C174.178 161.069 176.717 167.755 182.847 169.548C183.898 169.855 184.565 171.034 184.052 171.418C183.385 171.905 182.513 172.007 180.975 172.007C177.769 172.007 173.409 170.983 170.409 167.96C165.946 163.502 164.536 161.453 164.997 159.224C165.408 156.944 174.178 161.069 174.178 161.069Z" fill="#FCD2B1"/>
<path d="M163.972 139.984C162.664 142.187 161.92 145.722 161.946 150.794C161.946 154.714 165.229 161.144 165.716 163.116C165.793 163.449 165.998 164.858 165.998 164.858L169.614 168.547L176.872 163.449L174.666 159.94L173.999 160.017C173.999 160.017 173.589 158.07 173.692 157.327C173.794 156.584 171.691 146.465 170.64 139.984C170.05 136.218 165.254 137.807 163.972 139.984Z" fill="#2A94F4"/>
<path d="M170.486 159.863L172.614 159.197L173.486 158.967C173.537 159.582 174.05 159.991 174.05 159.991L172.383 160.196L170.46 160.811L168.203 162.425L170.486 159.863Z" fill="#0E538C"/>
<path d="M182.39 169.521L186.083 168.471C186.083 168.471 187.135 169.931 186.93 170.29C186.725 170.648 186.93 172.8 186.93 172.8L185.135 174.388L183.673 173.876C183.673 173.876 183.57 173.21 184.057 173.159C184.57 173.082 183.724 172.723 183.468 172.569C183.211 172.39 181.083 171.263 182.39 169.521Z" fill="#FCD2B1"/>
<path d="M176.697 134.067C176.287 135.271 176.903 136.629 178.082 137.038L180.185 137.807C181.365 138.242 182.647 137.576 183.057 136.372L184.93 130.839C185.34 129.635 184.724 128.277 183.545 127.842L181.442 127.073C180.262 126.638 178.98 127.304 178.57 128.508L176.697 134.067Z" fill="#FF957E"/>
<path d="M185.876 138.934C185.671 139.728 184.85 140.215 184.081 139.984L177.746 138.165C176.977 137.935 176.515 137.115 176.721 136.295L179.311 126.586C179.516 125.792 180.337 125.305 181.106 125.536L187.44 127.329C188.21 127.56 188.671 128.379 188.466 129.199L185.876 138.934Z" fill="#FCD2B1"/>
<path d="M189.155 128.227C189.207 128.176 188.565 127.459 188.899 126.05C189.335 124.154 187.924 123.385 186.873 123.36C186.257 123.334 184.18 124.333 183.077 124.666C181.975 124.999 182.077 124.564 180.077 124.205C178.743 123.949 178.435 124.692 177.974 125.717C177.512 126.767 177.461 130.763 177.461 130.763C177.64 131.019 177.923 131.224 178.102 131.019C178.282 130.814 179 127.612 179.59 126.664C180.154 125.717 182.462 127.228 183.718 127.971C184.949 128.714 186.052 128.842 188.027 128.432C188.258 128.688 188.463 128.97 188.463 129.098C188.463 129.354 187.899 131.173 187.899 131.173C187.899 131.173 189.001 130.481 189.309 129.944C189.463 129.764 189.514 128.893 189.155 128.227Z" fill="#6236FF"/>
<path d="M178.724 134.272C178.647 134.529 178.391 134.708 178.134 134.631L176.775 134.247C176.519 134.17 176.365 133.888 176.442 133.632L177.134 131.045C177.211 130.788 177.468 130.609 177.724 130.686L179.083 131.07C179.34 131.147 179.494 131.429 179.417 131.685L178.724 134.272Z" fill="#FCD2B1"/>
<path d="M177.874 131.812C177.874 131.812 176.848 135.629 176.515 136.91C176.207 138.063 175.976 140.727 182.259 142.521C185.978 143.571 186.593 140.702 186.85 139.779C187.029 139.062 186.824 136.731 186.542 136.219C186.542 136.193 186.132 137.807 186.132 137.807C186.132 137.807 185.773 136.039 184.003 135.553C181.157 134.733 180.028 136.296 178.797 135.886C177.823 135.553 177.541 133.708 177.874 131.812Z" fill="#6236FF"/>
<path d="M182.158 137.68L184.107 138.243C184.363 138.32 184.646 138.167 184.697 137.885L184.774 137.603L181.876 136.783L181.799 137.065C181.748 137.347 181.901 137.603 182.158 137.68Z" fill="#FCD2B1"/>
<path d="M213.063 176.49C212.165 179.077 196.368 188.581 191.059 188.017L175.082 188.811C161.515 187.095 155.078 165.269 155.078 165.269C155.617 159.787 169.004 167.728 173.774 170.188C181.314 174.082 186.109 174.286 186.109 174.286C191.161 174.824 197.009 170.777 203.394 170.649C210.396 170.469 214.499 172.416 213.063 176.49Z" fill="#0B4870"/>
<path d="M178.336 173.876C178.336 173.85 178.336 173.85 178.336 173.876V173.159L205.802 172.646V173.338V173.364L205.725 173.492C205.392 174.107 204.751 174.209 204.033 174.235L180.131 174.696C179.413 174.721 178.772 174.619 178.413 174.03L178.336 173.876Z" fill="#D3D3D3"/>
<path d="M184.95 173.851C184.95 173.851 184.95 173.876 184.95 173.851L184.874 173.979C184.771 174.132 184.643 174.261 184.489 174.337L180.309 174.414C179.616 174.44 179.001 174.363 178.642 173.876L178.565 173.774C178.565 173.774 178.565 173.774 178.539 173.748V173.415L184.899 173.287L184.95 173.851Z" fill="#D3D3D3"/>
<path d="M188.674 173.594L202.394 173.338V172.852L188.648 173.133L188.674 173.594Z" fill="#D3D3D3"/>
<path d="M185.109 173.005L188.418 158.966C188.495 158.608 188.854 158.3 189.213 158.275L208.498 157.916C208.857 157.916 209.062 158.198 208.985 158.582L205.677 172.62L185.109 173.005Z" fill="#D3D3D3"/>
<path d="M172.672 192.424C174.57 192.757 176.031 190.477 176.031 190.477L180.955 186.481L179.904 183.766L170.312 188.223C170.312 188.223 170.748 192.091 172.672 192.424Z" fill="#FCD2B1"/>
<path d="M176.001 190.323C176.001 190.323 176.001 190.554 175.642 191.604C175.283 192.654 174.821 193.013 174.36 193.167C172.513 193.73 171.205 193.448 166.794 194.319C162.383 195.19 161.05 194.524 159.768 192.424C158.485 190.323 159.819 188.658 161.973 188.504C165.076 188.274 166.82 188.632 168.436 188.376C170.128 188.12 170.231 187.71 171.231 187.07C172.154 186.481 173.026 190.016 172.154 190.836C171.359 191.553 175.36 191.655 176.001 190.323Z" fill="#FFB750"/>
<path d="M175.08 192.347C173.259 192.911 171.926 192.629 167.514 193.5C163.103 194.371 161.77 193.705 160.488 191.604C159.898 190.631 159.872 189.76 160.205 189.094C159.231 189.785 158.898 190.989 159.77 192.424C161.052 194.525 162.385 195.191 166.796 194.32C171.207 193.449 172.541 193.73 174.362 193.167C174.721 193.064 175.08 192.808 175.388 192.219C175.285 192.27 175.183 192.322 175.08 192.347Z" fill="white"/>
<path d="M176.005 190.399C176.005 190.348 176.005 190.348 176.005 190.348C176.005 190.373 175.979 190.399 175.953 190.425C175.979 190.399 176.005 190.399 176.005 190.399Z" fill="#E9D6B8"/>
<path d="M166.484 191.963C166.356 192.014 166.228 191.732 166.176 191.348C166.099 190.554 165.92 189.785 165.663 188.991C165.535 188.607 165.535 188.274 165.689 188.223C165.843 188.172 166.099 188.453 166.202 188.838C166.459 189.606 166.612 190.4 166.689 191.169C166.741 191.553 166.612 191.912 166.484 191.963Z" fill="white"/>
<path d="M167.843 191.706C167.689 191.732 167.561 191.476 167.51 191.117C167.433 190.374 167.253 189.631 166.997 188.914C166.869 188.555 166.869 188.248 167.048 188.222C167.202 188.197 167.458 188.479 167.587 188.837C167.817 189.554 167.997 190.297 168.074 191.015C168.1 191.373 167.997 191.681 167.843 191.706Z" fill="white"/>
<path d="M169.276 191.655C169.123 191.681 168.969 191.399 168.917 191.015C168.789 190.246 168.61 189.503 168.328 188.735C168.199 188.35 168.199 188.043 168.353 188.043C168.533 188.043 168.789 188.325 168.917 188.709C169.2 189.452 169.379 190.22 169.482 190.963C169.533 191.322 169.43 191.629 169.276 191.655Z" fill="white"/>
<path d="M173 185.891C173 185.891 206.775 171.52 208.699 171.494C215.213 171.443 213.725 178.257 210.417 181.485C206.519 185.277 176.872 192.219 176.872 192.219L173 185.891Z" fill="#0E538C"/>
<path d="M186.389 188.401L177.156 179.332L181.106 175.311L191.159 186.275L186.389 188.401Z" fill="#FCD2B1"/>
<path d="M188.284 181.28C188.284 181.28 164.818 159.018 163.253 158.352C157.894 156.098 154.585 162.22 154.765 164.347C155.021 167.088 178.846 189.375 178.846 189.375L188.284 181.28Z" fill="#0E538C"/>
<path d="M202.183 189.093C202.721 189.606 202.824 191.168 202.824 191.168C202.824 191.168 195.002 194.243 192.258 194.294C191.54 194.319 190.258 194.012 189.027 193.653C188.821 193.602 188.334 193.039 188.129 192.987C187.744 192.885 187.667 193.243 187.36 193.141C186.539 192.859 185.923 192.629 185.898 192.577C184.231 188.94 184.795 187.147 184.795 187.147C184.795 187.147 188.385 188.222 187.77 187.377C186.462 185.584 190.232 183.765 191.053 184.713C194.438 188.53 200.593 187.582 202.183 189.093Z" fill="#FFB750"/>
<path d="M202.622 189.861C200.211 190.86 195.159 192.884 194.159 192.961C190.03 193.268 187.158 191.757 185.234 190.86C185.414 191.373 185.619 191.962 185.901 192.577C185.927 192.628 186.517 192.859 187.363 193.14C187.696 193.243 187.773 192.859 188.132 192.987C188.337 193.038 188.799 193.601 189.03 193.653C190.261 194.011 191.543 194.293 192.261 194.293C195.005 194.242 202.827 191.168 202.827 191.168C202.827 191.168 202.827 190.451 202.622 189.861Z" fill="white"/>
<path d="M197.1 187.505C197.177 187.659 196.869 187.812 196.434 187.915C195.536 188.094 194.664 188.376 193.792 188.735C193.356 188.914 192.971 188.965 192.92 188.812C192.869 188.658 193.151 188.376 193.587 188.197C194.433 187.838 195.331 187.582 196.203 187.403C196.613 187.274 197.023 187.351 197.1 187.505Z" fill="white"/>
<path d="M195.334 186.864C195.411 187.018 195.103 187.223 194.667 187.351C193.795 187.607 192.949 187.965 192.102 188.401C191.692 188.606 191.307 188.683 191.256 188.529C191.205 188.375 191.487 188.042 191.897 187.837C192.718 187.428 193.564 187.069 194.436 186.838C194.872 186.659 195.282 186.71 195.334 186.864Z" fill="white"/>
<path d="M193.639 186.301C193.69 186.455 193.408 186.685 192.998 186.839C192.152 187.172 191.331 187.582 190.536 188.069C190.151 188.325 189.792 188.402 189.741 188.223C189.69 188.069 189.946 187.71 190.356 187.454C191.151 186.967 191.972 186.557 192.793 186.25C193.203 186.122 193.588 186.148 193.639 186.301Z" fill="white"/>
</svg>
