<svg width="264" height="248" viewBox="0 0 264 248" fill="none" xmlns="http://www.w3.org/2000/svg">
<path d="M56.8818 203.186C48.9606 197.7 25.4799 181.452 26.0088 160.997C26.3655 147.258 37.3002 140.382 38.4318 116.594C38.6778 111.526 38.3211 108.672 38.8008 96.9136C39.6987 74.5276 41.5068 71.3296 42.9828 69.4846C48.7884 62.2399 58.5915 64.8106 72.0108 62.9656C95.1348 59.7799 98.1852 47.689 122.81 36.6436C133.831 31.699 167.114 16.7668 196.364 30.9856C211.357 38.2795 227.372 54.2449 229.574 73.1746C231.48 89.5459 221.124 91.4401 221.579 114.626C221.714 121.452 224.051 132.99 228.713 156.077C232.378 174.219 232.723 174.022 232.526 175.757C228.946 207.355 118.222 245.645 56.8818 203.186Z" fill="#F2F2F2"/>
<path opacity="0.47" d="M76.6233 197.625C76.6233 197.625 66.1806 195.46 66.8694 185.485C67.5582 175.509 61.2729 173.406 58.161 168.302C55.0491 163.197 53.9298 152.877 58.3086 149.901C62.6874 146.936 70.7931 155.005 71.3958 160.553C71.9985 166.088 73.9419 170.11 79.4892 173.48C85.0365 176.838 88.8495 191.819 87.7302 192.926C86.6109 194.021 76.6233 197.625 76.6233 197.625Z" fill="#6236FF"/>
<path d="M60.9515 154.612C60.7793 157.183 60.6071 159.84 61.382 162.337C62.1323 164.747 63.7067 166.888 65.195 168.893C66.7694 171.02 68.5652 172.964 70.2626 174.981C71.9477 176.986 73.3622 179.151 74.5553 181.475C75.896 184.083 76.9661 186.826 77.987 189.569C78.0731 189.79 78.4298 189.692 78.3437 189.47C76.6217 184.833 74.7398 180.172 71.714 176.199C68.5529 172.041 64.5062 168.425 62.2676 163.616C60.9515 160.787 61.1114 157.65 61.3082 154.612C61.3451 154.366 60.9761 154.366 60.9515 154.612Z" fill="#F7F7F7"/>
<path d="M65.2079 168.055C64.6667 167.563 64.8266 166.173 64.8758 165.534C64.9496 164.427 65.1833 163.344 65.4047 162.25C65.7983 160.294 66.1796 158.301 65.7491 156.321C65.6999 156.087 65.3432 156.186 65.3924 156.42C65.909 158.781 65.2202 161.13 64.7897 163.443C64.5929 164.488 64.4453 165.546 64.4822 166.604C64.5068 167.145 64.5068 167.92 64.9496 168.314C65.1218 168.474 65.3801 168.215 65.2079 168.055Z" fill="#F7F7F7"/>
<path d="M58.2865 157.871C58.1881 159.101 58.1143 160.429 58.8892 161.462C59.3074 162.028 59.8855 162.458 60.4021 162.926C61.0294 163.479 61.6444 164.033 62.2717 164.586C62.4439 164.746 62.7145 164.488 62.53 164.328C61.5214 163.43 60.439 162.581 59.5042 161.61C58.4956 160.577 58.5571 159.211 58.6555 157.871C58.6678 157.637 58.2988 157.637 58.2865 157.871Z" fill="#F7F7F7"/>
<path d="M70.8546 175.004C68.7636 173.774 66.4635 172.852 64.2741 171.831C64.065 171.733 63.8682 172.052 64.0896 172.151C66.279 173.172 68.5791 174.094 70.6701 175.324C70.8792 175.447 71.0637 175.127 70.8546 175.004Z" fill="#F7F7F7"/>
<path d="M75.8724 183.259C75.7617 181.77 76.4505 180.319 76.6473 178.868C76.8318 177.465 76.7826 176.051 76.5489 174.661C76.512 174.427 76.1553 174.526 76.1922 174.759C76.4505 176.285 76.4628 177.834 76.2045 179.36C75.9831 180.663 75.405 181.918 75.5034 183.259C75.5157 183.492 75.8847 183.492 75.8724 183.259Z" fill="#F7F7F7"/>
<path opacity="0.47" d="M185.072 196.162C185.072 196.162 178.221 179.57 192.772 171.12C207.323 162.657 204.31 151.919 208.479 142.756C212.649 133.592 225.97 122.276 234.235 125.573C242.501 128.869 238.909 147.787 231.763 153.85C224.617 159.914 220.853 166.421 221.407 177.331C221.972 188.241 204.703 207.688 202.108 207.183C199.513 206.679 185.072 196.162 185.072 196.162Z" fill="#6236FF"/>
<path d="M198.459 192.128C197.61 188.622 198.606 184.797 199.738 181.464C200.919 177.983 202.456 174.465 204.498 171.39C206.823 167.909 209.873 165.006 212.69 161.931C215.556 158.795 217.979 155.375 219.996 151.636C222.296 147.368 224.104 142.854 225.912 138.352C225.998 138.131 225.642 138.032 225.555 138.254C223.883 142.423 222.21 146.593 220.131 150.591C218.102 154.502 215.666 158.106 212.702 161.365C209.922 164.428 206.896 167.294 204.522 170.701C202.444 173.69 200.894 177.134 199.664 180.553C198.36 184.17 197.179 188.388 198.102 192.226C198.151 192.46 198.508 192.361 198.459 192.128Z" fill="#F7F7F7"/>
<path d="M217.964 155.241C215.356 153.089 215.393 149.448 216.07 146.422C216.82 143.064 217.915 139.756 219.022 136.508C219.096 136.287 218.739 136.189 218.665 136.41C218.05 138.218 217.46 140.038 216.919 141.859C216.39 143.63 215.848 145.414 215.516 147.234C215 150.137 215.27 153.482 217.693 155.487C217.878 155.647 218.149 155.389 217.964 155.241Z" fill="#F7F7F7"/>
<path d="M220.57 151.514C223.203 150.665 225.638 149.337 227.778 147.578C227.963 147.43 227.704 147.172 227.52 147.319C225.429 149.041 223.043 150.333 220.472 151.157C220.251 151.231 220.337 151.588 220.57 151.514Z" fill="#F7F7F7"/>
<path d="M207.246 167.43C206.422 164.478 206.36 161.39 207.073 158.414C207.123 158.18 206.778 158.082 206.717 158.315C206.003 161.353 206.053 164.514 206.889 167.528C206.95 167.749 207.307 167.651 207.246 167.43Z" fill="#F7F7F7"/>
<path d="M211.828 162.177C214.964 163.419 218.372 163.739 221.68 163.136C221.914 163.099 221.816 162.742 221.582 162.779C218.335 163.37 215.001 163.038 211.926 161.82C211.705 161.734 211.607 162.091 211.828 162.177Z" fill="#F7F7F7"/>
<path d="M201.136 181.697C201.431 178.794 205.109 178.745 207.274 178.659C209.93 178.56 212.575 178.462 215.232 178.363C215.465 178.351 215.465 177.982 215.232 177.994C212.12 178.117 208.995 178.179 205.884 178.351C203.756 178.462 201.025 179.163 200.767 181.697C200.742 181.93 201.111 181.93 201.136 181.697Z" fill="#F7F7F7"/>
<path d="M132.279 212.903C183.295 212.903 224.652 207.313 224.652 200.418C224.652 193.523 183.295 187.934 132.279 187.934C81.2631 187.934 39.9062 193.523 39.9062 200.418C39.9062 207.313 81.2631 212.903 132.279 212.903Z" fill="#0E538C"/>
<path d="M225.585 64.7403L113.508 38.4336L80.5401 178.889L192.617 205.196L225.585 64.7403Z" fill="#0B4870"/>
<path d="M211.712 55.1205L97.1484 43.7207L82.8622 187.293L197.426 198.693L211.712 55.1205Z" fill="#6236FF"/>
<path d="M202.23 53.9898L85.8359 47.0801L77.811 182.259L194.205 189.169L202.23 53.9898Z" fill="white"/>
<path d="M108.774 57.3137L97.6016 56.6504L96.9383 67.8232L108.111 68.4865L108.774 57.3137Z" fill="#CCE9FF"/>
<path d="M107.493 78.8L96.3203 78.1367L95.657 89.3096L106.83 89.9728L107.493 78.8Z" fill="#CCE9FF"/>
<path d="M106.251 99.7961L95.0781 99.1328L94.4148 110.306L105.588 110.969L106.251 99.7961Z" fill="#CCE9FF"/>
<path d="M105.009 120.667L93.8359 120.004L93.1727 131.177L104.346 131.84L105.009 120.667Z" fill="#CCE9FF"/>
<path d="M103.665 143.138L92.4922 142.475L91.8289 153.647L103.002 154.311L103.665 143.138Z" fill="#CCE9FF"/>
<path d="M183.589 62.9927L115.938 58.9766L115.77 61.8005L183.421 65.8166L183.589 62.9927Z" fill="#CCE9FF"/>
<path d="M168.987 68.2897L115.578 65.1191L115.41 67.943L168.819 71.1136L168.987 68.2897Z" fill="#CCE9FF"/>
<path d="M176.307 83.9929L114.672 80.334L114.504 83.1579L176.139 86.8168L176.307 83.9929Z" fill="#CCE9FF"/>
<path d="M180.49 90.4013L114.312 86.4727L114.145 89.2966L180.323 93.2252L180.49 90.4013Z" fill="#CCE9FF"/>
<path d="M181.049 105.721L113.398 101.705L113.231 104.529L180.882 108.545L181.049 105.721Z" fill="#CCE9FF"/>
<path d="M173.078 111.41L113.039 107.846L112.85 111.038L172.888 114.602L173.078 111.41Z" fill="#CCE9FF"/>
<path d="M169.233 126.452L112.141 123.062L111.973 125.886L169.065 129.276L169.233 126.452Z" fill="#CCE9FF"/>
<path d="M179.417 133.221L111.766 129.205L111.598 132.029L179.249 136.045L179.417 133.221Z" fill="#CCE9FF"/>
<path d="M178.518 148.45L110.867 144.434L110.7 147.258L178.351 151.274L178.518 148.45Z" fill="#CCE9FF"/>
<path d="M161.33 153.582L110.5 150.564L110.332 153.388L161.163 156.406L161.33 153.582Z" fill="#CCE9FF"/>
<path d="M79.0938 105.881C79.0938 105.881 88.9829 101.699 90.8771 100.666C92.7836 99.6323 94.5918 80.4074 94.641 77.8613L98.085 78.7223C98.085 78.7223 97.8759 100.998 95.5389 103.716C93.2018 106.434 81.2586 112.781 81.2586 112.781L79.0938 105.881Z" fill="#FCD2B1"/>
<path d="M93.25 76.3477C93.25 76.3477 93.5944 78.1681 94.7383 78.328C95.8822 78.4879 94.7383 76.3477 94.7383 76.3477H93.25Z" fill="#FCD2B1"/>
<path d="M92.3366 73.1133C92.6564 73.1625 103.148 78.3285 103.148 78.3285L102.226 80.5056L91.4141 75.5118L92.3366 73.1133Z" fill="#0B4870"/>
<path d="M94.7641 78.34C94.7641 78.34 93.7555 74.7976 94.7272 74.4163C95.6989 74.035 98.4172 74.1457 98.9092 75.3388C99.4012 76.5319 98.5279 77.9464 98.0359 78.7582C97.5562 79.5823 94.9855 79.2625 94.7641 78.34Z" fill="#FCD2B1"/>
<path d="M102.227 80.5052H104.613L103.149 78.3281L102.227 80.5052Z" fill="#6236FF"/>
<path d="M102.513 66.3106L97.6172 61.3906L99.7943 59.2135L102.402 61.8457L109.868 53.5801L112.143 55.6342L102.513 66.3106Z" fill="#6236FF"/>
<path d="M102.513 87.5899L97.6172 82.6699L99.7943 80.4928L102.402 83.125L109.868 74.8594L112.143 76.9135L102.513 87.5899Z" fill="#6236FF"/>
<path d="M99.1923 109.977L94.2969 105.057L96.474 102.879L99.0816 105.512L106.548 97.2461L108.823 99.3002L99.1923 109.977Z" fill="#6236FF"/>
<path d="M99.1923 129.533L94.2969 124.613L96.474 122.436L99.0816 125.068L106.548 116.803L108.823 118.857L99.1923 129.533Z" fill="#6236FF"/>
<path d="M97.9579 153.641L93.0625 148.721L95.2396 146.544L97.8472 149.176L105.313 140.91L107.589 142.964L97.9579 153.641Z" fill="#6236FF"/>
<path d="M85.0454 204.907C82.1918 201.291 75.6236 200.959 74.5781 201.008C73.7294 201.303 72.9053 201.574 72.1304 201.832C71.2079 202.213 70.2731 202.656 69.2891 202.89C69.3383 203.948 69.3629 204.563 69.3629 204.563L85.0454 204.907Z" fill="#0B4870"/>
<path d="M95.1403 186.729C93.6643 187.048 92.1514 187.122 90.6631 187.11C90.6508 188.598 90.6262 189.951 90.6016 191.058C91.8562 190.886 93.2461 190.874 94.4638 190.468C94.5376 190.086 94.8082 188.684 95.1403 186.729Z" fill="#FCD2B1"/>
<path d="M58.1063 113.064C58.1063 113.064 50.9723 131.736 51.0953 135.918C51.2183 140.1 65.8553 153.876 65.8553 153.876L66.3473 149.571C66.3473 149.571 55.5233 139.239 56.8763 133.704C58.2293 128.169 63.8504 115.93 63.8504 115.93L58.1063 113.064Z" fill="#FCD2B1"/>
<path d="M103.369 195.928C100.454 191.156 94.4393 190.565 94.4393 190.565C94.4393 190.565 94.4516 190.528 94.4639 190.467C93.2339 190.86 91.844 190.885 90.6017 191.057C90.5525 192.927 90.5156 194.108 90.5156 194.108L103.369 195.928Z" fill="#0B4870"/>
<path d="M56.5469 116.187C56.5469 116.187 58.5518 107.663 63.1151 108.204C67.6784 108.746 61.922 120.64 61.922 120.64L56.5469 116.187Z" fill="#6236FF"/>
<path d="M74.5895 201.009C74.2574 201.021 74.0729 201.083 74.0729 201.083C74.0729 201.083 74.0975 199.89 74.1344 198.008C72.7814 199.066 70.9487 199.287 69.1406 199.312C69.2021 200.763 69.2636 201.993 69.3005 202.903C70.2845 202.67 71.2193 202.227 72.1418 201.845C72.9167 201.575 73.7408 201.304 74.5895 201.009Z" fill="#FCD2B1"/>
<path d="M74.9047 168.586C74.4127 161.293 74.917 131.957 74.917 131.957H62.125C62.125 131.957 62.3218 137.381 63.0229 143.9C63.9823 152.756 65.5813 163.617 65.9872 165.684C66.4915 168.279 67.4632 188.881 67.9552 200.124C70.4644 200.074 72.9859 199.779 74.8555 198.316C75.0154 190.493 75.2737 174.072 74.9047 168.586Z" fill="#0B4870"/>
<path d="M96.4062 186.482C97.6731 178.843 99.5058 165.067 97.2795 159.434C94.1307 151.439 79.0017 132.522 79.0017 132.522L70.0719 132.509C67.6611 132.153 67.7718 138.143 73.2453 146.002C76.9353 151.304 85.4715 157.97 88.2021 162.152C90.0594 164.994 90.2931 177.822 90.2193 187.011C92.2857 187.023 94.3767 186.924 96.4062 186.482Z" fill="#0B4870"/>
<path d="M63.1094 101.957L64.5239 108.857L70.1204 108.697L68.7059 101.957H63.1094Z" fill="#FCD2B1"/>
<path d="M70.0754 94.2441C70.0754 94.2441 73.7654 103.42 70.0754 105.437C66.3854 107.442 62.5847 104.404 62.474 102.288C62.3633 100.173 60.2969 95.6586 60.2969 95.6586L70.0754 94.2441Z" fill="#FCD2B1"/>
<path d="M64.6384 100.173H65.6716L64.2571 95.8314C64.2571 95.8314 70.7146 95.4009 70.936 93.0024C71.1574 90.6162 66.9262 91.428 63.7159 91.428C59.6446 91.428 58.882 94.257 58.882 94.257C58.882 94.257 58.4269 94.1463 58.882 96.7539C59.4847 100.173 63.1132 105.45 65.0197 105.45C65.9914 105.45 63.9373 102.842 63.9373 102.842L63.7159 101.108C63.7159 101.108 62.3014 99.1032 62.7934 98.7711C63.2854 98.4267 64.6384 100.173 64.6384 100.173Z" fill="#0B4870"/>
<path d="M63.1131 108.206C63.1131 108.206 73.2975 105.771 75.204 108.108C77.1105 110.445 79.017 132.462 79.017 132.462L61.674 140.334C61.674 140.334 58.722 114.836 63.1131 108.206Z" fill="#6236FF"/>
<path d="M79.2645 105.523C79.2645 105.523 71.1465 106.852 71.946 109.853C72.7332 112.854 77.6778 116.101 83.4342 114.22L79.2645 105.523Z" fill="#6236FF"/>
</svg>
