<svg width="264" height="248" viewBox="0 0 264 248" fill="none" xmlns="http://www.w3.org/2000/svg">
<path opacity="0.5" d="M24.558 129.658C33.3352 113.543 51.1055 101.24 55.5301 99.2617C84.164 86.4196 110.46 61.9945 139.525 51.5626C168.591 41.1306 201.829 46.0948 233.629 87.9664C250.679 110.449 251.902 132.896 238.665 146.673C189.239 198.221 130.568 215.056 68.624 193.329C56.3934 189.048 43.983 183.221 31.5366 171.602C16.2844 157.429 17.6514 142.392 24.558 129.658Z" fill="#CCE9FF"/>
<path d="M25.3852 113.218C36.5366 98.6496 55.9616 89.1889 60.6379 87.8939C90.8906 79.5483 120.604 59.4039 150.928 53.5404C181.253 47.6769 213.34 57.6052 238.413 103.83C251.866 128.65 249.636 151.025 234.456 162.608C177.692 206.027 117.15 213.761 59.235 182.861C47.7959 176.745 36.3927 169.119 25.8888 155.737C12.9747 139.406 16.6079 124.729 25.3852 113.218Z" fill="#CCE9FF"/>
<path d="M143.376 126.995L141.325 116.635L140.21 110.952C139.239 103.182 138.16 89.3682 138.843 81.5982C140.03 68.2525 127.44 58.0004 114.742 58.6119C101.864 59.2594 96.0724 68.6842 93.2666 80.3032C88.842 98.7569 98.8423 112.858 92.2594 126.42C92.0435 126.887 92.3673 127.463 92.9069 127.463C96.9717 127.571 110.641 127.391 110.641 127.391V101.203C110.641 101.203 112.476 104.045 115.461 107.498L111.217 132.103L143.376 126.995Z" fill="#2A94F4"/>
<path d="M120.825 113.003L140.106 121.528C144.458 123.435 147.732 127.284 149.027 131.96L167.265 197.573H73.3772C66.4705 197.573 61.0387 191.458 61.7222 184.372L66.6864 133.399C67.2619 127.392 71.075 122.248 76.5068 119.981L94.6728 112.535L120.825 113.003Z" fill="#0B4870"/>
<path d="M118.592 197.573V182.537L89.5265 179.551L93.8072 154.838L92.4402 122.715L82.2961 117.175C82.2961 117.175 69.454 116.708 66.6841 133.399C66.0726 141.888 61.72 184.371 61.72 184.371C61.72 184.371 60.6048 196.854 73.375 197.573C73.0512 198.041 114.995 197.573 114.995 197.573H118.592Z" fill="#0B4870"/>
<path d="M120.106 113.471C121.077 113.687 130.322 118.003 131.545 123.939C132.768 129.874 127.048 139.335 111.616 132.968C110.537 133.004 120.106 113.471 120.106 113.471Z" fill="#6236FF"/>
<path d="M99.9922 89.5842C99.9922 89.5842 108.41 87.5337 112.511 73.2168C112.043 74.3679 100.676 73.001 99.9922 89.5842Z" fill="#064A6F"/>
<path d="M123.373 104.801L120.639 122.068C120.639 122.068 110.171 132.535 105.639 120.233C104.272 110.7 108.229 100.232 108.229 100.232L123.373 104.801Z" fill="#FCD2B1"/>
<path d="M123.376 104.909C123.376 104.909 123.952 113.111 109.455 109.945C106.325 105.341 107.908 96.3477 107.908 96.3477L123.376 104.909Z" fill="#EFBD9C"/>
<path d="M103.625 87.8944C103.625 87.8944 103.374 103.506 115.46 105.773C119.237 106.78 132.331 107.535 133.59 89.657C133.842 74.5487 133.59 77.3185 133.59 77.3185H106.395L103.625 87.8944Z" fill="#FCD2B1"/>
<path d="M118.557 184.73C118.557 184.73 128.09 186.601 126.723 194.047C121.507 194.299 117.766 194.191 117.766 194.191L118.557 184.73Z" fill="#FCD2B1"/>
<path d="M118.628 157.86C119.562 157.86 120.319 157.103 120.319 156.169C120.319 155.235 119.562 154.479 118.628 154.479C117.694 154.479 116.938 155.235 116.938 156.169C116.938 157.103 117.694 157.86 118.628 157.86Z" fill="#6236FF"/>
<path d="M118.738 176.063C119.671 176.063 120.428 175.306 120.428 174.372C120.428 173.439 119.671 172.682 118.738 172.682C117.804 172.682 117.047 173.439 117.047 174.372C117.047 175.306 117.804 176.063 118.738 176.063Z" fill="#6236FF"/>
<path d="M118.559 184.731L89.4219 177.32L93.091 159.334L95.6451 159.154L91.5442 176.205L118.667 184.371L118.559 184.731Z" fill="#07354F"/>
<path d="M99.9203 70.0154C92.6899 76.4904 92.618 85.7353 92.2942 94.7284C92.1143 99.1889 91.8985 103.865 90.1718 108.038C88.2653 112.679 84.3803 116.096 81.7543 120.305C79.3442 124.19 78.9485 130.269 82.9414 132.535C84.8839 133.65 87.366 133.506 89.2725 134.658C91.6107 136.06 92.51 139.118 92.4021 141.852C92.2942 144.586 91.3949 147.248 90.9992 149.946C90.3157 154.91 92.2223 160.989 97.0785 162.176C100.316 162.968 103.589 161.349 106.503 159.802C110.029 157.896 113.554 156.025 116.755 153.651C119.453 151.672 121.935 149.298 123.338 146.241C125.928 140.521 123.986 133.794 121 128.254C118.014 122.751 114.021 117.715 112.151 111.743C109.093 102.103 112.043 91.7067 113.014 81.6345C113.374 77.6775 113.374 73.3609 111.072 70.0874C106.323 63.2886 95.4598 68.3248 96.8627 76.2746" fill="#2A94F4"/>
<path d="M226.152 197.105H36.5781V202.106H226.152V197.105Z" fill="#2A94F4"/>
<path d="M24.9922 100.952L42.9783 98.7578" stroke="#4C8DC8" stroke-width="0.5" stroke-miterlimit="10"/>
<path d="M56.9658 66.7441L16 80.125L16.8154 82.6213L57.7812 69.2403L56.9658 66.7441Z" fill="#6236FF"/>
<path d="M18.2271 81.4913C18.5251 81.4913 18.7667 81.2497 18.7667 80.9517C18.7667 80.6537 18.5251 80.4121 18.2271 80.4121C17.9291 80.4121 17.6875 80.6537 17.6875 80.9517C17.6875 81.2497 17.9291 81.4913 18.2271 81.4913Z" fill="#F7F7F7"/>
<path d="M20.1333 80.878C20.4313 80.878 20.6729 80.6364 20.6729 80.3384C20.6729 80.0404 20.4313 79.7988 20.1333 79.7988C19.8353 79.7988 19.5938 80.0404 19.5938 80.3384C19.5938 80.6364 19.8353 80.878 20.1333 80.878Z" fill="#F7F7F7"/>
<path d="M56.815 71.4675L18.9609 83.832L26.6566 107.393L64.5107 95.028L56.815 71.4675Z" stroke="#CCE9FF" stroke-miterlimit="10"/>
<path d="M23.5192 91.4553L21.4688 85.1602L21.5767 85.1242L38.8793 79.4766L40.9297 85.8077L40.8218 85.8436L23.5192 91.4553ZM21.7206 85.2681L23.6631 91.2035L40.6779 85.6638L38.7354 79.7284L21.7206 85.2681Z" fill="#2A94F4"/>
<path d="M46.6475 98.4338L46.6116 98.3259L42.7266 86.4191L42.8345 86.3831L57.3313 81.6348L57.3673 81.7427L61.2523 93.6495L61.1443 93.6855L46.6475 98.4338ZM42.9784 86.5989L46.7554 98.218L60.9645 93.5775L57.1874 81.9585L42.9784 86.5989Z" fill="#2A94F4"/>
<path d="M24.2751 93.0376L24.2031 92.8578L41.3978 87.2461L41.4698 87.426L24.2751 93.0376Z" fill="#2A94F4"/>
<path d="M42.4422 84.9441L42.4062 84.7283L56.6512 80.0879L56.7232 80.2678L42.4422 84.9441Z" fill="#2A94F4"/>
<path d="M41.8298 82.9656L41.7578 82.7858L56.0028 78.1094L56.0748 78.3252L41.8298 82.9656Z" fill="#2A94F4"/>
<path d="M41.2204 81.0945L41.1484 80.8787L55.3934 76.2383L55.4654 76.4181L41.2204 81.0945Z" fill="#2A94F4"/>
<path d="M40.6423 79.368L40.5703 79.1521L54.8153 74.5117L54.8873 74.6916L40.6423 79.368Z" fill="#2A94F4"/>
<path d="M24.8844 94.9447L24.8125 94.7289L42.0072 89.1172L42.0792 89.297L24.8844 94.9447Z" fill="#2A94F4"/>
<path d="M25.4626 96.7064L25.3906 96.4906L42.5853 90.8789L42.6573 91.0947L25.4626 96.7064Z" fill="#2A94F4"/>
<path d="M26.0641 98.5404L25.9922 98.3605L43.1869 92.7129L43.2589 92.9287L26.0641 98.5404Z" fill="#2A94F4"/>
<path d="M26.6813 100.413L26.6094 100.233L43.8041 94.6211L43.876 94.801L26.6813 100.413Z" fill="#2A94F4"/>
<path d="M27.2594 102.174L27.1875 101.994L44.3822 96.3828L44.4542 96.5627L27.2594 102.174Z" fill="#2A94F4"/>
<path d="M27.9469 104.044L27.875 103.864L45.0697 98.2168L45.1057 98.4326L27.9469 104.044Z" fill="#2A94F4"/>
<path d="M57 66.7466L16 80.1387L25.5386 109.341L66.5387 95.9493L57 66.7466Z" stroke="#2A94F4" stroke-miterlimit="10"/>
<path d="M82.8016 54.0086H80.7871V51.9941H79.9598V54.0086H77.9453V54.8359H79.9598V56.8504H80.7871V54.8359H82.8016V54.0086Z" fill="#2A94F4"/>
<path d="M163.021 116.635H161.366V114.98H160.683V116.635H158.992V117.319H160.683V118.973H161.366V117.319H163.021V116.635Z" fill="#2A94F4"/>
<path d="M33.1219 146.71H31.1074V144.695H30.2801V146.71H28.2656V147.537H30.2801V149.552H31.1074V147.537H33.1219V146.71Z" fill="#6236FF"/>
<path d="M230.821 132.356H227.044V128.543H225.461V132.356H221.648V133.903H225.461V137.716H227.044V133.903H230.821V132.356Z" fill="#6236FF"/>
<path d="M176.221 52.605C171.401 50.6625 165.933 53.1446 164.17 57.9649C163.235 60.5549 163.631 63.3607 164.638 66.3464C164.998 67.4255 164.962 68.6126 164.566 69.6918L164.53 69.7997C163.954 71.3465 164.782 73.1092 166.329 73.6487L169.386 74.7639C170.933 75.3394 172.696 74.5121 173.235 72.9653C173.631 71.8501 174.422 70.9149 175.43 70.3393C178.451 68.6126 180.789 66.6701 181.617 63.6125C182.876 59.116 180.538 54.3317 176.221 52.605Z" fill="#6236FF"/>
<path d="M173.742 74.4409L172.879 74.1171L173.31 72.93L164.569 69.7285L164.138 70.9156L163.49 70.6638C163.166 70.5559 162.807 70.6998 162.663 71.0595L162.447 71.671C162.339 71.9948 162.483 72.3545 162.843 72.4984L163.49 72.7502L163.202 73.5416L162.555 73.2898C162.231 73.1818 161.871 73.3257 161.727 73.6855L161.512 74.297C161.404 74.6207 161.548 74.9805 161.907 75.1244L162.591 75.3762C162.447 76.3474 162.986 77.2827 163.922 77.6424L164.138 77.7143C163.958 78.8655 164.605 80.0166 165.756 80.4482C166.907 80.8799 168.131 80.4123 168.742 79.405C169.677 79.7648 170.72 79.3691 171.224 78.5417L172.123 78.8655C172.447 78.9734 172.807 78.8295 172.951 78.4698L173.167 77.8582C173.275 77.5345 173.131 77.1748 172.771 77.0309L171.908 76.7071L172.195 75.9157L173.059 76.2395C173.382 76.3474 173.742 76.2035 173.886 75.8438L174.102 75.2323C174.246 74.9085 174.102 74.5488 173.742 74.4409Z" fill="#0B4870"/>
<path d="M177.697 50.6989L176.402 50.2313C176.223 50.1593 176.115 49.9435 176.187 49.7636L177.482 46.2384C177.554 46.0585 177.769 45.9506 177.949 46.0225L179.244 46.4902C179.424 46.5621 179.532 46.778 179.46 46.9578L178.165 50.4831C178.129 50.663 177.913 50.7709 177.697 50.6989Z" fill="#6236FF"/>
<path d="M183.452 64.7638L183.92 63.4688C183.992 63.289 184.208 63.1811 184.388 63.253L187.913 64.548C188.093 64.6199 188.201 64.8358 188.129 65.0156L187.661 66.3106C187.589 66.4905 187.373 66.5984 187.193 66.5265L183.668 65.2315C183.488 65.1955 183.38 64.9797 183.452 64.7638Z" fill="#6236FF"/>
<path d="M157.983 55.4474L158.451 54.1524C158.523 53.9726 158.739 53.8647 158.919 53.9366L162.444 55.2316C162.624 55.3035 162.732 55.5194 162.66 55.6992L162.192 56.9942C162.12 57.1741 161.904 57.282 161.725 57.2101L158.199 55.9151C158.019 55.8431 157.912 55.6273 157.983 55.4474Z" fill="#6236FF"/>
<path d="M183.666 57.7128L183.09 56.4538C183.018 56.2739 183.09 56.0581 183.27 55.9502L186.687 54.3674C186.867 54.2955 187.083 54.3674 187.191 54.5473L187.766 55.8063C187.838 55.9862 187.766 56.202 187.587 56.3099L184.169 57.8927C183.953 58.0006 183.738 57.8927 183.666 57.7128Z" fill="#6236FF"/>
<path d="M166.294 51.3465L167.553 50.771C167.733 50.699 167.804 50.4472 167.733 50.2674L166.15 46.85C166.078 46.6701 165.826 46.5982 165.646 46.6701L164.387 47.2457C164.207 47.3176 164.135 47.5695 164.207 47.7493L165.79 51.1667C165.898 51.3465 166.114 51.4185 166.294 51.3465Z" fill="#F6B95F"/>
<path d="M215.445 85.2961L170.125 94.2012L174.314 115.52L219.634 106.615L215.445 85.2961Z" stroke="#2A94F4" stroke-miterlimit="10"/>
<path d="M175.386 113.555L172.703 114.082L173.23 116.765L175.913 116.237L175.386 113.555Z" stroke="#4C8DC8" stroke-width="0.75" stroke-miterlimit="10"/>
<path d="M171.393 92.7581L168.711 93.2852L169.238 95.9677L171.921 95.4406L171.393 92.7581Z" stroke="#4C8DC8" stroke-width="0.75" stroke-miterlimit="10"/>
<path d="M216.464 83.8049L213.781 84.332L214.308 87.0145L216.991 86.4874L216.464 83.8049Z" stroke="#4C8DC8" stroke-width="0.75" stroke-miterlimit="10"/>
<path d="M220.706 105.03L218.023 105.557L218.551 108.239L221.233 107.712L220.706 105.03Z" stroke="#4C8DC8" stroke-width="0.75" stroke-miterlimit="10"/>
<path d="M176.328 105.916L175.141 99.9446L177.011 99.5849L178.27 106.024C178.378 106.492 178.558 106.851 178.846 107.067C179.134 107.283 179.493 107.355 179.925 107.283C180.357 107.211 180.644 106.995 180.86 106.671C181.04 106.348 181.112 105.952 181.004 105.484L179.745 99.0453L181.616 98.6855L182.803 104.657C183.055 105.952 182.983 106.923 182.587 107.607C182.191 108.29 181.436 108.758 180.285 108.974C179.17 109.189 178.27 109.082 177.659 108.578C177.047 108.074 176.58 107.211 176.328 105.916Z" fill="#2A94F4"/>
<path d="M183.699 99.9808L183.375 98.3261L188.987 97.2109L189.31 98.8657L187.44 99.2254L188.663 105.377L190.533 105.017L190.857 106.672L185.246 107.787L184.922 106.132L186.792 105.772L185.569 99.6211L183.699 99.9808Z" fill="#2A94F4"/>
<path d="M195.792 95.9147L197.195 95.627L194.317 107.246L192.914 107.534L195.792 95.9147Z" fill="#2A94F4"/>
<path d="M199.742 101.31L198.555 95.3391L200.425 94.9794L201.684 101.418C201.792 101.886 201.972 102.246 202.26 102.462C202.548 102.677 202.907 102.749 203.339 102.677C203.771 102.606 204.058 102.39 204.274 102.066C204.454 101.742 204.526 101.346 204.418 100.879L203.159 94.4398L205.03 94.0801L206.217 100.051C206.469 101.346 206.397 102.318 206.001 103.001C205.605 103.685 204.85 104.152 203.699 104.368C202.584 104.584 201.684 104.476 201.073 103.972C200.425 103.469 199.958 102.605 199.742 101.31Z" fill="#2A94F4"/>
<path d="M215.175 101.887L213.232 102.282L210.822 99.5126L209.635 103.002L207.692 103.398L209.527 98.0737L205.93 93.9729L207.872 93.5772L210.174 96.2392L211.326 92.8937L213.268 92.498L211.505 97.678L215.175 101.887Z" fill="#2A94F4"/>
<path d="M198.416 143.795H143.198C139.457 143.795 136.328 146.601 135.896 150.306L130.896 193.724H112.802C111.83 193.724 111.039 194.516 111.039 195.487C111.039 196.458 111.83 197.25 112.802 197.25H130.5H133.666H200.502L205.682 152.033C206.186 147.608 202.804 143.795 198.416 143.795Z" fill="#6236FF"/>
<path d="M168.632 179.623C172.406 179.623 175.466 176.563 175.466 172.788C175.466 169.013 172.406 165.953 168.632 165.953C164.857 165.953 161.797 169.013 161.797 172.788C161.797 176.563 164.857 179.623 168.632 179.623Z" fill="#F7F7F7"/>
</svg>
