<svg width="264" height="248" viewBox="0 0 264 248" fill="none" xmlns="http://www.w3.org/2000/svg">
<path d="M132 219.616C194.408 219.616 245 214.724 245 208.688C245 202.653 194.408 197.76 132 197.76C69.5918 197.76 19 202.653 19 208.688C19 214.724 69.5918 219.616 132 219.616Z" fill="#D3D3D3"/>
<path opacity="0.5" d="M109.287 74.3496C108.507 75.093 107.243 75.0559 106.499 74.2753L92.746 59.8529C92.0026 59.0723 92.0398 57.8085 92.8204 57.0651L104.343 46.0624C105.124 45.319 106.388 45.3562 107.131 46.1368L120.885 60.5592C121.628 61.3397 121.591 62.6036 120.81 63.347L109.287 74.3496Z" fill="#D45FB9"/>
<path opacity="0.5" d="M227.933 59.8546C229.048 61.3042 228.751 63.3486 227.338 64.4638L200.91 84.7592C199.46 85.8743 197.416 85.5769 196.3 84.1644L180.094 63.0141C178.979 61.5644 179.276 59.52 180.689 58.4049L207.117 38.1095C208.567 36.9944 210.611 37.2917 211.726 38.7042L227.933 59.8546Z" fill="#D45FB9"/>
<path d="M158.789 53.2212C164.794 51.8552 168.555 45.8795 167.189 39.8742C165.823 33.8688 159.848 30.1079 153.842 31.4739C147.837 32.8399 144.076 38.8156 145.442 44.8209C146.808 50.8263 152.784 54.5872 158.789 53.2212Z" fill="#D45FB9"/>
<path d="M72.392 129.668C76.8454 125.413 77.0067 118.354 72.7522 113.901C68.4978 109.448 61.4387 109.286 56.9854 113.541C52.532 117.795 52.3708 124.854 56.6252 129.308C60.8796 133.761 67.9387 133.922 72.392 129.668Z" fill="#D45FB9"/>
<path d="M229.088 117.953C223.772 119.18 218.457 115.835 217.23 110.482C216.003 105.167 219.349 99.8511 224.701 98.6245C230.017 97.3978 235.332 100.743 236.559 106.096C237.748 111.411 234.403 116.727 229.088 117.953ZM224.776 98.9962C219.646 100.149 216.412 105.278 217.602 110.408C218.754 115.537 223.884 118.771 229.013 117.582C234.143 116.429 237.377 111.3 236.187 106.17C234.998 101.041 229.905 97.8067 224.776 98.9962Z" fill="#D45FB9"/>
<path d="M40.4846 84.2382C34.5 77.9935 34.7231 68.0316 41.005 62.0471C47.2869 56.0625 57.2115 56.2856 63.1961 62.5675C69.1806 68.8494 68.9576 78.774 62.6757 84.7586C56.3938 90.7431 46.4319 90.4829 40.4846 84.2382ZM62.8987 62.7905C57.0629 56.6944 47.324 56.4714 41.228 62.3073C35.1319 68.1431 34.9089 77.8819 40.7448 83.978C46.5806 90.074 56.3194 90.2971 62.4155 84.4612C68.5115 78.6254 68.7346 68.8865 62.8987 62.7905Z" fill="#D45FB9"/>
<path d="M184.628 187.838C184.628 187.838 186.969 194.677 187.453 195.83C187.862 196.759 188.717 197.391 189.497 198.023C189.757 198.209 190.018 198.655 190.241 199.064C190.426 199.361 190.389 199.733 190.278 200.067C187.862 205.717 181.282 207.724 181.171 207.278C180.948 206.498 181.989 204.974 183.364 204.23C184.776 203.524 185.631 202.037 185.78 200.476C185.892 199.212 185.669 197.986 185.148 196.833L182.769 191.704L184.628 187.838Z" fill="#FA968C"/>
<path d="M171.771 190.996L170.879 198.281C170.619 200.512 171.14 202.779 172.403 204.638C173.11 205.678 172.701 207.091 171.586 207.649C167.906 209.396 160.769 212.704 160.434 212.444C158.613 211.18 162.813 208.392 165.861 205.604C167.906 203.708 167.98 195.903 167.608 189.918L171.214 190.438C171.437 190.55 171.66 190.736 171.771 190.996Z" fill="#FA968C"/>
<path d="M166.789 207.576C165.265 208.245 163.555 208.579 161.994 208.951C161.808 208.988 161.659 209.063 161.511 209.211C160.098 210.549 159.466 211.813 160.433 212.482C160.767 212.705 166.566 212.185 170.543 208.17C170.692 207.985 171.175 210.029 171.175 210.029L173.145 209.583C173.145 209.583 173.368 206.089 172.959 205.457L172.179 204.305C170.506 205.606 168.722 206.721 166.789 207.576Z" fill="#382AC9"/>
<path d="M175.641 114.052C179.842 114.981 183.299 120.408 182.369 126.095C181.849 129.367 178.541 141.038 175.047 150.145C173.708 153.639 174.08 157.765 176.31 160.888C176.682 161.408 176.98 161.928 177.24 162.449C178.504 165.162 183.187 180.886 185.863 191.368C185.566 192.706 184.785 194.342 183.819 194.862C178.764 185.755 170.623 169.214 169.285 166.352C168.542 164.753 167.724 162.932 167.166 161.185C163.858 156.13 165.382 129.255 166.237 123.977C167.129 118.327 171.441 113.16 175.641 114.052Z" fill="#4B53D4"/>
<path d="M178.101 88.0887C181.686 87.857 184.351 83.9326 184.053 79.3232C183.755 74.7139 180.608 71.1651 177.023 71.3969C173.437 71.6286 170.773 75.553 171.071 80.1623C171.369 84.7717 174.516 88.3204 178.101 88.0887Z" fill="#382AC9"/>
<path d="M172.7 68.5181C172.7 68.5181 168.462 69.4102 167.793 72.4582C167.793 72.4582 166.455 70.4881 167.682 65.8789C168.574 62.6822 172.7 68.5181 172.7 68.5181Z" fill="#382AC9"/>
<path d="M168.652 84.9483C168.503 88.2193 168.243 91.4904 167.797 94.7614C167.351 97.9953 166.793 101.266 166.013 104.426C165.232 107.623 164.303 110.782 163.039 113.83C162.407 115.354 161.701 116.841 160.846 118.291C159.991 119.703 158.987 121.079 157.798 122.268C157.612 122.454 157.315 122.454 157.129 122.268C156.943 122.082 156.943 121.822 157.092 121.599C159.099 119.183 160.4 116.246 161.441 113.235C162.444 110.225 163.151 107.102 163.708 103.943C164.228 100.783 164.637 97.6236 164.86 94.4269C165.121 91.2302 165.232 88.0335 165.269 84.8368C165.269 83.9075 166.05 83.1641 166.979 83.1641C167.908 83.1641 168.652 83.9447 168.652 84.8739C168.652 84.9111 168.652 84.9483 168.652 84.9483Z" fill="#FAB9AF"/>
<path d="M165.195 103.457C164.043 98.9597 166.496 92.5663 166.979 89.5554C167.277 87.6225 166.273 83.2363 166.273 83.2363L178.949 84.1656C181.067 84.3143 182.666 86.0985 182.554 88.2173C182.405 91.8972 180.101 100.112 178.8 104.424L165.195 103.457Z" fill="#FAB9AF"/>
<path d="M167.793 191.48C167.57 191.368 167.458 191.145 167.421 190.922C166.752 181.592 166.157 169.698 166.12 167.393C166.12 167.133 166.12 166.873 166.12 166.612C163.035 155.796 160.396 132.192 159.764 128.066C158.946 122.639 161.623 116.171 165.823 115.539C170.023 114.908 175.041 118.848 176.9 123.68C178.127 126.877 176.417 144.756 173.889 157.803C173.369 160.554 173.517 163.379 174.186 166.092C174.67 167.988 174.93 169.921 174.93 171.445C174.967 173.712 173.369 183.042 171.77 191.071C171.733 191.294 171.547 191.517 171.324 191.591C170.246 192.037 168.982 192.075 167.793 191.48Z" fill="#4B53D4"/>
<path d="M182.667 120.298L179.879 110.15C179.358 108.254 179.321 106.284 179.73 104.351C180.697 99.8909 182.444 91.5274 182.592 87.9218C182.667 85.9889 181.217 84.3534 179.284 84.2047L177.388 84.056C176.533 85.6543 174.935 86.8438 172.593 86.658C170.252 86.4721 168.802 85.0968 168.207 83.3869L166.46 83.2754C168.058 87.5129 166.98 92.9027 163.449 95.802C163.895 98.0323 164.267 100.225 164.527 102.047C164.862 104.463 164.453 106.953 163.338 109.146C161.442 112.901 159.695 119.071 159.881 121.562C159.36 126.505 184.897 122.268 182.667 120.298Z" fill="#D45FB9"/>
<path d="M170.695 84.4661L176.494 84.2802L175.156 77.8496L171.402 78.0355L170.695 84.4661Z" fill="#FAB9AF"/>
<path d="M171.399 78.0316L175.153 77.8457L175.562 79.8529C174.67 80.745 173.444 82.6779 172.105 82.5664C171.659 82.5293 171.288 82.3806 170.953 82.1204L171.399 78.0316Z" fill="#FA968C"/>
<path d="M168.533 79.964C169.722 80.4101 171.209 80.2986 173.551 79.4065C174.889 78.8861 176.227 77.6222 176.599 76.5815L178.755 70.8199L169.871 67.5117C169.871 67.5117 168.049 70.3367 167.566 73.6078C167.232 76.0611 167.603 79.5923 168.533 79.964Z" fill="#FAB9AF"/>
<path d="M179.614 71.8997C180.283 70.0783 179.354 68.071 177.569 67.402L174.559 66.2868C173.704 65.9523 172.96 65.4319 172.366 64.7628C171.548 63.7592 170.135 63.4618 169.02 64.1681C167.831 64.9487 166.976 66.2125 168.463 68.2941C169.206 69.2977 170.916 69.1118 171.771 69.8181C171.845 69.8553 171.882 69.8552 171.957 69.8552L174.596 70.8589C175.525 71.1934 175.934 72.2342 175.637 73.1635C175.451 73.7582 175.748 74.3901 176.343 74.6131L176.454 74.6503L177.384 73.4608L178.127 75.9885L179.614 71.8997Z" fill="#382AC9"/>
<path d="M147.461 112.082C147.461 112.082 150.732 111.45 151.252 112.416C151.772 113.346 151.958 114.089 150.62 114.907C149.282 115.725 147.052 116.208 145.676 116.208C144.301 116.208 141.959 115.279 141.773 115.018C141.104 114.052 144.524 113.048 145.751 113.123C146.977 113.16 147.461 114.349 147.349 113.755C147.2 113.16 144.859 113.234 144.45 112.602C144.041 111.896 147.461 112.082 147.461 112.082Z" fill="#FAB9AF"/>
<path d="M170.582 67.625C170.396 69.0375 169.689 69.595 173.221 73.275C176.789 76.9549 178.462 76.5832 178.982 79.2967C178.982 79.2967 179.763 75.3937 177.83 73.2378C175.897 71.0819 172.068 68.7029 171.845 65.2832C171.883 65.3204 170.73 66.6585 170.582 67.625Z" fill="#382AC9"/>
<path d="M182.37 86.0627V86.2857V86.4716C182.37 86.6203 182.333 86.7318 182.333 86.8804C182.296 87.1406 182.258 87.4008 182.258 87.661C182.184 88.1814 182.11 88.6647 181.998 89.1479C181.775 90.1515 181.515 91.1179 181.218 92.0472C180.586 93.9429 179.731 95.7643 178.727 97.4742C177.686 99.1841 176.497 100.782 175.159 102.232C173.821 103.682 172.334 105.02 170.773 106.172C167.65 108.514 164.119 110.335 160.513 111.636C160.067 111.822 159.621 111.971 159.138 112.12L157.763 112.566C156.833 112.826 155.904 113.086 154.975 113.309L152.15 113.904L149.325 114.35C149.102 114.387 148.879 114.238 148.842 114.015C148.804 113.792 148.953 113.569 149.176 113.532C152.856 112.677 156.462 111.599 159.881 110.112L161.145 109.555C161.591 109.369 161.963 109.146 162.409 108.923C162.818 108.7 163.227 108.514 163.636 108.291L164.825 107.585C166.386 106.618 167.948 105.577 169.323 104.388C170.735 103.199 172.036 101.935 173.226 100.559C174.378 99.1841 175.419 97.6601 176.311 96.0989C177.203 94.5377 177.909 92.865 178.43 91.1551C178.69 90.3002 178.95 89.4452 179.099 88.5531C179.173 88.1071 179.248 87.6982 179.322 87.2522C179.359 87.0291 179.396 86.8061 179.396 86.6202C179.396 86.5087 179.433 86.3972 179.433 86.3229V86.0627V85.9512C179.471 85.1334 180.177 84.5015 180.995 84.5387C181.775 84.5758 182.407 85.2821 182.37 86.0627Z" fill="#FAB9AF"/>
<path d="M171.325 68.1825C171.325 68.1825 169.504 72.5687 164.82 73.2378C164.82 73.2378 167.794 70.5243 168.5 68.294C169.206 66.0638 172.18 66.77 171.325 68.1825Z" fill="#382AC9"/>
<path d="M156.565 121.039C156.565 121.039 158.312 118.697 159.279 119.366C160.245 120.035 160.84 120.667 160.468 122.154C160.096 123.678 158.944 125.314 158.052 126.057C157.16 126.801 154.967 127.098 154.707 126.912C153.629 126.28 155.45 125.202 156.305 124.607C157.16 124.013 158.015 123.232 157.532 122.712C157.048 122.191 155.562 123.492 154.893 123.083C154.186 122.675 156.565 121.039 156.565 121.039Z" fill="#FAB9AF"/>
<path d="M185.785 202.891C184.558 203.969 183.108 204.823 181.77 205.604C181.621 205.678 181.473 205.827 181.398 205.976C180.506 207.648 180.246 209.061 181.324 209.396C181.696 209.507 186.9 207.314 189.39 202.333C189.502 202.11 190.505 203.931 190.505 203.931L192.215 202.928C192.215 202.928 191.435 199.508 190.84 199.062L189.799 198.207C188.647 199.88 187.309 201.478 185.785 202.891Z" fill="#382AC9"/>
<path d="M178.347 76.0263C177.603 76.9927 176.563 77.4016 176.005 76.9556C175.447 76.5095 175.782 74.7997 176.525 73.8332C177.269 72.8668 178.124 73.0526 178.681 73.4987C179.202 73.9447 179.053 75.0599 178.347 76.0263Z" fill="#FAB9AF"/>
<path d="M88.4016 194.673L87.6582 200.694C87.6211 200.954 87.5467 201.215 87.4352 201.475L86.5431 203.519C85.9484 204.82 86.8033 206.307 88.2158 206.456C88.2158 206.456 90.8178 206.902 93.5313 207.311C96.2819 207.72 99.4414 206.419 99.3299 205.749C99.0697 204.225 97.8431 205.675 95.2039 204.486C94.3118 204.077 93.3826 203.668 92.5648 203.222C90.223 201.958 91.301 197.572 92.1931 195.044C92.4905 194.152 91.8586 193.186 90.8921 193.149L90.2602 193.111C89.2938 193.111 88.5132 193.78 88.4016 194.673Z" fill="#F7F7F7"/>
<path d="M85.981 204.113L98.136 205.005C98.136 205.005 100.701 206.901 100.069 208.239C99.4741 209.577 86.1297 206.901 86.1297 206.901C86.1297 206.901 84.2712 205.34 85.981 204.113Z" fill="#382AC9"/>
<path d="M87.2406 126.129L106.532 125.832C106.532 125.832 107.387 140.738 100.585 167.166C97.3883 179.544 92.7791 203.185 92.7791 203.185C91.5525 203.631 87.0176 203.705 85.8281 203.297C85.8281 203.297 87.7238 192.703 88.3558 181.291C88.9505 170.363 89.7311 158.691 89.3594 154.825C88.5416 146.871 87.2406 126.129 87.2406 126.129Z" fill="#382AC9"/>
<path d="M131.408 122.745C130.59 122.187 129.81 121.555 129.475 121.37C129.327 121.295 128.843 121.221 128.695 121.184C128.286 121.109 127.654 121.035 127.394 120.738L126.279 119.548C125.758 118.953 125.015 118.805 124.309 119.437C123.528 120.106 123.677 120.961 124.346 121.518L125.089 122.373C125.609 122.819 125.833 123.488 126.093 124.157C126.613 125.458 127.951 126.388 129.104 127.02C129.847 127.391 131.036 126.982 132.598 126.351C133.378 126.053 134.493 125.347 133.601 125.087C132.858 124.864 130.405 125.681 129.55 123.637C129.512 123.526 129.401 123.265 129.55 123.154C129.884 122.819 130.516 123.451 130.999 123.6C131.631 123.823 132.152 123.674 132.337 123.451C132.523 123.154 132.003 123.117 131.408 122.745Z" fill="#FAB9AF"/>
<path d="M109.659 82.1181C109.659 82.1181 102.522 101.596 108.878 108.733C112.707 113.044 122.334 120.144 124.564 121.78C124.862 122.003 125.271 121.965 125.605 121.705C125.828 121.557 126.051 121.371 126.274 121.185C126.497 120.999 126.757 120.739 126.98 120.479C127.352 120.033 127.389 119.475 127.055 119.103C124.639 116.464 115.086 106.056 114.082 103.194C112.93 99.923 117.204 79.4417 113.636 79.1444C110.514 78.8842 110.662 77.6204 109.659 82.1181Z" fill="#382AC9"/>
<path d="M109.214 194.524L108.657 199.579C108.545 200.62 108.285 201.623 107.913 202.59L107.319 204.114C106.798 205.341 107.653 206.716 108.954 206.865C112.411 207.236 118.284 207.905 119.808 208.054C120.068 208.091 120.329 207.943 120.366 207.682C120.663 206.233 116.5 204.746 113.415 203.148C111.073 201.921 111.705 197.535 112.262 195.007C112.486 194.041 111.779 193.148 110.776 193.111C109.995 193.111 109.326 193.706 109.214 194.524Z" fill="#F7F7F7"/>
<path d="M100.289 125.123L119.432 122.67C119.432 122.67 121.923 137.724 118.057 165.342C116.235 178.278 113.485 202.997 113.485 202.997C112.332 203.591 108.541 203.777 107.314 203.48C107.314 203.48 108.058 192.663 107.426 180.991C106.794 169.803 106.311 157.871 105.53 153.968C103.857 146.088 100.289 125.123 100.289 125.123Z" fill="#382AC9"/>
<path d="M119.989 124.975C118.316 125.755 114.636 126.945 108.131 126.833C99.4334 126.684 90.4752 126.722 87.2413 126.09C86.3864 125.904 87.0183 123.599 87.2041 122.707L93.0771 78.4364L97.3518 76.7637L101.478 77.3584L107.462 108.173L111.142 78.8081L113.596 79.1798L120.918 123.227C121.03 123.934 120.658 124.64 119.989 124.975Z" fill="#4B53D4"/>
<path d="M111.143 78.7739L107.463 108.139L101.516 77.3242L111.143 78.7739Z" fill="#D3D3D3"/>
<path d="M109.056 58.8084C105.191 58.5482 103.592 61.2245 103.183 66.2797C103.035 68.1755 103.778 70.1084 104.373 71.3722C104.819 72.3014 104.893 73.3794 104.559 74.3459L103.518 77.1709C102.774 79.81 103.927 81.334 105.785 82.0031C106.677 82.3376 107.83 82.189 108.647 81.7057C109.651 81.1482 109.8 79.81 109.688 78.6949L109.54 77.8771C109.317 76.762 110.023 75.6097 111.175 75.4238C114.186 74.9778 114.818 71.8926 115.933 67.1347C117.048 62.1538 112.922 59.0686 109.056 58.8084Z" fill="#FAB9AF"/>
<path d="M109.097 55.9848C106.421 55.7989 101.886 57.0256 102.221 60.9285L102.555 63.6792C102.667 64.7943 103.559 65.6493 104.637 65.8351C104.711 66.2068 105.046 66.5042 105.417 66.5414C105.901 66.5785 106.309 66.2068 106.347 65.7236C106.421 64.497 107.35 63.4933 108.577 63.3075C110.064 63.0845 111.662 63.0845 113.26 63.642C116.234 64.6456 120.137 59.8878 120.137 59.8134C120.137 59.8134 118.539 60.8914 115.565 59.5904C112.629 58.2894 114.041 56.1335 109.097 55.9848Z" fill="#382AC9"/>
<path d="M105.303 66.5419C105.229 67.7314 104.745 68.6607 103.593 68.5863C102.441 68.512 101.846 66.8393 101.92 65.6498C101.995 64.4604 102.738 64.2373 103.89 64.3117C105.043 64.386 105.377 65.3525 105.303 66.5419Z" fill="#FAB9AF"/>
<path d="M104.266 71.5977C104.266 71.5977 107.091 75.6121 110.696 75.1289C110.696 75.1289 109.953 75.4634 109.767 76.0582C109.73 76.0582 106.347 75.7608 104.266 71.5977Z" fill="#E8948B"/>
<path d="M106.946 204.781L118.321 205.859C118.321 205.859 121.815 206.491 121.294 207.866C120.774 209.242 107.318 207.569 107.318 207.569C107.318 207.569 105.311 206.119 106.946 204.781Z" fill="#382AC9"/>
<path d="M147.352 112.783C146.2 112.56 145.085 112.263 144.602 112.226C144.416 112.226 143.896 112.337 143.71 112.337C143.264 112.411 142.557 112.597 142.148 112.411L140.364 111.668C139.509 111.296 138.654 111.445 138.283 112.3C137.874 113.229 138.506 114.01 139.472 114.307L140.736 114.827C141.517 115.051 142.111 115.608 142.743 116.166C144.007 117.244 145.866 117.615 147.427 117.764C148.393 117.876 149.36 117.021 150.623 115.794C151.218 115.199 151.999 114.084 150.921 114.196C150.029 114.27 148.022 115.98 146.014 114.344C145.903 114.27 145.68 114.047 145.717 113.898C145.903 113.452 146.869 113.787 147.427 113.787C148.207 113.787 148.653 113.452 148.728 113.118C148.728 112.746 148.17 112.932 147.352 112.783Z" fill="#FAB9AF"/>
<path d="M93.005 81.6708C93.005 81.6708 105.718 103.565 116.163 108.025C122.482 110.701 136.272 113.898 139.469 114.604C139.878 114.679 140.287 114.53 140.51 114.158C140.658 113.935 140.77 113.638 140.881 113.378C140.993 113.117 141.104 112.746 141.179 112.411C141.327 111.854 141.03 111.259 140.51 111.073C136.57 109.475 121.032 103.081 118.393 100.74C115.345 98.026 103.45 79.2175 99.8074 77.3961C96.1274 75.5375 91.5182 76.9872 93.005 81.6708Z" fill="#382AC9"/>
</svg>
