<svg width="329" height="220" viewBox="0 0 329 220" fill="none" xmlns="http://www.w3.org/2000/svg">
<path fill-rule="evenodd" clip-rule="evenodd" d="M253.99 92.1607C245.225 92.1607 238.128 85.0633 238.128 76.2986C238.128 67.5338 245.225 60.4364 253.99 60.4364C262.755 60.4364 269.852 67.5338 269.852 76.2986C269.837 85.0633 262.74 92.1607 253.99 92.1607ZM229.702 100.07C231.93 102.357 234.498 104.319 237.301 105.913L236.873 113.984L243.572 116.36L248.309 109.823L250.139 110.089H257.885L262.282 116.876L268.273 115.179L268.48 115.106L269.099 114.869L269.085 106.798L270.413 106.09L276.979 101.368L277.702 101.649L284.519 104.275C286.113 102.534 287.573 100.645 288.857 98.6384L284.106 92.1165C285.567 89.3129 286.659 86.2733 287.308 83.0713L295.099 81.0056L295.291 73.8934L287.618 71.4145C287.145 68.183 286.216 65.0991 284.903 62.2218L289.993 55.9655C288.813 53.8997 287.47 51.9372 285.965 50.1075L278.292 52.616L270.693 46.7728L271.121 38.7015C268.981 37.7277 266.739 36.9309 264.422 36.3259L259.686 42.8626L250.109 42.6117L245.727 35.8242L238.91 37.8457V45.917C236.018 47.3483 233.362 49.178 231.016 51.347L228.994 50.565L223.49 48.4402C221.897 50.1813 220.436 52.07 219.152 54.0768L223.903 60.5987C222.443 63.4023 221.351 66.4271 220.701 69.6438L212.911 71.7244L212.719 78.8365L220.392 81.3154C220.864 84.5469 221.793 87.6308 223.107 90.5081L218.016 96.7644C219.196 98.8302 220.539 100.793 222.044 102.622L229.702 100.07Z" fill="#93BFFA"/>
<path fill-rule="evenodd" clip-rule="evenodd" d="M276.109 95.0391C275.917 95.0391 275.725 94.98 275.578 94.8472C275.224 94.5521 275.165 94.0209 275.474 93.6668C279.518 88.7975 281.746 82.6444 281.746 76.2996C281.746 73.2599 281.244 70.2941 280.27 67.4463C280.122 67.0036 280.359 66.5314 280.786 66.3839C281.229 66.2363 281.701 66.4724 281.849 66.9003C282.882 69.9104 283.413 73.0829 283.413 76.2996C283.413 83.0281 281.052 89.5648 276.758 94.7292C276.596 94.9358 276.36 95.0391 276.109 95.0391Z" fill="white"/>
<path fill-rule="evenodd" clip-rule="evenodd" d="M273.767 56.7324C273.56 56.7324 273.354 56.6586 273.191 56.5111C270.476 53.9584 267.319 52.0106 263.836 50.7417C263.408 50.5793 263.187 50.1072 263.335 49.6645C263.497 49.2366 263.969 49.0005 264.412 49.1628C268.116 50.5056 271.465 52.5713 274.342 55.2864C274.682 55.5962 274.696 56.1274 274.372 56.4668C274.21 56.6586 273.988 56.7324 273.767 56.7324Z" fill="white"/>
<path fill-rule="evenodd" clip-rule="evenodd" d="M247.693 49.9763C247.324 49.9763 246.97 49.7255 246.882 49.3418C246.778 48.8992 247.044 48.4417 247.487 48.3237C249.788 47.7482 252.179 47.4531 254.569 47.4531C255.027 47.4531 255.41 47.822 255.41 48.2942C255.41 48.7516 255.041 49.1353 254.569 49.1353C252.312 49.1353 250.069 49.4156 247.9 49.9616C247.826 49.9763 247.767 49.9763 247.693 49.9763Z" fill="white"/>
<path fill-rule="evenodd" clip-rule="evenodd" d="M80.1625 161.926C86.6401 156.039 87.127 146.005 81.2396 139.527C75.3522 133.05 65.3184 132.563 58.8408 138.45C52.3631 144.337 51.8761 154.371 57.7636 160.849C63.651 167.327 73.67 167.813 80.1625 161.926ZM103.447 151.45C103.329 154.637 102.768 157.824 101.75 160.878L107.49 166.559L104.125 172.816L96.2164 171.163L95.036 172.579L89.2961 177.788L90.6093 185.756L85.0318 188.53L84.8252 188.619L84.2055 188.855L78.7754 182.864L77.3146 183.248L69.2729 184.163L68.9188 184.856L65.643 191.378C63.2822 191.157 60.936 190.744 58.6489 190.124L57.7784 182.097C54.8125 181.005 51.9647 179.5 49.3382 177.552L42.1818 181.256L37.2682 176.121L41.2817 169.127C39.452 166.412 38.065 163.505 37.1059 160.495L29.1232 159.285C28.6067 156.968 28.2821 154.607 28.1641 152.232L35.5271 148.926L37.2387 139.483L31.4988 133.802C32.4284 131.648 33.5498 129.538 34.8631 127.546L42.772 129.198L49.6923 122.573L48.3791 114.605L54.783 111.521L60.213 117.497C63.3117 116.612 66.5136 116.184 69.7008 116.213L70.6747 114.281L73.3159 108.998C75.6768 109.219 78.0229 109.633 80.31 110.252L81.1806 118.279C84.1464 119.371 86.9942 120.876 89.6207 122.824L96.7919 119.12L101.72 124.255L97.7067 131.249C99.5217 133.95 100.923 136.871 101.883 139.881L109.865 141.091C110.382 143.423 110.706 145.769 110.824 148.144L103.447 151.45Z" fill="#93BFFA"/>
<path fill-rule="evenodd" clip-rule="evenodd" d="M65.7093 178.923C65.8421 178.805 65.9454 178.628 65.9749 178.422C66.0339 177.964 65.724 177.536 65.2666 177.477C59.0103 176.592 53.2114 173.538 48.947 168.845C46.9108 166.602 45.2729 164.065 44.0925 161.305C43.9154 160.877 43.4137 160.686 43.0006 160.863C42.5727 161.04 42.3808 161.541 42.5579 161.954C43.8121 164.891 45.5533 167.576 47.7223 169.967C52.2375 174.939 58.3906 178.2 65.0453 179.13C65.2814 179.174 65.5175 179.086 65.7093 178.923Z" fill="white"/>
<path fill-rule="evenodd" clip-rule="evenodd" d="M41.6926 148.999C41.8402 148.866 41.9435 148.674 41.9582 148.438C42.2533 144.72 43.2715 141.163 45.0126 137.888C45.2339 137.475 45.0716 136.973 44.6585 136.752C44.2453 136.53 43.7436 136.693 43.5223 137.106C41.6779 140.588 40.6007 144.365 40.2908 148.32C40.2613 148.777 40.6007 149.176 41.0581 149.22C41.309 149.235 41.5303 149.146 41.6926 148.999Z" fill="white"/>
<path fill-rule="evenodd" clip-rule="evenodd" d="M56.4445 126.467C56.7248 126.216 56.7986 125.803 56.6215 125.449C56.4002 125.05 55.8985 124.888 55.4853 125.109C53.3901 126.231 51.4276 127.618 49.6569 129.226C49.3175 129.536 49.288 130.067 49.5979 130.407C49.9078 130.746 50.439 130.776 50.7783 130.466C52.4457 128.946 54.2901 127.647 56.2674 126.6C56.3412 126.555 56.4002 126.511 56.4445 126.467Z" fill="white"/>
<path fill-rule="evenodd" clip-rule="evenodd" d="M175.167 49.5162H58.5547C59.3958 45.9748 62.5682 43.3336 66.3751 43.3336C66.5522 43.3336 66.744 43.3336 66.9211 43.3484C68.7655 38.8479 73.1921 35.6608 78.3713 35.6608C80.6289 35.6608 82.7537 36.2657 84.5686 37.3281C86.7967 29.9946 93.599 24.6531 101.67 24.6531C103.308 24.6531 104.902 24.8745 106.407 25.2876C110.302 16.6704 118.978 10.6797 129.056 10.6797C140.994 10.6797 150.968 19.1051 153.359 30.3488C153.565 30.334 153.757 30.334 153.964 30.334C161.622 30.334 167.922 36.0592 168.867 43.4517C171.951 44.0714 174.444 46.4618 175.167 49.5162Z" fill="#EDF7FF"/>
<path fill-rule="evenodd" clip-rule="evenodd" d="M309.997 158.252C281.386 145.297 254.118 157.765 247.508 192.205C279.365 204.009 303.667 190.891 309.997 158.252Z" fill="#CFE2F3"/>
<path fill-rule="evenodd" clip-rule="evenodd" d="M306.436 159.151C306.658 159.033 306.938 159.107 307.071 159.328C307.189 159.549 307.115 159.83 306.894 159.948L285.838 171.575L297.406 179.189C297.613 179.322 297.672 179.617 297.539 179.824C297.406 180.03 297.111 180.089 296.904 179.956L284.938 172.077L279.094 175.308C279.021 175.426 278.873 175.5 278.726 175.515L274.21 177.994L285.734 188.382C285.926 188.559 285.941 188.839 285.764 189.031C285.587 189.223 285.306 189.238 285.115 189.06L273.354 178.466L268.102 181.373C268.087 181.388 268.072 181.388 268.043 181.402L262.701 184.353L270.935 192.336C271.112 192.513 271.126 192.808 270.949 192.985C270.772 193.163 270.477 193.177 270.3 193L261.875 184.826L247.754 192.617C247.532 192.735 247.252 192.661 247.134 192.44C247.016 192.218 247.09 191.938 247.311 191.82L256.814 186.582L255.973 177.536C255.943 177.286 256.135 177.064 256.386 177.035C256.637 177.005 256.858 177.197 256.887 177.448L257.684 186.095L267.364 180.753L265.121 165.053C265.091 164.802 265.254 164.566 265.519 164.537C265.77 164.507 266.006 164.67 266.036 164.935L268.22 180.296L273.192 177.551L273.207 177.536L278.209 174.777L277.988 158.576C277.988 158.325 278.194 158.118 278.445 158.103C278.696 158.103 278.903 158.31 278.917 158.561L279.139 174.275L284.701 171.206L284.731 171.192L290.677 167.916L291.902 155.979C291.932 155.728 292.153 155.536 292.404 155.566C292.655 155.595 292.847 155.816 292.817 156.067L291.666 167.37L306.436 159.151Z" fill="white"/>
<path fill-rule="evenodd" clip-rule="evenodd" d="M20 97.6193C48.6109 84.664 75.8791 97.1324 82.4895 131.572C50.6472 143.376 26.3449 130.258 20 97.6193Z" fill="#CFE2F3"/>
<path fill-rule="evenodd" clip-rule="evenodd" d="M23.5732 98.5332C23.3518 98.4152 23.0715 98.489 22.9387 98.7103C22.8206 98.9316 22.8944 99.212 23.1157 99.33L44.1718 110.957L32.6035 118.571C32.3969 118.719 32.3379 118.999 32.4707 119.206C32.6183 119.412 32.8986 119.471 33.1052 119.338L45.0719 111.459L50.9151 114.691C50.9889 114.809 51.1364 114.882 51.284 114.897L55.7696 117.376L44.2456 127.764C44.0538 127.941 44.039 128.221 44.2161 128.413C44.3932 128.605 44.6735 128.62 44.8653 128.443L56.6255 117.848L61.8784 120.755C61.8932 120.77 61.9079 120.77 61.9375 120.785L67.2789 123.736L59.0454 131.704C58.8683 131.881 58.8536 132.176 59.0306 132.353C59.2077 132.53 59.5028 132.545 59.6799 132.368L68.1053 124.193L82.2263 131.984C82.4476 132.102 82.728 132.028 82.8608 131.807C82.9788 131.586 82.905 131.305 82.6837 131.172L73.1811 125.934L74.0222 116.889C74.0517 116.638 73.8599 116.417 73.6091 116.387C73.3582 116.358 73.1369 116.55 73.1074 116.801L72.3106 125.447L62.631 120.106L64.8738 104.406C64.9033 104.155 64.741 103.919 64.4754 103.889C64.2246 103.86 63.9885 104.022 63.959 104.288L61.7751 119.648L56.8025 116.904L56.7878 116.889L51.7857 114.13L52.007 97.9283C52.007 97.6774 51.8004 97.4708 51.5496 97.4561C51.2987 97.4561 51.0774 97.6627 51.0774 97.9135L50.8561 113.628L45.2932 110.559L45.2637 110.544L39.3173 107.254L38.0926 95.3165C38.063 95.0657 37.8417 94.8739 37.5909 94.9034C37.34 94.9329 37.1482 95.1542 37.1777 95.4051L38.3287 106.708L23.5732 98.5332Z" fill="white"/>
<path fill-rule="evenodd" clip-rule="evenodd" d="M286.802 118.971C255.668 123.117 239.142 148.142 251.773 180.855C285.017 174.023 298.695 150.016 286.802 118.971Z" fill="#93BFFA"/>
<path fill-rule="evenodd" clip-rule="evenodd" d="M284.257 121.626C284.375 121.405 284.656 121.316 284.892 121.449C285.113 121.567 285.202 121.848 285.069 122.084L273.353 143.095L287.194 143.435C287.445 143.435 287.651 143.656 287.636 143.907C287.636 144.158 287.415 144.364 287.164 144.364L272.837 144.01L269.59 149.839C269.59 149.986 269.517 150.119 269.384 150.208L266.89 154.678L282.162 157.394C282.413 157.438 282.575 157.674 282.531 157.925C282.487 158.176 282.251 158.338 282 158.294L266.403 155.52L263.482 160.758C263.467 160.773 263.467 160.787 263.452 160.817L260.486 166.144L271.686 168.549C271.937 168.608 272.099 168.844 272.04 169.095C271.981 169.345 271.745 169.508 271.494 169.449L260.014 166.985L252.164 181.076C252.046 181.297 251.766 181.386 251.53 181.253C251.308 181.135 251.22 180.855 251.353 180.619L256.635 171.146L251.131 163.915C250.984 163.709 251.013 163.429 251.22 163.266C251.426 163.119 251.707 163.148 251.869 163.355L257.122 170.26L262.508 160.61L252.297 148.466C252.135 148.275 252.164 147.979 252.356 147.817C252.548 147.655 252.843 147.684 253.005 147.876L262.995 159.754L265.754 154.797L265.769 154.782L268.558 149.794L259.778 136.16C259.645 135.939 259.704 135.659 259.911 135.526C260.132 135.393 260.412 135.452 260.545 135.659L269.044 148.88L272.143 143.332L272.158 143.302L275.463 137.37L270.181 126.599C270.063 126.377 270.166 126.097 270.387 125.979C270.609 125.861 270.889 125.964 271.007 126.186L276.009 136.382L284.257 121.626Z" fill="white"/>
<path fill-rule="evenodd" clip-rule="evenodd" d="M43.2136 58.3398C74.3477 62.4861 90.8886 87.5115 78.2431 120.224C44.9842 113.393 31.3206 89.3854 43.2136 58.3398Z" fill="#93BFFA"/>
<path fill-rule="evenodd" clip-rule="evenodd" d="M45.7688 60.9966C45.6507 60.7752 45.3704 60.7015 45.1343 60.8195C44.9129 60.9376 44.8244 61.2179 44.9572 61.454L56.6731 82.4658L42.8324 82.8052C42.5816 82.8052 42.375 83.0265 42.375 83.2774C42.375 83.5282 42.5963 83.7348 42.8472 83.7348L57.1748 83.3807L60.421 89.2091C60.421 89.3567 60.4948 89.4895 60.6276 89.578L63.1212 94.0489L47.8493 96.7639C47.5985 96.8082 47.4361 97.0443 47.4804 97.2951C47.5247 97.546 47.7608 97.7083 48.0116 97.664L63.6082 94.89L66.5298 100.128C66.5445 100.143 66.5445 100.158 66.5593 100.172L69.5251 105.499L58.3257 107.904C58.0749 107.963 57.9125 108.199 57.9716 108.45C58.0306 108.701 58.2667 108.863 58.5175 108.804L69.9973 106.34L77.8472 120.432C77.9653 120.653 78.2456 120.742 78.4817 120.609C78.703 120.491 78.7916 120.196 78.6588 119.974L73.3763 110.501L78.8801 103.271C79.0277 103.065 78.9982 102.784 78.7916 102.622C78.585 102.474 78.3046 102.504 78.1423 102.71L72.8894 109.616L67.5036 99.9659L77.7144 87.8221C77.8767 87.6303 77.8472 87.3351 77.6554 87.1728C77.4636 87.0105 77.1685 87.04 77.0062 87.2319L67.0167 99.11L64.2574 94.1522L64.2427 94.1374L61.4539 89.1501L70.2334 75.516C70.3662 75.2947 70.3072 75.0143 70.1006 74.8815C69.8793 74.7487 69.5989 74.8077 69.4661 75.0143L60.9669 88.2352L57.8683 82.6872L57.8535 82.6577L54.5483 76.7259L59.8308 65.9544C59.9488 65.7331 59.8455 65.4527 59.6242 65.3347C59.4029 65.2167 59.1225 65.3199 59.0045 65.5413L54.0023 75.7373L45.7688 60.9966Z" fill="white"/>
<path fill-rule="evenodd" clip-rule="evenodd" d="M79.6727 70.0723H253.035C255.293 70.0723 257.167 71.902 257.137 74.1448L255.588 181.093C255.558 183.335 253.743 185.165 251.486 185.165H81.222C78.9644 185.165 77.1495 183.335 77.12 181.093L75.5707 74.1448C75.5411 71.9167 77.4151 70.0723 79.6727 70.0723Z" fill="#B0C2E4"/>
<path fill-rule="evenodd" clip-rule="evenodd" d="M81 75.4863L82.5198 179.763H250.187L251.706 75.4863H81Z" fill="white"/>
<path fill-rule="evenodd" clip-rule="evenodd" d="M84.6875 79.1172L86.0893 176.135H246.614L248.016 79.1172H84.6875Z" fill="#C4D1EB"/>
<path fill-rule="evenodd" clip-rule="evenodd" d="M247.839 91.3938H84.8646L84.6875 79.1172H248.016L247.839 91.3938Z" fill="#7080ED"/>
<path fill-rule="evenodd" clip-rule="evenodd" d="M92.8505 81.7871H177.798C179.701 81.7871 181.265 83.3512 181.265 85.2547C181.265 87.1581 179.701 88.7222 177.798 88.7222H92.8505C90.947 88.7222 89.3829 87.1581 89.3829 85.2547C89.3682 83.3512 90.9322 81.7871 92.8505 81.7871Z" fill="white"/>
<path fill-rule="evenodd" clip-rule="evenodd" d="M237.632 81.7871C239.55 81.7871 241.099 83.3364 241.099 85.2547C241.099 87.1729 239.55 88.7222 237.632 88.7222C235.713 88.7222 234.164 87.1729 234.164 85.2547C234.164 83.3364 235.713 81.7871 237.632 81.7871Z" fill="white"/>
<path fill-rule="evenodd" clip-rule="evenodd" d="M106.82 101.457H225.868V103.98H106.82V101.457ZM106.82 159.815H225.868V162.338H106.82V159.815ZM106.82 152.526H225.868V155.049H106.82V152.526ZM106.82 145.222H225.868V147.745H106.82V145.222ZM106.82 137.933H225.868V140.456H106.82V137.933ZM106.82 130.643H225.868V133.167H106.82V130.643ZM106.82 123.339H225.868V125.863H106.82V123.339ZM106.82 116.05H225.868V118.573H106.82V116.05ZM106.82 108.746H225.868V111.269H106.82V108.746Z" fill="white"/>
<path fill-rule="evenodd" clip-rule="evenodd" d="M44.0234 211.194H100.478H232.23H288.67L256.547 185.18H232.23H100.478H76.1609L44.0234 211.194Z" fill="#C4D1EB"/>
<path fill-rule="evenodd" clip-rule="evenodd" d="M44.0234 211.193H288.67C288.67 213.407 287.106 215.369 285.025 215.812H47.6828C45.6023 215.354 44.0234 213.392 44.0234 211.193Z" fill="#7080ED"/>
<path fill-rule="evenodd" clip-rule="evenodd" d="M133.826 201.588H142.06H190.65H198.883L201.023 205.528H190.65H142.06H131.672L133.826 201.588Z" fill="white"/>
<path d="M190.618 55.123H174.461V60.7006H190.618V55.123Z" fill="#D0A382"/>
<path fill-rule="evenodd" clip-rule="evenodd" d="M174.608 52.0258C173.635 51.5684 172.985 50.7273 172.985 49.4731V49.0747C172.794 38.1409 163.188 35.0865 162.42 22.987C162.361 22.0869 162.376 21.1868 162.435 20.331C163.94 11.1678 172.661 5 182.444 5C193.599 5 203.367 12.9975 202.644 24.3297C201.906 36.0603 192.758 39.0262 192.581 49.6354C192.581 50.7863 191.356 52.0996 190.308 52.011H174.608V52.0258Z" fill="#FCDA03"/>
<path fill-rule="evenodd" clip-rule="evenodd" d="M191.198 62.0021C191.08 63.2268 190.032 64.2006 188.778 64.2006H186.919L186.196 65.3811C185.783 66.0598 185.532 66.1041 184.735 66.1041H180.353C179.556 66.1041 179.305 66.0598 178.892 65.3811L178.169 64.2006H176.31C175.07 64.2006 174.037 63.2563 173.89 62.0611V61.2053C173.949 60.9249 174.2 60.7183 174.509 60.7183H190.593C190.888 60.7183 191.139 60.9249 191.213 61.2053C191.213 61.2348 191.198 61.279 191.213 61.2938V62.0021H191.198ZM174.731 56.4097H190.357C190.829 56.4097 191.213 56.7934 191.213 57.2655V58.5935C191.213 59.0657 190.829 59.4494 190.357 59.4494H174.731C174.259 59.4494 173.875 59.0657 173.875 58.5935V57.2655C173.875 56.7934 174.259 56.4097 174.731 56.4097ZM174.76 52.0273H190.313C190.8 52.0273 191.213 52.4257 191.213 52.9127V54.2997C191.213 54.7866 190.814 55.185 190.313 55.185H174.76C174.273 55.185 173.875 54.7866 173.875 54.2997V52.9127C173.875 52.4257 174.273 52.0273 174.76 52.0273Z" fill="#FCC202"/>
<path fill-rule="evenodd" clip-rule="evenodd" d="M180.071 52.0259L178.419 32.0175H176.028C174.995 32.0175 174.051 31.5896 173.372 30.9108C172.694 30.2321 172.266 29.2877 172.266 28.2548C172.266 27.222 172.694 26.2776 173.372 25.5989C174.051 24.9201 174.995 24.4922 176.028 24.4922C177.046 24.4922 177.932 24.9053 178.596 25.5546C179.26 26.2186 179.702 27.1482 179.791 28.1663L179.983 30.3059H187.316L187.508 28.1663C187.597 27.1482 188.025 26.2186 188.703 25.5546C189.367 24.8906 190.253 24.4922 191.271 24.4922C192.304 24.4922 193.248 24.9201 193.927 25.5989C194.605 26.2776 195.033 27.222 195.033 28.2548C195.033 29.2877 194.605 30.2321 193.927 30.9108C193.248 31.5896 192.304 32.0175 191.271 32.0175H188.88L187.228 52.0259H185.546L187.198 32.0175H180.16L181.812 52.0259H180.071ZM178.271 30.3354L178.094 28.3434C178.035 27.7236 177.784 27.1629 177.401 26.7793C177.046 26.4252 176.574 26.2038 176.028 26.2038C175.453 26.2038 174.936 26.4399 174.567 26.8088C174.199 27.1777 173.963 27.7089 173.963 28.2696C173.963 28.8451 174.199 29.3615 174.567 29.7304C174.936 30.0993 175.468 30.3354 176.028 30.3354H178.271ZM188.984 30.3354H191.226C191.802 30.3354 192.318 30.0993 192.687 29.7304C193.056 29.3615 193.292 28.8303 193.292 28.2696C193.292 27.6941 193.056 27.1777 192.687 26.8088C192.318 26.4399 191.802 26.2038 191.226 26.2038C190.68 26.2038 190.208 26.4252 189.854 26.7793C189.456 27.1777 189.205 27.7384 189.146 28.3434L188.984 30.3354Z" fill="white"/>
<path fill-rule="evenodd" clip-rule="evenodd" d="M189.805 12.038C189.274 11.8166 189.023 11.1969 189.245 10.651C189.466 10.1198 190.086 9.86891 190.632 10.0902C191.074 10.2821 191.487 10.4739 191.871 10.6805C192.269 10.9018 192.668 11.1379 193.051 11.3887C193.538 11.7133 193.671 12.3626 193.347 12.8495C193.022 13.3365 192.373 13.4693 191.886 13.1446C191.561 12.9233 191.222 12.7315 190.868 12.5397C190.514 12.3626 190.159 12.1855 189.805 12.038ZM194.438 15.4022C194.055 14.9596 194.099 14.2956 194.542 13.9119C194.984 13.5283 195.648 13.5725 196.032 14.0152C197.153 15.2989 198.039 16.7745 198.644 18.3976C199.234 19.9617 199.559 21.6438 199.559 23.385C199.559 23.9752 199.086 24.4473 198.496 24.4473C197.906 24.4473 197.434 23.9752 197.434 23.385C197.434 21.8946 197.168 20.4634 196.667 19.1354C196.165 17.7631 195.398 16.5089 194.438 15.4022Z" fill="white"/>
<path fill-rule="evenodd" clip-rule="evenodd" d="M126.961 104.895C123.169 104.836 120.336 104.792 119.037 104.378C117.621 103.936 117.916 103.065 118.727 101.693C122.298 103.331 121.354 101.354 123.021 101.604C124.202 102.549 125.928 103.183 128.23 103.508C129.204 104.216 128.805 104.865 126.961 104.895Z" fill="#0E2952"/>
<path fill-rule="evenodd" clip-rule="evenodd" d="M122.089 47.1562H98.6723C98.2149 47.1562 97.728 47.5399 97.6099 47.9973L93.4489 63.8595C93.3308 64.3169 93.6112 64.7005 94.0686 64.7005H117.486C117.943 64.7005 118.43 64.3169 118.548 63.8595L122.709 47.9973C122.842 47.5251 122.561 47.1562 122.089 47.1562Z" fill="#C4D1EB"/>
<path fill-rule="evenodd" clip-rule="evenodd" d="M97.129 47.6145L94.296 58.386C90.9022 56.7334 86.8002 54.0627 82.5211 50.6542C82.403 49.1196 82.2555 47.8949 82.0932 46.98C82.4325 46.3013 82.8162 45.5635 83.2293 44.7962C79.2749 44.7667 76.8549 43.9256 75.9844 42.2435C77.0468 39.1449 78.5223 35.9724 80.4258 32.741C81.7538 30.7785 84.3655 29.6128 88.2462 29.2734C88.7036 34.4821 96.6863 34.2165 94.8124 29.7309C97.7045 30.5129 100.169 31.9442 102.175 34.0395C103.902 38.3038 104.964 41.2697 105.333 42.9665C103.459 44.2798 101.674 45.1356 99.9916 45.5192C99.9178 45.8881 99.8588 46.3013 99.8145 46.7735H98.1914C97.7192 46.7735 97.2471 47.1571 97.129 47.6145Z" fill="#6D96CE"/>
<path fill-rule="evenodd" clip-rule="evenodd" d="M94.2944 58.3841L97.1275 47.6125C97.2455 47.1551 97.7324 46.7715 98.1899 46.7715H99.813H121.607C122.064 46.7715 122.891 47.3617 122.758 47.8191C122.773 47.4355 122.522 47.1404 122.109 47.1404H98.6915C98.2341 47.1404 97.7472 47.524 97.6292 47.9814L93.4681 63.8436C93.3943 64.124 93.4681 64.36 93.6304 64.5224C93.2468 64.2715 92.8779 63.7846 92.9664 63.46L94.2944 58.3841Z" fill="#859AC6"/>
<path fill-rule="evenodd" clip-rule="evenodd" d="M94.0713 64.7017H117.488C117.577 64.7017 117.665 64.687 117.739 64.6722C117.267 65.8821 116.013 65.7051 115.511 65.6903H87.7559C86.2509 65.6313 86.2951 64.5689 86.2656 63.5508H92.9351C92.9204 63.8754 93.2597 64.3033 93.6139 64.5394C93.7319 64.6427 93.8942 64.7017 94.0713 64.7017Z" fill="#859AC6"/>
<path fill-rule="evenodd" clip-rule="evenodd" d="M97.3635 53.6777C99.8719 54.9467 102.838 55.3303 105.892 55.4927C105.863 55.5959 105.833 55.714 105.818 55.832C105.612 57.1158 106.527 58.2077 107.825 58.2077C109.065 58.2077 110.186 57.2338 110.378 56.0091C110.393 55.8763 110.407 55.7435 110.407 55.6255C113.58 55.714 116.634 55.8911 119.172 56.8797L117.431 63.5049H94.7812L97.3635 53.6777Z" fill="#9DB2D9"/>
<path fill-rule="evenodd" clip-rule="evenodd" d="M108.33 54.4023C107.489 54.4023 106.707 55.0811 106.574 55.9222C106.441 56.7632 107.016 57.442 107.857 57.442C108.699 57.442 109.481 56.7632 109.613 55.9222C109.746 55.0811 109.171 54.4023 108.33 54.4023Z" fill="#9DB2D9"/>
<path fill-rule="evenodd" clip-rule="evenodd" d="M81.3828 60.8349C81.855 59.4036 82.1796 57.928 82.3862 56.4082C85.5439 57.6329 89.1442 58.8134 93.7037 60.6135L93.0839 62.9596C86.2079 63.1662 82.3124 62.458 81.3828 60.8349Z" fill="#6D96CE"/>
<path fill-rule="evenodd" clip-rule="evenodd" d="M93.7195 60.5979C89.16 58.7977 85.5597 57.6173 82.402 56.3926C79.628 55.3154 77.1933 54.2088 74.7734 52.6004C74.8767 49.5165 75.3341 46.5211 76.6179 43.0684C77.7983 44.1898 79.9969 44.7652 83.2283 44.78C82.2987 46.5507 81.5315 48.0705 80.9412 49.3542C85.8106 53.3825 90.488 56.5106 94.3097 58.3698L93.7195 60.5979Z" fill="#F9AF79"/>
<path fill-rule="evenodd" clip-rule="evenodd" d="M104.71 43.3633C105.065 44.588 105.389 45.7242 105.684 46.7718H99.7969C99.8411 46.2996 99.9002 45.8865 99.9739 45.5176C101.479 45.1635 103.058 44.4552 104.71 43.3633Z" fill="#F9AF79"/>
<path fill-rule="evenodd" clip-rule="evenodd" d="M119.004 100.437C115.522 87.8066 114.282 78.9386 115.271 73.8184C113.294 74.0988 111.302 74.1873 109.31 74.084C109.619 72.7117 109.915 71.3542 110.224 69.9672C110.195 68.0785 109.221 66.6915 105.812 65.6881H115.522C115.846 65.6881 116.525 65.7767 117.071 65.4668C120.199 66.3669 121.719 67.8277 122.25 69.6426C122.634 74.6005 121.601 80.237 122.486 100.496C121.38 100.6 120.229 100.585 119.004 100.437Z" fill="#0E2952"/>
<path fill-rule="evenodd" clip-rule="evenodd" d="M115.375 65.6881H115.523C115.847 65.6881 116.526 65.7767 117.072 65.4668C120.2 66.3669 121.72 67.8277 122.251 69.6426C122.635 74.6004 121.602 80.237 122.487 100.496C121.838 100.57 121.159 100.585 120.466 100.57C118.665 93.5318 114.386 76.2678 119.211 68.8163C118.061 67.5916 116.792 66.5587 115.375 65.6881Z" fill="#1D417F"/>
<path fill-rule="evenodd" clip-rule="evenodd" d="M88.2411 29.3165C88.8608 28.5344 89.4068 27.7966 89.5691 27.2802C89.451 26.9261 89.3182 26.4686 89.1707 25.9227C86.8393 24.3439 86.5294 23.1782 88.2116 22.4256C88.551 22.6175 88.9789 23.2077 89.4805 24.1963C89.8789 24.1815 90.1888 23.975 90.3954 23.5766C89.9085 21.9092 89.5986 20.5664 89.451 19.5336C90.602 17.8367 93.2727 17.5858 96.814 18.0433C96.9763 18.9876 97.1091 19.991 97.2124 21.0386C97.8469 21.6141 97.7584 23.7536 97.1829 26.2326C97.478 27.6343 96.6075 28.4016 94.586 28.5344C94.5564 29.0361 94.7483 29.6706 94.763 29.7444V29.7591C96.637 34.1858 88.7428 34.4661 88.2411 29.3165Z" fill="#F9AF79"/>
<path fill-rule="evenodd" clip-rule="evenodd" d="M96.8464 18.0295C93.3051 17.5721 90.6196 17.8082 89.4834 19.5198C89.631 20.5527 89.9408 21.9102 90.4278 23.5628C90.2212 23.9612 89.9113 24.1678 89.5129 24.1826C89.0112 23.1939 88.5833 22.6037 88.2439 22.4119C86.5618 23.1644 86.8717 24.3301 89.2031 25.909C89.3359 26.4549 89.4687 26.8976 89.6015 27.2665C87.5062 26.7943 85.765 24.9203 85.5142 24.1235C83.0795 19.3133 85.7945 17.2917 87.2553 16.5392C87.9046 11.7732 94.8101 15.9933 98.2777 13.6914C99.6204 15.6096 97.9088 18 96.8464 18.0295Z" fill="#20386F"/>
<path fill-rule="evenodd" clip-rule="evenodd" d="M91.9922 28.4629C92.9661 28.5367 93.8514 28.5662 94.6187 28.5219C94.6039 28.8613 94.6924 29.2744 94.7515 29.5105C93.4825 29.481 92.5677 29.1269 91.9922 28.4629Z" fill="#ED7D57"/>
<path fill-rule="evenodd" clip-rule="evenodd" d="M84.7423 73.1121C80.655 71.6513 80.0943 67.5788 81.8945 61.4258C83.37 62.6357 87.1031 63.1374 93.0939 62.9456L92.9611 63.4768C92.9611 63.5063 92.9463 63.5211 92.9463 63.5506H86.2768C86.2916 64.5687 86.2621 65.6163 87.7671 65.6901H105.828C109.236 66.6935 110.21 68.0953 110.24 69.9692C108.085 79.6193 106.153 88.4726 103.541 100.72C102.655 101.221 101.446 101.177 99.9109 100.602C98.6862 88.7382 99.0256 80.1062 100.929 74.7205C95.8532 74.7352 90.4674 74.0417 84.7423 73.1121Z" fill="#1D417F"/>
<path fill-rule="evenodd" clip-rule="evenodd" d="M84.7435 73.1121C80.6563 71.6513 80.1103 67.5788 81.8957 61.4258C82.2056 61.6766 82.6335 61.9127 83.1499 62.1045C81.6596 68.4199 83.2827 71.8874 88.0783 72.212C93.6854 73.0384 98.3186 73.4368 102.007 73.4072C100.384 83.9427 100.104 93.1206 101.166 100.956C100.768 100.882 100.34 100.764 99.8974 100.587C98.6727 88.7235 99.0121 80.0915 100.916 74.7057C95.8544 74.7352 90.4687 74.0417 84.7435 73.1121Z" fill="#0E2952"/>
<path fill-rule="evenodd" clip-rule="evenodd" d="M122.128 100.513C122.231 100.897 122.394 101.251 122.63 101.59C121.538 101.693 121.951 103.095 119 101.812C119.118 101.443 119.192 100.985 119.207 100.469C120.225 100.572 121.199 100.587 122.128 100.513Z" fill="#F9AF79"/>
<path fill-rule="evenodd" clip-rule="evenodd" d="M103.518 107.109C101.511 106.282 101.201 104.925 100.094 104.408C98.9728 103.892 98.8548 102.962 99.9467 101.959C100.758 102.608 101.747 103.39 102.278 102.977C102.632 102.697 103.827 102.712 104.063 103.125C105.111 105.545 106.557 104.777 106.838 105.884C106.882 107.345 104.786 107.64 103.518 107.109Z" fill="#0E2952"/>
<path fill-rule="evenodd" clip-rule="evenodd" d="M103.179 100.866C103.165 101.515 103.253 102.165 103.445 102.799C103.017 102.725 102.501 102.784 102.279 102.961C101.792 103.345 100.892 102.696 100.125 102.091C100.243 101.737 100.332 101.294 100.376 100.748C101.512 101.117 102.442 101.146 103.179 100.866Z" fill="#F9AF79"/>
<path fill-rule="evenodd" clip-rule="evenodd" d="M83.2273 44.7959C83.7437 43.8516 84.2896 42.5826 84.8799 41.0038C84.57 42.863 84.5848 44.191 84.0831 45.7108C84.4962 47.8651 84.6585 50.0637 84.6143 52.277C83.9208 51.7605 83.2273 51.2146 82.519 50.6686C82.4009 49.1341 82.2534 47.9094 82.0911 46.9945C82.4305 46.301 82.8141 45.5632 83.2273 44.7959ZM101.199 45.1648C100.786 45.3124 100.388 45.4304 99.9895 45.519C100.137 43.1581 100.24 41.2104 100.285 39.6758C100.727 41.9481 101.037 43.7778 101.199 45.1648ZM81.3828 60.8352C81.855 59.4039 82.1796 57.9283 82.3862 56.4085C82.9764 56.6299 83.5666 56.8659 84.1864 57.0873C83.9355 58.7694 83.5814 60.4368 83.1387 62.1041C82.2681 61.7648 81.6779 61.3516 81.3828 60.8352Z" fill="#466FB5"/>
<path fill-rule="evenodd" clip-rule="evenodd" d="M98.9131 158.679C98.5147 158.045 98.1606 157.587 97.8359 157.322C99.3853 156.481 100.241 155.566 100.403 154.562C100.625 154.754 100.817 155.005 100.979 155.286C100.389 156.643 99.7099 157.779 98.9131 158.679Z" fill="#466FB5"/>
<path fill-rule="evenodd" clip-rule="evenodd" d="M96.7385 158.679C97.1369 158.045 97.491 157.587 97.8304 157.322C96.2811 156.481 95.4253 155.566 95.263 154.562C95.0416 154.754 94.8498 155.005 94.6875 155.286C95.2482 156.643 95.9417 157.779 96.7385 158.679Z" fill="#466FB5"/>
<path fill-rule="evenodd" clip-rule="evenodd" d="M110.372 159.991C108.705 157.689 105.577 156.111 100.958 155.27C100.383 156.642 99.7041 157.763 98.9073 158.678C98.5089 158.044 98.1547 157.586 97.8301 157.321C97.5055 157.601 97.1366 158.058 96.7382 158.678C95.9414 157.778 95.2627 156.642 94.6872 155.27C90.0835 156.111 86.9406 157.689 85.2732 159.991C84.0042 163.724 83.1632 166.676 82.75 168.845C84.1075 169.14 85.6568 169.479 87.4127 169.877C87.1766 174.083 87.1176 177.668 87.2357 180.649C89.6998 181.372 93.1231 182.641 97.2251 184.353C97.4317 184.353 97.6383 184.338 97.8301 184.323C98.0219 184.338 98.2285 184.353 98.4351 184.353C102.522 182.641 105.96 181.372 108.425 180.649C108.543 177.668 108.484 174.083 108.248 169.877C110.003 169.479 111.553 169.14 112.91 168.845C112.482 166.676 111.641 163.724 110.372 159.991Z" fill="#6D96CE"/>
<path fill-rule="evenodd" clip-rule="evenodd" d="M107.5 162.838C107.825 164.948 108.075 167.294 108.238 169.876C108.459 169.832 108.68 169.773 108.902 169.729C108.607 168.135 108.134 165.833 107.5 162.838Z" fill="#466FB5"/>
<path fill-rule="evenodd" clip-rule="evenodd" d="M88.1518 162.838C87.8272 164.948 87.5763 167.294 87.414 169.876C87.1927 169.832 86.9713 169.773 86.75 169.729C87.0451 168.135 87.5025 165.833 88.1518 162.838Z" fill="#466FB5"/>
<path fill-rule="evenodd" clip-rule="evenodd" d="M107.369 188.868C107.871 190.122 106.956 192.158 106.336 192.572C95.0779 191.435 88.0395 189.857 83.7014 187.673C82.4029 186.95 80.1453 186.655 78.7731 185.74C75.4383 182.228 77.932 177.624 81.2372 177.846C83.5391 178.288 84.631 178.952 85.7229 180.251C89.6626 181.151 97.7044 184.338 107.369 188.868Z" fill="#1D417F"/>
<path fill-rule="evenodd" clip-rule="evenodd" d="M119.337 190.758C119.794 193.827 115.958 194.314 108.064 192.986C111.384 191.894 111.827 190.92 109.348 189.385C116.224 188.131 119.352 188.146 119.337 190.758ZM76.31 190.758C75.8526 193.827 79.689 194.314 87.5832 192.986C84.2632 191.894 83.8206 190.92 86.2995 189.385C79.4382 188.131 76.2953 188.146 76.31 190.758Z" fill="#0E2952"/>
<path fill-rule="evenodd" clip-rule="evenodd" d="M106.47 192.454C107.134 192.586 107.666 192.749 108.064 192.97C111.384 191.878 111.827 190.904 109.348 189.37C108.787 189.399 108.153 189.326 107.444 189.148C107.71 190.314 107.031 191.908 106.47 192.454ZM89.177 192.454C88.513 192.586 87.9818 192.749 87.5834 192.97C84.2634 191.878 83.8207 190.904 86.2996 189.37C86.8604 189.399 87.4948 189.326 88.2031 189.148C87.9523 190.314 88.6163 191.908 89.177 192.454Z" fill="#F9AF79"/>
<path fill-rule="evenodd" clip-rule="evenodd" d="M112.491 175.869C112.757 173.656 112.697 171.354 112.284 168.979C111.266 169.2 110.13 169.451 108.891 169.731C108.669 169.775 108.463 169.834 108.227 169.879C108.448 173.951 108.522 177.448 108.418 180.37C110.44 178.747 111.797 177.242 112.491 175.869Z" fill="#F9AF79"/>
<path fill-rule="evenodd" clip-rule="evenodd" d="M83.1688 175.869C82.9032 173.656 82.9623 171.354 83.3754 168.979C84.3935 169.2 85.5297 169.451 86.7692 169.731C86.9905 169.775 87.1971 169.834 87.4332 169.879C87.2118 173.951 87.1381 177.448 87.2414 180.37C85.2051 178.747 83.8476 177.242 83.1688 175.869Z" fill="#F9AF79"/>
<path fill-rule="evenodd" clip-rule="evenodd" d="M109.404 175.293C109.389 173.699 109.33 171.825 109.227 169.656C109.109 169.686 109.005 169.701 108.887 169.73C108.666 169.774 108.459 169.833 108.223 169.878C108.371 172.386 108.445 174.673 108.459 176.754C108.637 176.532 108.858 176.296 109.109 176.001C109.802 175.706 110.51 175.558 111.204 175.558C110.407 175.322 109.802 175.219 109.404 175.293ZM86.2377 175.293C86.2524 173.699 86.3114 171.825 86.4147 169.656C86.5328 169.686 86.6361 169.701 86.7541 169.73C86.9754 169.774 87.182 169.833 87.4181 169.878C87.2705 172.386 87.1968 174.673 87.182 176.754C87.005 176.532 86.7836 176.296 86.5328 176.001C85.8393 175.706 85.131 175.558 84.4375 175.558C85.2491 175.322 85.8393 175.219 86.2377 175.293Z" fill="#ED7D57"/>
<path fill-rule="evenodd" clip-rule="evenodd" d="M87.5416 171.029H108.111C108.303 171.029 108.465 171.192 108.465 171.383V180.635C106.016 181.343 102.563 182.627 98.4607 184.339H97.1917C93.0897 182.627 89.6369 181.343 87.1875 180.635V171.383C87.1875 171.192 87.3498 171.029 87.5416 171.029Z" fill="#C4D1EB"/>
<path fill-rule="evenodd" clip-rule="evenodd" d="M88.1398 180.93C90.5006 181.668 93.5845 182.834 97.1849 184.339L97.2144 184.354L97.4652 184.339H97.8194H98.1735L98.4243 184.354C102.039 182.849 105.138 181.668 107.499 180.93V173.287C106.141 174.999 103.456 176.415 100.018 177.256C100.033 177.374 100.047 177.478 100.047 177.596C100.047 178.82 99.0441 179.824 97.8194 179.824C96.7127 179.824 95.7979 179.027 95.6208 177.965C94.6322 178.053 93.5993 178.097 92.5517 178.097C91.0171 178.097 89.5268 177.994 88.125 177.802V180.93H88.1398Z" fill="#9DB2D9"/>
<path fill-rule="evenodd" clip-rule="evenodd" d="M95.663 144.143C97.05 146.076 99.2486 147.772 102.273 149.233C101.521 151.491 100.385 153.704 97.8911 154.103C95.5007 153.719 94.1874 151.993 93.6562 149.543C94.94 148.127 95.604 146.312 95.663 144.143Z" fill="#F9AF79"/>
<path fill-rule="evenodd" clip-rule="evenodd" d="M104.716 145.37C104.716 141.563 101.602 138.449 97.7953 138.449C93.9884 138.449 90.875 141.563 90.875 145.37V156.259C92.0112 155.861 93.2801 155.536 94.6819 155.285C94.8442 155.005 95.0213 154.769 95.2574 154.562C95.4197 155.566 96.2755 156.48 97.8248 157.322C99.3742 156.48 100.23 155.566 100.392 154.562C100.614 154.754 100.805 155.005 100.968 155.285C102.355 155.536 103.594 155.861 104.716 156.244V145.37V145.37ZM95.6705 144.145C97.0576 146.078 99.2561 147.775 102.281 149.235C101.528 151.493 100.392 153.706 97.8986 154.105C95.5082 153.721 94.195 151.995 93.6638 149.545C94.9475 148.129 95.6115 146.314 95.6705 144.145Z" fill="#20386F"/>
<path fill-rule="evenodd" clip-rule="evenodd" d="M100.393 154.56C100.216 154.295 100.098 153.808 100.024 153.114C99.4484 153.616 98.7549 153.97 97.8991 154.103C96.8957 153.941 96.0841 153.542 95.4349 152.967C95.4201 153.601 95.3463 154.132 95.2578 154.56C95.4201 155.564 96.2759 156.479 97.8253 157.32C99.3746 156.479 100.23 155.564 100.393 154.56Z" fill="#F9AF79"/>
<path fill-rule="evenodd" clip-rule="evenodd" d="M100.09 153.632C100.06 153.47 100.046 153.293 100.016 153.101C99.4406 153.602 98.7471 153.956 97.8912 154.089C96.8879 153.927 96.0763 153.529 95.4271 152.953C95.4123 153.174 95.4123 153.396 95.3828 153.588C95.973 153.986 96.8141 154.34 97.906 154.62C98.5995 154.443 99.3225 154.193 100.09 153.632Z" fill="#ED7D57"/>
<path fill-rule="evenodd" clip-rule="evenodd" d="M90.8697 151.301H93.9979V160.567H90.1172C90.8402 157.572 91.1206 154.488 90.8697 151.301Z" fill="#20386F"/>
<path fill-rule="evenodd" clip-rule="evenodd" d="M101.586 151.301H104.714C104.493 154.37 104.906 157.469 105.422 160.567H101.586V151.301Z" fill="#20386F"/>
<path fill-rule="evenodd" clip-rule="evenodd" d="M97.821 176.162C98.6178 176.162 99.2671 176.811 99.2671 177.608C99.2671 178.405 98.6178 179.054 97.821 179.054C97.0242 179.054 96.375 178.405 96.375 177.608C96.3898 176.811 97.0242 176.162 97.821 176.162Z" fill="#9DB2D9"/>
<path fill-rule="evenodd" clip-rule="evenodd" d="M88.2854 188.868C87.7837 190.122 88.6985 192.158 89.3182 192.572C100.577 191.435 107.615 189.857 111.953 187.673C113.252 186.95 115.509 186.655 116.882 185.74C120.216 182.228 117.723 177.624 114.417 177.846C112.115 178.288 111.024 178.952 109.932 180.251C105.977 181.151 97.9502 184.338 88.2854 188.868Z" fill="#1D417F"/>
<path fill-rule="evenodd" clip-rule="evenodd" d="M97.0724 184.293C90.9193 186.683 86.0648 187.657 82.5234 187.185C82.9513 187.333 83.3497 187.495 83.6891 187.672C84.8253 188.247 86.1385 188.779 87.6731 189.266C87.8502 189.236 88.0272 189.192 88.2043 189.148C88.2191 189.044 88.2486 188.956 88.2928 188.867C91.7161 187.259 94.9328 185.828 97.8249 184.603C97.6183 184.514 97.4117 184.426 97.2199 184.352C97.2052 184.352 97.2052 184.337 97.1904 184.337C97.1461 184.322 97.1166 184.308 97.0724 184.293Z" fill="#0E2952"/>
<path fill-rule="evenodd" clip-rule="evenodd" d="M107.485 189.414C104.888 190.211 101.716 190.904 97.8203 191.509C100.344 191.908 103.162 192.247 106.319 192.572C106.364 192.542 106.423 192.498 106.467 192.454C106.983 191.952 107.603 190.55 107.485 189.414Z" fill="#0E2952"/>
<path fill-rule="evenodd" clip-rule="evenodd" d="M97.815 184.603C98.0216 184.515 98.2282 184.426 98.42 184.353L98.1692 184.338H97.4461L97.1953 184.353C97.4166 184.441 97.6085 184.515 97.815 184.603Z" fill="#0E2952"/>
<path fill-rule="evenodd" clip-rule="evenodd" d="M219.71 95.1122C219.976 95.4221 220.02 95.7615 219.872 96.1304C219.622 96.8091 218.81 97.5764 217.866 98.3289C217.748 98.4322 217.644 98.5207 217.541 98.5945C217.512 98.6093 217.497 98.6388 217.467 98.6535C217.453 98.6683 217.423 98.6831 217.408 98.6978C216.523 99.5094 216.862 99.7012 215.269 101.339C213.469 103.213 212.214 103.257 211.86 103.08C211.565 102.933 212.17 101.944 212.849 100.823C212.878 100.764 212.908 100.719 212.952 100.66C213.041 100.513 213.129 100.365 213.218 100.203C214.014 98.8601 213.808 98.2256 213.616 96.2189C213.469 94.581 211.078 87.1 211.078 87.1L214.546 86.5098C214.546 86.5098 215.593 92.471 216.729 93.3858C217.349 93.8728 218.028 93.8875 218.618 94.2417C218.662 94.2712 218.707 94.2859 218.736 94.3154C219.09 94.581 219.43 94.8024 219.71 95.1122Z" fill="#F9AF79"/>
<path fill-rule="evenodd" clip-rule="evenodd" d="M219.716 95.1117C219.981 95.4215 220.026 95.7609 219.878 96.1298C219.568 96.8086 218.786 97.5611 217.871 98.3284C217.753 98.4317 217.65 98.5202 217.547 98.6087C217.517 98.6235 217.502 98.653 217.473 98.6678C217.458 98.6825 217.429 98.6973 217.414 98.712C216.528 99.5236 216.868 99.7154 215.274 101.353C213.474 103.227 212.22 103.271 211.866 103.094C211.571 102.947 212.176 101.958 212.854 100.837C213.209 100.704 214.832 100.04 216.071 98.4612C217.163 97.0742 217.886 95.2887 218.624 94.2559C218.668 94.2854 218.712 94.3001 218.742 94.3296C219.096 94.5805 219.435 94.8018 219.716 95.1117Z" fill="#172B57"/>
<path fill-rule="evenodd" clip-rule="evenodd" d="M191.781 92.9585C191.574 94.0209 190.039 93.8438 188.343 93.4307C186.646 93.0175 187.044 93.5044 184.624 93.2388C182.204 92.9732 181.467 92.0731 181.393 91.7043C181.334 91.3796 182.529 91.2763 183.813 91.1288C183.975 91.114 184.137 91.0845 184.3 91.0698C185.746 90.8927 186.808 89.9483 188.121 89.1811C189.375 88.458 191.235 85.4922 191.235 85.4922L194.555 85.7578C194.555 85.7578 192.813 88.399 192.135 89.55C191.736 90.2287 191.766 91.1288 191.81 91.8075C191.84 92.1912 191.869 92.5748 191.781 92.9585Z" fill="#F9AF79"/>
<path fill-rule="evenodd" clip-rule="evenodd" d="M188.343 93.4288C186.646 93.0157 187.044 93.5026 184.624 93.237C182.204 92.9714 181.467 92.0713 181.393 91.7024C181.334 91.3778 182.529 91.2745 183.813 91.127L183.827 91.1565C183.827 91.1565 185.288 92.1893 187.295 92.2336C188.933 92.2779 190.674 91.8057 191.81 91.8205C191.84 92.1894 191.854 92.573 191.781 92.9566C191.574 94.019 190.054 93.842 188.343 93.4288Z" fill="#172B57"/>
<path fill-rule="evenodd" clip-rule="evenodd" d="M199.193 44.1611C199.193 44.1611 198.396 42.2281 197.525 42.1396C196.655 42.0658 193.881 41.6232 193.689 42.0216C193.497 42.42 193.689 43.8365 194.279 44.3529C194.869 44.8694 198.558 45.6957 198.558 45.6957L199.193 44.1611Z" fill="#F9AF79"/>
<path fill-rule="evenodd" clip-rule="evenodd" d="M204.516 71.7089L211.672 90.9796C211.672 90.9796 212.779 91.0829 213.826 90.7877C214.8 90.5074 215.907 89.7696 215.907 89.7696C215.907 89.7696 214.136 71.2662 210.875 67.415C207.629 63.5638 204.516 71.7089 204.516 71.7089Z" fill="#172B57"/>
<path fill-rule="evenodd" clip-rule="evenodd" d="M232.841 63.9178C232.841 63.9178 212.272 56.9532 207.683 58.4435C203.094 59.919 189.312 87.3347 189.312 87.3347C189.312 87.3347 189.622 87.7479 190.478 88.0725C191.26 88.3676 193.178 88.3529 193.178 88.3529C193.178 88.3529 205.617 77.6994 207.093 74.586C208.568 71.4726 209.159 68.5215 210.649 68.8166C212.125 69.1117 229.743 76.0763 233.741 71.93C237.74 67.7837 236.692 62.3979 236.692 62.3979L232.841 63.9178Z" fill="#223F81"/>
<path fill-rule="evenodd" clip-rule="evenodd" d="M220.28 31.5449C219.955 30.8662 219.586 29.6562 219.409 27.5167C219.439 27.7232 219.808 30.4382 220.855 31.9728C225.134 34.7764 233.338 44.1609 233.176 45.9463C233.176 45.9463 236.068 41.0475 236.113 41.0179C236.113 41.0179 241.439 34.2452 235.124 30.3645C231.907 28.3872 231.937 25.864 232.07 23.6655C232.202 21.4669 231.199 11.9939 224.766 14.4728C224.766 14.4728 223.733 14.0154 223.275 14.0892C223.275 14.0892 223.659 14.1629 223.851 14.3548C223.098 14.3105 222.036 14.3695 221.15 14.8712C218.76 16.1992 216.65 28.2102 220.28 31.5449Z" fill="#172B57"/>
<path fill-rule="evenodd" clip-rule="evenodd" d="M221.086 32.1211C221.057 32.1359 223.152 33.213 224.716 32.7851C226.192 32.3867 227.151 30.4685 227.136 30.4685C226.516 30.3505 226.324 29.4799 226.339 25.791L226.059 25.85L221.308 26.7944C221.308 26.7944 221.411 28.2847 221.411 29.7012C221.426 30.8669 221.352 31.9883 221.086 32.1211Z" fill="#F9AF79"/>
<path fill-rule="evenodd" clip-rule="evenodd" d="M221.32 26.7783C221.32 26.7783 221.424 28.2686 221.424 29.6852C224.08 29.6114 225.496 27.1767 226.072 25.834L221.32 26.7783Z" fill="#EC9355"/>
<path fill-rule="evenodd" clip-rule="evenodd" d="M226.562 25.3183C226.562 25.3183 227.949 23.1198 228.288 21.2311C228.524 19.8883 227.846 14.901 222.829 15.624C222.829 15.624 221.368 15.7715 220.011 16.6864C218.919 17.4241 217.355 19.003 219.11 23.3559L219.568 24.8314L226.562 25.3183Z" fill="#172B57"/>
<path fill-rule="evenodd" clip-rule="evenodd" d="M220.422 28.1074C220.422 28.1074 226.722 28.2107 226.722 24.2857C226.722 20.3607 227.549 17.7343 223.52 17.5129C219.507 17.2768 218.725 18.7819 218.4 20.0804C218.09 21.3936 218.784 27.9893 220.422 28.1074Z" fill="#F9AF79"/>
<path fill-rule="evenodd" clip-rule="evenodd" d="M220.656 17.424C220.656 17.424 222.383 22.0277 225.024 22.7065C227.665 23.3852 228.816 22.6769 228.816 22.6769C228.816 22.6769 226.795 21.0686 226.367 18.2503C226.367 18.2503 221.955 15.2254 220.656 17.424Z" fill="#172B57"/>
<path fill-rule="evenodd" clip-rule="evenodd" d="M221.087 17.7917C221.087 17.7917 219.803 18.8246 219.494 19.8132C219.184 20.8166 219.036 22.8676 218.446 22.7938C218.446 22.7938 217.147 19.6656 218.608 17.895C220.143 16.0358 221.087 17.7917 221.087 17.7917Z" fill="#172B57"/>
<path fill-rule="evenodd" clip-rule="evenodd" d="M237.673 64.0223C237.333 64.9667 236.286 65.2028 234.899 65.0405C232.243 64.7306 228.288 62.9452 225.44 61.7057C221.102 59.817 219.125 61.5877 217.738 60.3925C216.351 59.1973 219.317 56.5266 216.749 44.1614C215.879 39.9709 221.397 30.97 221.397 30.97C221.397 30.97 221.87 33.567 227.152 30.4388C227.344 30.3208 229.41 33.4047 231.416 37.1968C233.615 41.3727 235.725 46.4338 235.105 49.0308C233.925 54.0181 238.661 61.2778 237.673 64.0223Z" fill="#6D96CE"/>
<path fill-rule="evenodd" clip-rule="evenodd" d="M221.394 30.9844L218.147 44.3233C218.147 44.3233 217.749 45.0464 217.1 46.0645C215.609 48.4696 212.85 52.5569 211.094 52.9848C210.224 53.1914 208.364 52.4684 206.328 51.4355C202.448 49.473 197.873 46.4039 197.873 46.4039C197.578 44.6332 199.128 43.1724 199.128 43.1724C199.128 43.1724 208.409 46.6547 209.324 46.7285C211.33 46.8761 213.381 37.1817 215.255 33.9502C216.598 31.6189 221.394 30.9844 221.394 30.9844Z" fill="#6D96CE"/>
<path fill-rule="evenodd" clip-rule="evenodd" d="M237.671 64.0217C237.332 64.9661 236.284 65.2022 234.897 65.0399C233.053 64.2431 225.1 61.1592 225.188 59.0639C225.321 55.9652 226.723 55.8767 225.734 52.055C224.937 48.9859 232.286 43.2902 233.466 42.0508C235.665 46.2266 235.724 46.4332 235.104 49.0301C233.923 54.0175 238.66 61.2772 237.671 64.0217Z" fill="#466FB5"/>
<path fill-rule="evenodd" clip-rule="evenodd" d="M217.1 46.082C215.609 48.4871 212.85 52.5744 211.094 53.0023C210.224 53.2089 208.364 52.4858 206.328 51.453C207.818 51.8366 209.279 51.8218 210.681 51.689C212.216 51.5415 212.658 49.6675 215.078 46.8492C216.642 45.0196 217.026 45.477 217.1 46.082Z" fill="#466FB5"/>
<path fill-rule="evenodd" clip-rule="evenodd" d="M224.46 51.9959C224.46 51.9959 223.132 50.9631 221.863 51.1991C220.609 51.45 219.989 52.3058 220.033 52.7042C220.078 53.1026 220.742 54.2093 221.716 54.3125C222.675 54.4158 225.419 53.7223 225.419 53.7223L224.46 51.9959Z" fill="#F9AF79"/>
<path fill-rule="evenodd" clip-rule="evenodd" d="M227.15 30.4531C227.15 30.4531 232.285 30.763 234.056 33.2419C236.564 36.7242 240.902 50.9633 239.722 54.2242L224.111 54.1505C224.111 54.1505 223.727 52.3798 224.258 51.524C224.789 50.6682 233.333 49.2811 233.731 48.8975C234.129 48.4991 228.803 41.1951 228.803 40.0147C228.788 38.849 227.15 30.4531 227.15 30.4531Z" fill="#6D96CE"/>
<path fill-rule="evenodd" clip-rule="evenodd" d="M223.138 57.8254H204.237L200.828 45.9473H219.7L223.138 57.8254Z" fill="#E0E8F5"/>
<path d="M228.998 57.3535H204.297V58.7553H228.998V57.3535Z" fill="#859AC6"/>
<path fill-rule="evenodd" clip-rule="evenodd" d="M209.889 51.6857C209.712 51.0807 210.066 50.5938 210.671 50.5938C211.276 50.5938 211.911 51.0807 212.088 51.6857C212.265 52.2906 211.911 52.7776 211.306 52.7776C210.701 52.7776 210.066 52.2906 209.889 51.6857Z" fill="#859AC6"/>
<path fill-rule="evenodd" clip-rule="evenodd" d="M247.01 176.651C243.292 177.359 238.614 178.805 232.992 181.004C233.376 181.107 233.73 181.225 234.069 181.372C241.831 178.554 246.966 177.138 249.489 177.123C249.046 176.961 248.589 176.857 248.146 176.813C248.19 172.681 248.397 169.022 248.781 165.85C247.836 170.778 247.246 174.378 247.01 176.651Z" fill="#466FB5"/>
<path fill-rule="evenodd" clip-rule="evenodd" d="M232.987 181.004C231.261 180.487 229.726 180.605 228.398 181.343L229.52 185.239C229.653 185.681 229.402 186.021 228.959 186.006L229.992 186.05C230.464 185.785 230.936 185.622 231.438 185.548C232.382 186.153 233.622 186.021 235.171 185.15C235.289 183.601 234.891 182.347 233.991 181.373C234.006 181.373 234.035 181.358 234.05 181.343C233.725 181.24 233.371 181.107 232.987 181.004Z" fill="#F9AF79"/>
<path fill-rule="evenodd" clip-rule="evenodd" d="M245.847 187.968C246.083 186.567 246.32 185.061 246.556 183.453C243.634 184.22 239.827 184.943 235.135 185.637C235.15 185.475 235.164 185.327 235.179 185.18C233.645 186.05 232.39 186.168 231.446 185.578C230.944 185.652 230.472 185.814 230 186.08L240.491 186.522C240.358 187.231 240.048 187.776 239.576 188.101C241.79 188.175 243.885 188.131 245.847 187.968Z" fill="#466FB5"/>
<path fill-rule="evenodd" clip-rule="evenodd" d="M228.402 181.358C229.405 180.797 230.512 180.591 231.737 180.753C233.743 176.415 232.504 170.247 235.322 160.848C233.286 161.866 230.91 166.824 228.195 175.692C227.9 175.943 227.502 176.223 227 176.547L228.402 181.358Z" fill="#6D96CE"/>
<path fill-rule="evenodd" clip-rule="evenodd" d="M235.328 160.835C232.495 170.249 233.749 176.402 231.742 180.74C232.155 180.784 232.568 180.887 232.996 181.005C238.618 178.807 243.281 177.361 247.014 176.653C247.25 174.38 247.84 170.78 248.8 165.837C248.416 169.024 248.195 172.683 248.165 176.8C248.608 176.859 249.065 176.962 249.508 177.11C246.985 177.125 241.835 178.541 234.088 181.36L234.029 181.389C234.929 182.348 235.313 183.602 235.21 185.166C235.195 185.314 235.18 185.476 235.165 185.624C239.858 184.93 243.665 184.207 246.586 183.44C248.991 182.806 250.806 182.156 252.016 181.463C255.189 176.195 255.676 169.378 253.492 161.041C252.311 159.536 249.685 158.975 245.598 159.359C241.333 162.959 239.386 163.122 239.754 159.876C237.866 159.949 236.405 160.259 235.328 160.835Z" fill="#6D96CE"/>
<path fill-rule="evenodd" clip-rule="evenodd" d="M235.192 160.907C232.669 166.145 232.226 176.769 231.075 177.92C230.633 178.451 229.6 179.1 227.977 179.867L228.006 179.971L228.404 181.358C229.408 180.797 230.515 180.591 231.739 180.753C233.746 176.415 232.507 170.247 235.325 160.848C235.281 160.848 235.236 160.877 235.192 160.907Z" fill="#466FB5"/>
<path fill-rule="evenodd" clip-rule="evenodd" d="M212.807 187.378L238.157 188.441C239.456 188.5 240.282 187.762 240.504 186.493L211.966 185.298H211.893C211.612 185.283 211.214 185.416 211.347 186.183C211.45 186.818 212.114 187.364 212.807 187.378Z" fill="#859AC6"/>
<path fill-rule="evenodd" clip-rule="evenodd" d="M208.667 171.694L225.045 172.373C225.473 172.387 225.945 172.771 226.063 173.214L229.531 185.254C229.664 185.697 229.413 186.036 228.97 186.021L212.592 185.343C212.164 185.328 211.691 184.944 211.573 184.502L208.106 172.461C207.973 172.018 208.224 171.679 208.667 171.694Z" fill="#C4D1EB"/>
<path fill-rule="evenodd" clip-rule="evenodd" d="M210.125 176.576L212.265 183.983C212.368 184.352 212.766 184.692 213.15 184.706L228.097 185.326C228.481 185.341 228.658 185.046 228.555 184.692L227.123 179.749C225.899 179.896 224.615 179.985 223.287 179.985C222.298 179.985 221.324 179.94 220.38 179.852C220.188 180.354 219.716 180.693 219.111 180.693C218.329 180.693 217.591 180.132 217.326 179.394C214.463 178.834 211.969 177.845 210.125 176.576Z" fill="#859AC6"/>
<path fill-rule="evenodd" clip-rule="evenodd" d="M205.211 189.488C206.465 188.676 207.425 187.923 208.118 187.215C209.18 187.687 210.184 188.13 211.158 188.514C213.489 188.219 216.204 187.923 219.317 187.643L212.81 187.377C212.117 187.348 211.453 186.802 211.335 186.182C211.202 185.415 211.615 185.297 211.881 185.297H211.954L212.574 185.326C212.146 185.312 211.674 184.928 211.556 184.485L209.844 178.539C208.797 178.48 207.867 178.465 207.07 178.48C202.481 180.147 198.512 186.979 189.969 192.66C190.102 194.15 190.839 195.109 191.99 196.054C196.476 194.136 200.976 191.996 203.632 190.461C204.208 190.122 204.724 189.797 205.211 189.488Z" fill="#223F81"/>
<path fill-rule="evenodd" clip-rule="evenodd" d="M180.83 193.309C184.224 196.304 186.747 198.119 188.238 198.813C189.846 199.55 190.303 198.99 190.687 197.116C186.201 195.684 188.636 194.711 186.969 193.589C185.169 193.486 183.118 192.645 180.83 191.066C179.399 190.904 179.237 191.789 180.83 193.309Z" fill="#223F81"/>
<path fill-rule="evenodd" clip-rule="evenodd" d="M181.737 189.399C181.884 190.447 181.973 190.949 182.105 191.863L182.179 191.908L182.209 191.922L182.238 191.937L182.312 191.982L182.386 192.026L182.415 192.041L182.46 192.055L182.519 192.085L182.592 192.129L182.622 192.144L182.799 192.247L182.828 192.262L182.873 192.291L182.932 192.321H182.947L183.02 192.35L183.035 192.365L183.079 192.395L183.124 192.424L183.138 192.439L183.212 192.468L183.227 192.483L183.271 192.513L183.315 192.542L183.33 192.557L183.404 192.586H183.419L183.478 192.616L183.522 192.631L183.551 192.646L183.625 192.675H183.64L183.699 192.705L183.743 192.719L183.832 192.764L183.935 192.808L183.965 192.823L184.024 192.852L184.083 192.882L184.112 192.896L184.142 192.911L184.201 192.941L184.26 192.97L184.289 192.985L184.319 193L184.378 193.029L184.437 193.059L184.466 193.073L184.496 193.088L184.555 193.103L184.614 193.132L184.643 193.147L184.688 193.162L184.747 193.177H184.761L184.82 193.191H184.835L184.879 193.206L184.938 193.221L184.998 193.236H185.012L185.057 193.25L185.101 193.265H185.116L185.175 193.28H185.189L185.234 193.295L185.278 193.31H185.293L185.352 193.324H185.366L185.411 193.339L185.455 193.354H185.484L185.543 193.369L185.662 193.398L185.721 193.413L185.78 193.428H185.809H185.839L185.898 193.442L185.957 193.457L186.016 193.472L186.075 193.487L186.134 193.501H186.163H186.193C186.178 193.398 186.163 193.265 186.119 193.132C184.82 191.878 183.684 190.521 182.961 187.835C182.017 186.773 181.5 187.201 181.737 189.399ZM182.563 194.785C182.828 196.231 183.153 197.559 183.463 198.253C184.127 199.728 185.381 198.961 186.739 197.943C185.632 197.22 184.23 196.172 182.563 194.785Z" fill="#0E2952"/>
<path fill-rule="evenodd" clip-rule="evenodd" d="M184.525 193.029L184.569 193.044L184.628 193.073L184.658 193.088L184.702 193.103L184.761 193.118H184.776L184.835 193.132H184.85L184.894 193.147L184.953 193.162L185.012 193.177H185.027L185.071 193.191L185.115 193.206H185.13L185.189 193.221H185.204L185.248 193.236L185.292 193.25H185.307L185.366 193.265H185.381L185.425 193.28L185.469 193.295H185.499L185.558 193.31L185.676 193.339L185.735 193.354L185.794 193.369H185.823H185.853L185.912 193.383L185.971 193.398L186.03 193.413L186.089 193.428L186.148 193.442H186.178H186.207C186.192 193.324 186.178 193.206 186.133 193.073C184.835 191.819 183.699 190.462 182.976 187.776C182.71 187.496 182.489 187.334 182.297 187.26C182.489 189.532 183.226 191.436 184.525 193.029Z" fill="#223F81"/>
<path fill-rule="evenodd" clip-rule="evenodd" d="M190.265 196.969C190.664 196.424 191.121 196.01 191.608 195.73C190.826 195.007 190.28 194.254 190.059 193.236C189.173 193.709 188.318 193.974 187.477 194.048C188.082 194.948 186.96 195.819 190.265 196.969Z" fill="#F9AF79"/>
<path fill-rule="evenodd" clip-rule="evenodd" d="M237.719 197.56C243.194 197.221 245.422 193.119 245.304 188.013C243.503 188.146 241.585 188.161 239.593 188.087C239.224 188.353 238.737 188.471 238.162 188.456L219.319 187.674C216.206 187.954 213.476 188.235 211.159 188.544C209.728 188.736 208.444 188.913 207.323 189.105C206.511 189.326 205.316 189.769 203.693 190.448L203.634 190.477C200.993 192.027 196.478 194.151 191.992 196.07C191.859 195.952 191.726 195.848 191.608 195.73C191.121 196.011 190.679 196.424 190.266 196.97C190.398 197.014 190.546 197.073 190.708 197.117C190.708 197.147 190.694 197.176 190.694 197.206C203.457 198.372 207.662 196.424 211.056 195.406C222.123 197.383 227.464 198.106 237.719 197.56Z" fill="#223F81"/>
<path fill-rule="evenodd" clip-rule="evenodd" d="M244.011 152.982C243.598 151.255 243.509 149.293 242.948 148.526C238.345 146.903 237.828 149.455 235.792 149.942C235.762 150.577 235.969 151.285 236.367 152.067C236.22 154.856 236.869 156.582 238.33 157.231C238.699 157.615 239.304 157.851 240.159 157.925C240.086 158.279 239.835 159.578 239.732 159.902C239.377 163.148 241.325 162.971 245.575 159.386H245.589C245.56 158.25 245.471 157.364 245.486 156.508C245.501 155.918 245.516 155.402 245.56 154.944C247.08 153.351 247.39 152.067 246.46 151.078C245.25 150.503 244.557 151.314 244.365 153.513C244.011 153.365 244.262 153.484 244.011 152.982Z" fill="#F9AF79"/>
<path fill-rule="evenodd" clip-rule="evenodd" d="M235.783 149.944C237.819 149.457 238.321 146.905 242.939 148.528C243.5 149.28 243.588 151.257 244.001 152.984C244.252 153.5 244.001 153.382 244.356 153.515C244.547 151.316 245.241 150.505 246.451 151.08C247.366 152.069 247.071 153.353 245.551 154.946C245.521 155.404 245.492 155.92 245.477 156.51C249.771 152.556 248.9 147.185 246.289 145.429C246.923 145.503 247.572 145.739 248.236 146.167C247.277 144.898 246.008 144.455 244.4 144.839C244.577 143.939 244.547 143.275 244.297 142.832C244.223 143.437 244.105 143.909 243.928 144.249C242.895 143.304 240.903 143.083 238.881 143.85C236.255 144.839 233.525 147.259 232.492 146.536C232.654 149 234.056 150.505 235.783 149.944Z" fill="#20386F"/>
<path fill-rule="evenodd" clip-rule="evenodd" d="M242.889 157.145C242.121 157.631 241.221 157.897 240.174 157.927C240.129 158.118 240.026 158.605 239.938 159.063C241.251 158.694 242.239 158.059 242.889 157.145Z" fill="#ED7D57"/>
<path fill-rule="evenodd" clip-rule="evenodd" d="M211.383 185.578C209.951 185.076 208.712 184.456 207.664 183.748C207.177 184.22 206.705 184.678 206.218 185.12C201.526 189.503 196.996 192.837 192.643 194.903C192.215 195.11 191.787 195.302 191.359 195.479C191.448 195.567 191.522 195.641 191.61 195.73L191.994 196.069C192.879 195.685 193.765 195.302 194.635 194.918C198.176 193.339 201.511 191.716 203.636 190.477C203.651 190.462 203.665 190.447 203.695 190.447C204.241 190.122 204.757 189.813 205.23 189.503C205.584 189.267 205.923 189.045 206.233 188.824C207.015 188.263 207.649 187.732 208.136 187.245C209.199 187.717 210.202 188.16 211.176 188.544C212.489 188.381 213.921 188.204 215.485 188.042C216.695 187.924 217.978 187.791 219.336 187.673L215.485 187.511L212.829 187.407C212.135 187.378 211.471 186.832 211.353 186.212C211.294 185.902 211.324 185.711 211.383 185.578Z" fill="#0E2952"/>
<path fill-rule="evenodd" clip-rule="evenodd" d="M236.93 194.904C233.743 195.804 229.317 195.907 223.636 195.228C222.662 195.125 221.732 195.007 220.832 194.904C218.899 194.668 217.099 194.417 215.476 194.166C213.853 193.915 212.362 193.664 211.034 193.413C210.061 193.989 208.954 194.476 207.685 194.904C207.213 195.066 206.726 195.199 206.224 195.346C202.24 196.409 197.017 196.837 190.539 196.63C190.451 196.733 190.362 196.851 190.273 196.969C190.406 197.014 190.554 197.058 190.716 197.117L190.701 197.205C198.463 197.914 203.066 197.471 206.239 196.778C208.275 196.335 209.736 195.789 211.064 195.391C212.643 195.671 214.104 195.936 215.491 196.158C223.768 197.545 228.948 198.017 237.742 197.545C240.191 197.383 241.991 196.482 243.216 195.081C244.736 193.34 245.385 190.831 245.326 187.998C245.075 188.013 244.839 188.028 244.588 188.042C244.087 188.072 243.585 188.087 243.069 188.101C242.847 191.554 240.811 193.812 236.93 194.904Z" fill="#0E2952"/>
<path fill-rule="evenodd" clip-rule="evenodd" d="M218.652 177.994C219.257 177.994 219.833 178.496 219.936 179.101C220.039 179.706 219.626 180.207 219.007 180.207C218.402 180.207 217.811 179.706 217.723 179.101C217.634 178.496 218.048 177.994 218.652 177.994Z" fill="#859AC6"/>
</svg>
