<svg width="392" height="396" viewBox="0 0 392 396" fill="none" xmlns="http://www.w3.org/2000/svg">
<path opacity="0.36" d="M323.238 381.244L344.427 368.53C346.211 367.415 346.211 364.813 344.353 363.698L310.897 343.773L279.672 354.033L323.238 381.244Z" fill="#88BDEB"/>
<path d="M45.9309 323.551L87.7131 299.388L46.1539 275.449L4 299.463L45.9309 323.551Z" stroke="#DBEFFF" stroke-width="3.4504" stroke-miterlimit="10"/>
<path d="M124.22 248.314L166.002 224.226L124.443 200.213L82.2891 224.301L124.22 248.314Z" stroke="#DBEFFF" stroke-width="3.4504" stroke-miterlimit="10"/>
<path opacity="0.36" d="M337.746 259.168L382.428 232.33C386.219 229.95 386.219 224.449 382.353 222.144L249.795 143.338L232.398 198.428L337.746 259.168Z" fill="#88BDEB"/>
<path opacity="0.36" d="M369.476 354.033L390.664 341.32C392.449 340.204 392.449 337.602 390.59 336.487L357.134 316.562L319.516 325.187L369.476 354.033Z" fill="#88BDEB"/>
<path opacity="0.36" d="M183.616 353.066L204.805 340.353C206.589 339.238 206.589 336.635 204.731 335.52L171.275 315.596L133.656 324.22L183.616 353.066Z" fill="#88BDEB"/>
<path opacity="0.36" d="M130.689 234.485L152.398 221.772C154.182 220.657 154.182 218.055 152.324 216.94L132.771 205.268L106.75 218.427L130.689 234.485Z" fill="#88BDEB"/>
<path opacity="0.36" d="M61.3924 305.038L83.1013 292.325C84.8856 291.21 84.8856 288.608 83.0269 287.493L63.4741 275.82L37.4531 288.979L61.3924 305.038Z" fill="#88BDEB"/>
<path d="M342.794 337.157L370.971 320.95L343.017 304.742L314.617 320.95L342.794 337.157Z" fill="#DBEFFF"/>
<path d="M342.789 337.157V369.423L370.892 353.215V320.949L342.789 337.157Z" fill="#84ADE3"/>
<path d="M342.794 337.157L314.617 320.949V352.323L343.315 369.497V336.859L342.794 337.157Z" fill="#BAD4F5"/>
<path d="M299.231 281.097L336.255 259.685C342.352 256.191 346.218 249.723 346.441 242.66L349.563 135.603L280.125 175.675L195.594 126.904V233.962C195.594 241.173 199.46 247.79 205.63 251.359C205.63 251.359 235.74 268.756 257.226 281.097C270.237 288.606 286.221 288.606 299.231 281.097Z" fill="#7463FF"/>
<path d="M346.958 223.185C346.734 230.247 342.794 236.864 336.698 240.358L299.525 261.77C286.515 269.279 270.456 269.279 257.371 261.77C235.885 249.428 205.627 232.032 205.627 232.032C199.382 228.463 195.516 221.846 195.516 214.635V234.188C195.516 241.399 199.382 248.016 205.627 251.585C205.627 251.585 235.885 268.981 257.371 281.323C270.382 288.832 286.44 288.832 299.525 281.323L336.698 259.911C342.794 256.417 346.66 249.949 346.883 242.886L346.958 223.185Z" fill="#5B49F2"/>
<path d="M270.83 173.223L198.269 131.367C194.775 129.359 194.775 124.23 198.269 122.222L259.307 86.9824C265.849 83.1908 274.027 83.1908 280.57 86.9824L346.142 124.824C351.867 128.095 351.867 136.348 346.142 139.693L288.004 173.223C282.726 176.346 276.109 176.346 270.83 173.223Z" fill="#D9EAFF"/>
<path d="M271.057 168.688L205.335 130.772C202.138 128.913 202.138 124.304 205.335 122.52L260.574 90.6255C266.522 87.2056 273.882 87.2056 279.829 90.6255L339.231 124.899C344.436 127.873 344.436 135.381 339.231 138.355L286.595 168.763C281.837 171.439 275.889 171.439 271.057 168.688Z" fill="#BAD4F5"/>
<path opacity="0.25" d="M329.257 149.435L240.414 98.1369L273.721 79.6992L345.613 124.604C351.635 128.321 351.412 137.168 345.241 140.588L329.257 149.435Z" fill="#2F35C2"/>
<path d="M304.573 114.939C304.573 114.939 304.126 115.237 304.052 115.237C304.052 115.237 303.903 115.46 303.829 115.534C303.755 115.609 303.606 115.757 303.532 115.757C303.457 115.832 282.641 128.619 282.641 128.619V132.039L303.16 119.4C303.309 119.326 303.383 119.252 303.457 119.177L303.532 119.103C303.606 119.028 303.68 119.028 303.68 118.954C303.755 118.88 303.829 118.805 303.903 118.731C303.903 118.731 303.903 118.657 303.978 118.657L304.052 118.582C304.052 118.582 304.052 118.508 304.127 118.508C304.201 118.434 304.201 118.359 304.275 118.359C304.275 118.359 304.275 118.285 304.35 118.285C304.35 118.285 304.35 118.285 304.35 118.211C304.35 118.136 304.424 118.136 304.424 118.062V117.988C304.424 117.988 304.424 117.988 304.424 117.913C304.424 117.839 304.424 117.839 304.498 117.765V117.69C304.498 117.616 304.498 117.616 304.498 117.542V117.467C304.498 117.467 304.498 117.467 304.498 117.393L304.573 114.939Z" fill="#A8C4E5"/>
<path d="M282.561 128.617C282.413 128.691 282.264 128.766 282.115 128.84C282.041 128.84 282.041 128.914 281.966 128.914C281.818 128.989 281.595 129.063 281.446 129.138C281.297 129.212 281.149 129.212 281 129.286H280.926C280.777 129.286 280.628 129.361 280.554 129.361C280.554 129.361 280.554 129.361 280.48 129.361C280.331 129.361 280.108 129.435 279.959 129.435C279.885 129.435 279.81 129.435 279.736 129.435C279.662 129.435 279.513 129.435 279.439 129.435C279.364 129.435 279.29 129.435 279.216 129.435C279.141 129.435 279.067 129.435 278.918 129.435C278.844 129.435 278.77 129.435 278.695 129.435C278.621 129.435 278.547 129.435 278.472 129.435C278.398 129.435 278.324 129.435 278.249 129.435C278.175 129.435 278.101 129.435 278.026 129.435C277.952 129.435 277.877 129.435 277.803 129.435C277.729 129.435 277.654 129.435 277.506 129.361C277.431 129.361 277.357 129.361 277.283 129.286C277.208 129.286 277.06 129.212 276.985 129.212C276.911 129.212 276.837 129.212 276.837 129.138C276.688 129.063 276.465 128.989 276.316 128.989C276.242 128.989 276.168 128.914 276.093 128.914C276.019 128.914 276.019 128.914 275.944 128.84C275.796 128.766 275.721 128.691 275.573 128.617L259.588 119.398C258.622 118.803 258.102 119.101 258.102 118.357V120.736C258.102 121.48 258.622 122.223 259.588 122.818L275.498 132.037C275.647 132.111 275.721 132.186 275.87 132.26C275.945 132.26 275.944 132.334 276.019 132.334C276.093 132.334 276.168 132.409 276.242 132.409C276.391 132.483 276.614 132.557 276.762 132.557C276.837 132.557 276.837 132.557 276.911 132.557C276.985 132.557 277.134 132.632 277.208 132.632H277.283C277.357 132.632 277.357 132.632 277.431 132.632C277.506 132.632 277.58 132.632 277.654 132.706H277.729C277.803 132.706 277.803 132.706 277.877 132.706C277.952 132.706 278.026 132.706 278.101 132.706H278.175C278.249 132.706 278.249 132.706 278.324 132.706C278.398 132.706 278.472 132.706 278.547 132.706H278.621C278.695 132.706 278.695 132.706 278.77 132.706C278.844 132.706 278.918 132.706 279.067 132.706H279.141C279.216 132.706 279.216 132.706 279.29 132.706C279.364 132.706 279.513 132.706 279.587 132.706C279.662 132.706 279.662 132.706 279.736 132.706H279.81C279.959 132.706 280.182 132.632 280.331 132.632C280.331 132.632 280.331 132.632 280.405 132.632C280.554 132.632 280.703 132.557 280.777 132.557H280.851C281 132.483 281.149 132.483 281.297 132.409C281.446 132.334 281.669 132.26 281.818 132.186C281.892 132.186 281.892 132.111 281.966 132.111C282.115 132.037 282.264 131.963 282.413 131.888C282.413 131.888 282.413 131.888 282.487 131.888V128.468C282.636 128.617 282.561 128.617 282.561 128.617Z" fill="#A8C4E5"/>
<path d="M303.086 113.005C305.019 114.12 305.019 115.905 303.235 117.02L282.715 129.658C280.782 130.848 277.585 130.848 275.578 129.733L259.594 120.514C257.587 119.399 257.661 117.466 259.668 116.351L281.377 104.381C283.31 103.34 286.433 103.34 288.291 104.455L303.086 113.005Z" fill="#F5F9FF"/>
<path d="M268.07 111.739L290.523 124.824L295.801 121.627L273.721 108.766L268.07 111.739Z" fill="#659ADB"/>
<path opacity="0.29" d="M290.523 124.827V127.132L297.215 123.043V120.887L290.523 124.827Z" fill="#45446C"/>
<path d="M350.739 77.9897C350.739 77.9153 350.739 77.9154 350.739 77.841V77.7667V77.6923V77.618C350.739 77.618 350.739 77.618 350.739 77.5436V77.4693V77.3949V77.3206V77.2462V77.1719V77.0976V77.0232V76.9489V76.8745C350.739 76.8745 350.739 76.8745 350.739 76.8002C350.739 76.8002 350.74 76.7258 350.665 76.7258C350.665 76.7258 350.665 76.6515 350.591 76.6515C350.591 76.6515 350.591 76.5771 350.516 76.5771C350.516 76.5771 350.516 76.5028 350.442 76.5028V76.4284C350.442 76.3541 350.368 76.3541 350.368 76.2797C350.368 76.2797 350.368 76.2797 350.368 76.2054C350.293 76.1311 350.293 76.0567 350.219 76.0567C350.219 76.0567 350.219 75.9824 350.145 75.9824L350.07 75.908L349.996 75.8337L349.922 75.7593L349.847 75.685L349.773 75.6106L349.699 75.5363L349.624 75.4619C349.624 75.4619 349.55 75.4619 349.55 75.3876L349.476 75.3132C349.476 75.3132 349.401 75.3133 349.401 75.2389L349.327 75.1646L348.807 74.8672L345.907 76.4284C345.907 76.4284 346.576 76.8002 346.65 76.8745L346.725 76.9489L346.799 77.0232L346.874 77.0976C346.874 77.0976 346.874 77.0976 346.948 77.0976C347.022 77.1719 347.022 77.1719 347.097 77.2462C347.171 77.3206 347.171 77.3206 347.245 77.3949C347.32 77.4693 347.32 77.4693 347.394 77.5436C347.468 77.618 347.468 77.618 347.543 77.6923C347.617 77.7667 347.617 77.7667 347.691 77.841L347.766 77.9153L347.84 77.9897C347.84 78.064 347.914 78.064 347.914 78.1384C347.914 78.1384 347.914 78.2127 347.989 78.2127C347.989 78.2127 347.989 78.2871 348.063 78.2871C348.063 78.3614 348.137 78.3614 348.137 78.4358C348.137 78.5101 348.212 78.5845 348.212 78.5845C348.212 78.6588 348.286 78.7331 348.286 78.7331C348.286 78.8075 348.36 78.8818 348.36 78.8818C348.36 78.9562 348.435 79.0305 348.435 79.0305C348.435 79.1049 348.435 79.1792 348.509 79.1792C348.509 79.2536 348.509 79.3279 348.584 79.3279C348.584 79.4023 348.584 79.4766 348.584 79.4766C348.584 79.5509 348.584 79.6253 348.584 79.6253V79.6996V79.774C348.584 79.8483 348.584 79.8483 348.584 79.9227C348.584 79.997 348.584 79.997 348.584 80.0714C348.584 80.1457 348.584 80.1457 348.584 80.2201V80.2944C348.584 80.2944 348.584 80.3688 348.584 80.4431L338.472 143.116C338.398 143.414 337.283 145.347 337.506 145.198L340.257 142.819C340.852 142.299 341.223 141.629 341.372 140.886L351.334 79.4022C351.409 79.1049 351.483 78.6588 351.483 78.6588V78.5845V78.5101C351.483 78.5101 351.483 78.4358 351.483 78.3614C350.739 78.064 350.739 77.9897 350.739 77.9897Z" fill="#659ADB"/>
<path d="M345.988 76.1293C347.326 76.8728 348.219 78.6571 347.996 80.0696L337.662 143.635C337.438 145.048 336.175 145.568 334.836 144.825L237.518 88.6194C236.18 87.8759 235.288 86.0916 235.511 84.679L245.77 21.1136C245.993 19.701 247.257 19.1806 248.596 19.9241L345.988 76.1293Z" fill="url(#paint0_linear_937_887)"/>
<path d="M349.337 66.7619L252.911 11.077L252.762 11.0027C252.688 10.9284 252.539 10.854 252.539 10.854C252.539 10.854 252.465 10.854 252.465 10.7797C252.465 10.7797 252.39 10.7797 252.39 10.7053C252.39 10.7053 252.316 10.7053 252.316 10.631C252.316 10.631 252.242 10.631 252.242 10.5566H252.167C252.093 10.5566 252.093 10.5566 252.019 10.5566H251.944C251.944 10.5566 251.944 10.5566 251.87 10.5566C251.87 10.5566 251.87 10.5566 251.796 10.5566C251.721 10.5566 251.721 10.5566 251.647 10.5566C251.573 10.5566 251.573 10.5566 251.498 10.5566H251.424H251.35H251.275C251.275 10.5566 251.275 10.5566 251.201 10.5566C251.127 10.5566 251.052 10.5566 250.978 10.631C250.904 10.631 250.829 10.7053 250.755 10.7053L247.93 12.3409C248.004 12.2666 248.078 12.2666 248.153 12.2666H248.227C248.227 12.2666 248.301 12.2666 248.376 12.2666C248.45 12.2666 248.45 12.2666 248.524 12.2666C248.524 12.2666 248.524 12.2666 248.599 12.2666C248.673 12.2666 248.747 12.2666 248.822 12.2666C248.822 12.2666 248.822 12.2666 248.896 12.2666C248.971 12.2666 249.045 12.2666 249.119 12.2666C249.194 12.2666 249.268 12.2666 249.342 12.3409C249.417 12.3409 249.491 12.4153 249.565 12.4153C249.64 12.4153 249.714 12.4896 249.788 12.4896C249.788 12.4896 249.863 12.4896 249.863 12.564C249.863 12.564 249.937 12.564 249.937 12.6383L250.457 12.9357L347.107 68.6948C347.181 68.7692 347.33 68.7692 347.478 68.6948L349.634 67.431C349.634 67.2823 349.634 66.9105 349.337 66.7619Z" fill="#B5CFEA"/>
<path d="M351.939 70.552C351.939 70.4777 351.939 70.4777 351.939 70.4033V70.329V70.2546V70.1803C351.939 70.1803 351.939 70.1803 351.939 70.1059V70.0316V69.9573V69.8829V69.8086V69.7342V69.6599V69.5855V69.5112V69.4368C351.939 69.4368 351.939 69.4368 351.939 69.3625C351.939 69.3625 351.939 69.2882 351.864 69.2882C351.79 69.2882 351.865 69.2138 351.79 69.2138C351.79 69.2138 351.79 69.1395 351.716 69.1395C351.716 69.1395 351.716 69.0651 351.641 69.0651V68.9908C351.641 68.9164 351.567 68.9164 351.567 68.8421C351.567 68.8421 351.567 68.8421 351.567 68.7677C351.493 68.6934 351.493 68.619 351.418 68.619C351.418 68.619 351.418 68.5447 351.344 68.5447L351.27 68.4704L351.195 68.396L351.121 68.3217L351.047 68.2473L350.972 68.173L350.898 68.0986L350.824 68.0243C350.824 68.0243 350.749 68.0243 350.749 67.9499L350.675 67.8756C350.675 67.8756 350.601 67.8756 350.601 67.8013L350.526 67.7269L348.147 66.3887L345.248 68.173C345.248 68.173 347.701 69.4368 347.775 69.5112L347.85 69.5855L347.924 69.6599L347.999 69.7342C347.999 69.7342 347.999 69.7342 348.073 69.7342C348.147 69.8086 348.147 69.8086 348.222 69.8829C348.296 69.9573 348.296 69.9573 348.37 70.0316C348.445 70.106 348.445 70.106 348.519 70.1803C348.593 70.2546 348.593 70.2547 348.668 70.329C348.742 70.4033 348.742 70.4033 348.816 70.4777L348.891 70.552L348.965 70.6264C348.965 70.7007 349.039 70.7007 349.039 70.7751C349.039 70.7751 349.039 70.8494 349.114 70.8494C349.114 70.8494 349.114 70.9238 349.188 70.9238C349.188 70.9981 349.262 70.9981 349.262 71.0725C349.262 71.1468 349.337 71.2211 349.337 71.2211C349.337 71.2955 349.411 71.3698 349.411 71.3698C349.411 71.4442 349.485 71.5185 349.485 71.5185C349.485 71.5929 349.56 71.6672 349.56 71.6672C349.56 71.7416 349.56 71.8159 349.634 71.8159C349.634 71.8903 349.634 71.9646 349.709 71.9646C349.709 72.0389 349.709 72.1133 349.709 72.1133C349.709 72.1876 349.709 72.262 349.709 72.262V72.3363V72.4107C349.709 72.485 349.709 72.485 349.709 72.5594C349.709 72.6337 349.709 72.6337 349.709 72.708C349.709 72.7824 349.709 72.7824 349.709 72.8567V72.9311C349.709 72.9311 349.709 73.0054 349.709 73.0798L339.597 135.753C339.523 136.05 338.408 137.983 338.631 137.835L341.382 135.456C341.977 134.935 342.348 134.266 342.497 133.523L351.79 71.7416C351.865 71.4442 351.939 70.9981 351.939 70.9981V70.9238V70.8494C351.939 70.8494 351.939 70.7751 351.939 70.7007C351.939 70.6264 351.939 70.6264 351.939 70.552Z" fill="#659ADB"/>
<path d="M347.101 68.6957C348.44 69.4392 349.332 71.2235 349.109 72.636L338.849 136.201C338.626 137.614 337.362 138.134 336.024 137.391L238.706 81.1858C237.367 80.4423 236.475 78.658 236.698 77.2454L246.958 13.68C247.181 12.2674 248.445 11.747 249.783 12.4905L347.101 68.6957Z" fill="#2F29C2"/>
<path d="M351.122 56.2052L254.622 0.520428L254.473 0.446078C254.399 0.371732 254.25 0.297378 254.25 0.297378C254.25 0.297378 254.176 0.297373 254.176 0.223028C254.176 0.223028 254.101 0.223046 254.101 0.1487C254.101 0.1487 254.027 0.148696 254.027 0.0743501C254.027 0.0743501 253.953 0.0743455 253.953 0H253.878C253.804 0 253.804 0 253.73 0H253.655C253.655 0 253.655 0 253.581 0C253.581 0 253.581 0 253.507 0C253.432 0 253.432 0 253.358 0C253.284 0 253.284 0 253.209 0H253.135H253.061H252.986C252.986 0 252.986 0 252.912 0C252.838 0 252.763 4.53658e-06 252.689 0.0743501C252.614 0.0743501 252.54 0.1487 252.466 0.1487L249.641 1.78429C249.715 1.70994 249.789 1.70994 249.864 1.70994H249.938C249.938 1.70994 250.012 1.70994 250.087 1.70994C250.161 1.70994 250.161 1.70994 250.235 1.70994C250.235 1.70994 250.235 1.70994 250.31 1.70994C250.384 1.70994 250.458 1.70994 250.533 1.70994C250.533 1.70994 250.533 1.70994 250.607 1.70994C250.681 1.70994 250.756 1.70994 250.83 1.70994C250.905 1.70994 250.979 1.70994 251.053 1.78429C251.128 1.78429 251.202 1.85864 251.276 1.85864C251.351 1.85864 251.425 1.93299 251.499 1.93299C251.499 1.93299 251.574 1.93299 251.574 2.00734C251.574 2.00734 251.648 2.00732 251.648 2.08167L252.168 2.37907L348.818 58.1382C348.892 58.2126 349.041 58.2126 349.189 58.1382L351.345 56.8743C351.345 56.6513 351.345 56.3539 351.122 56.2052Z" fill="#B5CFEA"/>
<path d="M353.647 59.9954C353.647 59.921 353.647 59.921 353.647 59.8467V59.7723V59.698V59.6237C353.647 59.6237 353.647 59.6237 353.647 59.5493V59.475V59.4006V59.3263V59.2519V59.1776V59.1032V59.0289V58.9545V58.8802C353.647 58.8802 353.647 58.8802 353.647 58.8059C353.647 58.8059 353.647 58.7315 353.573 58.7315C353.573 58.7315 353.573 58.6572 353.498 58.6572C353.498 58.6572 353.498 58.5828 353.424 58.5828C353.424 58.5828 353.424 58.5085 353.35 58.5085V58.4341C353.35 58.3598 353.275 58.3598 353.275 58.2854C353.275 58.2854 353.275 58.2854 353.275 58.2111C353.201 58.1367 353.201 58.0624 353.127 58.0624C353.127 58.0624 353.127 57.988 353.052 57.988L352.978 57.9137L352.904 57.8393L352.829 57.765L352.755 57.6907L352.681 57.6163L352.606 57.542L352.532 57.4676C352.532 57.4676 352.458 57.4676 352.458 57.3933L352.383 57.3189C352.383 57.3189 352.309 57.3189 352.309 57.2446L352.234 57.1702L349.855 55.832L346.956 57.6163C346.956 57.6163 349.409 58.8802 349.484 58.9545L349.558 59.0289L349.632 59.1032L349.707 59.1776C349.707 59.1776 349.707 59.1776 349.781 59.1776C349.855 59.2519 349.855 59.2519 349.93 59.3263C350.004 59.4006 350.004 59.4006 350.078 59.475C350.153 59.5493 350.153 59.5493 350.227 59.6237C350.301 59.698 350.301 59.698 350.376 59.7723C350.45 59.8467 350.45 59.8467 350.524 59.921L350.599 59.9954L350.673 60.0697C350.673 60.1441 350.748 60.1441 350.748 60.2184C350.748 60.2184 350.748 60.2928 350.822 60.2928C350.822 60.2928 350.822 60.3671 350.896 60.3671C350.896 60.4415 350.971 60.4414 350.971 60.5158C350.971 60.5901 351.045 60.6645 351.045 60.6645C351.045 60.7388 351.119 60.8132 351.119 60.8132C351.119 60.8875 351.194 60.9619 351.194 60.9619C351.194 61.0362 351.268 61.1106 351.268 61.1106C351.268 61.1849 351.268 61.2592 351.342 61.2592C351.342 61.3336 351.342 61.4079 351.417 61.4079C351.417 61.4823 351.417 61.5566 351.417 61.5566C351.417 61.631 351.417 61.7053 351.417 61.7053V61.7797V61.854C351.417 61.9284 351.417 61.9284 351.417 62.0027C351.417 62.077 351.417 62.0771 351.417 62.1514C351.417 62.2257 351.417 62.2257 351.417 62.3001V62.3744C351.417 62.3744 351.417 62.4488 351.417 62.5231L340.637 124.899C340.562 125.196 339.447 127.129 339.67 126.981L342.421 124.602C343.016 124.081 343.387 123.412 343.536 122.669L353.498 61.1849C353.573 60.8875 353.647 60.4414 353.647 60.4414V60.3671V60.2928C353.647 60.2928 353.647 60.2184 353.647 60.1441C353.647 60.0697 353.647 59.9954 353.647 59.9954Z" fill="#659ADB"/>
<path d="M348.812 58.1391C350.151 58.8825 351.043 60.6668 350.82 62.0794L340.56 125.645C340.337 127.057 339.073 127.578 337.735 126.834L240.416 70.6291C239.078 69.8857 238.186 68.1014 238.409 66.6888L248.669 3.12336C248.892 1.7108 250.156 1.19037 251.494 1.93383L348.812 58.1391Z" fill="#2F29C2"/>
<path d="M343.613 72.7813C344.877 73.5247 345.695 75.0116 345.546 76.2012L336.179 129.507C335.956 130.696 334.766 131.068 333.577 130.325L241.239 78.0598C239.976 77.3163 239.158 75.8294 239.306 74.6399L248.6 21.3342C248.823 20.1446 250.012 19.7729 251.202 20.5164L343.613 72.7813Z" fill="#D9EAFF"/>
<path d="M299.37 44.8308C299.37 45.4256 298.924 45.7229 298.404 45.3512C297.884 44.9795 297.438 44.3104 297.438 43.7156C297.438 43.1208 297.884 42.8235 298.404 43.1952C298.924 43.5669 299.37 44.236 299.37 44.8308Z" fill="white"/>
<path d="M345.476 62.0762C346.74 62.8197 347.558 64.3066 347.409 65.4961L338.116 118.802C337.893 119.991 336.704 120.363 335.514 119.62L243.177 67.3547C241.913 66.6113 241.095 65.1244 241.244 63.9348L250.537 10.6291C250.76 9.43954 251.95 9.06783 253.139 9.81129L345.476 62.0762Z" fill="#D9EAFF"/>
<path d="M301.238 34.1238C301.238 34.7185 300.792 35.0159 300.271 34.6442C299.751 34.2725 299.305 33.6033 299.305 33.0086C299.305 32.4138 299.751 32.1164 300.271 32.4882C300.792 32.7856 301.238 33.529 301.238 34.1238Z" fill="white"/>
<path d="M305.395 104.899L296.102 99.5466L298.704 83.7109L308.071 89.0638L305.395 104.899Z" fill="#E655BE"/>
<path d="M316.852 111.519L307.484 106.166L309.269 95.7578L318.562 101.185L316.852 111.519Z" fill="white"/>
<path d="M328.59 118.357L319.297 112.93L322.791 92.1875L332.084 97.5404L328.59 118.357Z" fill="#5986FF"/>
<path d="M312.979 68.1732L306.511 64.456C305.916 64.1586 305.544 63.1921 305.619 62.3743C305.693 61.5565 306.214 61.1104 306.808 61.4821L313.276 65.1994C313.871 65.4968 314.243 66.4633 314.169 67.2811C314.094 68.0989 313.574 68.4706 312.979 68.1732Z" fill="#BFDFFF"/>
<path d="M311.417 75.7592L304.948 72.0419C304.354 71.7445 303.982 70.778 304.056 69.9602C304.131 69.1424 304.651 68.6963 305.246 69.0681L311.714 72.7853C312.309 73.0827 312.68 74.0492 312.606 74.867C312.532 75.6848 312.011 76.1309 311.417 75.7592Z" fill="#BFDFFF"/>
<path d="M318.706 71.4447L312.238 67.7274C311.643 67.4301 311.271 66.4635 311.345 65.6457C311.42 64.8279 311.94 64.3819 312.535 64.7536L319.003 68.4709C319.598 68.7683 319.969 69.7348 319.895 70.5526C319.821 71.3704 319.3 71.8164 318.706 71.4447Z" fill="#BFDFFF"/>
<path d="M322.198 82.224L315.73 78.5067C315.135 78.2094 314.763 77.2428 314.838 76.425C314.912 75.6072 315.432 75.1612 316.027 75.5329L322.495 79.2502C323.09 79.5476 323.462 80.5141 323.387 81.3319C323.313 82.1497 322.793 82.5957 322.198 82.224Z" fill="#BFDFFF"/>
<path d="M320.565 89.0639L314.097 85.3466C313.502 85.0492 313.13 84.0827 313.205 83.2649C313.279 82.4471 313.8 82.001 314.394 82.3728L320.862 86.09C321.457 86.3874 321.829 87.3539 321.754 88.1717C321.68 88.9895 321.085 89.4356 320.565 89.0639Z" fill="#BFDFFF"/>
<path d="M334.62 81.0365L328.152 77.3192C327.557 77.0218 327.185 76.0554 327.259 75.2376C327.334 74.4198 327.854 73.9737 328.449 74.3454L334.917 78.0627C335.512 78.3601 335.884 79.3266 335.809 80.1444C335.735 80.9622 335.214 81.3339 334.62 81.0365Z" fill="#BFDFFF"/>
<path d="M328.143 77.2455L321.675 73.5282C321.08 73.2308 320.709 72.2643 320.783 71.4465C320.857 70.6287 321.378 70.1827 321.972 70.5544L328.44 74.2717C329.035 74.5691 329.407 75.5356 329.333 76.3534C329.258 77.1712 328.738 77.5429 328.143 77.2455Z" fill="#BFDFFF"/>
<path d="M323.385 74.3451L316.917 70.6278C316.322 70.3304 315.951 69.364 316.025 68.5462C316.099 67.7284 316.62 67.2823 317.215 67.654L323.683 71.3713C324.277 71.6687 324.649 72.6351 324.575 73.4529C324.5 74.2707 323.906 74.6425 323.385 74.3451Z" fill="#BFDFFF"/>
<path d="M333.057 88.6947L326.589 84.9774C325.994 84.6801 325.623 83.7136 325.697 82.8958C325.771 82.078 326.292 81.6319 326.886 82.0036L333.355 85.7209C333.949 86.0183 334.321 86.9848 334.247 87.8026C334.172 88.6204 333.652 88.9921 333.057 88.6947Z" fill="#BFDFFF"/>
<path d="M332.827 65.7925L309.631 52.4103C308.888 51.9643 308.07 52.2616 307.773 53.0794C307.475 53.8972 307.922 54.9381 308.665 55.3841L331.861 68.7663C332.604 69.2124 333.422 68.915 333.719 68.0972C333.942 67.2794 333.571 66.2386 332.827 65.7925Z" fill="#29479C"/>
<path d="M337.593 68.5464L314.397 55.1642C313.654 54.7182 312.836 55.0155 312.538 55.8333C312.241 56.6511 312.687 57.692 313.431 58.1381L336.626 71.5203C337.37 71.9663 338.188 71.6689 338.485 70.8511C338.782 70.0333 338.336 68.9925 337.593 68.5464Z" fill="#29479C"/>
<path d="M254.622 16.6543L245.031 70.9265L291.497 97.914L301.088 43.6417L254.622 16.6543Z" fill="white"/>
<path d="M280.266 59.0282L275.062 56.0543C274.988 56.0543 274.988 55.98 274.913 55.98L267.702 51.8167C267.628 51.8167 267.628 51.7423 267.553 51.7423L263.018 49.1402C262.349 48.7685 261.754 49.2146 261.68 50.1811C261.606 51.0732 262.052 52.1884 262.721 52.5601L269.932 56.7235C270.007 56.7235 270.007 56.7978 270.081 56.7978L272.609 58.2104C272.683 58.2104 272.683 58.2847 272.757 58.2847L279.969 62.4481C280.638 62.8198 281.233 62.3737 281.307 61.4072C281.382 60.4407 280.935 59.3999 280.266 59.0282Z" fill="#BFDFFF"/>
<path d="M282.946 75.3856L277.742 72.4118C277.667 72.4118 277.667 72.3374 277.593 72.3374L270.382 68.1741C270.307 68.1741 270.307 68.0997 270.233 68.0997L265.698 65.4976C265.029 65.1259 264.434 65.572 264.36 66.5385C264.285 67.4306 264.731 68.5458 265.4 68.9175L272.612 73.0809C272.686 73.0809 272.686 73.1552 272.761 73.1552L275.288 74.5678C275.363 74.5678 275.363 74.6421 275.437 74.6421L282.649 78.8055C283.318 79.1772 283.912 78.7311 283.987 77.7647C284.061 76.8725 283.615 75.7573 282.946 75.3856Z" fill="#BFDFFF"/>
<path d="M273.354 65.7202L266.143 61.5569C265.474 61.1851 265.027 60.1443 265.102 59.1778C265.176 58.2857 265.771 57.7653 266.44 58.137L273.652 62.3003C274.321 62.672 274.767 63.7129 274.692 64.6794C274.618 65.6459 273.949 66.0919 273.354 65.7202Z" fill="#BFDFFF"/>
<path d="M284.659 72.0405L277.447 67.8772C276.778 67.5054 276.332 66.4646 276.407 65.4981C276.481 64.606 277.076 64.0856 277.745 64.4573L284.956 68.6206C285.625 68.9924 286.071 70.0332 285.997 70.9997C285.923 71.9662 285.328 72.4123 284.659 72.0405Z" fill="#BFDFFF"/>
<path d="M45.3944 285.336L70.4489 270.913L45.5431 256.564L20.2656 270.988L45.3944 285.336Z" fill="#A1A6F0"/>
<path d="M45.4103 285.335H45.3359V314.033L70.3904 299.609V270.912L45.4103 285.335Z" fill="#4852DB"/>
<path d="M45.3944 285.335L20.2656 270.986V298.792L45.8405 314.107V285.112L45.3944 285.335Z" fill="#737AE0"/>
<path d="M155.579 337.085L183.682 320.803L155.728 304.67L127.328 320.877L155.579 337.085Z" fill="#FFA6E6"/>
<path d="M155.574 337.086H155.5V369.352L183.677 353.145V320.879L155.574 337.086Z" fill="#E655BE"/>
<path d="M155.579 337.086L127.328 320.879V352.178L156.1 369.427V336.789L155.579 337.086Z" fill="#FF80DB"/>
<path d="M124.433 214.562L144.878 202.741L124.582 191.068L103.914 202.815L124.433 214.562Z" fill="#DBEFFF"/>
<path d="M124.438 214.559V238.052L144.883 226.231V202.812L124.438 214.559Z" fill="#84ADE3"/>
<path d="M124.433 214.559L103.914 202.812V225.562L124.805 238.127V214.336L124.433 214.559Z" fill="#BAD4F5"/>
<path d="M304.13 363.176L332.307 346.969L304.353 330.836L275.953 347.043L304.13 363.176Z" fill="#DBEFFF"/>
<path d="M304.133 363.178V395.444L332.235 379.237V346.971L304.133 363.178Z" fill="#84ADE3"/>
<path d="M304.13 363.176L275.953 347.043V378.342L304.65 395.516V362.879L304.13 363.176Z" fill="#BAD4F5"/>
<path d="M254.608 16.6543L301.074 43.6417L299.29 52.7862L252.898 26.1705L254.608 16.6543Z" fill="#2F29C2"/>
<path d="M260.79 49.1399C260.939 48.4708 260.567 47.8761 260.046 47.5043L257.221 45.8687C256.552 45.497 255.957 45.9431 255.883 46.9096C255.809 47.8017 256.255 48.9169 256.924 49.2886L258.559 50.2551C259.377 50.7012 260.567 50.1808 260.79 49.1399Z" fill="#E655BE"/>
<path d="M260.413 25.2033C260.413 26.4672 259.521 26.9876 258.406 26.3185C257.291 25.6494 256.398 24.0882 256.398 22.8243C256.398 21.5604 257.291 21.04 258.406 21.7091C259.521 22.3782 260.413 23.9395 260.413 25.2033Z" fill="white"/>
<path d="M266.069 28.6975C266.069 29.9614 265.177 30.4818 264.062 29.8127C262.947 29.1436 262.055 27.5823 262.055 26.3184C262.055 25.0545 262.947 24.5341 264.062 25.2032C265.177 25.8724 266.069 27.4336 266.069 28.6975Z" fill="#FFCE43"/>
<path d="M271.944 32.5607C271.944 33.8246 271.052 34.345 269.937 33.6759C268.822 33.0068 267.93 31.4456 267.93 30.1817C267.93 28.9178 268.822 28.3974 269.937 29.0665C270.978 29.7356 271.944 31.2225 271.944 32.5607Z" fill="#E655BE"/>
<path d="M255.579 39.0308C255.727 38.2874 255.876 37.99 256.025 37.3209C256.099 36.9492 255.95 36.4287 255.281 36.1313L255.43 35.2392C256.099 35.5366 256.396 35.3135 256.471 34.9418C256.619 34.2727 256.545 33.8266 256.694 33.0832C256.917 31.968 257.437 31.8193 258.329 32.2654L258.999 32.5627L258.85 33.3806L258.627 33.3062C258.181 33.0832 258.032 33.1575 257.958 33.7523C257.809 34.347 257.809 34.8675 257.66 35.4622C257.512 36.28 257.214 36.4287 256.619 36.28V36.3544C257.14 36.7261 257.289 37.1722 257.14 37.99C256.991 38.6591 256.843 39.1052 256.768 39.6999C256.619 40.2947 256.768 40.5177 257.214 40.7408L257.437 40.8151L257.289 41.6329L256.619 41.3355C255.727 40.6664 255.356 40.146 255.579 39.0308Z" fill="#2F29C2"/>
<path d="M251.877 63.9364C251.728 64.6799 251.58 64.9773 251.431 65.6464C251.357 66.0181 251.505 66.5385 252.249 66.9846L252.1 67.8768C251.357 67.4307 251.059 67.7281 250.985 68.0255C250.836 68.6946 250.911 69.1406 250.762 69.8841C250.539 70.9993 250.018 71.0736 249.052 70.4788L248.383 70.0328L248.531 69.215L248.755 69.3637C249.201 69.661 249.349 69.5867 249.498 68.9919C249.572 68.4715 249.647 67.9511 249.721 67.282C249.87 66.5385 250.167 66.3899 250.762 66.6129V66.5385C250.241 66.0925 250.018 65.6464 250.167 64.8286C250.241 64.2338 250.39 63.7134 250.539 63.193C250.613 62.5982 250.539 62.3752 250.093 62.0778L249.87 61.9291L250.018 61.1113L250.688 61.5574C251.654 62.2265 252.1 62.8213 251.877 63.9364Z" fill="#2F29C2"/>
<path d="M303.099 74.0476L287.412 65.2005C286.074 64.457 285.182 62.3754 285.479 60.6654L288.156 43.9377C288.453 42.1534 289.717 41.4099 291.129 42.1534L306.816 51.0005C308.155 51.7439 309.047 53.8256 308.749 55.5356L306.073 72.2633C305.701 73.9733 304.437 74.7911 303.099 74.0476Z" fill="#4C73DB"/>
<path d="M291.787 61.1842L288.367 54.1957L293.72 51.668L294.464 53.1549L290.895 54.8648L293.646 60.3664L291.787 61.1842Z" fill="white"/>
<path d="M300.122 65.4949L299.453 64.008L302.873 62.3723L300.122 56.7964L301.981 55.9043L305.401 62.9671L300.122 65.4949Z" fill="white"/>
<path d="M295.433 64.6019L293.648 64.1558L298.778 52.9297L300.563 53.3757L295.433 64.6019Z" fill="white"/>
<path d="M365.244 346.968L350.672 355.146V340.574L365.244 332.396V346.968Z" fill="white"/>
<path d="M156.105 328.681L142.5 320.801L156.031 312.92L169.71 320.801L156.105 328.681Z" fill="white"/>
<path d="M276.325 161.849L218.781 128.617L241.977 115.234L299.446 148.467L276.325 161.849Z" fill="#F5F9FF"/>
<path d="M292.238 150.771L237.742 119.323L240.716 117.613L295.211 149.061L292.238 150.771Z" fill="#DBEFFF"/>
<path d="M285.995 154.267L231.5 122.819L234.474 121.109L288.969 152.558L285.995 154.267Z" fill="#DBEFFF"/>
<path d="M279.675 158.355L225.18 126.907L228.154 125.197L282.649 156.645L279.675 158.355Z" fill="#DBEFFF"/>
<path d="M180.575 104.008L175.817 118.505C171.579 131.293 172.174 145.27 177.527 157.685L184.292 173.521L190.686 168.614L186.077 149.953C184.738 144.377 185.036 138.578 186.894 133.226C189.496 125.494 191.206 113.227 180.575 104.008Z" fill="#FFC2B0"/>
<path d="M196.484 104.306L193.956 133.078C192.989 135.382 172.098 129.286 173.139 125.866C173.288 125.271 177.451 91.4441 187.414 84.2326C195.517 78.3593 199.086 91.3697 196.484 104.306Z" fill="#F2BC49"/>
<path opacity="0.4" d="M209.095 303.672C226.911 303.356 241.227 295.911 241.069 287.044C240.912 278.177 226.342 271.245 208.525 271.561C190.709 271.877 176.393 279.321 176.55 288.188C176.708 297.055 191.278 303.988 209.095 303.672Z" fill="#A8C4E5"/>
<path d="M184.663 274.332L192.246 273.366C197.302 271.061 199.681 269.351 201.911 270.615L202.58 270.986C204.81 272.325 204.513 274.555 201.911 276.116L190.759 284.963C188.157 286.45 184.663 286.004 182.581 284.146C182.581 284.146 181.317 283.03 182.209 278.272C182.804 275.67 182.581 275.596 184.663 274.332Z" fill="#2C1F9C"/>
<path d="M217.888 292.176L225.397 293.588C230.898 292.919 233.723 292.027 235.433 293.96L235.954 294.48C237.738 296.413 236.697 298.495 233.798 299.164L220.49 304.145C217.516 304.815 214.393 303.253 212.907 300.874C212.907 300.874 212.089 299.462 214.393 295.224C215.732 292.845 215.583 292.696 217.888 292.176Z" fill="#2C1F9C"/>
<path d="M223.102 294.035C223.102 297.826 213.883 297.826 213.883 294.035V281.768H223.102V294.035Z" fill="#C6D2F2"/>
<path d="M224.293 286.304C221.245 290.616 214.702 290.616 212.844 287.494L196.859 159.545H230.092L224.293 286.304Z" fill="#2C1F9C"/>
<path d="M191.801 275.896C191.578 279.316 182.359 279.316 182.582 275.896L183.251 264.744H192.47L191.801 275.896Z" fill="#C6D2F2"/>
<path d="M193.58 270.915C189.937 274.706 182.651 273.071 181.312 270.32L186.219 159.396L209.341 162.816L193.58 270.915Z" fill="#2C1F9C"/>
<path d="M211.044 84.7995C216.419 84.1042 219.781 75.8493 218.554 66.3617C217.327 56.8742 211.974 49.7467 206.599 50.4421C201.224 51.1375 197.862 59.3923 199.09 68.8799C200.317 78.3675 205.669 85.4949 211.044 84.7995Z" fill="#FFC2B0"/>
<path d="M226.305 74.4924C224 82.4473 215.525 85.3468 210.469 80.1426C205.414 74.9384 203.258 64.307 205.563 56.352C207.867 48.397 213.741 46.1667 218.796 51.3709C223.852 56.5751 228.61 66.5374 226.305 74.4924Z" fill="#FFC2B0"/>
<path d="M207.037 97.4647L206.219 97.2417C203.319 96.5726 201.535 93.7474 202.13 90.848L205.773 74.6406C206.442 71.7411 209.267 69.9569 212.166 70.5516L212.984 70.7747C215.884 71.4438 217.668 74.2689 217.073 77.1684L215.884 93.3014C215.215 96.1265 209.862 98.1338 207.037 97.4647Z" fill="#FFC2B0"/>
<path d="M197.381 75.6821C197.381 75.6821 198.273 83.191 208.904 81.7041C216.562 80.6633 214.331 68.1733 221.915 66.9837C230.316 65.6455 231.803 55.2371 228.531 51.2968C225.26 47.2822 215.967 45.2005 209.276 48.1743C202.585 51.0738 192.251 50.9251 197.381 75.6821Z" fill="#4432DB"/>
<path d="M221.917 71.2936C221.397 73.2266 219.315 74.3418 217.382 73.8214C215.449 73.301 214.334 71.2193 214.854 69.2863C215.375 67.3533 217.456 66.2381 219.389 66.7586C221.397 67.3533 222.512 69.3607 221.917 71.2936Z" fill="#FFC2B0"/>
<path d="M185.179 157.982C187.93 143.113 184.956 131.292 185.179 115.457C185.179 86.9825 183.841 80.0684 198.859 84.3804L203.096 85.4956C205.104 86.016 207.111 86.8338 208.97 87.8003C228.82 98.06 234.098 101.183 233.206 113.003C233.281 132.556 230.381 154.414 230.009 164.079C225.995 177.61 189.714 167.647 185.179 157.982Z" fill="#FFCE43"/>
<path d="M216.634 82.7436L215.742 80.7363C215.742 80.7363 217.303 82.2976 220.203 81.9259C220.203 81.9259 218.493 82.8923 216.634 82.7436Z" fill="#F09A82"/>
<path d="M216.859 102.67C216.859 102.67 217.008 123.486 234.033 157.016C238.717 166.235 268.827 149.061 268.827 149.061L268.753 138.579C268.753 138.579 243.698 153.373 239.683 142.965C235.074 131.07 236.264 100.291 216.859 102.67Z" fill="#FFC2B0"/>
<path d="M218.788 117.838L224.364 146.163C225.553 148.319 245.701 140.141 244.288 136.796C244.065 136.201 236.333 103.043 225.702 96.8721C217.003 91.8909 214.773 105.199 218.788 117.838Z" fill="#FFCE43"/>
<path d="M276.108 146.386L272.912 148.691C270.458 150.475 267.038 149.955 265.254 147.501C263.47 145.048 263.99 141.628 266.444 139.844L269.64 137.539C272.094 135.755 275.514 136.275 277.298 138.729C279.082 141.182 278.562 144.602 276.108 146.386Z" fill="#FFC2B0"/>
<path d="M231.133 151.142L224.219 134.191L229.943 163.409L231.133 151.142Z" fill="#F2BC49"/>
<defs>
<linearGradient id="paint0_linear_937_887" x1="235.539" y1="82.3408" x2="348.013" y2="82.3408" gradientUnits="userSpaceOnUse">
<stop offset="0.0394089" stop-color="white"/>
<stop offset="0.3172" stop-color="#FCFDFE"/>
<stop offset="0.5068" stop-color="#F3F7FB"/>
<stop offset="0.6701" stop-color="#E4EDF7"/>
<stop offset="0.8186" stop-color="#CEDEF0"/>
<stop offset="0.9556" stop-color="#B3CBE8"/>
<stop offset="1" stop-color="#A8C4E5"/>
</linearGradient>
</defs>
</svg>
