<svg width="469" height="400" viewBox="0 0 469 400" fill="none" xmlns="http://www.w3.org/2000/svg">
<path d="M280.842 207.697C276.916 264.874 240.818 361.696 155.002 356.813C101.311 353.757 62.8334 313.921 43.4155 262.644C13.3266 183.187 93.778 170.783 160.476 123.932C210.151 89.0385 284.373 156.282 280.842 207.697Z" fill="#FAFAFA"/>
<path d="M286.574 271.346C277.136 272.781 272.503 273.126 262.664 272.093C261.978 268.419 258.603 249.19 258.603 249.19C258.603 249.19 254.714 267.902 254.256 272.38C245.848 275.307 230.861 272.15 230.861 272.15C230.861 272.15 229.889 254.299 229.488 247.755C228.058 223.417 238.984 213.717 238.984 213.717C238.984 213.717 247.678 212.339 259.347 212.454C271.016 212.569 278.68 213.487 278.68 213.487C278.68 213.487 288.347 227.034 287.832 239.776C287.375 252.519 287.832 262.277 286.574 271.346Z" fill="#2895F4"/>
<path opacity="0.5" d="M243.852 249.19C243.852 249.19 251.745 253.265 258.838 248.443C258.838 248.443 266.732 253.782 274.854 248.443" stroke="#0E538C" stroke-miterlimit="10"/>
<path opacity="0.5" d="M259.869 225.713C259.869 225.713 261.127 238.456 259.125 246.893" stroke="#0E538C" stroke-miterlimit="10"/>
<path opacity="0.5" d="M266.727 225.484L267.756 237.997C267.756 237.997 274.62 242.359 278.167 241.326C281.713 240.293 286.06 233.921 286.06 233.921L282.228 222.441C282.228 222.441 278.91 223.991 274.62 224.737C271.074 225.311 266.727 225.484 266.727 225.484Z" fill="#0E538C"/>
<path opacity="0.5" d="M252.255 225.999L251.226 238.512C251.226 238.512 244.362 242.875 240.815 241.842C237.269 240.808 232.922 234.437 232.922 234.437L236.754 222.957C236.754 222.957 240.072 224.507 244.362 225.253C247.908 225.827 252.255 225.999 252.255 225.999Z" fill="#0E538C"/>
<path d="M234.586 214.405C238.991 215.611 243.452 216.701 248.028 217.161C253.863 217.792 259.64 217.562 265.474 217.103C269.993 216.701 274.684 216.472 279.031 215.152C279.546 214.979 280.003 214.807 280.518 214.635C280.003 211.822 279.546 209.067 279.317 206.829C279.088 204.762 280.232 194.947 280.976 188.69C281.719 182.434 281.719 163.434 278.745 161.425C275.77 159.416 269.021 158.727 267.248 158.44C260.155 157.235 249.802 157.292 245.855 157.924C242.137 158.498 236.646 160.966 235.158 164.41C233.214 168.887 233.442 177.382 234.644 183.524C235.902 189.666 236.245 201.605 236.188 204.418C236.074 206.197 235.387 210.1 234.586 214.405Z" fill="#D2D2D2"/>
<path d="M250.367 191.732C250.367 191.732 263.066 209.699 270.158 210.502" stroke="#B7B7B7" stroke-miterlimit="10"/>
<path d="M295.39 195.004C308.946 198.391 323.475 194.832 334 192.191C333.428 202.122 337.604 209.354 337.146 210.674C336.746 211.937 324.219 218.136 315.696 218.653C307.173 219.169 295.047 214.979 294.36 213.659C294.074 212.855 295.79 203.499 295.39 195.004Z" fill="#E9BEAE"/>
<path d="M303.625 140.989L304.426 151.723L319.87 149.14L315.179 134.561L303.625 140.989Z" fill="#F9CBBA"/>
<path d="M329.248 124.746C326.96 117.399 331.193 102.131 313.976 98.9739C300.191 96.4483 292.983 108.387 292.983 108.387C292.983 108.387 286.119 110.97 284.804 115.907C281.486 128.707 287.893 129.912 286.291 135.48C284.689 141.048 287.607 146.673 292.526 147.534C297.445 148.395 301.335 145.583 301.335 145.583C301.335 145.583 304.767 146.731 308.885 146.099C311.001 145.812 313.289 145.009 315.406 143.401C319.295 144.607 325.073 144.148 329.019 140.474C334.511 135.365 331.479 132.036 329.248 124.746Z" fill="#0F528C"/>
<path d="M285.491 116.998C285.491 116.998 282.688 123.886 283.546 128.822C284.175 132.496 287.436 133.127 285.491 138.064C283.889 142.139 286.12 144.952 287.836 145.583" stroke="#0A4971" stroke-miterlimit="10"/>
<path d="M318.836 104.6C318.836 104.6 322.039 107.412 322.783 111.143C323.526 114.932 321.925 119.868 323.412 122.451C324.899 125.034 326.329 128.937 326.215 132.783C326.1 136.686 322.897 140.876 322.897 140.876" stroke="#0A4971" stroke-miterlimit="10"/>
<path d="M326.049 122.451C326.049 122.451 328.223 126.527 328.623 130.545C329.081 134.505 326.678 139.269 325.82 139.671" stroke="#0A4971" stroke-miterlimit="10"/>
<path d="M289.323 113.209C289.323 113.209 284.804 118.145 286.406 121.934C288.008 125.722 290.353 130.027 289.609 132.151C288.866 134.332 287.15 138.408 289.209 140.015" stroke="#0A4971" stroke-miterlimit="10"/>
<path d="M290.641 125.033C290.641 125.033 292.814 128.936 292.357 130.945C291.899 133.012 290.297 136.341 292.013 138.465C293.729 140.646 294.702 142.885 294.702 142.885" stroke="#0A4971" stroke-miterlimit="10"/>
<path d="M293.727 119.295C293.727 119.295 292.754 123.772 294.585 126.47C296.472 129.225 296.873 132.095 296.301 134.678C295.729 137.261 297.731 140.131 297.731 140.131" stroke="#0A4971" stroke-miterlimit="10"/>
<path d="M292.241 109.993C292.241 109.993 281.831 109.534 281.774 101.9C281.717 94.2657 289.839 93.6343 292.985 97.3653C295.845 100.752 295.216 107.009 295.216 107.009L292.241 109.993Z" fill="#0F528C"/>
<path d="M291.271 109.649C291.157 109.706 291.043 109.649 290.985 109.649C287.325 107.869 283.492 111.313 283.492 111.313C283.321 111.486 283.035 111.486 282.863 111.313C282.691 111.141 282.691 110.854 282.863 110.682C283.035 110.51 287.153 106.836 291.329 108.845C291.557 108.96 291.615 109.19 291.5 109.419C291.443 109.534 291.386 109.591 291.271 109.649Z" fill="#0F528C"/>
<path d="M284.403 114.701C284.288 114.701 284.174 114.701 284.117 114.701C283.888 114.586 283.831 114.356 283.888 114.127C284.002 113.897 286.347 108.846 290.981 109.133C291.209 109.133 291.381 109.362 291.381 109.592C291.381 109.822 291.152 109.994 290.923 109.994C286.862 109.764 284.689 114.471 284.689 114.528C284.631 114.586 284.517 114.701 284.403 114.701Z" fill="#0F528C"/>
<path d="M323.641 106.205C323.641 106.205 329.017 113.552 329.246 118.489C329.475 123.425 330.104 124.516 332.449 127.73C334.795 130.944 335.481 133.987 333.079 137.66" stroke="#0A4971" stroke-miterlimit="10"/>
<path d="M283.545 100.811C283.545 100.811 283.201 104.599 286.004 106.608C288.807 108.674 290.809 107.986 290.809 107.986" stroke="#0A4971" stroke-miterlimit="10"/>
<path d="M286.289 101.844C286.289 101.844 286.232 103.451 288.234 105.23C290.236 107.01 292.009 106.723 292.009 106.723" stroke="#0A4971" stroke-miterlimit="10"/>
<path d="M354.934 113.668C352.817 113.955 350.93 114.529 350.93 114.529C350.93 114.529 350.758 122.737 350.358 128.19C349.9 133.643 351.387 142.253 351.387 142.253C351.387 142.253 342.064 146.157 337.373 147.706C333.77 148.912 329.48 148.854 326.791 152.815C324.103 156.776 327.077 171.413 333.655 170.379C340.233 169.404 344.237 166.476 351.387 161.769C359.338 156.546 362.141 153.102 364.372 149.371C366.603 145.64 365.573 134.217 364.143 128.018C363.228 124.172 359.681 113.209 359.681 113.209C359.681 113.209 357.05 113.381 354.934 113.668Z" fill="#F9CBBA"/>
<path d="M351.841 116.48C354.129 117.284 358.705 115.275 359.792 114.414C360.936 113.496 361.279 111.659 361.679 110.339C362.08 109.018 361.679 104.828 361.622 102.934C361.565 100.982 360.478 95.9886 359.62 93.0612C358.762 89.9042 356.188 90.306 356.588 92.5446C356.932 94.5536 357.16 98.3994 357.16 98.3994C357.16 98.3994 355.673 96.333 354.358 96.333C353.042 96.333 352.298 97.3088 352.298 97.3088C352.298 97.3088 351.841 95.9886 350.354 96.2756C348.866 96.5626 348.924 98.342 348.924 98.342C348.924 98.342 346.064 90.4208 344.462 88.9858C342.86 87.5508 341.373 88.6988 342.288 90.88C343.204 93.0612 343.776 94.8406 344.519 97.194C345.606 100.695 346.006 104.197 346.006 104.197C346.006 104.197 343.204 101.499 342.06 101.269C340.916 101.04 338.628 101.04 338.513 102.417C338.342 103.795 342.346 106.321 342.86 106.952C343.833 108.043 344.691 109.305 346.578 112.577C347.436 113.897 349.553 115.677 351.841 116.48Z" fill="#F9CBBA"/>
<path d="M333.196 181.4C333.196 178.013 334.626 170.437 334.969 166.82C335.255 163.089 335.541 159.129 334.798 155.455C334.054 151.667 331.995 149.945 329.593 149.084C327.19 148.223 315.007 148.051 311.346 148.739C306.026 149.715 294.987 150.519 292.87 154.824C290.754 159.071 292.87 174.914 293.557 183.524C294.014 189.436 292.184 202.81 292.184 202.81C292.184 202.81 303.223 207.345 318.095 204.762C332.967 202.179 337.257 197.874 337.257 197.874C337.257 197.874 333.196 184.787 333.196 181.4Z" fill="#2895F4"/>
<path opacity="0.5" d="M327.301 168.428C327.301 168.428 321.523 173.594 318.949 179.621C316.375 185.648 313.344 193.856 313.344 193.856" stroke="#0E538C" stroke-miterlimit="10"/>
<path d="M317.352 274.962C301.336 275.421 289.839 270.313 289.839 270.313C289.839 270.313 289.782 248.902 290.182 238.398C290.468 231.166 293.614 216.242 293.614 216.242C293.614 216.242 293.614 214.348 293.728 213.659C293.9 212.683 294.072 211.707 294.072 211.707C294.072 211.707 301.393 212.798 316.437 211.248C331.48 209.756 336.228 205.795 336.228 205.795C336.228 205.795 336.857 206.312 337.601 207.287C338.344 208.263 338.802 209.526 338.802 209.526C338.802 209.526 342.692 212.281 345.266 218.71C347.897 225.081 348.354 235.528 348.354 242.129C348.354 248.73 347.897 269.279 347.897 269.279C347.897 269.279 334.626 274.503 317.352 274.962Z" fill="#6236FF"/>
<path d="M293.555 216.185C293.555 216.185 308.026 218.309 318.837 216.587C329.705 214.865 338.514 209.297 338.514 209.297" stroke="#EAA542" stroke-miterlimit="10"/>
<path d="M316.664 270.428C316.664 270.428 321.64 256.71 326.502 252.118C331.422 247.526 333.252 234.668 333.252 234.668" stroke="#403ACC" stroke-miterlimit="10"/>
<path d="M233.613 144.492C230.639 140.015 222.974 132.208 222.974 132.208C222.974 132.208 223.146 123.541 222.745 116.538C222.345 109.478 221.601 101.844 220.228 97.8832C222.116 97.0222 223.832 94.841 224.633 93.7504C225.72 92.3154 226.463 89.675 226.806 87.379C227.15 85.083 225.205 84.3942 225.376 83.4184C225.491 82.4426 228.637 74.9806 229.438 72.7994C230.238 70.6182 227.95 69.298 226.52 70.446C225.148 71.594 221.601 80.3188 221.601 80.3188C221.601 80.3188 222.288 71.9384 221.944 69.9868C221.601 68.0352 220.171 67.4038 218.856 68.4944C217.54 69.585 217.368 80.491 217.368 80.491C217.368 80.491 216.11 79.2856 214.451 80.204C212.735 81.1224 212.792 82.213 212.792 82.213C212.792 82.213 211.992 81.4669 210.504 83.5907C209.017 85.7145 210.161 94.6114 211.992 96.4482C212.335 96.7926 212.678 97.0222 213.021 97.2518C212.449 97.998 211.877 98.9738 211.477 100.179C210.218 103.681 208.502 109.822 207.301 116.366C205.986 123.369 206.329 132.84 207.072 137.317C207.816 141.794 217.025 156.431 222.516 162.171C227.779 167.682 235.615 170.092 239.333 165.902C244.596 159.76 236.588 148.969 233.613 144.492Z" fill="#F9CBBA"/>
<path d="M234.361 182.721C234.361 182.721 236.649 174.513 238.479 169.979C240.71 164.353 246.716 157.982 246.716 157.982C246.716 157.982 245.4 155.686 242.597 152.012C240.767 149.602 235.39 143.345 234.132 142.14C231.272 139.384 227.897 143.862 224.923 150.635C222.349 156.49 222.062 167.74 222.062 167.74C222.062 167.74 224.236 172.562 227.954 176.752C230.013 179.22 234.361 182.721 234.361 182.721Z" fill="#0E538E"/>
<path d="M204.151 277.833C195.456 278.062 185.446 277.201 185.446 277.201C185.446 277.201 176.123 277.603 168.629 277.201C161.136 276.799 154.444 274.216 154.444 274.216C154.444 274.216 154.444 263.712 154.043 259.235C153.643 254.758 151.812 249.133 151.812 240.867C151.812 232.601 153.7 224.623 155.073 220.777C156.446 216.931 215.247 215.955 217.192 222.442C217.535 223.59 218.908 230.822 219.423 237.48C219.823 243.048 219.423 248.329 219.423 248.329L222.397 272.322C222.397 272.322 213.417 277.546 204.151 277.833Z" fill="#6236FF"/>
<path d="M192.023 237.423L193.339 254.069C193.339 254.069 202.205 259.866 206.781 258.489C211.357 257.111 216.391 250.108 216.391 250.108L214.503 234.094C214.503 234.094 207.753 235.414 202.205 236.39C197.629 237.251 192.023 237.423 192.023 237.423Z" fill="#114572"/>
<path d="M155.758 237.824L157.359 254.528C157.359 254.528 164.166 261.703 168.857 261.129C173.547 260.555 179.038 254.413 179.038 254.413L178.409 238.226C178.409 238.226 171.602 238.398 165.939 238.513C161.363 238.57 155.758 237.824 155.758 237.824Z" fill="#114572"/>
<path d="M182.413 237.422C182.413 237.422 182.013 250.165 185.388 259.923C187.733 266.811 186.875 273.412 187.275 276.798" stroke="#114572" stroke-miterlimit="10"/>
<path d="M172.352 268.534C180.588 268.534 184.02 262.564 186.938 263.311C189.912 264.057 196.261 268.936 205.242 267.042" stroke="#114572" stroke-miterlimit="10"/>
<path d="M173.953 131.576L175.783 117.973L194.03 119.006L196.947 133.7C196.947 133.7 193.858 143.975 182.819 141.564C171.836 139.268 173.381 131.634 173.953 131.576Z" fill="#F9CBBA"/>
<path d="M204.322 103.623C203.75 101.844 199.574 101.385 199.574 101.385L197 112.98C197 112.98 200.26 112.578 201.805 110.913C203.292 109.306 205.008 105.862 204.322 103.623Z" fill="#F9CBBA"/>
<path d="M168.577 102.015C168.577 102.015 164.173 99.949 163.086 102.704C162.114 105.172 162.972 107.928 164.745 109.822C166.118 111.257 170.293 112.462 170.293 112.462L168.577 102.015Z" fill="#F9CBBA"/>
<path d="M204.268 89.4448C203.581 89.2152 201.865 88.6412 201.865 88.6412C201.865 88.6412 205.354 85.5416 205.755 84.2214C206.212 82.9012 205.183 80.8922 200.035 80.5478C196.202 80.3182 191.855 80.72 191.855 80.72C191.855 80.72 195.23 77.85 194.772 75.8984C194.315 74.0042 192.141 74.7504 188.08 76.128C182.703 77.9648 177.784 78.6536 177.784 78.6536C177.784 78.6536 169.604 80.0886 167.831 83.4752C166.058 86.8618 167.202 89.904 167.202 89.904C167.202 89.904 164.342 93.061 164.8 96.8494C165.257 100.638 165.486 104.024 167.145 108.329C168.804 112.577 170.52 115.332 172.064 116.825C173.551 118.317 175.324 123.598 175.324 123.598C175.324 123.598 179.557 124 185.048 124C190.54 124 194.258 121.474 194.258 121.474C194.258 121.474 195.974 116.595 196.717 115.275C197.461 113.955 199.863 108.387 200.55 106.091C201.236 103.737 201.751 99.1454 202.437 98.1122C203.124 97.1364 204.153 96.2754 204.954 95.5866C205.755 94.8978 207.128 93.6924 207.07 92.2574C207.07 90.478 205.583 89.904 204.268 89.4448Z" fill="#1E0F00"/>
<path d="M171.548 89.3868C171.548 89.3868 168.974 83.1876 175.78 82.6136C184.761 81.8674 190.481 80.375 190.481 80.375" fill="#1E0F00"/>
<path d="M173.555 90.1336C173.555 90.1336 174.298 86.1156 181.048 87.3784C187.797 88.6412 198.951 88.6412 198.951 88.6412" fill="#1E0F00"/>
<path d="M176.297 90.8789C176.297 90.8789 179.786 92.1417 186.478 93.6341C193.228 95.1265 197.461 93.4045 197.461 93.4045" fill="#1E0F00"/>
<path d="M171.32 92.6016C171.32 92.6016 167.087 95.5864 168.575 101.958C170.062 108.329 173.036 112.347 173.036 112.347" fill="#1E0F00"/>
<path d="M173.319 94.1504C173.319 94.1504 170.345 99.3738 173.548 104.655Z" fill="#1E0F00"/>
<path d="M196.201 129.855C196.201 129.855 217.879 132.208 220.854 140.13C223.828 147.993 221.254 163.491 219.71 168.485C218.165 173.479 217.25 191.503 217.422 200.17C217.593 206.886 220.339 228.239 219.996 233.003C219.71 237.767 218.966 243.048 210.329 243.794C201.749 244.54 190.137 241.154 186.82 239.317C183.445 237.423 176.352 236.045 171.49 235.184C168.344 234.667 165.713 235.356 159.707 235.012C153.758 234.61 151.299 233.462 150.727 232.773C149.869 231.683 150.155 196.669 149.983 190.297C149.811 183.926 144.949 158.038 145.979 148.453C146.551 143.172 147.867 136.686 151.241 133.988C155.932 130.314 173.893 129.74 173.893 129.74C173.893 129.74 177.496 131.52 183.617 131.52C189.966 131.52 196.201 129.855 196.201 129.855Z" fill="#0E538E"/>
<path d="M268.726 177.841C266.495 186.853 250.365 191.732 245.731 192.536C241.098 193.339 234.749 187.829 230.059 183.696C225.368 179.563 217.875 171.986 217.875 171.986L229.601 149.83C229.601 149.83 234.52 154.422 239.039 159.301C243.615 164.18 250.079 171.24 250.079 171.24C250.079 171.24 270.957 168.829 268.726 177.841Z" fill="#F9CBBA"/>
<path d="M223.254 179.851C221.137 180.941 216.447 174.455 212.386 173.824C208.325 173.192 201.289 170.265 201.289 170.265C201.289 170.265 204.607 132.209 211.528 133.701C220.737 135.71 234.751 151.265 236.353 154.652C237.497 157.063 234.179 160.966 231.777 166.247C229.317 171.528 225.37 178.76 223.254 179.851Z" fill="#0E538E"/>
<path d="M168.574 133.988C165.371 129.626 157.992 128.076 154.045 123.14C148.668 116.309 143.006 108.388 143.006 108.388C143.006 108.388 143.578 99.0892 142.834 91.7994C142.09 84.5096 140.946 69.2986 140.946 69.2986L130.307 64.5918C130.307 64.5918 123.558 81.8118 122.299 90.8236C120.984 99.8354 118.181 105.633 121.727 116.309C125.274 126.986 139.917 155.686 147.181 156.604C154.503 157.522 171.777 138.408 168.574 133.988Z" fill="#F9CBBA"/>
<path d="M156.107 54.2589C156.221 53.3405 155.077 51.5037 152.56 52.1351C150.615 52.6517 147.755 56.8993 147.355 56.0957C146.84 55.0625 151.416 44.9027 152.446 40.4255C152.961 38.1869 150.673 36.6945 148.899 39.3349C147.355 41.5735 144.323 49.4373 143.923 49.6095C143.523 49.7817 146.84 37.9573 146.726 35.5465C146.611 33.1357 144.095 32.4469 143.122 34.1115C142.15 35.7761 139.919 48.3467 139.118 48.0597C138.317 47.7727 139.862 37.0389 139.347 34.8577C138.832 32.6191 136.601 32.2173 135.629 34.6855C134.714 37.1537 134.199 48.8633 133.455 48.8059C132.712 48.7485 132.883 42.2623 132.083 39.2201C131.167 35.7187 128.822 37.4981 128.479 39.3923C128.193 41.2865 128.708 47.7727 128.536 52.2499C128.365 56.7271 128.307 59.1379 128.708 62.1227C128.994 64.4187 130.367 66.7721 131.625 67.6905C132.941 68.6089 139.347 71.0197 141.521 69.9291C143.694 68.8385 146.955 66.9443 147.927 64.8205C148.899 62.6967 151.988 59.6545 153.189 58.2195C154.677 56.4975 156.049 54.7755 156.107 54.2589Z" fill="#F9CBBA"/>
<path d="M165.2 129.108C162.855 127.73 160.681 124.803 158.679 123.425C156.277 121.761 154.504 120.842 154.504 120.842C154.504 120.842 152.616 118.03 151.872 117.283C151.129 116.537 149.241 115.217 148.154 115.791C147.01 116.365 141.233 126.123 138.259 134.733C135.856 141.736 133.797 157.234 134.884 159.874C135.456 161.194 140.833 162.515 143.121 164.351C145.352 166.246 146.095 169.23 149.47 170.321C152.845 171.469 173.38 145.582 173.38 145.582C173.38 145.582 167.831 130.6 165.2 129.108Z" fill="#0E538E"/>
<path d="M154.392 121.244C154.392 121.244 142.837 136.226 142.094 153.101" stroke="#403ACC" stroke-miterlimit="10"/>
<path d="M162.231 128.018C162.231 128.018 149.762 133.126 147.359 143.917" stroke="#403ACC" stroke-miterlimit="10"/>
<path d="M166.977 175.314C166.977 175.314 176.014 209.754 194.375 216.815" stroke="#403ACC" stroke-miterlimit="10"/>
<path d="M148.039 169.231C148.039 169.231 162.625 159.875 168.574 137.719" stroke="#403ACC" stroke-miterlimit="10"/>
<path d="M208.961 146.385C208.961 146.385 211.192 166.991 217.198 172.444" stroke="#403ACC" stroke-miterlimit="10"/>
<path d="M165.203 226.572C165.203 226.572 167.606 227.433 171.209 229.155C174.813 230.877 179.389 234.436 186.081 237.823" stroke="#403ACC" stroke-miterlimit="10"/>
<path d="M311.634 219.801C311.863 215.726 314.38 214.406 316.496 213.602C318.613 212.856 323.017 211.823 323.99 211.593C325.591 211.134 331.254 207.69 331.998 210.502C332.798 213.315 326.506 215.094 327.078 215.726C327.708 216.357 335.43 215.037 339.09 215.381C340.921 215.554 341.493 216.415 341.55 217.333C341.607 220.031 329.424 219.399 329.71 220.146C329.824 220.49 332.341 221.179 334.972 221.179C337.546 221.179 340.349 220.49 341.207 220.777C342.923 221.466 343.094 223.647 341.092 224.164C340.234 224.393 337.775 225.082 335.315 225.082C331.94 225.082 328.68 224.565 328.68 224.565C328.68 224.565 331.426 225.599 333.942 226.23C336.116 226.747 338.404 226.345 338.919 226.689C340.635 227.722 339.548 229.674 338.118 230.076C337.489 230.248 335.258 230.707 333.084 230.133C330.224 229.387 327.021 228.067 326.85 228.354C326.621 228.928 331.483 230.65 332.57 231.568C333.656 232.487 332.798 234.036 331.311 234.094C329.538 234.151 327.307 233.635 324.218 232.314C321.13 231.052 318.613 230.076 316.554 228.813C312.721 226.517 311.406 223.819 311.634 219.801Z" fill="#F9CBBA"/>
<path d="M308.369 207.115C305.451 204.59 297.1 199.022 295.785 198.161C295.613 197.529 294.869 194.717 294.869 194.717C294.869 194.717 291.838 196.783 288.463 197.702C285.088 198.62 280.055 199.768 280.055 199.768C280.055 199.768 282.743 208.665 285.374 210.961C288.234 213.429 295.041 218.193 299.217 219.973C305.737 222.728 312.659 223.474 312.659 223.474L316.091 214.118C316.091 214.118 312.716 210.904 308.369 207.115Z" fill="#F9CBBA"/>
<path d="M292.583 176.12C290.696 171.068 287.607 165.845 284.861 163.664C282.116 161.483 277.883 161.023 277.883 161.023C277.883 161.023 279.885 176.349 279.885 181.171C279.885 185.992 278.912 200.285 278.912 200.285C278.912 200.285 283.66 199.367 288.865 198.276C294.07 197.185 296.072 194.028 296.072 194.028C296.072 194.028 295.443 183.639 292.583 176.12Z" fill="#0E538E"/>
<path d="M294.417 152.986C291.5 152.757 285.036 159.3 282.176 167.681C279.602 175.143 275.77 180.538 275.77 180.538C275.77 180.538 266.275 186.967 263.186 189.722C258.839 193.568 255.578 196.84 255.578 196.84L259.125 206.139C259.125 206.139 265.703 203.843 272.223 201.03C276.399 199.193 283.721 194.774 286.009 192.879C288.297 190.985 292.758 184.04 294.131 181.285C295.504 178.529 298.936 175.717 300.08 167.91C301.281 160.219 297.391 153.216 294.417 152.986Z" fill="#F9CBBA"/>
<path d="M259.808 201.548C259.522 197.415 256.948 196.037 254.832 195.291C252.715 194.545 248.196 193.569 247.281 193.339C245.68 192.937 239.902 189.436 239.159 192.306C238.415 195.234 244.764 196.898 244.192 197.587C243.62 198.218 238.472 197.702 236.642 196.726C234.754 195.808 234.24 197.472 234.411 198.792C234.583 200.112 235.898 201.203 237.214 201.777C238.53 202.351 241.847 201.662 241.676 202.064C241.561 202.466 240.76 202.696 238.701 202.868C236.642 203.04 235.898 201.72 234.869 202.351C233.839 203.04 233.668 205.91 235.727 206.427C236.585 206.656 237.614 206.828 238.93 206.828C240.246 206.828 242.877 206.599 242.877 206.599C242.877 206.599 240.76 207.46 238.987 207.919C237.214 208.378 234.869 206.828 234.468 208.321C234.068 209.813 234.869 211.535 236.127 211.88C237.443 212.281 239.33 212.052 240.417 211.88C241.561 211.707 244.536 210.1 244.707 210.445C244.993 211.019 240.074 212.798 238.987 213.774C237.9 214.75 238.758 216.242 240.246 216.299C242.019 216.357 244.25 215.783 247.396 214.405C250.484 213.085 253.573 210.789 255.632 209.469C259.35 207.173 260.037 205.68 259.808 201.548Z" fill="#F9CBBA"/>
<path d="M416.136 236.333C416.136 227.952 412.533 218.022 412.533 218.022C412.533 218.022 354.875 213.774 353.216 220.031C352.644 222.212 351.729 231.683 351.271 241.269C350.814 250.855 353.102 271.748 353.102 271.748C353.102 271.748 360.652 272.954 369.404 273.643C378.155 274.331 384.619 271.117 387.193 271.347C388.795 271.519 394 272.322 400.635 272.15C404.582 272.035 415.507 269.854 415.507 269.854C415.507 269.854 415.278 263.253 415.164 255.389C414.878 246.894 416.136 244.713 416.136 236.333Z" fill="#0E538E"/>
<g opacity="0.2">
<path d="M375.638 237.538C370.547 237.079 364.369 236.447 364.369 236.447L362.367 251.027C362.367 251.027 368.087 258.259 372.263 259.12C376.438 259.981 383.417 252.749 383.417 252.749L384.904 237.653C384.961 237.653 379.813 237.882 375.638 237.538Z" fill="#1E0F00"/>
<path d="M414.363 233.807L413.105 248.903C413.105 248.903 408.014 256.594 404.754 256.824C402.18 256.996 395.773 251.543 395.773 251.543L397.146 238.284C397.146 238.284 402.294 237.021 405.726 236.275C409.158 235.586 414.363 233.807 414.363 233.807Z" fill="#1E0F00"/>
</g>
<path opacity="0.2" d="M392.455 245.057C392.455 245.057 391.711 254.068 389.709 257.283C387.707 260.555 387.078 270.6 387.078 270.6" stroke="#1E0F00" stroke-miterlimit="10"/>
<path opacity="0.2" d="M375.008 265.032C375.008 265.032 380.213 265.261 382.501 264.515C384.732 263.769 387.477 261.76 388.736 261.76C389.994 261.76 394.685 265.491 402.178 264.515" stroke="#1E0F00" stroke-miterlimit="10"/>
<path d="M446.391 100.065C445.819 90.8807 441.357 80.7209 441.357 80.7209C441.357 80.7209 441.758 77.1047 441.7 74.9235C441.643 71.2499 438.669 64.7637 437.754 63.3861C436.896 62.0085 434.207 59.7699 433.178 59.9421C432.148 60.1143 432.034 60.8031 432.034 60.8031C432.034 60.8031 429.86 59.2533 428.487 59.9421C427.229 60.5161 426.714 62.1233 426.714 62.1233C426.714 62.1233 425.284 61.1475 424.197 61.7215C422.767 62.5251 422.596 64.6489 422.596 64.6489C422.596 64.6489 421.394 64.4767 420.536 64.9933C419.678 65.5099 418.82 67.1745 418.992 68.0355C419.164 68.8965 419.621 69.9297 419.621 69.9297C419.621 69.9297 419.106 72.1109 419.507 73.3737C419.907 74.6365 419.507 75.9567 419.907 76.9325C421.166 80.3765 424.083 81.1227 425.456 82.9021C426.828 84.6815 431.004 85.3129 431.004 85.3129C431.004 85.3129 430.718 93.9803 430.26 97.9983C429.517 104.083 428.602 113.267 428.602 113.267C428.602 113.267 424.884 117.399 422.824 120.269C420.765 123.139 418.592 126.756 415.674 129.109C410.069 133.701 401.66 134.103 404.177 145.64C405.493 151.61 411.442 157.809 417.448 157.694C423.454 157.58 432.606 145.525 435.408 141.45C438.211 137.375 443.016 126.469 444.274 122.68C445.59 118.892 446.848 108.101 446.391 100.065Z" fill="#F9CBBA"/>
<path d="M422.938 64.6484C422.938 64.6484 426.083 65.2798 426.884 68.2072" stroke="#F9CBBA" stroke-miterlimit="10"/>
<path d="M426.773 61.8359C426.773 61.8359 430.549 63.6153 430.72 65.9113" stroke="#F9CBBA" stroke-miterlimit="10"/>
<path d="M432.32 60.6875C432.32 60.6875 435.466 62.6965 435.867 65.1073" stroke="#F9CBBA" stroke-miterlimit="10"/>
<path d="M425.973 74.4059C425.973 74.4059 425.115 73.5449 423.57 72.5117" stroke="#F9CBBA" stroke-miterlimit="10"/>
<path d="M424.199 74.4065C424.084 73.3733 423.798 72.7419 423.455 71.9957C423.054 71.2495 422.654 70.2163 422.197 69.6997C421.682 69.1831 421.052 69.1831 420.538 69.4701C420.023 69.6997 419.68 70.5033 419.68 70.5033" stroke="#F9CBBA" stroke-miterlimit="10"/>
<path d="M391.481 138.81C392.625 135.767 399.032 134.792 402.292 134.16C405.552 133.471 407.211 132.036 409.328 131.175C410.815 130.544 413.503 126.641 416.935 127.043C420.367 127.444 425.286 132.783 426.03 140.015C426.774 147.247 427.174 152.987 426.03 157.178C424.886 161.368 422.598 164.812 417.278 164.812C411.673 164.812 401.434 169.232 401.434 169.232C401.434 169.232 390.337 141.852 391.481 138.81Z" fill="#6236FF"/>
<path d="M392.68 124.287C392.68 124.287 396.169 123.771 397.027 122.68C398.686 120.556 399.372 116.194 398.114 113.783C396.741 111.085 392.508 113.553 392.508 113.553C392.508 113.553 370.086 98.7441 366.94 100.122C363.737 101.557 363.508 105.919 363.565 107.871C363.622 109.765 364.48 112.635 364.48 112.635C364.48 112.635 362.707 112.176 362.021 113.324C361.334 114.472 361.849 116.825 362.135 117.916C362.593 119.58 363.165 122.565 364.252 123.197C365.338 123.828 366.082 123.426 366.082 123.426C366.082 123.426 367.398 129.683 368.256 131.749C369.056 133.816 371.516 133.356 371.516 133.356L371.802 143.459L392.852 142.827C392.909 141.794 389.82 129.396 389.82 129.396L392.68 124.287Z" fill="#F9CBBA"/>
<path d="M395.311 97.7104C395.311 97.7104 396.169 94.5534 394.11 91.2816C391.994 88.0672 383.585 87.321 383.585 87.321L374.49 86.0582C374.49 86.0582 372.431 84.451 369.743 84.9676C367.054 85.5416 368.027 88.5264 368.027 88.5264C368.027 88.5264 365.338 88.3542 364.538 89.7892C364.023 90.7076 364.137 92.6018 364.652 94.209C363.508 94.7256 362.593 96.0458 362.536 97.5382C362.478 99.1454 362.993 101.212 364.08 102.36C364.08 102.36 363.165 106.665 363.336 108.674C363.737 112.921 366.997 118.317 368.484 121.646C369.914 124.975 370.658 125.033 372.431 126.697C374.204 128.362 374.834 129.453 375.463 132.323C376.092 135.193 381.755 134.045 385.358 133.528C388.962 133.011 390.278 132.61 390.621 131.863C390.964 131.117 391.479 127.042 392.852 125.377C394.224 123.713 395.712 120.785 397.027 116.308C398.343 111.831 398.228 108.387 398.343 104.484C398.514 100.638 395.311 97.7104 395.311 97.7104Z" fill="#1E0F00"/>
<path d="M389.707 103.852C389.707 103.852 390.68 107.87 389.479 113.093C388.22 118.316 387.477 124.343 387.477 124.343" fill="#1E0F00"/>
<path d="M392.461 100.867C392.461 100.867 396.465 104.369 394.692 110.855C392.976 117.341 390.688 122.622 390.688 122.622" fill="#1E0F00"/>
<path d="M370.32 100.638C370.32 100.638 374.553 101.901 379.015 100.638C383.476 99.3751 387.251 100.121 387.251 100.121" fill="#1E0F00"/>
<path d="M369.062 91.3965C369.062 91.3965 377.299 94.3813 381.761 93.9221C386.223 93.4055 389.483 98.9159 389.483 98.9159" fill="#1E0F00"/>
<path d="M372.555 86.8613C372.555 86.8613 375.815 88.5833 380.792 89.0999C385.768 89.6165 391.03 90.3627 392.232 93.5771C393.49 96.8489 392.46 98.3413 392.46 98.3413" fill="#1E0F00"/>
<path d="M284.002 161.655C284.746 162.401 286.576 160.851 288.75 161.081C290.523 161.253 292.582 164.869 294.87 165.845C297.158 166.821 300.133 167.739 300.133 167.739C300.133 167.739 306.596 179.965 309.571 183.754C313.746 188.977 319.81 193.627 323.585 193.856C327.36 194.028 336.741 190.01 343.033 185.648C349.382 181.343 356.418 173.938 356.418 173.938L349.325 155.628C349.325 155.628 343.262 159.703 338.457 163.492C333.824 167.165 327.074 174.685 327.074 174.685C327.074 174.685 321.411 170.093 318.208 167.452C315.005 164.754 308.827 161.999 308.827 161.999C308.827 161.999 307.969 157.178 307.798 155.8C307.683 154.422 306.768 152.126 305.624 150.462C304.48 148.797 302.078 148.281 300.705 149.314C299.904 149.888 301.391 150.634 301.906 151.725C302.249 152.471 302.306 153.274 302.306 153.274C302.306 153.274 299.961 150.117 297.845 149.543C296.472 149.142 294.87 148.682 293.726 149.658C293.097 150.175 293.04 151.093 293.04 151.093C293.04 151.093 290.752 151.438 290.237 152.299C289.78 153.16 289.78 153.848 289.78 153.848C289.78 153.848 288.178 153.906 287.549 154.767C286.92 155.628 286.519 157.465 286.519 157.465C286.519 157.465 284.975 157.809 284.231 158.67C283.144 159.933 283.259 160.966 284.002 161.655Z" fill="#F9CBBA"/>
<path d="M287.031 157.35C287.031 157.35 290.578 155.8 293.666 159.244" stroke="#F9CBBA" stroke-miterlimit="10"/>
<path d="M290.062 153.734C290.062 153.734 293.151 153.389 294.581 155.169" stroke="#F9CBBA" stroke-miterlimit="10"/>
<path d="M293.32 150.978C293.32 150.978 295.608 150.749 297.096 152.528" stroke="#F9CBBA" stroke-miterlimit="10"/>
<path d="M368.888 139.555C368.888 139.555 353.33 141.105 348.811 147.936C344.292 154.766 348.697 170.666 350.241 175.545C351.786 180.424 351.671 198.448 351.557 206.943C351.5 213.429 347.724 230.19 349.269 232.888C350.813 235.643 372.949 240.981 379.699 241.268C395.429 241.842 414.419 236.045 416.879 232.83C419.339 229.616 412.417 203.671 412.532 197.529C412.646 191.33 412.646 160.851 411.502 151.552C410.415 142.253 407.384 135.423 392.512 138.063C384.332 139.498 368.888 139.555 368.888 139.555Z" fill="#6236FF"/>
<path d="M354.587 144.779C354.587 144.779 350.983 145.583 348.981 147.19C345.778 149.716 342.518 153.734 340.63 156.546C337.141 161.712 332.336 164.755 332.336 164.755C332.336 164.755 333.251 171.126 336.683 177.612C340.058 184.156 344.92 187.37 344.92 187.37C344.92 187.37 354.129 184.041 357.676 178.129C361.508 171.7 362.881 163.721 362.881 163.721L354.587 144.779Z" fill="#6236FF"/>
<path d="M399.203 139.611C399.203 139.611 406.41 143.859 408.641 150.632C410.872 157.405 411.158 164.351 411.158 164.351" stroke="#403CCD" stroke-miterlimit="10"/>
<path d="M407.156 133.872C407.156 133.872 415.107 131.863 418.882 138.349" stroke="#4039CB" stroke-miterlimit="10"/>
<path d="M405.383 134.389C405.383 134.389 412.876 134.16 416.594 142.884" stroke="#403BCC" stroke-miterlimit="10"/>
<path d="M365.801 156.373C365.801 156.373 366.545 164.639 364.085 169.862C361.569 175.085 352.359 183.351 352.359 183.351" stroke="#403BCC" stroke-miterlimit="10"/>
<path d="M395.719 172.1C395.719 172.1 388.74 183.867 386.738 194.313C384.736 204.818 379.531 223.53 379.531 223.53" stroke="#403BCC" stroke-miterlimit="10"/>
<path d="M286.634 158.898C285.147 155.913 281.429 152.929 280.857 151.034C280.285 149.14 281.6 145.581 280.857 140.932C280.113 136.225 277.882 133.068 277.482 131.576C277.082 130.083 276.338 123.54 275.251 120.899C274.107 118.259 272.62 115.274 271.133 113.208C269.646 111.141 267.186 109.247 261.809 107.755C256.375 106.262 251.17 109.993 251.17 109.993C251.17 109.993 246.136 108.845 242.762 112.232C239.387 115.619 237.957 118.833 237.556 121.646C237.156 124.401 236.984 126.697 236.241 128.763C235.497 130.83 234.811 133.585 233.095 136.57C230.006 141.965 232.58 148.681 233.038 152.01C233.552 155.282 229.491 158.209 227.604 161.194C225.716 164.179 226.631 169.976 229.377 172.33C232.122 174.683 235.44 173.191 236.584 175.028C237.728 176.922 240.13 183.81 246.651 184.958C253.172 186.106 255.803 181.399 258.434 181.743C261.066 182.145 263.296 186.221 269.646 183.81C275.995 181.399 275.022 175.429 276.91 173.88C278.798 172.33 281.829 172.961 284.975 170.952C288.121 169.058 288.121 161.94 286.634 158.898Z" fill="#0F528C"/>
<path d="M269.938 117.742C269.938 117.742 274.17 125.262 273.655 130.715C273.141 136.225 274.628 139.956 275.886 143.687C277.145 147.418 275.143 153.158 277.602 155.913C280.119 158.668 282.064 165.384 280.863 168.139" stroke="#0A4971" stroke-miterlimit="10"/>
<path d="M278.398 143.229C278.398 143.229 279.371 147.476 278.913 150.748C278.398 154.02 280.915 154.996 282.631 157.98C284.347 160.965 284.862 165.5 284.118 166.705" stroke="#0A4971" stroke-miterlimit="10"/>
<path d="M237.559 136.973C237.559 136.973 234.814 141.45 236.301 145.238C237.788 148.969 238.818 156.259 236.53 158.498C234.299 160.736 228.808 164.467 231.039 168.485" stroke="#0A4971" stroke-miterlimit="10"/>
<path d="M240.076 157.98C240.076 157.98 236.586 163.72 238.588 167.222C240.59 170.723 241.334 171.699 241.334 175.2C241.334 178.702 243.851 180.94 243.851 180.94" stroke="#0A4971" stroke-miterlimit="10"/>
<path d="M251 112.52C251 112.52 243.793 121.991 247.282 129.28C250.771 136.513 249.513 140.301 248.54 144.778C247.568 149.256 246.538 153.79 248.311 158.267C250.027 162.745 250.313 165.5 249.284 170.494C248.311 175.487 250.027 178.759 252.029 180.711" stroke="#0A4971" stroke-miterlimit="10"/>
<path d="M249.798 120.729C249.798 120.729 248.311 125.952 251.514 132.955C254.774 139.958 254.259 146.214 253.23 149.199C252.257 152.184 252.715 154.939 254.946 158.44C257.177 161.942 257.463 165.673 255.918 169.92C254.431 174.168 255.403 176.407 257.405 178.186" stroke="#0A4971" stroke-miterlimit="10"/>
<path d="M269.188 112.232C269.188 112.232 277.138 118.719 278.626 124.746C280.113 130.715 276.109 133.011 278.397 137.488C280.628 141.966 283.144 144.491 282.63 149.485C282.115 154.479 283.373 154.995 285.604 158.956C287.835 162.974 289.837 164.179 288.578 169.173" stroke="#0A4971" stroke-miterlimit="10"/>
<path d="M243.792 114.758C243.792 114.758 235.098 119.235 235.098 125.779C235.098 132.265 237.1 133.011 235.842 138.751C234.583 144.491 231.094 146.27 230.122 150.518C229.149 154.766 231.38 161.252 229.893 163.49C228.406 165.729 224.916 171.756 229.664 175.487" stroke="#0A4971" stroke-miterlimit="10"/>
</svg>
