<svg width="450" height="356" viewBox="0 0 450 356" fill="none" xmlns="http://www.w3.org/2000/svg">
<path d="M393.985 315.524C310.16 350.209 133.771 385.9 40.1804 315.524C-18.375 271.492 -8.16953 215.077 40.1804 166.02C115.101 90.0055 226.375 144.768 369.299 166.021C475.747 181.849 469.363 284.334 393.985 315.524Z" fill="#FAFAFA"/>
<path d="M443.238 274.979C443.238 280.109 439.08 284.268 433.95 284.268H83.2881C78.1582 284.268 74 280.109 74 274.979C74 269.85 78.1582 265.691 83.2881 265.691H433.95C439.08 265.691 443.238 269.85 443.238 274.979Z" fill="#D3D3D3"/>
<path d="M323.127 33.943C323.193 32.8337 325.112 30.5741 324.819 30.2913C324.609 30.0879 323.862 30.7861 323.458 31.1948C323.411 31.2425 323.34 31.2582 323.278 31.2355C323.215 31.2124 323.172 31.1553 323.166 31.0884C323.078 29.9983 322.806 26.9482 322.501 26.9196C322.193 26.8907 322.039 28.8202 321.996 29.4679C321.995 29.4875 321.979 29.5035 321.96 29.5062C321.94 29.509 321.921 29.4973 321.915 29.4789C321.678 28.7932 320.878 26.5809 320.535 26.8649C320.209 27.1351 320.715 29.254 320.925 30.0695C320.93 30.0894 320.919 30.1106 320.9 30.1184C320.881 30.1262 320.859 30.1184 320.849 30.1004C320.435 29.3701 319.346 27.5181 319.052 27.7547C318.753 27.996 319.597 30.003 319.909 30.7153C319.917 30.7341 319.911 30.7556 319.893 30.7669C319.876 30.7779 319.853 30.7747 319.84 30.7595C319.368 30.2267 318.134 28.8691 318.141 29.268C318.149 29.7613 320.318 33.8624 321.028 34.5489C321.739 35.2349 323.127 33.943 323.127 33.943Z" fill="#FA968C"/>
<path d="M342.592 47.6711C341.122 50.9285 339.006 54.6283 336.448 57.1676C331.47 62.0941 325.082 60.8068 322.853 49.2861C322.465 47.5498 322.194 45.8218 321.967 44.0964C321.503 40.6501 321.324 37.2139 321.165 33.7883C321.141 33.2696 321.542 32.83 322.06 32.8057C322.53 32.7838 322.935 33.1104 323.025 33.5575L323.029 33.5767C323.704 36.9022 324.382 40.2214 325.252 43.4503C325.699 45.0586 326.163 46.6541 326.702 48.1921C327.171 49.6483 329.052 54.173 330.515 54.6162C330.563 54.608 330.611 54.671 330.639 54.644C330.666 54.619 330.679 54.617 330.696 54.6315C330.724 54.5955 330.743 54.5794 330.766 54.5841C330.847 54.5196 330.941 54.5083 331.114 54.3674C331.433 54.1586 331.869 53.7459 332.284 53.2316C333.133 52.2252 333.923 50.8953 334.619 49.5149C335.825 47.1736 336.525 45.4901 336.525 45.4901C338.01 41.4171 344.172 43.3673 342.684 47.4458C342.657 47.5197 342.624 47.5999 342.592 47.6711Z" fill="#FA968C"/>
<path d="M332.719 52.0546C332.724 52.0464 332.73 52.0389 332.736 52.0307C333.487 50.9308 334.184 49.7816 334.827 48.6035C335.463 47.4536 336.113 46.1757 336.567 45.0883L336.589 45.034C336.626 44.9471 336.667 44.8611 336.712 44.7762C337.556 43.1717 339.542 42.5553 341.147 43.4002C342.752 44.245 343.368 46.2305 342.523 47.8353C341.73 49.3404 340.964 50.5714 340.087 51.8668C339.494 52.7219 338.864 53.5511 338.214 54.3682C337.729 53.8515 333.875 52.4692 332.719 52.0546Z" fill="#2A94F4"/>
<path d="M335.938 74.8597C338.795 78.1374 355.285 79.5057 355.285 79.5057C356.502 78.0933 354.723 71.673 354.294 65.1566C353.83 58.1106 353.563 50.3335 353.441 46.1315C353.39 44.3971 351.971 43.0215 350.236 43.0215H339.772C338.159 43.0215 336.816 44.252 336.683 45.8596C336.409 49.1867 335.931 54.9697 335.46 60.6385C334.981 66.3911 333.469 72.0262 335.938 74.8597Z" fill="#FAB9AF"/>
<path d="M345.447 129.639L345.423 136.125L345.986 139.283C346.084 139.83 345.679 140.336 345.124 140.353C342.469 140.435 335.67 140.614 335.488 140.319C334.633 138.937 338.497 138.404 341.324 137.31C344.151 136.216 342.2 125.482 342.2 125.482L345.447 129.639Z" fill="#FA968C"/>
<path d="M341.324 137.311C341.339 137.305 341.352 137.295 341.367 137.289C342.041 137.541 342.799 137.688 343.653 137.688C344.386 137.688 345.05 137.582 345.649 137.395L345.986 139.285C346.084 139.831 345.679 140.338 345.124 140.354C342.469 140.436 335.67 140.615 335.488 140.32C334.634 138.938 338.497 138.405 341.324 137.311Z" fill="#F57A2F"/>
<path d="M335.934 77.2232C335.832 81.7311 337.605 110.331 341.107 110.41C344.609 110.489 348.514 82.0186 348.616 77.5107C348.718 73.0028 345.962 69.2842 342.46 69.2044C338.958 69.1254 336.036 72.7153 335.934 77.2232Z" fill="#0091C8"/>
<path d="M345.944 104.469C346.292 106.95 346.348 122.849 345.789 130.925H342.601C340.889 123.091 339.059 107.907 338.72 105.481C338.715 105.45 338.713 105.419 338.709 105.389C336.804 96.9599 335.859 80.5468 335.934 77.2228C336.036 72.7149 338.958 69.125 342.46 69.2044C345.963 69.2838 348.719 73.0028 348.616 77.5107C348.552 80.341 345.78 103.294 345.944 104.469Z" fill="#0B4870"/>
<path d="M353.095 129.639L353.072 136.125L353.635 139.283C353.732 139.83 353.328 140.336 352.772 140.353C350.117 140.435 343.318 140.614 343.136 140.319C342.281 138.937 346.146 138.404 348.972 137.31C351.799 136.216 349.849 125.482 349.849 125.482L353.095 129.639Z" fill="#FA968C"/>
<path d="M348.972 137.311C348.988 137.305 349 137.295 349.015 137.289C349.689 137.541 350.447 137.688 351.302 137.688C352.034 137.688 352.698 137.582 353.298 137.395L353.635 139.285C353.732 139.831 353.328 140.338 352.772 140.354C350.117 140.436 343.319 140.615 343.136 140.32C342.281 138.938 346.146 138.405 348.972 137.311Z" fill="#FF8C46"/>
<path d="M343.598 77.2228C343.495 81.7307 345.269 110.33 348.771 110.41C352.273 110.489 355.421 81.9134 355.523 77.4055C355.625 72.8976 353.626 69.2838 350.124 69.2044C346.622 69.125 343.7 72.7149 343.598 77.2228Z" fill="#0091C8"/>
<path d="M353.606 104.469C353.953 106.95 354.009 122.848 353.451 130.925H350.263C348.551 123.091 346.721 107.906 346.381 105.481C346.377 105.45 346.375 105.419 346.371 105.388C344.466 96.9595 342.763 80.4416 342.838 77.1177C342.94 72.6097 346.62 69.1251 350.122 69.2045C353.624 69.2839 355.623 72.8976 355.521 77.4055C355.456 80.2355 353.441 103.294 353.606 104.469Z" fill="#0B4870"/>
<path d="M339.672 43.0215H341.373C341.965 44.392 343.217 45.4509 345.161 45.4509C347.108 45.4509 348.36 44.392 348.951 43.0215H350.503C352.089 43.0215 353.388 44.2759 353.433 45.862C353.552 49.994 353.82 57.9569 354.295 65.1566C354.724 71.673 356.503 77.7291 355.286 79.5057C355.286 79.5057 338.796 78.1375 335.939 74.8597C333.469 72.0263 334.981 66.3911 335.459 60.6389C335.935 54.9146 336.418 49.0744 336.691 45.7634C336.819 44.2113 338.116 43.0215 339.672 43.0215Z" fill="#2A94F4"/>
<path d="M345.602 39.2124L345.798 39.2558C347.291 39.5879 348.772 38.6464 349.104 37.1522L349.993 33.1548L347.092 32.5098L345.602 39.2124Z" fill="#0B4870"/>
<path d="M343.016 43.0213H348.487L346.909 37.5664L343.18 38.028L343.016 43.0213Z" fill="#FAB9AF"/>
<path d="M343.181 38.028L346.91 37.5664L347.645 40.1084C346.81 41.0499 345.572 42.5108 344.215 42.5108C343.784 42.5108 343.392 42.3892 343.039 42.1655L343.181 38.028Z" fill="#FA968C"/>
<path d="M342.616 40.9266C345.073 41.4731 347.507 39.9245 348.053 37.4678L349.155 32.5128L341.526 30.8164C341.526 30.8164 340.666 34.6844 340.641 37.4189C340.622 39.4696 341.364 40.6482 342.616 40.9266Z" fill="#FAB9AF"/>
<path d="M347.551 34.8237L348.984 35.1426L349.129 34.4923L347.695 34.1735L347.551 34.8237Z" fill="#41378C"/>
<path d="M346.97 36.2449C346.755 37.2118 347.043 38.0985 347.614 38.2253C348.185 38.352 349.096 37.2247 349.311 36.2582C349.527 35.2913 348.964 34.8513 348.393 34.7242C347.822 34.5974 347.184 35.278 346.97 36.2449Z" fill="#FAB9AF"/>
<path d="M340.548 32.7356C340.507 32.0789 340.613 31.4214 340.861 30.8116C341.474 29.2982 343.168 28.647 344.711 29.184C344.868 29.2388 345.035 29.2869 345.212 29.326L347.787 29.8975C349.334 30.2409 350.31 31.7742 349.966 33.3215L349.832 33.9219L348.306 34.8071L347.683 35.8909L347.582 35.8686C347.091 35.7595 346.774 35.2874 346.851 34.7973C346.978 33.9884 346.575 33.1979 345.776 33.0204L343.491 32.5123C342.1 32.2029 341.211 32.7888 340.979 33.8296L340.855 34.7257L340.548 32.7356Z" fill="#0B4870"/>
<path d="M347.844 62.1387L385.492 271.624" stroke="#00AEF0" stroke-width="2" stroke-miterlimit="10"/>
<path d="M354.187 271.624L316.539 62.1387" stroke="#00AEF0" stroke-width="2" stroke-miterlimit="10"/>
<path d="M319.031 71.4688H349.629" stroke="#00AEF0" stroke-width="2" stroke-miterlimit="10"/>
<path d="M321.062 85.4863H352.087" stroke="#00AEF0" stroke-width="2" stroke-miterlimit="10"/>
<path d="M323.898 99.5039H354.646" stroke="#00AEF0" stroke-width="2" stroke-miterlimit="10"/>
<path d="M326.633 113.521H357.197" stroke="#00AEF0" stroke-width="2" stroke-miterlimit="10"/>
<path d="M328.289 127.537H359.207" stroke="#00AEF0" stroke-width="2" stroke-miterlimit="10"/>
<path d="M330.43 141.305H361.777" stroke="#00AEF0" stroke-width="2" stroke-miterlimit="10"/>
<path d="M333.578 155.572H364.446" stroke="#00AEF0" stroke-width="2" stroke-miterlimit="10"/>
<path d="M336.094 169.588H367.045" stroke="#00AEF0" stroke-width="2" stroke-miterlimit="10"/>
<path d="M338.586 182.834H369.538" stroke="#00AEF0" stroke-width="2" stroke-miterlimit="10"/>
<path d="M340.695 196.08H371.647" stroke="#00AEF0" stroke-width="2" stroke-miterlimit="10"/>
<path d="M343.133 209.326H374.084" stroke="#00AEF0" stroke-width="2" stroke-miterlimit="10"/>
<path d="M345.492 222.574H376.444" stroke="#00AEF0" stroke-width="2" stroke-miterlimit="10"/>
<path d="M347.797 235.818H378.748" stroke="#00AEF0" stroke-width="2" stroke-miterlimit="10"/>
<path d="M350.477 249.066H381.428" stroke="#00AEF0" stroke-width="2" stroke-miterlimit="10"/>
<path d="M316.546 62.1387L278.578 272.101" stroke="#00AEF0" stroke-width="2" stroke-miterlimit="10"/>
<path d="M309.883 272.101L347.85 62.1387" stroke="#00AEF0" stroke-width="2" stroke-miterlimit="10"/>
<path d="M345.351 71.4688H314.844" stroke="#00AEF0" stroke-width="2" stroke-miterlimit="10"/>
<path d="M343.321 85.4863H312.297" stroke="#00AEF0" stroke-width="2" stroke-miterlimit="10"/>
<path d="M340.49 99.5039H309.742" stroke="#00AEF0" stroke-width="2" stroke-miterlimit="10"/>
<path d="M337.759 113.521H307.195" stroke="#00AEF0" stroke-width="2" stroke-miterlimit="10"/>
<path d="M335.567 127.537H304.648" stroke="#00AEF0" stroke-width="2" stroke-miterlimit="10"/>
<path d="M333.488 141.305H302.141" stroke="#00AEF0" stroke-width="2" stroke-miterlimit="10"/>
<path d="M330.406 155.572H299.539" stroke="#00AEF0" stroke-width="2" stroke-miterlimit="10"/>
<path d="M328.295 169.588H297.344" stroke="#00AEF0" stroke-width="2" stroke-miterlimit="10"/>
<path d="M325.905 185.311H294.953" stroke="#00AEF0" stroke-width="2" stroke-miterlimit="10"/>
<path d="M322.311 201.035H291.359" stroke="#00AEF0" stroke-width="2" stroke-miterlimit="10"/>
<path d="M319.623 216.758H288.672" stroke="#00AEF0" stroke-width="2" stroke-miterlimit="10"/>
<path d="M317.092 232.482H286.141" stroke="#00AEF0" stroke-width="2" stroke-miterlimit="10"/>
<path d="M313.788 248.359H282.836" stroke="#00AEF0" stroke-width="2" stroke-miterlimit="10"/>
<path d="M348.25 30.9293C348.425 32.3429 343.345 34.1335 342.005 34.2994C340.665 34.4648 339.437 33.4533 339.263 32.0397C339.088 30.6261 340.033 29.3463 341.373 29.1809C342.712 29.015 348.075 29.5157 348.25 30.9293Z" fill="#0B4870"/>
<path d="M278.048 33.0758C276.422 33.3633 275.337 34.9145 275.624 36.5401L278.387 52.1678L279.424 51.9844C280.382 49.9348 282.46 48.4547 285.025 48.4782C287.451 48.5001 289.686 50.0455 290.557 52.311C291.975 56.0014 289.66 59.8608 285.971 60.5129C283.949 60.8704 281.986 60.1776 280.635 58.8302L279.598 59.0136L282.655 76.3009C282.942 77.9269 284.493 79.0119 286.119 78.7244L301.747 75.9614L301.557 74.8881C299.507 73.9306 298.027 71.8521 298.051 69.2873C298.073 66.8607 299.619 64.6257 301.884 63.7554C305.574 62.3375 309.433 64.6531 310.085 68.3412C310.443 70.3634 309.75 72.3257 308.403 73.6779L308.592 74.7512L325.88 71.6948C327.506 71.4073 328.591 69.8561 328.303 68.2301L321.273 28.4697C320.985 26.8437 319.434 25.7587 317.808 26.0462L278.048 33.0758Z" fill="#6236FF"/>
<path d="M354.052 48.3553C352.367 50.652 349.478 53.6728 346.019 56.281C335.441 63.9955 324.12 64.7754 314.888 56.0432C314.51 55.686 314.494 55.0903 314.851 54.7125C315.157 54.3898 315.636 54.3307 316.005 54.5435L316.048 54.5682C322.068 58.0431 327.459 59.47 334.246 56.6181C343.144 52.7838 349.457 43.5595 348.792 44.4395C349.883 42.9946 351.939 42.7079 353.384 43.7992C354.816 44.8815 355.109 46.9127 354.052 48.3553Z" fill="#FAB9AF"/>
<path d="M343.932 49.7351C346.136 47.7579 348.937 43.8625 348.937 43.8625C348.937 43.8625 350.264 42.2929 352.997 43.4373C355.18 44.3514 354.738 46.9298 354.738 46.9298C354.685 47.2889 353.956 51.5426 348.938 55.3042C348.938 55.3042 343.563 50.0668 343.932 49.7351Z" fill="#2A94F4"/>
<path d="M316.677 54.9646C315.954 54.1209 315.763 51.1627 315.357 51.1627C315.064 51.1627 315.012 52.1839 315.006 52.7581C315.005 52.825 314.966 52.8856 314.904 52.9126C314.843 52.94 314.772 52.9287 314.721 52.8845C313.901 52.1616 311.585 50.1578 311.346 50.3487C311.105 50.5423 312.334 52.0369 312.754 52.5324C312.766 52.5473 312.767 52.5696 312.754 52.5848C312.742 52.6005 312.721 52.6052 312.703 52.5962C312.056 52.2684 309.943 51.2334 309.894 51.6762C309.847 52.0975 311.684 53.269 312.401 53.7094C312.419 53.7203 312.426 53.7426 312.417 53.7614C312.409 53.7802 312.388 53.7903 312.368 53.7845C311.563 53.5467 309.493 52.9717 309.446 53.346C309.398 53.7274 311.4 54.5844 312.12 54.8793C312.138 54.8871 312.149 54.9074 312.144 54.927C312.14 54.947 312.121 54.9602 312.101 54.9587C311.391 54.9031 309.56 54.785 309.842 55.0674C310.191 55.4163 314.601 56.8577 315.589 56.8577C316.577 56.8581 316.677 54.9646 316.677 54.9646Z" fill="#FAB9AF"/>
<path d="M353.822 104.998H144.609V232.295H353.822V104.998Z" fill="#2A94F4"/>
<path d="M343.207 114.531H155.219V222.761H343.207V114.531Z" fill="#F7F7F7"/>
<path d="M215.64 141.76H167.469V210.78H215.64V141.76Z" stroke="#727272" stroke-miterlimit="10"/>
<path d="M274.671 141.76H226.5V210.78H274.671V141.76Z" stroke="#727272" stroke-miterlimit="10"/>
<path d="M333.71 141.76H285.539V210.78H333.71V141.76Z" stroke="#727272" stroke-miterlimit="10"/>
<path d="M126.14 251C126.14 251 121.846 255.942 121.057 256.729C120.406 257.379 119.482 257.615 118.597 257.864C118.313 257.944 117.945 258.235 117.633 258.48C117.382 258.677 117.268 258.983 117.274 259.301C117.375 264.865 122.218 268.765 122.476 268.439C122.941 267.851 122.587 266.222 121.66 265.148C120.728 264.066 120.502 262.541 120.918 261.175C121.249 260.089 121.854 259.105 122.675 258.321L126.409 254.826L126.14 251Z" fill="#FA968C"/>
<path d="M170.032 258.029L173.448 263.737C174.492 265.481 174.876 267.547 174.531 269.551C174.531 269.552 174.531 269.552 174.531 269.552C174.336 270.673 175.177 271.706 176.315 271.734C179.992 271.825 187.109 271.958 187.314 271.623C188.36 269.916 183.858 269.152 180.324 267.955C177.94 267.147 175.006 260.693 173.147 255.615L170.359 257.381C170.145 257.525 170.02 257.77 170.032 258.029Z" fill="#FA968C"/>
<path d="M180.255 269.922C181.766 269.922 183.307 269.576 184.732 269.294C184.895 269.262 185.065 269.274 185.222 269.329C186.87 269.914 187.87 270.72 187.315 271.625C187.092 271.989 178.721 271.801 175.451 271.714C174.768 271.696 174.267 271.075 174.384 270.401L174.598 269.174C176.447 269.645 178.342 269.922 180.255 269.922Z" fill="#0B4870"/>
<path d="M157.812 193.57C154.036 192.814 149.525 195.908 148.551 200.768C147.992 203.561 147.168 213.967 147.285 222.459C147.33 225.718 145.766 228.854 142.981 230.549C142.527 230.825 142.112 231.129 141.75 231.459C139.887 233.16 131.22 244.024 125.788 251.394C125.618 252.547 125.789 254.14 126.433 254.898C133.386 249.45 145.176 239.191 147.158 237.382C148.259 236.376 149.489 235.199 150.491 234.04C154.762 231.178 161.694 209.323 162.597 204.813C163.571 199.952 161.589 194.327 157.812 193.57Z" fill="#0B4870"/>
<path d="M155.453 169.633C158.697 169.633 161.327 166.24 161.327 162.055C161.327 157.87 158.697 154.477 155.453 154.477C152.208 154.477 149.578 157.87 149.578 162.055C149.578 166.24 152.208 169.633 155.453 169.633Z" fill="#0B4870"/>
<path d="M154.05 162.837C153.956 158.642 150.56 155.116 146.371 154.877C142.655 154.665 139.447 156.941 138.245 160.193C137.825 161.332 136.708 162.074 135.493 162.056C134.989 162.048 134.47 162.094 133.942 162.203C130.872 162.832 128.489 165.425 128.165 168.542C127.874 171.353 129.189 173.876 131.304 175.315C132.205 175.929 132.719 176.946 132.868 178.027C133.56 183.026 138.125 186.698 143.333 186.128C147.787 185.641 151.351 181.976 151.73 177.511C151.962 174.772 151.023 172.261 149.369 170.396C152.187 169.065 154.124 166.177 154.05 162.837Z" fill="#0B4870"/>
<path opacity="0.4" d="M205.822 163.895C204.338 163.577 202.973 164.209 202.211 165.295H201.331V157.179C201.331 155.691 200.125 154.485 198.636 154.485H189.554V153.583C190.64 152.821 191.272 151.456 190.954 149.972C190.681 148.694 189.654 147.648 188.38 147.357C186.105 146.838 184.086 148.552 184.086 150.739C184.086 151.916 184.673 152.954 185.569 153.583V154.485H177.452C175.964 154.485 174.758 155.691 174.758 157.179V165.295H175.361C176.123 164.209 177.488 163.578 178.971 163.895C180.249 164.168 181.296 165.194 181.587 166.468C182.107 168.744 180.392 170.763 178.206 170.763C177.028 170.763 175.99 170.176 175.361 169.28H174.758V178.363C174.758 179.851 175.964 181.057 177.452 181.057H185.569V180.432C184.483 179.671 183.851 178.306 184.168 176.822C184.442 175.544 185.468 174.497 186.742 174.207C189.017 173.688 191.036 175.402 191.036 177.588C191.036 178.765 190.449 179.804 189.554 180.432V181.057H198.636C200.124 181.057 201.33 179.851 201.33 178.363V169.28H202.211C202.839 170.176 203.878 170.763 205.055 170.763C207.241 170.763 208.956 168.744 208.437 166.469C208.146 165.196 207.1 164.169 205.822 163.895Z" fill="#2A94F4"/>
<path d="M155.453 151.99C155.453 151.99 158.759 154.07 158.357 156.872C158.357 156.872 160.122 155.622 160.521 151.316C160.798 148.332 155.453 151.99 155.453 151.99Z" fill="#0B4870"/>
<path d="M161.54 169.045C161.54 169.045 161.539 169.192 161.536 169.465C161.535 169.739 161.538 170.067 161.558 170.554C161.601 171.5 161.725 172.862 162.077 174.44C162.257 175.225 162.498 176.064 162.835 176.891C163.172 177.71 163.604 178.542 164.149 179.166C164.418 179.479 164.713 179.722 164.993 179.864C165.275 180.005 165.526 180.062 165.83 180.02C166.441 179.961 167.258 179.372 167.939 178.616C168.633 177.854 169.24 176.922 169.787 175.972C170.333 175.017 170.81 174.022 171.243 173.042C172.101 171.076 172.777 169.165 173.315 167.512C173.856 165.86 174.273 164.465 174.553 163.486C174.828 162.504 174.985 161.943 174.985 161.943L174.987 161.936C175.062 161.666 175.343 161.508 175.614 161.583C175.869 161.655 176.023 161.91 175.977 162.166C175.977 162.166 175.87 162.744 175.682 163.755C175.582 164.26 175.467 164.875 175.316 165.576C175.169 166.279 175 167.072 174.788 167.931C174.367 169.652 173.827 171.652 173.087 173.77C172.712 174.828 172.289 175.915 171.773 177.002C171.251 178.087 170.662 179.182 169.858 180.218C169.453 180.734 168.996 181.239 168.431 181.689C167.867 182.133 167.178 182.537 166.342 182.712C165.518 182.905 164.582 182.789 163.84 182.469C163.085 182.152 162.492 181.687 162.012 181.204C161.05 180.228 160.445 179.173 159.962 178.165C159.485 177.153 159.15 176.175 158.888 175.264C158.369 173.441 158.179 171.882 158.078 170.791C158.033 170.257 158.009 169.781 157.999 169.507C157.99 169.233 157.985 169.087 157.985 169.087C157.953 168.106 158.723 167.284 159.704 167.252C160.685 167.22 161.507 167.989 161.539 168.971C161.54 168.993 161.54 169.023 161.54 169.045Z" fill="#FAB9AF"/>
<path d="M159.157 183.587C160.479 179.601 163.14 171.162 162.912 168.404C162.766 166.637 161.29 165.283 159.516 165.283H148.012C146.105 165.283 144.544 166.796 144.489 168.702C144.392 172.034 145.927 179.618 146.79 183.587H159.157Z" fill="#FAB9AF"/>
<path d="M156.887 201.58C158.21 206.358 168.967 240.318 165.255 241.346C161.544 242.374 141.343 209.217 141.086 204.267C140.841 199.571 143.562 194.484 147.274 193.456C150.985 192.428 155.565 196.803 156.887 201.58Z" fill="#FAB9AF"/>
<path d="M173.52 256.968C173.658 256.807 173.689 256.58 173.617 256.381C170.741 248.42 166.881 238.336 166.058 236.431C165.963 236.213 165.864 236 165.76 235.793C164.355 225.725 157.893 205.214 156.887 201.58C155.565 196.803 150.985 192.428 147.274 193.456C143.562 194.484 140.841 199.571 141.086 204.267C141.247 207.365 149.221 221.513 156.074 231.413C157.517 233.497 158.423 235.89 158.864 238.386C159.169 240.113 159.656 241.834 160.2 243.094C161.01 244.969 165.764 252.125 170.011 258.193C170.133 258.369 170.34 258.472 170.553 258.45C171.68 258.335 172.744 257.879 173.52 256.968Z" fill="#0B4870"/>
<path d="M145.475 188.639C146.071 186.968 146.249 185.18 145.999 183.424C145.419 179.347 144.405 171.666 144.498 168.406C144.548 166.662 145.976 165.283 147.72 165.283H149.426C150.076 166.79 151.452 167.954 153.593 167.954C155.73 167.954 157.107 166.79 157.758 165.283H159.359C157.618 169.01 158.245 173.927 161.239 176.796C160.683 178.763 160.215 180.742 159.864 182.347C159.39 184.52 159.599 186.785 160.455 188.838C161.926 192.367 163.091 198.026 162.744 200.268C150.642 203.698 142.273 197.628 142.273 197.628L145.475 188.639Z" fill="#2A94F4"/>
<path d="M155.453 166.076L150.234 165.527L151.886 159.816L155.261 160.235L155.453 166.076Z" fill="#FAB9AF"/>
<path d="M155.266 160.234L151.891 159.816L151.375 161.599C152.131 162.451 153.102 164.291 154.33 164.291C154.72 164.291 155.075 164.182 155.394 163.979L155.266 160.234Z" fill="#FA968C"/>
<path d="M155.378 162.996C154.232 162.995 152.992 162.422 151.285 160.93C150.305 160.074 149.578 158.58 149.578 157.571V151.99H158.17C158.17 151.99 158.815 154.954 158.189 157.894C157.72 160.1 156.28 162.996 155.378 162.996Z" fill="#FAB9AF"/>
<path d="M151.039 156.517C151.039 157.606 150.518 158.488 149.875 158.488C149.232 158.488 148.523 157.061 148.523 155.972C148.523 154.883 149.233 154.545 149.875 154.545C150.518 154.545 151.039 155.428 151.039 156.517Z" fill="#FAB9AF"/>
<path d="M148.523 152.666C148.523 150.924 149.937 149.511 151.679 149.512L154.579 149.513C155.408 149.513 156.213 149.296 156.919 148.896C157.942 148.316 159.235 148.509 159.933 149.456C160.688 150.479 161.015 151.85 159.101 153.119C158.15 153.75 156.759 153.051 155.833 153.354C155.776 153.352 155.725 153.343 155.665 153.343H153.109C152.221 153.343 151.541 154.069 151.516 154.957C151.499 155.518 151.039 155.969 150.474 155.969H150.36L149.951 154.657L148.524 156.581V152.666H148.523Z" fill="#0B4870"/>
<path d="M176.755 158.827C176.755 158.827 177.355 161.794 176.511 162.277C175.666 162.761 175.011 162.931 174.261 161.727C173.511 160.524 173.056 158.517 173.024 157.258C172.992 156 173.829 153.868 174.069 153.699C174.944 153.084 174.763 155.369 174.729 156.48C174.695 157.591 174.767 158.849 175.306 158.714C175.845 158.579 175.75 156.447 176.317 156.088C176.884 155.73 176.755 158.827 176.755 158.827Z" fill="#FAB9AF"/>
<path d="M189.569 179.003C189.569 179.003 186.583 178.515 186.132 179.377C185.681 180.24 185.536 180.901 186.766 181.605C187.997 182.308 190.02 182.687 191.279 182.671C192.537 182.655 194.636 181.738 194.796 181.492C195.378 180.595 193.1 180.863 191.991 180.938C190.883 181.014 189.622 180.99 189.737 180.446C189.851 179.902 191.986 179.916 192.323 179.336C192.66 178.757 189.569 179.003 189.569 179.003Z" fill="#FAB9AF"/>
<path d="M157.529 151.892C157.241 153.167 157.666 153.864 153.487 155.854C149.308 157.844 147.985 156.994 146.68 159.137C146.68 159.137 147.25 155.588 149.559 154.37C151.867 153.152 155.87 152.356 157.153 149.535C157.154 149.535 157.726 151.021 157.529 151.892Z" fill="#0B4870"/>
<path d="M148.485 168.751C148.485 168.751 148.496 168.813 148.499 168.817C148.504 168.839 148.511 168.866 148.519 168.898C148.529 168.938 148.54 168.985 148.559 169.046C148.627 169.279 148.752 169.65 148.974 170.116C149.195 170.581 149.512 171.141 149.952 171.747C150.389 172.355 150.966 172.999 151.662 173.649C152.002 173.981 152.402 174.287 152.805 174.615C153.232 174.918 153.663 175.245 154.15 175.532C154.615 175.846 155.142 176.103 155.658 176.402C155.927 176.534 156.2 176.668 156.475 176.803C156.748 176.942 157.029 177.073 157.323 177.189C157.613 177.311 157.906 177.434 158.201 177.558C158.501 177.673 158.809 177.778 159.115 177.89C159.724 178.124 160.367 178.301 161.009 178.498C161.649 178.699 162.319 178.836 162.979 179.01C163.645 179.167 164.324 179.297 164.998 179.443C165.679 179.567 166.365 179.671 167.046 179.786C167.73 179.888 168.418 179.959 169.098 180.047C169.777 180.14 170.461 180.17 171.132 180.235C171.468 180.262 171.803 180.289 172.135 180.315C172.468 180.331 172.799 180.346 173.127 180.361C173.784 180.386 174.429 180.443 175.063 180.452C175.698 180.464 176.319 180.477 176.923 180.488C178.133 180.515 179.279 180.471 180.338 180.467C181.397 180.431 182.369 180.397 183.23 180.367C184.092 180.347 184.841 180.277 185.461 180.243C186.699 180.17 187.407 180.128 187.407 180.128L187.421 180.127C187.702 180.11 187.943 180.324 187.959 180.605C187.975 180.867 187.786 181.095 187.533 181.137C187.533 181.137 186.827 181.252 185.592 181.452C184.973 181.543 184.224 181.683 183.357 181.783C182.491 181.888 181.515 182.034 180.445 182.141C179.372 182.229 178.212 182.364 176.978 182.433C176.36 182.468 175.725 182.505 175.077 182.543C174.428 182.581 173.762 182.583 173.085 182.599C172.747 182.605 172.405 182.61 172.062 182.616C171.717 182.61 171.37 182.604 171.022 182.599C170.323 182.576 169.616 182.589 168.902 182.537C168.189 182.491 167.468 182.461 166.745 182.4C166.022 182.325 165.295 182.261 164.569 182.174C163.845 182.064 163.117 181.976 162.396 181.847C161.678 181.695 160.956 181.58 160.25 181.396C159.543 181.216 158.838 181.056 158.152 180.83C157.808 180.724 157.465 180.624 157.127 180.512C156.791 180.39 156.458 180.267 156.127 180.147C155.795 180.032 155.47 179.899 155.151 179.757C154.832 179.619 154.515 179.481 154.202 179.345C153.587 179.036 152.981 178.747 152.417 178.398C151.841 178.078 151.31 177.705 150.79 177.356C150.287 176.975 149.795 176.616 149.357 176.217C148.468 175.441 147.71 174.641 147.127 173.846C146.537 173.058 146.094 172.304 145.773 171.65C145.45 170.997 145.26 170.437 145.142 170.03C145.029 169.652 144.968 169.28 144.977 169.332C144.817 168.364 145.471 167.449 146.44 167.288C147.409 167.127 148.324 167.782 148.485 168.751Z" fill="#FAB9AF"/>
<path d="M156.727 152.129C156.727 152.129 156.885 156.424 160.638 158.487C160.638 158.487 158.985 155.241 159.097 153.118C159.209 150.996 156.479 150.663 156.727 152.129Z" fill="#0B4870"/>
<path d="M115.478 260.257C115.337 259.906 115.47 259.506 115.795 259.312C116.061 259.154 116.774 258.715 117.31 258.385C117.542 258.242 117.834 258.394 117.865 258.666C118.213 261.739 119.606 264.524 122.22 265.852C122.902 266.762 122.999 268.318 122.631 268.783C122.544 268.892 121.32 268.488 120.293 267.311C115.733 262.088 115.478 260.257 115.478 260.257Z" fill="#0B4870"/>
<path d="M392.589 244.219C392.409 244.182 392.233 244.146 392.073 244.112C391.645 244.022 391.097 244.032 390.613 244.072C389.802 244.14 388.989 243.992 388.259 243.632L385.234 242.142C383.957 241.512 382.588 242.817 383.155 244.123C383.204 244.235 383.293 244.325 383.404 244.374L386.983 245.96C388.02 246.42 388.934 247.119 389.648 248.001L390.662 249.253C392.819 247.906 392.519 245.469 392.589 244.219Z" fill="#FAB9AF"/>
<path d="M391.274 254.637C391.419 252.919 390.641 250.073 390.273 249.121C391.196 247.425 391.227 245.604 390.667 243.965C391.141 243.927 391.668 243.918 392.085 244.006C392.658 244.128 393.983 244.333 394.527 244.438C394.912 244.513 395.181 244.856 395.167 245.246C395.167 245.246 393.454 257.641 393.074 257.405C392.416 256.997 391.149 256.102 391.274 254.637Z" fill="#0B4870"/>
<path d="M326.606 231.959C325.646 235.76 318.885 265.668 320.221 265.695C321.379 265.719 333.684 237.791 334.645 233.99C335.605 230.188 334.584 226.652 332.365 226.091C330.145 225.53 327.567 228.157 326.606 231.959Z" fill="#41B4E6"/>
<path d="M341.419 201.588C338.168 205.55 323.644 231.525 326.722 234.05C329.8 236.575 349.935 215.07 353.185 211.108C356.436 207.146 355.955 201.512 352.878 198.987C349.799 196.461 344.669 197.626 341.419 201.588Z" fill="#41B4E6"/>
<path d="M321.918 269.85C321.928 269.666 321.938 269.487 321.948 269.324C321.975 268.887 321.885 268.347 321.774 267.874C321.588 267.082 321.615 266.256 321.864 265.481L322.895 262.271C323.33 260.915 321.839 259.752 320.63 260.505C320.527 260.569 320.451 260.67 320.418 260.788L319.374 264.56C319.072 265.654 318.513 266.66 317.746 267.495L316.656 268.682C318.306 270.618 320.672 269.964 321.918 269.85Z" fill="#FAB9AF"/>
<path d="M311.421 270.081C313.142 269.973 315.843 268.786 316.731 268.283C318.544 268.947 320.35 268.711 321.889 267.916C321.996 268.379 322.082 268.899 322.056 269.325C322.02 269.91 322.011 271.25 321.987 271.804C321.97 272.195 321.67 272.512 321.281 272.555C321.281 272.555 308.77 272.679 308.947 272.269C309.255 271.557 309.953 270.173 311.421 270.081Z" fill="#0B4870"/>
<path d="M334.647 233.99C334.053 236.34 326.706 254.556 322.756 263.043C321.566 262.589 320.901 262.626 319.688 262.244C321.235 254.274 324.003 236.479 324.914 232.639C325.313 227.288 338.402 205.263 341.415 201.59C344.665 197.628 349.796 196.463 352.874 198.989C355.952 201.514 356.432 207.148 353.182 211.11C351.079 213.673 335.048 232.401 334.647 233.99Z" fill="#0B4870"/>
<path d="M350.399 234.144C350.399 234.144 350.395 234.141 350.395 234.141C350.392 234.136 350.39 234.129 350.387 234.123C350.256 233.873 350.158 233.62 350.087 233.367C347.918 226.943 348.539 203.614 349.242 198.881C349.429 197.623 349.803 196.458 350.308 195.408L357.221 199.17C358.956 201.135 361.007 202.873 363.342 204.283C363.694 204.495 363.223 203.576 363.583 203.765C362.586 209.902 361.287 222.077 360.799 228.165C360.688 229.548 361.473 230.844 362.752 231.382C369.194 234.088 380.684 239.347 387.086 242.802L386.868 246.428C377.522 244.469 358.852 238.918 356.017 238.091C353.342 237.309 351.263 235.772 350.399 234.144Z" fill="#0B4870"/>
<path d="M342.8 175.237C342.8 175.237 342.798 175.278 342.794 175.359C342.791 175.406 342.787 175.465 342.783 175.534C342.778 175.594 342.772 175.663 342.765 175.742C342.737 176.054 342.687 176.495 342.594 177.044C342.506 177.595 342.365 178.252 342.17 178.997C341.978 179.742 341.698 180.565 341.348 181.445C340.987 182.322 340.531 183.246 339.978 184.185C339.406 185.114 338.729 186.05 337.931 186.935C337.734 187.157 337.515 187.365 337.305 187.582L336.985 187.905L336.641 188.207C336.41 188.407 336.182 188.614 335.943 188.809C335.696 188.993 335.448 189.179 335.199 189.365C334.955 189.558 334.689 189.721 334.424 189.886C334.159 190.049 333.9 190.225 333.627 190.377C333.068 190.655 332.529 190.979 331.947 191.2L331.088 191.56C330.798 191.667 330.503 191.757 330.212 191.855C329.918 191.946 329.632 192.061 329.336 192.129C329.041 192.202 328.747 192.275 328.455 192.347C327.873 192.51 327.283 192.583 326.706 192.687C326.13 192.803 325.555 192.834 324.993 192.895C324.712 192.919 324.433 192.957 324.157 192.964C323.881 192.971 323.608 192.979 323.337 192.986C322.797 193 322.269 193.025 321.757 192.993C321.247 192.975 320.75 192.957 320.269 192.939C319.792 192.895 319.331 192.853 318.888 192.812C318.002 192.748 317.203 192.6 316.493 192.494C316.139 192.436 315.807 192.392 315.502 192.335C315.199 192.272 314.92 192.214 314.669 192.162C313.664 191.953 313.091 191.834 313.091 191.834C312.807 191.775 312.624 191.497 312.683 191.213C312.739 190.946 312.988 190.768 313.253 190.797L313.281 190.8C313.281 190.8 313.851 190.864 314.85 190.975C315.099 191.003 315.375 191.034 315.675 191.068C315.976 191.096 316.302 191.108 316.65 191.132C317.345 191.173 318.127 191.236 318.98 191.228C319.406 191.232 319.849 191.236 320.308 191.24C320.765 191.218 321.237 191.196 321.722 191.173C322.208 191.164 322.7 191.097 323.203 191.042C323.454 191.015 323.708 190.987 323.965 190.958C324.221 190.931 324.474 190.871 324.733 190.831C325.246 190.735 325.774 190.669 326.287 190.523C326.803 190.388 327.334 190.285 327.841 190.098C328.097 190.014 328.354 189.93 328.611 189.845C328.871 189.766 329.113 189.644 329.365 189.545C329.614 189.44 329.866 189.342 330.112 189.231L330.831 188.862C331.321 188.636 331.755 188.319 332.214 188.052C332.437 187.909 332.644 187.744 332.859 187.593C333.072 187.439 333.287 187.29 333.479 187.114C333.677 186.945 333.873 186.778 334.069 186.611C334.256 186.434 334.433 186.249 334.614 186.072L334.882 185.805L335.128 185.519C335.289 185.327 335.459 185.147 335.609 184.953C336.219 184.18 336.719 183.369 337.155 182.58C337.567 181.775 337.904 180.987 338.164 180.239C338.413 179.487 338.61 178.787 338.746 178.158C338.881 177.529 338.975 176.976 339.027 176.522C339.084 176.069 339.107 175.715 339.118 175.486C339.12 175.429 339.122 175.378 339.124 175.334C339.124 175.3 339.125 175.272 339.125 175.249C339.125 175.189 339.126 175.158 339.126 175.158L339.126 175.126C339.135 174.111 339.966 173.295 340.981 173.305C341.996 173.314 342.812 174.144 342.803 175.16C342.802 175.183 342.801 175.214 342.8 175.237Z" fill="#FA968C"/>
<path d="M333.328 180.622C333.966 179.25 336.444 173.897 336.751 172.594L336.766 172.528C336.791 172.424 336.821 172.32 336.855 172.217C337.505 170.261 339.617 169.202 341.573 169.851C343.529 170.501 344.588 172.613 343.939 174.569C343.329 176.404 342.698 177.926 341.955 179.541C341.449 180.61 340.896 181.657 340.318 182.693C339.68 182.204 333.323 180.632 333.328 180.622Z" fill="#6236FF"/>
<path d="M341.555 206.093C344.643 208.641 357.532 208.125 362.314 207.837C363.518 207.765 364.424 206.675 364.225 205.486C363.716 202.453 361.606 197.231 360.338 191.808C358.511 183.994 356.769 175.323 355.853 170.634C355.475 168.7 353.626 167.419 351.682 167.741L339.949 169.682C338.14 169.981 336.862 171.612 337.012 173.439C337.321 177.221 337.858 183.793 338.38 190.236C338.911 196.775 338.261 203.374 341.555 206.093Z" fill="#FAB9AF"/>
<path d="M339.838 169.7L341.745 169.385C342.663 170.812 344.264 171.767 346.443 171.407C348.626 171.046 349.834 169.626 350.243 167.98L351.982 167.692C353.761 167.398 355.45 168.566 355.796 170.336C356.695 174.948 358.473 183.825 360.339 191.808C361.627 197.318 363.746 202.383 364.221 205.461C364.407 206.668 363.502 207.765 362.284 207.839C357.476 208.127 344.637 208.635 341.556 206.093C338.262 203.373 338.912 196.774 338.382 190.236C337.854 183.728 337.311 177.089 337.004 173.325C336.859 171.562 338.092 169.989 339.838 169.7Z" fill="#6236FF"/>
<path d="M346.074 163.296L346.293 163.233C347.965 162.753 348.931 161.009 348.452 159.337L347.168 154.863L343.922 155.795L346.074 163.296Z" fill="#0B4870"/>
<path d="M343.448 169.707L349.107 169.292L349.306 168.478L345.992 162.527L342.062 164.201L343.448 169.707Z" fill="#FAB9AF"/>
<path d="M342.062 164.201L345.992 162.527L347.323 164.918C346.707 166.208 345.956 167.638 344.474 168.063C344.003 168.198 343.475 168.159 343.02 168.025L342.062 164.201Z" fill="#FA968C"/>
<path d="M344.024 166.633C346.774 165.844 348.363 162.977 347.574 160.227L345.983 154.682L337.445 157.131C337.445 157.131 338.687 161.46 340.147 164.204C341.243 166.261 342.623 167.035 344.024 166.633Z" fill="#FAB9AF"/>
<path d="M345.653 157.88L347.258 157.42L347.049 156.692L345.444 157.153L345.653 157.88Z" fill="#CD5014"/>
<path d="M345.817 159.592C346.128 160.674 346.897 161.403 347.536 161.219C348.175 161.036 348.472 159.416 348.162 158.334C347.852 157.252 347.051 157.118 346.412 157.301C345.773 157.484 345.507 158.51 345.817 159.592Z" fill="#FAB9AF"/>
<path d="M337.507 159.581C337.109 158.947 336.859 158.233 336.774 157.49C336.774 157.49 336.03 155.024 336.866 154.274C337.627 153.591 339.291 153.709 340.312 153.643C341.059 153.595 343.193 152.815 343.193 152.815C344.924 152.318 346.731 153.319 347.228 155.05L347.421 155.722L346.378 157.435L346.345 158.854L346.232 158.887C345.682 159.044 345.11 158.745 344.92 158.214C344.607 157.338 343.777 156.768 342.882 157.024L340.324 157.758C338.768 158.205 338.198 159.273 338.532 160.437L338.894 161.399L337.507 159.581Z" fill="#0B4870"/>
<path d="M316.212 172.654L315.693 171.326C316.593 169.971 316.883 168.241 316.354 166.599C315.427 163.721 312.022 162.07 309.191 163.13C306.313 164.208 304.881 167.427 305.996 170.281C306.674 172.016 308.137 173.209 309.819 173.62L310.338 174.949L295.846 180.61C294.583 181.104 293.959 182.527 294.453 183.79L300.063 198.151L299.292 198.452C297.938 197.552 296.208 197.262 294.565 197.791C291.688 198.718 290.036 202.123 291.096 204.954C292.174 207.832 295.394 209.264 298.248 208.149C299.983 207.471 301.176 206.008 301.586 204.326L302.357 204.025L307.967 218.386C308.461 219.648 309.884 220.272 311.147 219.779L345.743 206.264C347.005 205.771 347.629 204.347 347.136 203.085L333.621 168.489C333.127 167.226 331.704 166.602 330.441 167.095L316.212 172.654Z" fill="#0B4870"/>
<path d="M357.343 171.118C357.836 180.404 352.635 191.418 341.691 194.102C332.993 196.253 323.633 193.849 315.377 190.327C314.833 190.095 314.581 189.466 314.813 188.922C315.017 188.444 315.528 188.19 316.019 188.295L316.033 188.298C327.52 190.735 342.198 192.332 347.632 181.862C350.387 176.714 349.89 170.483 349.901 171.363C349.839 166.538 357.08 166.302 357.343 171.118Z" fill="#FAB9AF"/>
<path d="M348.783 178.496C349.652 174.561 349.773 171.375 349.776 171.316L349.775 171.428L350.404 168.924C350.404 168.924 351.602 166.918 354.878 167.694C357.495 168.314 357.477 171.288 357.477 171.288C357.485 171.7 358.431 174.673 355.866 181.128C355.865 181.128 348.661 179.047 348.783 178.496Z" fill="#6236FF"/>
<path d="M316.653 188.453C315.93 187.609 315.74 184.651 315.333 184.651C315.04 184.651 314.988 185.672 314.982 186.246C314.981 186.313 314.942 186.374 314.88 186.401C314.819 186.428 314.748 186.417 314.698 186.373C313.877 185.65 311.561 183.646 311.323 183.837C311.081 184.031 312.311 185.525 312.73 186.021C312.743 186.036 312.743 186.057 312.731 186.073C312.719 186.089 312.697 186.093 312.68 186.084C312.033 185.757 309.92 184.721 309.871 185.165C309.824 185.586 311.66 186.757 312.378 187.198C312.395 187.209 312.402 187.231 312.394 187.25C312.386 187.268 312.364 187.279 312.344 187.272C311.54 187.035 309.469 186.46 309.423 186.834C309.375 187.216 311.376 188.073 312.096 188.368C312.115 188.375 312.126 188.396 312.121 188.415C312.116 188.435 312.098 188.449 312.077 188.447C311.368 188.391 309.537 188.274 309.819 188.556C310.167 188.904 314.578 190.346 315.566 190.346C316.554 190.346 316.653 188.453 316.653 188.453Z" fill="#FAB9AF"/>
<path d="M343.207 114.531H155.219V116.294H343.207V114.531Z" fill="#0B4870"/>
<path d="M269.289 147.686H231.375V156.572H269.289V147.686Z" fill="#6236FF"/>
<path opacity="0.4" d="M269.289 161.014H231.375V169.9H269.289V161.014Z" fill="#2A94F4"/>
<path d="M269.289 174.344H231.375V183.23H269.289V174.344Z" fill="#6236FF"/>
<path opacity="0.4" d="M269.289 187.674H231.375V196.56H269.289V187.674Z" fill="#2A94F4"/>
<path opacity="0.4" d="M333.858 124.582H167.391V134.357H333.858V124.582Z" fill="#2A94F4"/>
<path d="M243.929 129.291H192.97C190.394 129.291 188.305 127.202 188.305 124.626V112.867C188.305 110.29 190.393 108.201 192.97 108.201H243.929C246.505 108.201 248.594 110.29 248.594 112.867V124.626C248.595 127.202 246.506 129.291 243.929 129.291Z" fill="#6236FF"/>
<path d="M239.629 129.235L236.203 125.809L232.777 129.235L236.203 132.661L239.629 129.235Z" fill="#FFBE55"/>
<path d="M240.124 113.539H195.469V115.193H240.124V113.539Z" fill="#F7F7F7"/>
<path d="M240.124 117.924H195.469V119.578H240.124V117.924Z" fill="#F7F7F7"/>
<path d="M240.124 122.307H195.469V123.96H240.124V122.307Z" fill="#F7F7F7"/>
<path d="M238.297 198.388V193.543H233.452V198.388H238.297Z" fill="#6236FF"/>
<path d="M223.013 228.349C233.514 228.349 242.027 219.837 242.027 209.336C242.027 198.835 233.514 190.322 223.013 190.322C212.513 190.322 204 198.835 204 209.336C204 219.837 212.513 228.349 223.013 228.349Z" fill="#6236FF"/>
<path d="M217.279 209.392C217.279 210.245 216.587 210.937 215.733 210.937C214.879 210.937 214.188 210.245 214.188 209.392C214.188 208.538 214.879 207.846 215.733 207.846C216.587 207.846 217.279 208.538 217.279 209.392Z" fill="#F7F7F7"/>
<path d="M224.053 209.392C224.053 210.245 223.361 210.937 222.507 210.937C221.653 210.937 220.961 210.245 220.961 209.392C220.961 208.538 221.653 207.846 222.507 207.846C223.361 207.846 224.053 208.538 224.053 209.392Z" fill="#F7F7F7"/>
<path d="M230.834 209.392C230.834 210.245 230.142 210.937 229.288 210.937C228.434 210.937 227.742 210.245 227.742 209.392C227.742 208.538 228.435 207.846 229.288 207.846C230.142 207.846 230.834 208.538 230.834 209.392Z" fill="#F7F7F7"/>
</svg>
