<svg width="511" height="499" viewBox="0 0 511 499" fill="none" xmlns="http://www.w3.org/2000/svg">
<path d="M87.4629 193.104C168.965 141.6 340.466 88.6013 431.463 193.104C488.396 258.487 478.473 342.259 431.463 415.104C358.619 527.98 250.428 446.663 111.464 415.104C7.9667 391.6 14.1738 239.418 87.4629 193.104Z" fill="#FAFAFA"/>
<path d="M221.475 108.836C221.475 108.836 217.114 107.181 215.083 101.992C213.053 96.8036 212.602 89.8852 212.602 89.8852L214.482 92.2916L215.685 85.298L218.166 88.8324C218.166 88.8324 218.768 82.9668 219.144 83.1924C219.52 83.418 223.581 86.5764 223.581 86.5764L224.558 82.5156C224.558 82.5156 227.792 86.1252 227.867 86.2756C227.942 86.5012 228.469 83.418 228.469 83.418C228.469 83.418 237.643 98.0068 236.139 101.992C234.635 105.978 230.499 105.752 230.499 105.752L221.475 108.836Z" fill="#094971"/>
<path d="M200.495 306.235H219.972C221.325 298.49 219.144 290.744 219.144 290.744L210.271 289.24C209.444 294.128 208.466 296.083 207.112 297.061C206.135 297.813 204.932 298.039 203.503 298.49C201.848 299.091 200.946 300.144 200.495 301.272C199.592 303.603 200.495 306.235 200.495 306.235Z" fill="#0C476F"/>
<path d="M200.5 301.272C205.313 301.873 215.841 302.926 215.239 300.144C214.713 297.813 210.276 297.211 207.193 297.061C206.215 297.813 205.012 298.038 203.583 298.489C201.778 299.091 200.876 300.144 200.5 301.272Z" fill="#205260"/>
<path d="M265.693 306.235H285.17C285.17 306.235 285.771 304.431 285.471 302.475C285.245 300.896 284.418 299.242 282.162 298.49C280.507 297.888 279.154 297.663 278.101 296.685C276.973 295.632 276.071 293.602 275.394 289.24L266.52 290.744C266.52 290.744 264.339 298.49 265.693 306.235Z" fill="#0C476F"/>
<path d="M285.471 302.476C285.245 300.897 284.418 299.242 282.162 298.49C280.508 297.889 279.154 297.663 278.101 296.686C275.62 297.438 272.161 298.866 271.108 300.972C269.679 303.905 281.034 303.378 285.471 302.476Z" fill="#205260"/>
<path d="M276.823 290.519C276.823 290.519 275.319 295.332 265.618 292.023C265.618 292.023 258.399 237.879 257.271 236.751C256.143 235.548 244.712 200.204 244.712 200.204H241.103C241.103 200.204 229.672 235.548 228.544 236.751C227.416 237.954 220.197 292.023 220.197 292.023C210.496 295.332 208.992 290.519 208.992 290.519L213.655 232.164L223.355 172.004L242.832 174.185L262.309 172.004L264.866 187.721L264.941 188.322L272.01 232.164L276.823 290.519Z" fill="#0E538D"/>
<path d="M265.09 188.397C258.322 186.667 256.367 180.576 256.367 180.576L256.894 180.426C256.894 180.501 258.774 186.066 265.015 187.795L265.09 188.397Z" fill="#662C33"/>
<path d="M244.336 194.864C243.81 195.39 243.133 195.691 242.381 195.691C242.381 197.12 242.381 198.699 242.306 200.203H241.704C242.005 193.886 241.328 187.419 241.328 187.344L241.855 187.269C241.855 187.344 242.231 190.728 242.306 195.089C242.983 195.089 243.509 194.864 243.885 194.488C245.765 192.533 244.637 186.893 244.637 186.817L245.163 186.742C245.239 186.968 246.367 192.683 244.336 194.864Z" fill="#662C33"/>
<path d="M296.747 66.2721C295.845 66.4225 293.438 68.0017 293.438 68.0017C291.784 69.5057 290.806 70.4081 289.603 70.7089C288.4 71.0849 288.249 73.3409 288.249 73.3409C288.249 73.3409 283.512 75.3713 282.609 72.2881C282.609 72.2881 284.64 67.8513 284.715 67.2497C284.941 66.1217 283.888 64.6929 284.64 62.6625C285.392 60.6321 285.392 57.7745 285.392 57.7745C285.392 57.7745 286.445 57.2481 286.745 58.3009C287.046 59.3537 286.52 61.0081 286.821 61.4593C286.896 61.5345 286.971 61.6097 287.046 61.6849C287.347 61.9857 287.648 62.1361 288.024 62.0609H288.099C289.302 61.7601 291.182 59.6545 291.934 58.6017C292.987 57.1729 294.491 55.2929 295.093 56.2705C295.694 57.2481 294.341 57.3985 292.686 61.0081L292.987 61.3089C292.912 61.6097 295.017 59.9553 296.672 58.0753C297.8 56.7969 298.326 58.0001 298.176 58.5265C298.025 59.1281 296.747 60.2561 295.92 61.1585C295.393 61.7601 294.792 62.4369 294.491 62.8129L294.717 63.2641C297.8 61.9105 298.101 60.6321 298.928 61.1585C299.755 61.6849 297.95 63.4897 296.973 63.9409C296.521 64.1665 295.845 64.6929 295.243 65.2193C297.8 64.6929 298.326 63.7153 298.853 64.3169C299.379 64.9185 297.649 66.0465 296.747 66.2721Z" fill="#F9CBBA"/>
<path d="M288.027 65.4446C288.554 63.7902 287.275 61.9854 287.125 61.7598C287.426 62.0606 287.727 62.211 288.103 62.1358C289.155 64.091 288.027 65.4446 288.027 65.4446Z" fill="#F9CBBA"/>
<path d="M150.561 94.0963C151.463 93.9459 154.246 94.4723 154.246 94.4723C156.351 95.2995 157.554 95.7507 158.833 95.6003C160.111 95.4499 161.014 97.5555 161.014 97.5555C161.014 97.5555 166.202 97.7059 165.902 94.5475C165.902 94.5475 162.367 91.1635 162.066 90.6371C161.465 89.6595 161.916 87.9299 160.412 86.3507C158.983 84.7715 157.855 82.1395 157.855 82.1395C157.855 82.1395 156.652 81.9891 156.802 83.1171C156.878 84.2451 158.006 85.5987 157.855 86.1251C157.855 86.2003 157.78 86.3507 157.78 86.4259C157.63 86.8019 157.329 87.0275 157.028 87.1027H156.953C155.674 87.3283 153.193 85.9747 152.14 85.2979C150.636 84.3203 148.53 83.1171 148.38 84.2451C148.154 85.3731 149.508 85.0723 152.366 87.7795L152.215 88.1555C152.441 88.3811 149.809 87.6291 147.628 86.5011C146.124 85.7491 146.049 87.0275 146.425 87.4787C146.726 88.0051 148.38 88.5315 149.508 89.1331C150.26 89.5091 151.012 89.8851 151.463 90.1107V90.6371C148.079 90.5619 147.327 89.4339 146.801 90.2611C146.274 91.0883 148.53 92.0659 149.658 92.0659C150.11 92.0659 150.937 92.3667 151.764 92.6675C149.132 93.1187 148.38 92.3667 148.079 93.1187C147.628 93.7955 149.658 94.2467 150.561 94.0963Z" fill="#F9CBBA"/>
<path d="M158.379 90.1116C157.326 88.758 157.777 86.5772 157.853 86.3516C157.702 86.7276 157.401 86.9532 157.101 87.0284C156.8 89.2844 158.379 90.1116 158.379 90.1116Z" fill="#F9CBBA"/>
<path d="M289.528 75.1459C289.528 75.1459 289.002 77.0259 288.175 79.8835C287.799 81.0867 287.423 82.3651 286.972 83.7939C286.295 85.9747 285.543 88.4563 284.716 90.8627C284.264 92.2163 283.813 93.4947 283.362 94.7731C282.159 98.0067 280.956 101.015 279.828 103.12C279.677 103.421 279.527 103.722 279.376 103.947C278.925 104.699 278.324 105.527 277.496 106.429C276.218 107.933 274.488 109.663 272.458 111.467C271.48 112.37 270.428 113.272 269.375 114.25C267.645 115.754 265.765 117.333 263.96 118.837C262.832 119.815 261.704 120.717 260.576 121.544C254.936 126.056 250.274 129.515 250.274 129.515L241.852 112.37C244.258 110.715 248.695 108.008 253.282 105.226C254.41 104.549 255.463 103.872 256.591 103.271C258.32 102.293 259.975 101.24 261.479 100.338C262.682 99.6611 263.81 98.9843 264.788 98.3827C266.216 97.5555 267.42 96.8035 268.322 96.2771C269.224 95.7507 269.826 95.4499 269.826 95.4499C269.826 95.4499 270.202 94.6979 270.879 93.4947C271.631 92.0659 272.759 89.8851 273.962 87.4787C274.488 86.4259 275.09 85.2979 275.692 84.1699C276.669 82.3651 277.647 80.4851 278.624 78.6803C279.226 77.5523 279.828 76.4243 280.429 75.3715C282.084 72.4387 283.437 70.1075 284.114 69.2051C284.114 69.2051 288.4 70.6339 289.528 75.1459Z" fill="#0D538E"/>
<path d="M218.462 115.979L216.958 135.08C216.958 135.08 211.694 133.651 205.076 131.696C203.798 131.32 202.519 130.869 201.166 130.493C198.834 129.741 196.428 128.913 194.097 128.161C192.818 127.71 191.615 127.259 190.412 126.808C187.63 125.755 185.073 124.702 183.118 123.649C182.065 123.123 181.162 122.597 180.561 122.07C180.335 121.92 180.11 121.694 179.884 121.469C178.305 120.115 176.425 118.085 174.394 115.829C173.567 114.851 172.665 113.873 171.838 112.821C170.108 110.79 168.454 108.685 166.874 106.654C166.047 105.601 165.22 104.549 164.543 103.646C161.911 100.112 160.031 97.555 160.031 97.555C160.257 93.1182 163.49 91.8398 163.49 91.8398C164.694 92.5918 167.401 94.6974 170.559 97.3294C171.537 98.0814 172.514 98.9086 173.492 99.7358C175.222 101.165 176.876 102.593 178.53 103.947C179.583 104.774 180.561 105.601 181.388 106.353C182.817 107.557 184.095 108.685 184.922 109.361C185.75 110.038 186.201 110.489 186.201 110.489C186.201 110.489 187.028 110.64 188.382 110.79C189.585 111.016 191.239 111.241 193.194 111.542C194.398 111.693 195.676 111.918 196.954 112.144C198.609 112.445 200.338 112.67 202.068 112.971C203.346 113.197 204.55 113.422 205.828 113.573C211.017 114.55 215.83 115.377 218.462 115.979Z" fill="#0D538E"/>
<path d="M268.847 176.59C268.847 176.59 258.319 187.569 244.031 190.352C231.472 192.758 220.192 192.758 220.192 192.758C220.192 192.758 219.515 189.901 218.538 185.389C218.312 184.261 218.011 182.982 217.711 181.629C217.184 179.222 216.583 176.515 215.981 173.582C215.755 172.379 215.455 171.101 215.154 169.822C214.627 167.491 214.176 165.085 213.65 162.678C213.424 161.475 213.123 160.197 212.898 158.918C212.296 155.835 211.695 152.827 211.093 149.969C210.867 148.691 210.567 147.413 210.341 146.209C209.664 142.75 209.138 139.667 208.762 137.11C208.536 135.606 208.311 134.328 208.235 133.275C208.16 132.899 208.16 132.523 208.16 132.222C207.935 129.59 207.859 127.184 207.859 125.003C207.859 123.574 207.859 122.296 207.859 121.093C207.935 116.957 208.16 114.4 208.16 114.4C211.093 112.369 231.623 118.912 231.623 118.912C231.623 118.912 246.738 105.902 249.144 106.805C250.498 107.331 251.776 108.534 252.979 110.264C253.656 111.241 254.333 112.369 254.935 113.648C255.987 115.753 257.04 118.31 258.018 121.093C258.469 122.371 258.92 123.725 259.296 125.153C259.973 127.485 260.65 129.891 261.251 132.373C261.552 133.651 261.853 134.929 262.154 136.208C262.68 138.614 263.207 141.096 263.733 143.577C264.034 144.856 264.259 146.209 264.485 147.488C264.936 149.744 265.312 151.925 265.613 154.03C265.839 155.384 266.064 156.737 266.29 158.016C266.741 160.949 267.117 163.581 267.493 165.987C267.719 167.491 267.869 168.769 268.019 170.048C268.546 174.184 268.847 176.59 268.847 176.59Z" fill="#403DCD"/>
<path d="M258.467 122.598C258.317 122.146 258.166 121.695 258.016 121.244C257.038 118.462 256.061 115.905 254.933 113.799C254.256 112.521 253.654 111.393 252.977 110.415C251.774 108.686 250.496 107.483 249.142 106.956C247.789 106.43 242.374 110.34 237.938 113.874L258.467 122.598Z" fill="#0D538E"/>
<path d="M208.238 132.224L223.429 116.582C217.413 114.928 209.968 113.273 208.238 114.476C208.238 114.476 208.013 117.033 207.938 121.169C207.938 122.372 207.938 123.651 207.938 125.08C207.938 127.185 208.013 129.592 208.238 132.224Z" fill="#0D538E"/>
<path d="M234.486 111.393C234.486 111.393 233.884 116.506 235.764 118.085C235.764 118.085 234.787 121.695 232.004 122.447C228.771 123.274 226.891 119.815 226.891 119.815C226.891 119.815 227.718 114.852 225.688 113.573L234.486 111.393Z" fill="#F9CBBA"/>
<path d="M219.067 106.203C219.067 106.203 215.984 104.699 216.586 107.481C217.338 110.715 220.571 111.016 220.797 109.812C221.022 108.684 219.067 106.203 219.067 106.203Z" fill="#F9CBBA"/>
<path d="M235.385 100.94C235.385 100.94 236.889 97.857 238.092 100.489C239.445 103.497 237.039 105.753 236.137 104.926C235.309 104.099 235.385 100.94 235.385 100.94Z" fill="#F9CBBA"/>
<path d="M230.801 114.926C225.687 116.655 221.626 114.249 218.242 104.172C216.513 98.9833 218.092 94.9225 223.807 92.9673C229.597 91.0121 233.057 93.4185 234.786 98.6073C238.396 109.436 236.065 113.121 230.801 114.926Z" fill="#F9CBBA"/>
<path d="M222.306 90.7129C210.8 94.9993 217.719 105.828 217.719 105.828L219.373 107.332C218.621 104.249 219.147 102.519 219.147 102.519C218.32 101.316 218.245 99.0601 218.471 98.0073C219.899 96.8041 223.509 94.4729 230.127 93.7209C230.202 93.7961 231.931 95.5257 232.082 97.2553C232.082 97.2553 234.714 99.6617 235.842 102.519L236.067 99.8873C236.143 99.8873 233.511 86.5769 222.306 90.7129Z" fill="#094971"/>
<path d="M204.027 125.981L208.087 132.523L212.073 125.981C212.073 125.981 211.772 116.13 211.772 116.431C211.772 116.731 212.9 114.175 210.193 114.024C207.486 113.874 204.703 114.475 204.703 114.475C204.703 114.475 204.102 118.687 204.102 118.837C203.951 119.138 204.027 125.981 204.027 125.981Z" fill="#0D538E"/>
<path d="M251.027 116.28C251.027 116.28 258.622 123.123 258.622 123.198C258.622 123.274 260.276 115.829 260.276 115.829L257.419 108.835L251.553 106.354C251.553 106.354 248.771 106.579 247.342 107.331C245.913 108.083 248.395 110.79 248.395 110.79L251.027 116.28Z" fill="#0D538E"/>
<path d="M363.389 100.112C363.389 100.112 364.817 97.1794 360.757 97.405C356.696 97.6306 345.792 98.3074 349.101 113.047L359.102 119.138L362.561 117.784L369.179 114.024C369.179 114.024 371.736 106.279 369.856 103.271C367.976 100.263 364.517 97.2546 363.389 100.112Z" fill="#1E0F00"/>
<path d="M313.977 253.369C313.977 253.369 325.257 283.449 325.933 293C325.933 293 328.791 295.256 333.604 293.225C333.604 293.225 333.754 264.424 329.017 255.55C324.354 246.677 313.977 253.369 313.977 253.369Z" fill="#F9CBBA"/>
<path d="M311.577 306.234H335.34C336.318 302.474 334.814 299.316 334.814 299.316C334.814 299.316 335.867 295.18 335.415 293.826C335.039 292.473 330.151 290.818 328.798 292.247C327.895 293.225 327.82 294.503 327.895 295.18C327.219 291.42 325.489 291.119 323.835 292.548C322.105 294.052 324.211 293.3 323.91 295.781C323.91 295.932 323.835 296.157 323.759 296.308C323.609 296.684 323.383 296.985 323.083 297.285C322.857 297.511 322.481 297.812 322.105 297.962C321.955 298.113 321.729 298.188 321.503 298.263C321.127 298.413 320.676 298.564 320.225 298.714C319.548 298.94 318.796 299.09 317.969 299.165C314.735 299.466 313.382 299.692 311.878 301.421C310.374 303.076 311.351 304.429 311.351 304.429L311.577 306.234Z" fill="#D3D3D3"/>
<path d="M323.841 296.307C323.69 296.683 323.465 296.984 323.164 297.285C325.27 296.458 326.473 297.962 326.473 297.962L327.074 297.21C325.57 295.33 323.916 296.232 323.841 296.307Z" fill="#ADBEC4"/>
<path d="M324.293 299.692L325.12 299.165C324.669 297.812 323.767 297.36 323.165 297.285C322.939 297.511 322.563 297.812 322.188 297.962C323.842 298.263 324.293 299.692 324.293 299.692Z" fill="#ADBEC4"/>
<path d="M321.959 300.593L322.861 300.142C322.636 299.089 322.109 298.563 321.583 298.262C321.207 298.412 320.756 298.563 320.305 298.713C321.658 299.315 321.959 300.593 321.959 300.593Z" fill="#ADBEC4"/>
<path d="M362.557 300.52C363.234 300.144 363.836 299.392 364.362 298.49C364.362 298.49 364.813 295.707 364.362 292.699C363.911 289.767 365.189 287.36 369.325 286.458C373.386 285.555 375.792 287.511 374.89 295.707C375.492 299.091 375.642 303.002 374.213 306.235H361.73C361.73 306.235 359.775 302.024 362.557 300.52Z" fill="#D3D3D3"/>
<path d="M351.578 256.527C351.578 256.527 351.578 264.649 356.165 272.996C360.828 281.494 366.618 293.15 366.618 293.15C366.618 293.15 370.453 296.91 372.935 290.668C372.935 290.668 371.205 269.01 367.22 261.039C363.309 253.218 351.578 256.527 351.578 256.527Z" fill="#F9CBBA"/>
<path d="M372.034 293.978C372.034 293.978 373.162 291.647 372.184 290.594C371.132 289.617 369.928 291.497 368.199 291.045C366.469 290.594 366.018 289.391 365.567 291.045C365.116 292.775 365.642 298.189 372.034 293.978Z" fill="#D3D3D3"/>
<path d="M365.414 293.902C365.414 293.902 370.152 295.557 372.558 293.902L371.956 295.933C371.956 295.933 366.843 296.459 366.091 295.181L365.414 293.902Z" fill="#ADBEC4"/>
<path d="M365.49 296.46C365.49 296.46 369.852 295.859 371.882 296.911V297.889C371.882 297.889 366.242 296.535 364.438 297.889L365.49 296.46Z" fill="#ADBEC4"/>
<path d="M372.107 299.995C372.107 299.995 371.28 297.964 368.648 297.814C366.016 297.663 364.211 299.092 364.211 299.092C364.211 299.092 368.422 297.438 372.107 299.995Z" fill="#ADBEC4"/>
<path d="M370.905 254.422C370.905 254.422 370.454 255.475 369.477 256.753C369.326 256.904 369.251 257.054 369.101 257.205C366.469 260.438 360.753 264.725 350.301 260.513C350.301 260.513 350 259.912 349.699 258.934C349.624 258.784 349.549 258.634 349.473 258.408C348.797 256.678 347.969 254.272 347.593 252.091C344.886 236.901 343.833 225.922 342.405 219.68C338.419 229.381 329.395 248.181 328.944 248.933C328.417 249.91 330.448 256.377 330.448 256.377C322.928 258.859 312.174 255.701 312.174 255.701C312.174 255.701 308.941 246.15 308.414 239.307C308.038 234.118 321.198 204.866 327.365 191.48C327.515 191.104 327.665 190.803 327.816 190.502C329.47 186.968 330.448 184.787 330.448 184.787L340.976 188.321L366.544 199.827C366.544 199.827 366.995 200.353 367.446 205.617C367.446 205.768 367.446 205.918 367.446 206.069C367.672 209.227 367.897 213.89 368.048 220.958V221.409C368.048 222.913 368.123 224.568 368.123 226.373V226.824C368.123 230.885 368.198 235.547 368.123 240.886C368.123 241.037 368.123 241.187 368.123 241.337C368.123 242.992 368.123 244.722 368.048 246.526C368.048 248.181 369.326 251.264 370.153 253.069C370.229 253.219 370.304 253.37 370.379 253.52C370.755 254.046 370.905 254.422 370.905 254.422Z" fill="#094971"/>
<path d="M369.475 256.754C369.325 256.904 369.249 257.055 369.099 257.205C367.896 255.25 366.091 251.866 365.715 249.535C365.113 246.226 364.813 233.141 365.715 219.38C366.617 206.069 363.685 192.984 363.609 192.834L364.136 192.684C364.136 192.834 367.144 205.994 366.241 219.38C365.339 233.066 365.64 246.076 366.241 249.384C366.693 251.64 368.347 254.799 369.475 256.754Z" fill="#0C476F"/>
<path d="M365.568 204.339C357.371 201.407 355.341 194.714 355.266 194.639L355.792 194.488C355.792 194.563 357.822 200.955 365.718 203.813L365.568 204.339Z" fill="#0C476F"/>
<path d="M335.409 189.374C335.258 189.524 334.958 189.524 334.206 189.6C332.626 189.675 329.694 189.9 327.438 191.705C327.588 191.329 327.738 191.028 327.889 190.728C330.145 189.374 332.702 189.224 334.206 189.073C334.582 189.073 335.033 188.998 335.108 188.998L335.409 189.374Z" fill="#0C476F"/>
<path d="M342.176 219.905C336.236 208.023 343.906 192.156 343.981 192.006L344.508 192.231C344.432 192.382 336.837 208.099 342.703 219.679L342.176 219.905Z" fill="#0C476F"/>
<path d="M341.051 208.324C340.524 208.324 340.148 208.174 340.148 208.174L340.299 207.647C340.299 207.647 341.427 208.023 342.404 207.347C343.232 206.82 343.833 205.692 343.984 204.038C344.585 198.999 348.42 192.833 348.571 192.607L349.022 192.908C348.947 192.983 345.112 199.225 344.51 204.113C344.284 205.918 343.683 207.196 342.63 207.873C342.104 208.249 341.502 208.324 341.051 208.324Z" fill="#0C476F"/>
<path d="M385.422 150.045C383.542 170.424 376.172 190.202 373.615 198.398C373.089 200.203 372.713 201.181 372.713 201.181C372.713 201.181 332.706 195.992 327.969 185.163C327.969 185.163 328.044 184.862 328.194 184.336C329.398 179.448 335.338 159.52 336.015 143.202C336.767 125.078 342.858 118.686 346.543 119.514C346.543 119.514 354.815 126.056 360.154 126.056C365.418 126.056 378.127 120.266 378.127 120.266C378.127 120.266 387.678 125.229 385.422 150.045Z" fill="#403DCD"/>
<path d="M373.615 198.398C373.089 200.203 372.713 201.181 372.713 201.181C372.713 201.181 332.706 195.992 327.969 185.163C327.969 185.163 328.044 184.862 328.194 184.336C330.751 188.547 361.433 198.85 373.615 198.398Z" fill="#2B94F3"/>
<path d="M312.399 77.7775C312.399 77.7775 313.301 75.6719 317.287 75.6719C320.295 75.6719 321.498 77.3263 321.498 77.3263C323.303 82.5903 325.258 102.894 325.935 103.571C326.311 103.947 348.871 121.168 348.871 121.168C336.688 121.393 336.237 141.622 336.237 141.622C335.861 136.659 318.866 124.251 314.579 116.129C310.443 108.609 308.563 90.1103 312.399 77.7775Z" fill="#403DCD"/>
<path d="M360.149 118.535C361.478 118.535 362.555 117.458 362.555 116.129C362.555 114.8 361.478 113.723 360.149 113.723C358.82 113.723 357.742 114.8 357.742 116.129C357.742 117.458 358.82 118.535 360.149 118.535Z" fill="#1E0F00"/>
<path d="M409.636 79.2052C409.636 79.2052 408.733 77.0996 404.748 77.0996C401.74 77.0996 400.537 78.754 400.537 78.754C398.732 84.018 396.777 104.322 396.1 104.999C395.724 105.375 373.164 122.596 373.164 122.596C372.637 136.733 385.797 143.05 385.797 143.05C386.173 138.087 403.169 125.679 407.455 117.557C411.516 110.037 413.471 91.538 409.636 79.2052Z" fill="#403DCD"/>
<path d="M355.041 125.755C355.041 125.755 352.86 126.657 352.409 127.559C351.958 128.537 353.612 132.447 356.846 132.748C360.08 133.049 366.246 129.289 365.945 128.086C365.795 126.883 361.132 125.303 355.041 125.755Z" fill="#2B94F3"/>
<path d="M354.734 121.168C354.734 121.168 355.938 126.131 354.133 128.086C354.133 128.086 357.141 132.899 363.909 128.011C363.909 128.011 362.63 124.778 363.909 122.597L354.734 121.168Z" fill="#F9CBBA"/>
<path d="M368.047 112.295C368.047 112.295 370.604 109.738 370.904 112.746C371.28 116.205 368.122 117.559 367.52 116.506C366.919 115.303 368.047 112.295 368.047 112.295Z" fill="#F9CBBA"/>
<path d="M350.146 112.445C350.146 112.445 347.59 109.888 347.289 112.896C346.913 116.356 350.071 117.709 350.673 116.656C351.274 115.528 350.146 112.445 350.146 112.445Z" fill="#F9CBBA"/>
<path d="M359.401 124.777C365.041 124.777 368.275 121.092 368.275 109.962C368.275 104.247 365.342 100.713 359.025 100.713C352.708 100.713 350.001 104.247 350.001 109.962C349.926 121.919 353.536 124.777 359.401 124.777Z" fill="#F9CBBA"/>
<path d="M365.717 103.421C365.717 103.421 361.807 103.12 353.084 102.519C353.084 102.519 349.925 105.828 350.151 113.949C350.151 113.949 345.113 99.2852 359.852 99.2852C374.666 99.2852 367.973 113.573 367.973 113.573C367.973 113.573 368.5 106.204 365.717 103.421Z" fill="#1E0F00"/>
<path d="M317.664 75.1459C317.664 75.1459 313.453 75.3715 313.453 76.6499C313.453 78.0035 313.453 79.5827 316.988 79.4323C320.522 79.2819 320.522 77.8531 320.597 76.5747C320.672 75.2211 318.792 74.9955 317.664 75.1459Z" fill="#FEBE56"/>
<path d="M405.8 75.8978C405.8 75.8978 401.589 75.8978 401.514 77.2514C401.439 78.605 401.363 80.1842 404.898 80.1842C408.432 80.1842 408.507 78.8306 408.658 77.477C408.808 76.1986 407.004 75.8226 405.8 75.8978Z" fill="#FEBE56"/>
<path d="M311.049 66.7228C311.65 67.3996 312.628 70.1068 312.628 70.1068C313.079 72.3628 313.305 73.566 314.057 74.6188C314.809 75.6716 314.433 77.4764 314.433 77.4764C314.433 77.4764 317.441 79.0556 319.997 77.1004C319.997 77.1004 319.697 75.2956 319.997 74.7692C320.524 73.7164 322.178 73.19 322.78 71.1596C323.381 69.1292 325.111 66.798 325.111 66.798C325.111 66.798 324.585 65.7452 323.682 66.3468C322.78 67.0236 322.178 68.678 321.727 68.8284C321.652 68.8284 321.501 68.9036 321.426 68.9036C321.05 68.9788 320.674 68.9036 320.449 68.678C320.449 68.678 320.373 68.678 320.373 68.6028C319.546 67.6252 319.321 64.8428 319.396 63.5644C319.471 61.8348 319.396 59.3532 318.343 59.8044C317.29 60.1804 318.268 61.158 317.441 65.0684L317.065 65.1436C316.989 65.4444 316.237 62.8124 316.087 60.3308C315.937 58.6012 314.884 59.278 314.583 59.8044C314.357 60.3308 314.733 62.0604 314.809 63.2636C314.884 64.0908 314.959 64.918 314.959 65.4444L314.508 65.67C312.853 62.7372 313.38 61.534 312.402 61.4588C311.425 61.3836 311.801 63.8652 312.327 64.8428C312.553 65.2188 312.778 66.1212 312.929 66.9484C311.199 64.918 311.425 63.9404 310.597 64.0156C309.695 64.0908 310.447 66.046 311.049 66.7228Z" fill="#F9CBBA"/>
<path d="M318.493 71.3097C319.094 69.7305 321.2 68.9785 321.425 68.9033C321.049 68.9785 320.673 68.9033 320.448 68.6777C318.417 69.5801 318.493 71.3097 318.493 71.3097Z" fill="#F9CBBA"/>
<path d="M411.141 67.2502C410.539 67.927 409.561 70.6342 409.561 70.6342C409.11 72.8902 408.885 74.0934 408.133 75.1462C407.381 76.199 407.757 78.0038 407.757 78.0038C407.757 78.0038 404.749 79.583 402.192 77.6278C402.192 77.6278 402.493 75.823 402.192 75.2966C401.665 74.2438 400.011 73.7174 399.409 71.687C398.808 69.6566 397.078 67.3254 397.078 67.3254C397.078 67.3254 397.605 66.2726 398.507 66.8742C399.409 67.551 400.011 69.2054 400.462 69.3558C400.537 69.3558 400.688 69.431 400.763 69.431C401.139 69.5062 401.515 69.431 401.741 69.2054C401.741 69.2054 401.816 69.2054 401.816 69.1302C402.643 68.1526 402.869 65.3702 402.793 64.0918C402.718 62.3622 402.793 59.8806 403.846 60.3318C404.899 60.7078 403.921 61.6854 404.749 65.5958L405.125 65.671C405.2 65.9718 405.952 63.3398 406.102 60.8582C406.253 59.1286 407.305 59.8054 407.606 60.3318C407.832 60.8582 407.456 62.5878 407.381 63.791C407.305 64.6182 407.23 65.4454 407.23 65.9718L407.681 66.1974C409.336 63.2646 408.809 62.0614 409.787 61.9862C410.765 61.911 410.389 64.3926 409.862 65.3702C409.637 65.7462 409.411 66.6486 409.261 67.4758C410.99 65.4454 410.765 64.4678 411.592 64.543C412.419 64.6182 411.742 66.5734 411.141 67.2502Z" fill="#F9CBBA"/>
<path d="M403.62 71.9132C403.019 70.3341 400.913 69.5821 400.688 69.5069C401.063 69.5821 401.44 69.5069 401.665 69.2812C403.771 70.1084 403.62 71.9132 403.62 71.9132Z" fill="#F9CBBA"/>
<path d="M349.172 106.429C349.172 106.429 361.204 106.956 363.46 103.045C365.716 99.1348 356.842 100.188 356.842 100.188C356.842 100.188 354.285 100.94 354.06 100.94C353.834 100.94 350.525 102.293 350.525 102.293L349.172 106.429Z" fill="#1E0F00"/>
<path d="M187.943 153.204C187.868 152.001 192.455 126.884 188.093 120.943C182.303 113.047 173.279 116.582 173.279 116.582C173.279 116.582 162.525 116.582 163.052 132.599C163.578 148.617 167.864 159.671 158.464 171.478C149.064 183.284 157.938 192.684 166.285 193.436C174.632 194.113 180.498 187.721 180.498 187.721C180.498 187.721 188.996 165.161 187.943 153.204Z" fill="#0C476F"/>
<path d="M196.284 215.169C196.284 215.169 192.223 228.029 182.222 245.249C182.222 245.249 183.951 263.523 155.676 297.363L151.766 295.182C151.766 295.182 166.279 261.192 168.686 251.115C171.017 241.038 170.039 227.577 177.634 206.521L196.284 215.169Z" fill="#F9CBBA"/>
<path d="M179.064 189.299L192.449 183.885C194.781 191.33 200.797 196.669 200.27 208.325C200.045 214.115 196.285 219.981 196.285 219.981C180.493 219.379 175.078 212.762 175.078 212.762L177.485 201.632C177.485 201.632 179.139 194.112 179.064 189.299Z" fill="#1E0F00"/>
<path d="M210.797 206.522C210.797 206.522 211.248 219.982 207.563 239.534C207.563 239.534 215.234 256.154 199.893 297.514L195.531 296.762C195.531 296.762 197.863 259.838 196.735 249.536C195.607 239.234 189.666 230.21 190.343 204.566L210.797 206.522Z" fill="#F9CBBA"/>
<path d="M179.062 189.299L184.327 198.248L185.605 200.429L188.312 205.091L190.042 217.499L190.117 218.026L190.192 218.326C203.728 216.747 211.023 220.958 211.023 220.958L211.173 219.83V219.454C211.173 219.379 211.248 219.304 211.248 219.229C212.527 215.544 214.256 205.542 212.151 198.699C208.691 187.57 202.525 188.622 197.863 182.381C197.938 182.456 179.062 189.299 179.062 189.299Z" fill="#1E0F00"/>
<path d="M202.604 293.677C202.604 293.677 200.874 297.512 201.401 300.144C201.701 301.723 203.431 303.754 202.077 306.235H191.549C191.549 306.235 190.346 303.378 192.828 300.746C194.181 299.317 195.234 292.549 195.234 292.549C196.437 292.774 196.137 293.677 196.137 293.677C196.137 293.677 196.137 290.518 198.769 290.894C202.002 291.421 201.25 294.203 201.25 294.203C201.25 294.203 201.476 293.226 202.604 293.677Z" fill="#094971"/>
<path d="M139.135 306.236H156.882C156.882 306.236 157.408 302.476 156.581 301.198C155.453 299.393 159.364 295.332 159.364 295.332C159.364 295.332 156.957 292.4 154.927 294.054C154.927 294.054 155.152 290.369 152.445 290.369C152.445 290.369 149.964 296.611 147.181 298.867C147.106 298.942 147.031 298.942 146.956 299.017C144.85 300.521 141.015 300.897 139.586 303.003C139.06 303.83 138.834 304.808 139.135 306.236Z" fill="#094971"/>
<path d="M189.359 217.727L189.51 218.253C189.735 218.178 189.961 218.103 190.187 218.027C201.316 214.944 208.987 218.554 211.167 219.832V219.456C211.167 219.381 211.243 219.306 211.243 219.231C210.265 218.704 208.385 217.802 205.753 217.125C205.903 216.072 206.655 208.928 205.753 200.957C204.775 192.309 196.353 187.12 196.203 187.045L195.902 187.571C195.977 187.571 201.918 191.331 204.324 197.573C196.503 197.498 193.345 187.647 193.345 187.571L192.819 187.722C192.819 187.797 196.127 198.099 204.475 198.099H204.55C204.851 199.002 205.076 199.979 205.227 201.032C206.129 208.778 205.377 215.771 205.227 216.975C201.467 216.147 196.278 215.771 190.111 217.501C189.886 217.576 189.66 217.651 189.359 217.727Z" fill="#1E0F00"/>
<path d="M183.648 191.857C183.648 191.933 184.4 199.603 187.935 205.469L187.484 205.769C183.874 199.829 183.122 192.008 183.047 191.933L183.648 191.857Z" fill="#1E0F00"/>
<path d="M166.728 147.713C170.488 147.563 170.639 151.248 168.683 154.933C166.803 158.542 148.53 175.011 145.672 171.928C144.619 170.725 147.703 165.235 147.703 165.235C147.703 165.235 152.891 160.648 159.659 152.977C162.818 149.443 164.773 147.864 166.728 147.713Z" fill="#FF8B66"/>
<path d="M143.273 165.988C142.22 160.649 143.724 146.361 145.98 140.119L149.138 140.871C149.138 140.871 148.988 156.588 150.417 161.702C151.845 166.74 150.943 170.5 147.634 172.004C144.325 173.433 143.423 167.116 143.273 165.988Z" fill="#F9CBBA"/>
<path d="M152.742 136.659C149.358 138.915 150.561 142.149 147.177 142.826C146.5 142.976 145.899 142.826 145.523 142.525C144.695 141.999 144.395 141.021 144.545 140.043C144.921 137.787 144.771 134.855 144.62 133.351C144.395 131.621 145.147 132.223 145.147 132.223C145.147 132.072 145.071 131.922 145.071 131.771C144.771 130.643 144.395 129.891 145.297 130.192C146.275 130.568 147.177 133.651 147.177 133.651C146.951 128.914 145.748 128.387 146.651 128.613C147.854 128.914 148.681 133.05 148.681 133.2C149.057 130.343 148.455 128.839 149.207 129.365C149.959 129.891 150.035 135.005 150.035 136.885C150.035 137.336 150.035 137.562 150.035 137.562C152.441 135.531 152.742 136.659 152.742 136.659Z" fill="#F9CBBA"/>
<path d="M149.809 136.885C149.809 137.336 149.809 137.562 149.809 137.562C149.809 137.562 148.455 137.712 147.703 139.366C147.703 139.366 147.628 137.336 149.809 136.885Z" fill="#F9CBBA"/>
<path d="M145.899 135.455C145.824 135.079 145.523 132.748 144.997 132.147C144.997 131.996 144.922 131.846 144.922 131.695C145.749 131.771 145.899 135.004 145.899 135.455Z" fill="#F9CBBA"/>
<path d="M197.942 182.456C197.942 182.456 194.257 172.68 196.137 167.115C199.371 157.565 197.641 149.519 194.182 147.187C188.692 143.352 177.111 147.714 177.111 147.714C177.111 147.714 165.907 146.511 164.703 149.97C163.5 153.429 160.868 167.191 166.207 174.56C171.547 181.93 178.991 193.36 178.991 193.36C178.991 193.36 194.934 191.856 197.942 182.456Z" fill="#457AAA"/>
<path d="M178.836 134.93C178.836 134.93 178.084 141.322 180.416 147.112C180.416 147.112 177.032 152.076 173.798 148.842C173.798 148.842 173.497 142.976 169.888 136.359C167.556 131.922 178.836 134.93 178.836 134.93Z" fill="#F9CBBA"/>
<path d="M184.029 135.156C184.029 135.156 186.887 133.351 186.586 136.133C186.21 139.367 183.052 139.968 182.751 138.84C182.375 137.712 184.029 135.156 184.029 135.156Z" fill="#F9CBBA"/>
<path d="M167.708 131.621C167.708 131.621 165.903 128.763 165 131.395C163.948 134.478 166.504 136.358 167.332 135.531C168.084 134.704 167.708 131.621 167.708 131.621Z" fill="#F9CBBA"/>
<path d="M173.579 144.706C178.767 145.834 182.377 143.127 184.633 133.05C185.836 127.861 183.881 124.026 178.091 122.747C172.3 121.469 169.142 124.101 168.014 129.29C165.607 140.194 168.239 143.578 173.579 144.706Z" fill="#F9CBBA"/>
<path d="M183.579 136.961C183.579 136.961 184.255 134.479 184.481 131.697C184.782 128.012 182.526 124.553 178.991 123.425C177.788 123.049 176.435 122.899 174.855 122.974C172.524 123.124 170.494 124.703 169.591 126.809C168.839 128.539 167.937 130.945 167.26 133.727C167.26 133.727 166.358 130.719 167.185 126.057C168.012 121.395 171.847 117.559 180.646 119.439C188.241 121.094 191.475 130.193 183.579 136.961Z" fill="#094971"/>
<path d="M172.602 121.846C172.602 121.846 173.579 128.99 183.355 129.892C183.355 129.892 177.414 127.787 177.414 123.651C177.414 123.651 179.746 128.99 185.386 128.388C185.386 128.388 185.912 119.74 172.602 121.846Z" fill="#094971"/>
<path d="M202.379 149.443C197.642 150.872 194.408 158.543 195.386 159.445C196.363 160.347 218.848 164.634 218.848 164.634L205.162 184.336L207.493 187.72C207.493 187.72 228.85 168.845 228.699 162.378C228.549 155.986 202.379 149.443 202.379 149.443Z" fill="#F9CBBA"/>
<path d="M205.087 183.811C205.087 183.811 202.079 184.112 200.274 184.638C198.394 185.09 195.912 185.541 195.837 185.992C195.762 186.368 199.973 185.992 199.973 185.992C199.973 185.992 196.514 187.421 196.439 187.947C196.363 188.474 200.8 187.571 200.8 187.571C200.8 187.571 198.018 189.301 198.168 189.752C198.319 190.203 201.778 189.075 201.778 189.075C201.778 189.075 201.101 190.73 200.499 191.482C200.499 191.482 201.176 191.858 202.53 190.354C203.883 188.85 206.064 189.301 207.794 188.022C209.448 186.518 206.666 183.586 205.087 183.811Z" fill="#F9CBBA"/>
<path d="M201.623 302.325C201.623 302.325 198.766 298.565 192.825 301.573C192.825 301.573 192.599 304.205 195.307 303.678C198.089 303.227 199.743 305.257 201.623 302.325Z" fill="#0F538C"/>
<path d="M139.664 303.003C143.424 304.808 151.245 300.522 151.245 300.522C149.966 300.747 148.162 299.77 147.034 299.018C144.928 300.597 141.168 300.973 139.664 303.003Z" fill="#0F538C"/>
<path d="M172.298 147.714C172.298 147.714 166.733 146.436 165.004 147.338C163.274 148.24 151.543 160.799 151.543 160.799C151.543 160.799 151.317 166.364 154.25 168.845L166.508 160.047L172.298 147.714Z" fill="#457AAA"/>
<path d="M189.742 145.684C189.742 145.684 196.736 146.812 206.512 149.444C216.288 152.076 223.432 156.136 223.432 156.136C223.432 156.136 218.694 164.86 217.341 165.311L189.742 159.972V145.684V145.684Z" fill="#457AAA"/>
<path d="M423.471 134.027C423.471 134.027 424.524 143.803 426.253 145.383C428.133 147.037 429.487 145.533 429.487 145.533C429.487 145.533 427.983 149.443 425.802 148.391C423.621 147.263 422.042 144.255 422.042 144.255L420.914 140.269L423.471 134.027Z" fill="#094971"/>
<path d="M404.746 126.658C404.746 126.658 395.572 131.32 396.549 139.216C397.527 147.112 400.385 169.371 399.933 170.048C399.407 170.65 407.153 176.44 421.065 171.477C434.977 166.589 421.365 145.758 423.697 131.922C426.028 118.085 409.333 125.755 409.333 125.755L404.746 126.658Z" fill="#094971"/>
<path d="M414.073 115.604C414.073 115.604 416.104 107.257 425.128 111.242C434.152 115.228 419.112 139.367 421.067 145.834C423.022 152.301 415.803 150.572 414.073 150.045C412.344 149.444 414.073 116.807 414.073 116.807V115.604Z" fill="#094971"/>
<path d="M380.602 201.783C383.835 190.654 390.152 182.457 390.152 182.457L399.702 184.036L399.778 183.886L400.53 184.036H400.605L410.456 185.991C410.456 185.991 414.742 193.887 417.525 205.092C420.382 216.297 411.885 244.572 411.885 244.572C411.885 244.572 416.622 257.807 405.643 292.399H400.454C400.454 292.399 402.41 249.31 401.658 244.572C400.981 240.436 400.154 225.321 400.605 213.815C400.003 213.966 399.402 213.966 398.725 213.966C398.725 225.547 397.446 240.587 396.619 244.647C395.717 249.385 396.168 292.55 396.168 292.55L390.979 292.399C381.128 257.431 386.317 244.347 386.317 244.347C386.317 244.347 377.443 212.838 380.602 201.783Z" fill="#F9CBBA"/>
<path d="M389.183 285.105C390.912 285.331 393.845 285.631 396.252 285.406C396.176 272.923 396.026 248.182 396.778 244.647C397.53 240.587 398.884 225.547 398.884 213.966C399.56 214.041 400.162 213.966 400.764 213.815C400.312 225.396 401.14 240.436 401.816 244.572C402.343 248.107 401.44 273.073 400.914 285.481C402.568 285.932 405.05 286.383 407.757 286.007C416.255 256.153 412.119 244.572 412.119 244.572C412.119 244.572 420.616 216.297 417.759 205.092C414.901 193.887 410.69 185.991 410.69 185.991L400.839 184.036H400.764L400.012 183.886L399.936 184.036L390.386 182.457C390.386 182.457 384.069 190.654 380.836 201.783C377.602 212.913 386.701 244.347 386.701 244.347C386.701 244.347 381.964 255.627 389.183 285.105Z" fill="#3F3730"/>
<path d="M425.124 149.218C424.823 143.352 406.474 145.909 406.474 145.909C406.474 145.909 394.592 137.562 390.908 140.269C389.629 141.246 389.028 146.811 388.802 153.654C387.448 156.136 386.245 159.821 388.652 163.13C388.727 173.131 389.178 182.682 389.178 182.682C399.556 190.578 410.61 186.667 410.61 186.667C410.61 186.667 414.972 177.342 418.957 167.942C421.514 165.912 422.04 162.904 421.965 160.422C423.845 155.384 425.199 151.098 425.124 149.218Z" fill="#CCE9FF"/>
<path d="M422.87 119.363C417.53 110.264 404.07 111.392 399.482 117.333C393.918 124.477 396.85 141.171 396.85 141.171C396.85 141.171 409.634 130.493 417.305 145.082C417.38 145.007 428.81 129.515 422.87 119.363Z" fill="#094971"/>
<path d="M388.802 296.76C389.103 294.579 388.351 293.075 388.877 292.023C389.779 290.443 390.682 292.474 390.682 292.474C390.757 289.992 394.893 289.992 395.269 291.12C395.344 291.421 395.495 291.722 395.645 291.947C395.871 291.346 396.322 290.744 396.923 291.12C399.104 292.474 396.397 295.858 398.352 298.339C400.909 301.498 399.33 306.235 399.33 306.235H387.147C385.719 299.543 388.426 298.941 388.802 296.76Z" fill="#0C476F"/>
<path d="M396.318 296.009C396.318 296.009 393.46 294.505 389.625 296.535L390.377 295.182C390.377 295.182 392.934 293.602 396.017 294.806L396.318 296.009Z" fill="#205260"/>
<path d="M396.771 298.265C396.771 298.265 392.635 296.836 388.875 298.866L389.627 297.437C389.627 297.437 393.237 295.858 396.32 297.061L396.771 298.265Z" fill="#205260"/>
<path d="M408.276 296.76C407.975 294.579 408.727 293.075 408.201 292.023C407.298 290.443 406.396 292.474 406.396 292.474C406.321 289.992 402.185 289.992 401.809 291.12C401.734 291.421 401.583 291.722 401.433 291.947C401.207 291.346 400.756 290.744 400.154 291.12C397.974 292.474 400.681 295.858 398.726 298.339C396.169 301.498 397.748 306.235 397.748 306.235H409.93C411.359 299.543 408.577 298.941 408.276 296.76Z" fill="#0C476F"/>
<path d="M400.758 296.009C400.758 296.009 403.615 294.505 407.451 296.535L406.699 295.182C406.699 295.182 404.142 293.602 401.134 294.806L400.758 296.009Z" fill="#205260"/>
<path d="M400.227 298.265C400.227 298.265 404.363 296.836 408.123 298.866L407.371 297.437C407.371 297.437 403.761 295.858 400.678 297.061L400.227 298.265Z" fill="#205260"/>
<path d="M405.574 132.825C405.574 132.825 406.101 139.217 403.469 144.932C403.469 144.932 405.65 148.918 411.515 146.511C411.515 146.511 410.538 141.022 414.373 134.555C417.005 130.268 405.574 132.825 405.574 132.825Z" fill="#F9CBBA"/>
<path d="M418.509 129.816C418.509 129.816 421.291 127.936 421.065 130.719C420.84 133.952 417.681 134.704 417.305 133.576C417.005 132.448 418.509 129.816 418.509 129.816Z" fill="#F9CBBA"/>
<path d="M402.112 126.958C402.112 126.958 400.232 124.176 399.405 126.883C398.502 129.966 401.134 131.771 401.886 130.869C402.563 129.966 402.112 126.958 402.112 126.958Z" fill="#F9CBBA"/>
<path d="M408.428 139.818C413.617 140.795 417.227 137.938 419.107 127.786C420.084 122.522 417.979 118.837 412.188 117.709C406.398 116.656 403.315 119.363 402.337 124.627C400.307 135.531 403.089 138.84 408.428 139.818Z" fill="#F9CBBA"/>
<path d="M406.625 123.649C406.7 123.725 406.85 123.725 406.925 123.649C407.753 123.048 409.031 123.273 409.031 123.273C409.181 123.273 409.332 123.198 409.332 123.048C409.332 122.897 409.257 122.747 409.106 122.747C409.031 122.747 407.602 122.446 406.549 123.198C406.474 123.349 406.474 123.499 406.625 123.649C406.625 123.649 406.549 123.649 406.625 123.649Z" fill="#FEBE56"/>
<path d="M401.739 128.688C401.739 128.688 399.558 122.371 403.469 117.183C407.379 111.994 417.982 115.829 419.938 119.815C421.893 123.8 418.058 131.847 418.058 131.847C418.058 131.847 420.99 121.168 415.125 119.439C415.125 119.439 414.373 122.146 409.786 124.026C405.274 125.906 402.566 125.605 402.566 125.605L401.739 128.688Z" fill="#094971"/>
<path d="M420.383 145.834C420.383 145.834 427.076 145.984 443.395 162.378C445.651 164.634 443.094 171.778 436.326 167.416C428.881 162.528 423.918 157.565 422.339 159.37C422.339 159.37 418.428 149.97 420.383 145.834Z" fill="#F9CBBA"/>
<path d="M444.374 161.476C444.299 155.987 440.012 142.3 436.628 136.66L433.695 138.014C433.695 138.014 436.929 153.43 436.553 158.619C436.102 163.883 437.756 167.417 441.291 168.169C444.825 168.921 444.374 162.604 444.374 161.476Z" fill="#F9CBBA"/>
<path d="M431.289 129.967C433.395 133.501 430.913 135.908 433.695 137.938C435.425 139.216 437.079 137.412 437.079 137.412C437.531 135.156 439.185 131.922 440.087 130.493C440.99 129.064 440.163 129.215 440.163 129.215C440.238 129.064 440.388 128.989 440.463 128.839C441.215 127.936 441.817 127.41 440.99 127.335C440.012 127.26 437.831 129.666 437.831 129.666C440.087 125.455 441.366 125.53 440.463 125.38C439.26 125.154 436.703 128.538 436.628 128.613C437.531 125.906 438.659 124.778 437.831 124.853C436.929 125.004 434.673 129.591 433.921 131.32C433.771 131.696 433.62 131.922 433.62 131.922C432.041 129.14 431.289 129.967 431.289 129.967Z" fill="#F9CBBA"/>
<path d="M433.848 131.471C433.697 131.847 433.547 132.072 433.547 132.072C433.547 132.072 434.75 132.824 434.675 134.629C434.675 134.629 435.652 132.824 433.848 131.471Z" fill="#F9CBBA"/>
<path d="M438.055 131.847C438.28 131.546 439.483 129.591 440.235 129.29C440.311 129.14 440.461 129.064 440.536 128.914C439.709 128.538 438.205 131.471 438.055 131.847Z" fill="#F9CBBA"/>
<path d="M393.169 139.819C393.169 139.819 386.551 138.39 367.15 151.174C364.442 152.904 365.495 160.499 373.09 157.566C381.362 154.333 387.679 150.422 388.807 152.528C388.807 152.453 394.222 144.256 393.169 139.819Z" fill="#F9CBBA"/>
<path d="M366.392 149.97C367.596 144.631 374.589 132.073 379.101 127.26L381.658 129.215C381.658 129.215 375.266 143.653 374.664 148.842C373.988 154.031 371.656 157.189 368.047 157.189C364.437 157.265 366.167 151.098 366.392 149.97Z" fill="#F9CBBA"/>
<path d="M385.641 121.92C382.858 124.928 384.813 127.786 381.655 129.29C379.7 130.192 378.421 128.087 378.421 128.087C378.421 125.756 377.444 122.296 376.842 120.642C376.241 119.063 377.068 119.364 377.068 119.364C376.993 119.213 376.917 119.063 376.842 118.988C376.316 117.935 375.789 117.333 376.692 117.408C377.669 117.559 379.324 120.341 379.324 120.341C377.97 115.754 376.692 115.528 377.669 115.604C378.948 115.679 380.677 119.439 380.753 119.514C380.452 116.656 379.549 115.303 380.377 115.604C381.204 115.904 382.482 120.868 382.933 122.748C383.009 123.199 383.084 123.424 383.084 123.424C385.114 120.868 385.641 121.92 385.641 121.92Z" fill="#F9CBBA"/>
<path d="M382.856 122.822C382.931 123.273 383.006 123.499 383.006 123.499C383.006 123.499 381.728 123.95 381.427 125.755C381.427 125.68 380.825 123.8 382.856 122.822Z" fill="#F9CBBA"/>
<path d="M378.719 122.372C378.568 121.996 377.741 119.815 377.14 119.364C377.064 119.214 376.989 119.063 376.914 118.988C377.741 118.762 378.568 121.921 378.719 122.372Z" fill="#F9CBBA"/>
<path d="M398.349 298.34C398.349 298.34 400.756 301.423 399.778 306.236H397.748C397.748 306.236 397.221 301.874 398.349 298.34Z" fill="#07262D"/>
<path d="M309.463 132.072C309.463 132.072 312.922 129.44 310.215 121.92C310.215 121.92 310.065 115.678 302.469 111.166C294.949 106.654 285.399 113.046 283.444 117.859C281.489 122.672 286.301 118.987 286.301 118.987C286.301 118.987 285.549 122.596 285.85 124.476C285.85 124.476 283.594 129.214 286.677 130.492C289.761 131.771 309.463 132.072 309.463 132.072Z" fill="#6236FF"/>
<path d="M318.562 291.722L313.524 292.925C313.524 292.925 305.628 250.512 303.823 246.075C302.244 242.24 295.551 227.426 293.37 216.07C293.295 216.146 292.543 215.995 291.641 215.845C291.415 215.77 291.189 215.77 290.889 215.694C290.663 215.619 290.437 215.619 290.137 215.544C289.911 226.824 287.505 240.811 286.753 244.722C285.85 249.459 286.301 292.624 286.301 292.624L281.113 292.474C271.261 257.506 276.45 244.421 276.45 244.421C276.45 244.421 267.426 212.987 270.585 201.858C271.637 198.173 272.991 194.789 274.194 192.006C274.269 191.781 274.42 191.555 274.495 191.33C276.901 186.066 279.082 182.832 279.082 182.832L289.685 184.186L289.761 184.035L290.061 184.11V187.419L291.415 187.344H291.716L296.077 187.118H296.679L300.514 186.893C300.514 186.893 302.845 190.578 306.079 196.443C306.229 196.669 306.305 196.894 306.455 197.12C307.583 199.226 308.937 201.632 310.215 204.189C315.479 214.491 313.674 243.894 313.674 243.894C313.674 243.894 321.42 255.55 318.562 291.722Z" fill="#F9CBBA"/>
<path d="M289.834 220.657C289.985 218.852 290.06 217.122 290.06 215.468C290.285 215.543 290.586 215.543 290.812 215.618C291.113 215.693 291.338 215.693 291.564 215.769C292.541 215.919 293.218 216.069 293.293 215.994C293.594 217.423 293.895 218.927 294.346 220.506C299.986 219.98 306.378 218.401 313.146 215.017C312.545 210.58 311.642 206.594 310.289 203.962C308.935 201.405 307.657 198.999 306.529 196.893C306.378 196.668 306.303 196.442 306.153 196.217C302.844 190.351 300.588 186.666 300.588 186.666L296.753 186.892H296.151L291.789 187.117H291.489L290.135 187.193V183.884L289.834 183.809L289.759 183.959L279.231 182.605C279.231 182.605 277.05 185.839 274.644 191.103C274.493 191.329 274.418 191.554 274.343 191.78C273.065 194.637 271.786 197.946 270.733 201.631C269.756 205.015 269.906 210.354 270.658 216.069C274.042 217.949 280.885 220.581 289.834 220.657Z" fill="#96A4AF"/>
<path d="M282.618 183.884C282.543 183.959 279.835 190.426 274.195 191.855C274.271 191.629 274.421 191.404 274.496 191.178C279.535 189.599 282.016 183.733 282.016 183.658L282.618 183.884Z" fill="#6097B2"/>
<path d="M306.533 196.895C300.216 195.542 296.982 188.924 296.155 186.894C296.005 186.518 295.93 186.292 295.93 186.292L296.456 186.066C296.456 186.066 296.531 186.367 296.757 186.818C297.659 188.924 300.592 194.714 306.157 196.143C306.232 196.444 306.382 196.67 306.533 196.895Z" fill="#6097B2"/>
<path d="M291.571 215.77C291.345 215.695 291.12 215.695 290.819 215.62C289.916 213.89 288.262 210.281 286.833 204.19C284.878 195.466 289.315 186.142 289.39 186.066L289.916 186.292C289.841 186.367 285.48 195.542 287.435 204.039C287.51 204.415 287.585 204.716 287.66 205.092C287.736 205.318 287.736 205.468 287.811 205.618C289.164 211.258 290.819 214.492 291.571 215.77Z" fill="#6097B2"/>
<path d="M287.505 205.693H287.43V205.166C287.73 205.166 288.106 205.016 288.332 204.715C288.708 204.264 289.535 202.91 288.858 199.601C287.956 195.165 291.265 187.344 291.415 187.043L291.942 187.269C291.942 187.344 288.558 195.24 289.385 199.526C290.062 202.985 289.234 204.489 288.708 205.091C288.407 205.467 287.956 205.693 287.505 205.693Z" fill="#6097B2"/>
<path d="M287.58 142.825C287.505 142.976 287.505 143.126 287.505 143.277C289.986 142.525 294.724 141.622 302.244 142.449C307.358 142.976 310.065 143.878 311.418 144.63C312.546 134.102 310.14 122.747 307.282 119.062C303.748 114.475 296.754 115.603 296.754 115.603C284.948 115.001 284.497 129.365 286.828 134.553C289.31 139.817 287.58 142.825 287.58 142.825Z" fill="#1E0F00"/>
<path d="M300.513 186.667C300.513 186.667 289.458 190.577 279.081 182.681C279.081 182.681 277.126 142.976 280.81 140.268C282.39 139.065 285.623 140.043 288.631 141.472C292.617 143.276 296.377 145.908 296.377 145.908C296.377 145.908 303.22 144.931 308.634 145.532C312.094 145.908 314.951 146.886 315.026 149.217C315.402 155.083 300.513 186.667 300.513 186.667Z" fill="#FF8B66"/>
<path d="M308.94 145.684C306.609 145.458 306.157 147.188 303.901 148.015C301.57 148.842 298.788 149.519 297.735 149.594C296.682 149.669 296.156 151.023 296.156 151.023C296.156 151.023 295.78 149.293 295.178 149.143C294.652 148.993 289.689 144.029 288.711 141.473C292.697 143.277 296.457 145.909 296.457 145.909C296.457 145.909 303.3 144.932 308.714 145.533C308.865 145.684 308.94 145.684 308.94 145.684Z" fill="#EF6E4B"/>
<path d="M278.708 296.76C279.009 294.579 278.257 293.075 278.784 292.023C279.686 290.443 280.588 292.474 280.588 292.474C280.664 289.992 284.8 289.992 285.176 291.12C285.251 291.421 285.401 291.722 285.552 291.947C285.777 291.346 286.228 290.744 286.83 291.12C289.011 292.474 286.304 295.858 288.259 298.339C290.816 301.498 289.236 306.235 289.236 306.235H277.054C275.625 299.543 278.408 298.941 278.708 296.76Z" fill="#D3D3D3"/>
<path d="M286.232 296.009C286.232 296.009 283.374 294.505 279.539 296.535L280.291 295.182C280.291 295.182 282.848 293.602 285.931 294.806L286.232 296.009Z" fill="#ADBEC4"/>
<path d="M286.755 298.265C286.755 298.265 282.619 296.836 278.859 298.866L279.611 297.437C279.611 297.437 283.221 295.858 286.304 297.061L286.755 298.265Z" fill="#ADBEC4"/>
<path d="M320.823 296.76C320.522 294.579 321.274 293.075 320.748 292.023C319.845 290.443 318.943 292.474 318.943 292.474C318.868 289.992 314.732 289.992 314.356 291.12C314.28 291.421 314.13 291.722 313.98 291.947C313.754 291.346 313.303 290.744 312.701 291.12C310.52 292.474 313.228 295.858 311.272 298.339C308.716 301.498 310.295 306.235 310.295 306.235H322.477C323.906 299.543 321.124 298.941 320.823 296.76Z" fill="#D3D3D3"/>
<path d="M313.227 296.009C313.227 296.009 316.084 294.505 319.919 296.535L319.167 295.182C319.167 295.182 316.611 293.602 313.527 294.806L313.227 296.009Z" fill="#ADBEC4"/>
<path d="M312.773 298.265C312.773 298.265 316.909 296.836 320.669 298.866L319.917 297.437C319.917 297.437 316.308 295.858 313.225 297.061L312.773 298.265Z" fill="#ADBEC4"/>
<path d="M295.551 132.823C295.551 132.823 296.453 143.426 293.445 144.93C293.445 144.93 295.626 148.916 301.492 146.509C301.492 146.509 300.514 141.02 304.349 134.553C306.981 130.266 295.551 132.823 295.551 132.823Z" fill="#F9CBBA"/>
<path d="M289.54 130.643C289.54 130.643 286.983 128.462 286.908 131.245C286.832 134.478 289.84 135.531 290.292 134.478C290.818 133.425 289.54 130.643 289.54 130.643Z" fill="#F9CBBA"/>
<path d="M299.012 141.397C304.276 141.021 306.984 137.337 306.232 127.034C305.856 121.695 302.848 118.612 296.982 119.063C291.041 119.514 288.86 122.973 289.236 128.313C290.064 139.442 293.598 141.849 299.012 141.397Z" fill="#F9CBBA"/>
<path d="M306.151 129.215C306.151 129.215 308.332 126.658 308.858 129.441C309.46 132.599 306.602 134.178 306.001 133.201C305.324 132.148 306.151 129.215 306.151 129.215Z" fill="#FF8B66"/>
<path d="M298.865 120.791C298.865 120.791 300.82 120.189 301.648 123.122C303.076 128.311 304.054 136.658 307.438 140.794C309.844 143.802 311.348 142.599 311.348 142.599C311.348 142.599 312.025 139.591 310.972 136.658C309.92 133.65 311.273 122.972 307.438 119.061C303.603 115.151 296.91 117.633 296.91 117.633C296.91 117.633 293.676 115.677 290.518 117.633C287.36 119.588 286.457 128.161 289.691 131.996C289.691 131.996 289.54 128.762 290.969 127.484C292.248 126.205 293.075 119.212 298.865 120.791Z" fill="#1E0F00"/>
<path d="M274.121 78.4544C272.918 82.3648 275.926 84.0944 273.67 86.8016C272.316 88.456 270.211 87.1024 270.211 87.1024C269.233 84.9968 266.827 82.2896 265.623 81.0864C264.42 79.8832 265.247 79.8832 265.247 79.8832C265.097 79.808 265.022 79.6576 264.871 79.5824C263.969 78.9056 263.217 78.5296 264.044 78.2288C265.022 77.928 267.729 79.7328 267.729 79.7328C264.571 76.1984 263.292 76.5744 264.195 76.1984C265.323 75.672 268.556 78.3792 268.631 78.4544C267.052 75.9728 265.699 75.2208 266.601 75.1456C267.503 75.0704 270.737 78.9808 271.94 80.4848C272.241 80.7856 272.391 81.0112 272.391 81.0112C273.219 77.7024 274.121 78.4544 274.121 78.4544Z" fill="#F9CBBA"/>
<path d="M272.019 80.4102C272.32 80.711 272.47 80.9366 272.47 80.9366C272.47 80.9366 271.493 81.9142 272.019 83.6438C271.944 83.6438 270.59 82.215 272.019 80.4102Z" fill="#F9CBBA"/>
<path d="M268.029 81.8378C267.728 81.537 266.073 79.9578 265.321 79.8074C265.171 79.7322 265.096 79.5818 264.945 79.5066C265.622 78.9802 267.728 81.4618 268.029 81.8378Z" fill="#F9CBBA"/>
<path d="M273.669 86.7266C273.669 86.7266 273.217 112.52 271.864 117.634C271.864 117.634 276.526 133.802 283.595 139.667C283.595 139.667 284.723 144.029 278.632 152.677C278.632 152.677 266.825 131.546 264.945 119.514L270.209 87.0274L273.669 86.7266Z" fill="#F9CBBA"/>
<path d="M289.162 141.697C289.763 143.803 290.064 151.323 297.208 155.158C304.352 158.993 311.947 153.353 313.978 147.262C313.978 147.262 314.805 145.983 317.662 149.142C317.662 149.142 332.477 156.286 334.357 160.046C336.237 163.806 335.109 178.019 329.168 178.244C323.227 178.47 316.083 171.852 314.203 176.214C312.323 180.575 301.344 195.991 278.558 183.583C278.558 183.583 275.701 179.974 275.701 176.815C275.701 173.657 274.272 152.526 274.272 152.526C274.272 152.526 265.85 150.119 267.955 130.267C267.955 130.267 273.746 133.5 273.595 122.897C273.595 122.897 278.333 120.716 279.987 129.59C281.04 135.531 286.906 139.892 286.906 139.892C286.906 139.892 288.259 138.463 289.162 141.697Z" fill="#6236FF"/>
<path d="M337.74 167.416C342.779 165.311 353.833 156.136 357.819 150.872L355.412 148.691C355.412 148.691 342.403 157.565 337.364 159.144C332.326 160.723 329.694 163.581 330.296 167.115C330.972 170.65 336.688 167.867 337.74 167.416Z" fill="#F9CBBA"/>
<path d="M361.875 143.428C359.393 146.737 356.235 145.308 355.408 148.692C354.881 150.797 357.137 151.625 357.137 151.625C359.393 151.249 363.003 151.474 364.733 151.775C366.387 152.076 365.936 151.324 365.936 151.324C366.086 151.399 366.237 151.399 366.387 151.474C367.515 151.775 368.267 152.226 367.966 151.399C367.665 150.421 364.582 149.369 364.582 149.369C369.32 149.895 369.771 151.098 369.545 150.196C369.245 148.993 365.259 147.94 365.109 147.865C367.966 147.714 369.47 148.316 369.019 147.564C368.568 146.812 363.454 146.436 361.574 146.361C361.123 146.361 360.897 146.361 360.897 146.361C363.003 143.729 361.875 143.428 361.875 143.428Z" fill="#F9CBBA"/>
<path d="M361.499 146.285C361.048 146.285 360.822 146.285 360.822 146.285C360.822 146.285 360.597 147.639 358.867 148.24C358.942 148.24 360.898 148.466 361.499 146.285Z" fill="#F9CBBA"/>
<path d="M362.703 150.346C363.079 150.421 365.335 150.872 365.937 151.398C366.087 151.474 366.238 151.474 366.388 151.549C366.388 150.646 363.23 150.346 362.703 150.346Z" fill="#F9CBBA"/>
<path d="M290.143 114.626L286.232 121.244V123.124L285.931 124.477C285.931 124.477 284.803 128.388 285.555 129.516C286.307 130.568 288.864 125.154 291.271 122.522C293.677 119.89 297.287 118.386 302.024 119.74C306.762 121.093 309.319 124.552 310.823 128.463L309.77 121.244L306.611 116.356C306.611 116.356 304.13 116.205 304.13 115.453C304.13 114.701 298.791 114.1 298.791 114.1L290.143 114.626Z" fill="#6236FF"/>
<path d="M281.114 146.284C281.114 146.284 273.745 154.481 269.759 147.638C265.774 140.795 259.306 121.168 262.089 106.955C264.871 92.8171 268.556 90.1099 268.556 90.1099C268.556 90.1099 273.068 88.3051 274.271 91.2379C275.474 94.1707 276.978 104.774 278.031 115.528C279.084 126.281 280.062 130.643 281.114 133.425C282.167 136.283 283.972 138.313 283.671 138.313C283.37 138.313 281.49 146.284 281.49 146.284H281.114Z" fill="#6236FF"/>
<path d="M355.939 153.054C353.457 152.753 353.081 150.196 353.081 150.196V150.121C351.953 149.444 350.675 149.068 349.622 149.444C346.388 150.572 334.281 158.092 328.039 154.708C321.723 151.324 317.436 161.476 317.436 161.476C317.436 161.476 310.067 174.185 327.513 178.02C344.959 181.93 356.239 157.415 356.691 155.385C356.766 154.783 356.465 153.956 355.939 153.054Z" fill="#6236FF"/>
<path d="M285.172 146.736L288.706 141.021C288.706 141.021 290.21 139.818 291.714 141.021C293.218 142.224 294.196 144.33 294.196 144.33C294.196 144.33 293.745 147.563 297.505 147.714C301.265 147.864 301.49 145.458 301.49 145.458C301.49 145.458 309.537 144.33 312.545 145.909C315.553 147.488 315.402 149.519 315.402 149.519L310.364 159.52L293.895 160.573L286.074 156.061L285.172 146.736Z" fill="#6236FF"/>
<path d="M270.283 215.168C270.283 215.168 277.954 218.477 282.842 219.078C287.73 219.68 289.835 219.454 290.061 219.68C290.286 219.906 290.362 221.786 290.061 221.936C289.76 222.086 283.594 222.086 278.405 220.658C273.216 219.229 270.659 218.326 270.208 218.101C269.757 217.875 269.907 215.318 270.283 215.168Z" fill="#CCE9FF"/>
<path d="M293.969 219.679C293.743 219.98 294.27 221.559 294.495 221.785C294.721 222.01 300.06 221.183 305.099 219.679C310.137 218.175 312.919 216.972 313.22 216.596C313.521 216.22 313.296 214.19 312.92 214.34C312.544 214.49 304.948 217.122 302.843 217.649C300.737 218.175 293.969 219.679 293.969 219.679Z" fill="#CCE9FF"/>
</svg>
